<svg width="345" height="205" viewBox="0 0 345 205" fill="none" xmlns="http://www.w3.org/2000/svg">
<path opacity="0.8" d="M26 12.5H337" stroke="#534D66"/>
<path d="M34 131L85.9549 112.897L117.617 90.5698L165.306 85.4173L186.023 75.6848L217.676 60.7998H262.247L333 75.6848" stroke="#9975FF" stroke-width="1.5" stroke-linecap="round" stroke-linejoin="round"/>
<rect x="310" y="52" width="34" height="28" rx="4" fill="#FF2629"/>
<path d="M325.256 66.915C325.496 67.365 325.616 67.94 325.616 68.64C325.616 69.22 325.521 69.74 325.331 70.2C325.071 70.79 324.666 71.255 324.116 71.595C323.566 71.935 322.916 72.105 322.166 72.105C321.396 72.105 320.731 71.93 320.171 71.58C319.611 71.22 319.206 70.725 318.956 70.095C318.776 69.655 318.686 69.165 318.686 68.625V64.11C318.686 63.57 318.826 63.095 319.106 62.685C319.396 62.265 319.796 61.945 320.306 61.725C320.816 61.495 321.401 61.38 322.061 61.38C322.711 61.38 323.286 61.495 323.786 61.725C324.286 61.945 324.671 62.26 324.941 62.67C325.221 63.07 325.361 63.535 325.361 64.065V64.485C325.361 64.535 325.341 64.58 325.301 64.62C325.271 64.65 325.231 64.665 325.181 64.665H323.426C323.376 64.665 323.331 64.65 323.291 64.62C323.261 64.58 323.246 64.535 323.246 64.485V64.35C323.246 64.02 323.136 63.745 322.916 63.525C322.696 63.305 322.411 63.195 322.061 63.195C321.691 63.195 321.386 63.31 321.146 63.54C320.916 63.76 320.801 64.045 320.801 64.395V65.805C320.801 65.835 320.811 65.855 320.831 65.865C320.851 65.865 320.871 65.855 320.891 65.835C321.301 65.485 321.846 65.31 322.526 65.31C323.126 65.31 323.661 65.45 324.131 65.73C324.611 66 324.986 66.395 325.256 66.915ZM323.276 69.615C323.426 69.355 323.501 69.04 323.501 68.67C323.501 68.27 323.421 67.94 323.261 67.68C323.011 67.28 322.646 67.08 322.166 67.08C321.626 67.08 321.251 67.285 321.041 67.695C320.891 67.955 320.816 68.29 320.816 68.7C320.816 69.06 320.881 69.365 321.011 69.615C321.231 70.055 321.611 70.275 322.151 70.275C322.671 70.275 323.046 70.055 323.276 69.615ZM335.052 67.425C335.102 67.425 335.142 67.445 335.172 67.485C335.212 67.515 335.232 67.555 335.232 67.605V69.12C335.232 69.17 335.212 69.215 335.172 69.255C335.142 69.285 335.102 69.3 335.052 69.3H334.407C334.357 69.3 334.332 69.325 334.332 69.375V71.82C334.332 71.87 334.312 71.915 334.272 71.955C334.242 71.985 334.202 72 334.152 72H332.397C332.347 72 332.302 71.985 332.262 71.955C332.232 71.915 332.217 71.87 332.217 71.82V69.375C332.217 69.325 332.192 69.3 332.142 69.3H327.537C327.487 69.3 327.442 69.285 327.402 69.255C327.372 69.215 327.357 69.17 327.357 69.12V67.92C327.357 67.86 327.372 67.785 327.402 67.695L330.102 61.635C330.142 61.545 330.212 61.5 330.312 61.5H332.187C332.257 61.5 332.302 61.52 332.322 61.56C332.352 61.59 332.352 61.64 332.322 61.71L329.817 67.335C329.807 67.355 329.807 67.375 329.817 67.395C329.827 67.415 329.842 67.425 329.862 67.425H332.142C332.192 67.425 332.217 67.4 332.217 67.35V65.49C332.217 65.44 332.232 65.4 332.262 65.37C332.302 65.33 332.347 65.31 332.397 65.31H334.152C334.202 65.31 334.242 65.33 334.272 65.37C334.312 65.4 334.332 65.44 334.332 65.49V67.35C334.332 67.4 334.357 67.425 334.407 67.425H335.052Z" fill="#1A161E"/>
<path opacity="0.8" d="M28 176H339" stroke="#534D66"/>
<path d="M31.5379 195.099C31.0026 195.099 30.5296 194.989 30.1189 194.769C29.7083 194.549 29.3893 194.241 29.1619 193.845C28.9346 193.442 28.8209 192.98 28.8209 192.459V189.841C28.8209 189.32 28.9346 188.862 29.1619 188.466C29.3893 188.07 29.7083 187.762 30.1189 187.542C30.5296 187.322 31.0026 187.212 31.5379 187.212C32.0806 187.212 32.5573 187.322 32.9679 187.542C33.3786 187.762 33.6976 188.07 33.9249 188.466C34.1523 188.862 34.2659 189.32 34.2659 189.841V192.459C34.2659 192.98 34.1523 193.442 33.9249 193.845C33.6976 194.241 33.3786 194.549 32.9679 194.769C32.5573 194.989 32.0806 195.099 31.5379 195.099ZM31.5379 194.186C32.0366 194.186 32.4399 194.032 32.7479 193.724C33.0559 193.416 33.2099 193.009 33.2099 192.503V189.83C33.2099 189.317 33.0559 188.906 32.7479 188.598C32.4399 188.283 32.0366 188.125 31.5379 188.125C31.0393 188.125 30.6359 188.283 30.3279 188.598C30.0273 188.906 29.8769 189.317 29.8769 189.83V192.503C29.8769 193.009 30.0273 193.416 30.3279 193.724C30.6359 194.032 31.0393 194.186 31.5379 194.186ZM38.3477 195.099C37.8197 195.099 37.3504 194.996 36.9397 194.791C36.5364 194.578 36.221 194.281 35.9937 193.9C35.7737 193.511 35.6637 193.068 35.6637 192.569V189.72C35.6637 189.221 35.7737 188.785 35.9937 188.411C36.221 188.03 36.5364 187.736 36.9397 187.531C37.3504 187.318 37.8197 187.212 38.3477 187.212C38.8757 187.212 39.3414 187.315 39.7447 187.52C40.148 187.718 40.4597 188 40.6797 188.367C40.907 188.734 41.0207 189.159 41.0207 189.643V189.654C41.0207 189.691 41.0097 189.72 40.9877 189.742C40.9657 189.764 40.94 189.775 40.9107 189.775L40.0747 189.819C40.0014 189.819 39.9647 189.786 39.9647 189.72V189.687C39.9647 189.218 39.818 188.84 39.5247 188.554C39.2314 188.268 38.839 188.125 38.3477 188.125C37.8564 188.125 37.4604 188.268 37.1597 188.554C36.8664 188.84 36.7197 189.218 36.7197 189.687V192.613C36.7197 193.082 36.8664 193.46 37.1597 193.746C37.4604 194.032 37.8564 194.175 38.3477 194.175C38.839 194.175 39.2314 194.032 39.5247 193.746C39.818 193.46 39.9647 193.082 39.9647 192.613V192.591C39.9647 192.525 40.0014 192.492 40.0747 192.492L40.9107 192.536C40.984 192.536 41.0207 192.573 41.0207 192.646C41.0207 193.13 40.907 193.559 40.6797 193.933C40.4597 194.3 40.148 194.586 39.7447 194.791C39.3414 194.996 38.8757 195.099 38.3477 195.099ZM47.3527 187.3C47.426 187.3 47.4627 187.337 47.4627 187.41V188.114C47.4627 188.187 47.426 188.224 47.3527 188.224H45.2407C45.2113 188.224 45.1967 188.239 45.1967 188.268V194.89C45.1967 194.963 45.16 195 45.0867 195H44.2507C44.1773 195 44.1407 194.963 44.1407 194.89V188.268C44.1407 188.239 44.126 188.224 44.0967 188.224H42.0837C42.0103 188.224 41.9737 188.187 41.9737 188.114V187.41C41.9737 187.337 42.0103 187.3 42.0837 187.3H47.3527Z" fill="#D1CAE5"/>
<path d="M90.757 187.41C90.757 187.337 90.7937 187.3 90.867 187.3H91.703C91.7763 187.3 91.813 187.337 91.813 187.41V194.89C91.813 194.963 91.7763 195 91.703 195H90.9C90.8487 195 90.8047 194.974 90.768 194.923L87.325 189.302C87.3177 189.28 87.3067 189.273 87.292 189.28C87.2773 189.28 87.27 189.291 87.27 189.313L87.281 194.89C87.281 194.963 87.2443 195 87.171 195H86.335C86.2617 195 86.225 194.963 86.225 194.89V187.41C86.225 187.337 86.2617 187.3 86.335 187.3H87.149C87.2003 187.3 87.2443 187.326 87.281 187.377L90.713 192.998C90.7203 193.02 90.7313 193.031 90.746 193.031C90.7607 193.024 90.768 193.009 90.768 192.987L90.757 187.41ZM96.1344 195.099C95.599 195.099 95.126 194.989 94.7154 194.769C94.3047 194.549 93.9857 194.241 93.7584 193.845C93.531 193.442 93.4174 192.98 93.4174 192.459V189.841C93.4174 189.32 93.531 188.862 93.7584 188.466C93.9857 188.07 94.3047 187.762 94.7154 187.542C95.126 187.322 95.599 187.212 96.1344 187.212C96.677 187.212 97.1537 187.322 97.5644 187.542C97.975 187.762 98.294 188.07 98.5214 188.466C98.7487 188.862 98.8624 189.32 98.8624 189.841V192.459C98.8624 192.98 98.7487 193.442 98.5214 193.845C98.294 194.241 97.975 194.549 97.5644 194.769C97.1537 194.989 96.677 195.099 96.1344 195.099ZM96.1344 194.186C96.633 194.186 97.0364 194.032 97.3444 193.724C97.6524 193.416 97.8064 193.009 97.8064 192.503V189.83C97.8064 189.317 97.6524 188.906 97.3444 188.598C97.0364 188.283 96.633 188.125 96.1344 188.125C95.6357 188.125 95.2324 188.283 94.9244 188.598C94.6237 188.906 94.4734 189.317 94.4734 189.83V192.503C94.4734 193.009 94.6237 193.416 94.9244 193.724C95.2324 194.032 95.6357 194.186 96.1344 194.186ZM102.319 195C102.253 195 102.209 194.971 102.187 194.912L99.8335 187.421L99.8225 187.377C99.8225 187.326 99.8555 187.3 99.9215 187.3H100.812C100.878 187.3 100.922 187.329 100.944 187.388L102.759 193.471C102.767 193.486 102.778 193.493 102.792 193.493C102.807 193.493 102.818 193.486 102.825 193.471L104.64 187.388C104.662 187.329 104.703 187.3 104.761 187.3H105.63C105.711 187.3 105.74 187.34 105.718 187.421L103.342 194.912C103.32 194.971 103.276 195 103.21 195H102.319Z" fill="#D1CAE5"/>
<path d="M144.884 195C144.811 195 144.774 194.963 144.774 194.89V187.41C144.774 187.337 144.811 187.3 144.884 187.3H147.546C148.309 187.3 148.917 187.502 149.372 187.905C149.827 188.301 150.054 188.833 150.054 189.5V192.8C150.054 193.467 149.827 194.003 149.372 194.406C148.917 194.802 148.309 195 147.546 195H144.884ZM145.83 194.043C145.83 194.072 145.845 194.087 145.874 194.087H147.59C148.015 194.087 148.353 193.959 148.602 193.702C148.859 193.438 148.991 193.086 148.998 192.646V189.654C148.998 189.214 148.87 188.866 148.613 188.609C148.364 188.345 148.023 188.213 147.59 188.213H145.874C145.845 188.213 145.83 188.228 145.83 188.257V194.043ZM156.689 188.103C156.689 188.176 156.652 188.213 156.579 188.213H152.674C152.645 188.213 152.63 188.228 152.63 188.257V190.622C152.63 190.651 152.645 190.666 152.674 190.666H155.358C155.431 190.666 155.468 190.703 155.468 190.776V191.469C155.468 191.542 155.431 191.579 155.358 191.579H152.674C152.645 191.579 152.63 191.594 152.63 191.623V194.043C152.63 194.072 152.645 194.087 152.674 194.087H156.579C156.652 194.087 156.689 194.124 156.689 194.197V194.89C156.689 194.963 156.652 195 156.579 195H151.684C151.611 195 151.574 194.963 151.574 194.89V187.41C151.574 187.337 151.611 187.3 151.684 187.3H156.579C156.652 187.3 156.689 187.337 156.689 187.41V188.103ZM160.623 195.099C160.095 195.099 159.626 194.996 159.215 194.791C158.812 194.578 158.496 194.281 158.269 193.9C158.049 193.511 157.939 193.068 157.939 192.569V189.72C157.939 189.221 158.049 188.785 158.269 188.411C158.496 188.03 158.812 187.736 159.215 187.531C159.626 187.318 160.095 187.212 160.623 187.212C161.151 187.212 161.617 187.315 162.02 187.52C162.423 187.718 162.735 188 162.955 188.367C163.182 188.734 163.296 189.159 163.296 189.643V189.654C163.296 189.691 163.285 189.72 163.263 189.742C163.241 189.764 163.215 189.775 163.186 189.775L162.35 189.819C162.277 189.819 162.24 189.786 162.24 189.72V189.687C162.24 189.218 162.093 188.84 161.8 188.554C161.507 188.268 161.114 188.125 160.623 188.125C160.132 188.125 159.736 188.268 159.435 188.554C159.142 188.84 158.995 189.218 158.995 189.687V192.613C158.995 193.082 159.142 193.46 159.435 193.746C159.736 194.032 160.132 194.175 160.623 194.175C161.114 194.175 161.507 194.032 161.8 193.746C162.093 193.46 162.24 193.082 162.24 192.613V192.591C162.24 192.525 162.277 192.492 162.35 192.492L163.186 192.536C163.259 192.536 163.296 192.573 163.296 192.646C163.296 193.13 163.182 193.559 162.955 193.933C162.735 194.3 162.423 194.586 162.02 194.791C161.617 194.996 161.151 195.099 160.623 195.099Z" fill="#D1CAE5"/>
<path d="M204.685 195.088C204.165 195.088 203.706 194.989 203.31 194.791C202.922 194.593 202.621 194.314 202.408 193.955C202.196 193.596 202.089 193.181 202.089 192.712V191.931C202.089 191.858 202.126 191.821 202.199 191.821H203.035C203.109 191.821 203.145 191.858 203.145 191.931V192.712C203.145 193.152 203.285 193.508 203.563 193.779C203.842 194.043 204.216 194.175 204.685 194.175C205.14 194.175 205.51 194.043 205.796 193.779C206.082 193.508 206.225 193.152 206.225 192.712V187.41C206.225 187.337 206.262 187.3 206.335 187.3H207.171C207.245 187.3 207.281 187.337 207.281 187.41V192.712C207.281 193.181 207.171 193.596 206.951 193.955C206.739 194.314 206.434 194.593 206.038 194.791C205.642 194.989 205.191 195.088 204.685 195.088ZM213.633 195C213.567 195 213.523 194.971 213.501 194.912L213.105 193.625C213.097 193.603 213.083 193.592 213.061 193.592H209.97C209.948 193.592 209.933 193.603 209.926 193.625L209.53 194.912C209.508 194.971 209.464 195 209.398 195H208.507C208.426 195 208.397 194.96 208.419 194.879L210.828 187.388C210.85 187.329 210.894 187.3 210.96 187.3H212.06C212.126 187.3 212.17 187.329 212.192 187.388L214.623 194.879L214.634 194.923C214.634 194.974 214.601 195 214.535 195H213.633ZM210.201 192.701C210.193 192.716 210.193 192.73 210.201 192.745C210.215 192.752 210.23 192.756 210.245 192.756H212.775C212.789 192.756 212.8 192.752 212.808 192.745C212.822 192.73 212.826 192.716 212.819 192.701L211.543 188.62C211.535 188.605 211.524 188.598 211.51 188.598C211.495 188.598 211.484 188.605 211.477 188.62L210.201 192.701ZM220.418 187.41C220.418 187.337 220.455 187.3 220.528 187.3H221.364C221.438 187.3 221.474 187.337 221.474 187.41V194.89C221.474 194.963 221.438 195 221.364 195H220.561C220.51 195 220.466 194.974 220.429 194.923L216.986 189.302C216.979 189.28 216.968 189.273 216.953 189.28C216.939 189.28 216.931 189.291 216.931 189.313L216.942 194.89C216.942 194.963 216.906 195 216.832 195H215.996C215.923 195 215.886 194.963 215.886 194.89V187.41C215.886 187.337 215.923 187.3 215.996 187.3H216.81C216.862 187.3 216.906 187.326 216.942 187.377L220.374 192.998C220.382 193.02 220.393 193.031 220.407 193.031C220.422 193.024 220.429 193.009 220.429 192.987L220.418 187.41Z" fill="#D1CAE5"/>
<path d="M265.977 188.103C265.977 188.176 265.94 188.213 265.867 188.213H261.973C261.944 188.213 261.929 188.228 261.929 188.257V190.622C261.929 190.651 261.944 190.666 261.973 190.666H264.646C264.719 190.666 264.756 190.703 264.756 190.776V191.469C264.756 191.542 264.719 191.579 264.646 191.579H261.973C261.944 191.579 261.929 191.594 261.929 191.623V194.89C261.929 194.963 261.892 195 261.819 195H260.983C260.91 195 260.873 194.963 260.873 194.89V187.41C260.873 187.337 260.91 187.3 260.983 187.3H265.867C265.94 187.3 265.977 187.337 265.977 187.41V188.103ZM272.208 188.103C272.208 188.176 272.171 188.213 272.098 188.213H268.193C268.163 188.213 268.149 188.228 268.149 188.257V190.622C268.149 190.651 268.163 190.666 268.193 190.666H270.877C270.95 190.666 270.987 190.703 270.987 190.776V191.469C270.987 191.542 270.95 191.579 270.877 191.579H268.193C268.163 191.579 268.149 191.594 268.149 191.623V194.043C268.149 194.072 268.163 194.087 268.193 194.087H272.098C272.171 194.087 272.208 194.124 272.208 194.197V194.89C272.208 194.963 272.171 195 272.098 195H267.203C267.129 195 267.093 194.963 267.093 194.89V187.41C267.093 187.337 267.129 187.3 267.203 187.3H272.098C272.171 187.3 272.208 187.337 272.208 187.41V188.103ZM277.77 190.985C277.733 191.007 277.733 191.029 277.77 191.051C278.547 191.381 278.936 191.993 278.936 192.888C278.936 193.563 278.712 194.083 278.265 194.45C277.818 194.817 277.235 195 276.516 195H273.777C273.704 195 273.667 194.963 273.667 194.89V187.41C273.667 187.337 273.704 187.3 273.777 187.3H276.428C277.191 187.3 277.781 187.476 278.199 187.828C278.624 188.173 278.837 188.679 278.837 189.346C278.837 190.138 278.481 190.684 277.77 190.985ZM274.767 188.213C274.738 188.213 274.723 188.228 274.723 188.257V190.578C274.723 190.607 274.738 190.622 274.767 190.622H276.428C276.853 190.622 277.187 190.516 277.429 190.303C277.678 190.09 277.803 189.801 277.803 189.434C277.803 189.06 277.678 188.763 277.429 188.543C277.187 188.323 276.853 188.213 276.428 188.213H274.767ZM276.516 194.076C276.934 194.076 277.264 193.962 277.506 193.735C277.755 193.5 277.88 193.185 277.88 192.789C277.88 192.393 277.755 192.081 277.506 191.854C277.257 191.619 276.916 191.502 276.483 191.502H274.767C274.738 191.502 274.723 191.517 274.723 191.546V194.032C274.723 194.061 274.738 194.076 274.767 194.076H276.516Z" fill="#D1CAE5"/>
<path d="M323.116 187.366C323.153 187.322 323.197 187.3 323.248 187.3H324.084C324.157 187.3 324.194 187.337 324.194 187.41V194.89C324.194 194.963 324.157 195 324.084 195H323.248C323.175 195 323.138 194.963 323.138 194.89V189.258C323.138 189.236 323.131 189.221 323.116 189.214C323.101 189.207 323.09 189.214 323.083 189.236L321.51 191.634C321.481 191.678 321.437 191.7 321.378 191.7H320.96C320.909 191.7 320.865 191.678 320.828 191.634L319.244 189.258C319.237 189.236 319.226 189.229 319.211 189.236C319.196 189.243 319.189 189.258 319.189 189.28V194.89C319.189 194.963 319.152 195 319.079 195H318.243C318.17 195 318.133 194.963 318.133 194.89V187.41C318.133 187.337 318.17 187.3 318.243 187.3H319.079C319.138 187.3 319.182 187.322 319.211 187.366L321.136 190.248C321.143 190.255 321.154 190.259 321.169 190.259C321.184 190.259 321.195 190.255 321.202 190.248L323.116 187.366ZM330.671 195C330.605 195 330.561 194.971 330.539 194.912L330.143 193.625C330.136 193.603 330.121 193.592 330.099 193.592H327.008C326.986 193.592 326.972 193.603 326.964 193.625L326.568 194.912C326.546 194.971 326.502 195 326.436 195H325.545C325.465 195 325.435 194.96 325.457 194.879L327.866 187.388C327.888 187.329 327.932 187.3 327.998 187.3H329.098C329.164 187.3 329.208 187.329 329.23 187.388L331.661 194.879L331.672 194.923C331.672 194.974 331.639 195 331.573 195H330.671ZM327.239 192.701C327.232 192.716 327.232 192.73 327.239 192.745C327.254 192.752 327.269 192.756 327.283 192.756H329.813C329.828 192.756 329.839 192.752 329.846 192.745C329.861 192.73 329.865 192.716 329.857 192.701L328.581 188.62C328.574 188.605 328.563 188.598 328.548 188.598C328.534 188.598 328.523 188.605 328.515 188.62L327.239 192.701ZM337.314 195C337.255 195 337.215 194.974 337.193 194.923L335.653 191.634C335.646 191.612 335.631 191.601 335.609 191.601H334.025C333.996 191.601 333.981 191.616 333.981 191.645V194.89C333.981 194.963 333.944 195 333.871 195H333.035C332.962 195 332.925 194.963 332.925 194.89V187.41C332.925 187.337 332.962 187.3 333.035 187.3H335.994C336.434 187.3 336.819 187.392 337.149 187.575C337.486 187.758 337.747 188.015 337.93 188.345C338.113 188.675 338.205 189.056 338.205 189.489C338.205 190.002 338.069 190.439 337.798 190.798C337.534 191.15 337.164 191.388 336.687 191.513C336.658 191.528 336.65 191.546 336.665 191.568L338.26 194.868C338.267 194.883 338.271 194.901 338.271 194.923C338.271 194.974 338.242 195 338.183 195H337.314ZM334.025 188.213C333.996 188.213 333.981 188.228 333.981 188.257V190.721C333.981 190.75 333.996 190.765 334.025 190.765H335.862C336.251 190.765 336.562 190.651 336.797 190.424C337.032 190.189 337.149 189.881 337.149 189.5C337.149 189.111 337.032 188.8 336.797 188.565C336.562 188.33 336.251 188.213 335.862 188.213H334.025Z" fill="#D1CAE5"/>
<path d="M3.54188 10.333C3.58588 10.311 3.63354 10.3 3.68488 10.3H4.55388C4.62721 10.3 4.66388 10.3367 4.66388 10.41V17.89C4.66388 17.9633 4.62721 18 4.55388 18H3.71788C3.64454 18 3.60788 17.9633 3.60788 17.89V11.433C3.60788 11.4183 3.60054 11.4073 3.58588 11.4C3.57854 11.3927 3.56754 11.3927 3.55288 11.4L2.39787 11.796C2.38321 11.8033 2.36488 11.807 2.34288 11.807C2.29888 11.807 2.27321 11.7777 2.26588 11.719L2.22188 11.092C2.22188 11.0187 2.24388 10.9747 2.28788 10.96L3.54188 10.333ZM8.64106 18.11C7.9004 18.11 7.31006 17.901 6.87006 17.483C6.4374 17.0577 6.22106 16.4893 6.22106 15.778V12.522C6.22106 11.8107 6.4374 11.246 6.87006 10.828C7.31006 10.41 7.9004 10.201 8.64106 10.201C9.38173 10.201 9.97206 10.41 10.4121 10.828C10.8594 11.246 11.0831 11.8107 11.0831 12.522V15.778C11.0831 16.4893 10.8594 17.0577 10.4121 17.483C9.97206 17.901 9.38173 18.11 8.64106 18.11ZM8.64106 17.197C9.0664 17.197 9.40373 17.076 9.65306 16.834C9.9024 16.5847 10.0271 16.2547 10.0271 15.844V12.478C10.0271 12.0673 9.9024 11.741 9.65306 11.499C9.40373 11.2497 9.0664 11.125 8.64106 11.125C8.2304 11.125 7.9004 11.2497 7.65106 11.499C7.40173 11.741 7.27706 12.0673 7.27706 12.478V15.844C7.27706 16.2547 7.40173 16.5847 7.65106 16.834C7.9004 17.076 8.2304 17.197 8.64106 17.197ZM14.8715 18.11C14.1309 18.11 13.5405 17.901 13.1005 17.483C12.6679 17.0577 12.4515 16.4893 12.4515 15.778V12.522C12.4515 11.8107 12.6679 11.246 13.1005 10.828C13.5405 10.41 14.1309 10.201 14.8715 10.201C15.6122 10.201 16.2025 10.41 16.6425 10.828C17.0899 11.246 17.3135 11.8107 17.3135 12.522V15.778C17.3135 16.4893 17.0899 17.0577 16.6425 17.483C16.2025 17.901 15.6122 18.11 14.8715 18.11ZM14.8715 17.197C15.2969 17.197 15.6342 17.076 15.8835 16.834C16.1329 16.5847 16.2575 16.2547 16.2575 15.844V12.478C16.2575 12.0673 16.1329 11.741 15.8835 11.499C15.6342 11.2497 15.2969 11.125 14.8715 11.125C14.4609 11.125 14.1309 11.2497 13.8815 11.499C13.6322 11.741 13.5075 12.0673 13.5075 12.478V15.844C13.5075 16.2547 13.6322 16.5847 13.8815 16.834C14.1309 17.076 14.4609 17.197 14.8715 17.197Z" fill="#D1CAE5"/>
<path d="M8.48629 58C8.44962 58 8.42029 57.989 8.39829 57.967C8.38362 57.9377 8.38362 57.9047 8.39829 57.868L10.8953 51.268C10.9026 51.2533 10.9026 51.2423 10.8953 51.235C10.888 51.2203 10.877 51.213 10.8623 51.213H8.21129C8.18196 51.213 8.16729 51.2277 8.16729 51.257V51.774C8.16729 51.8473 8.13062 51.884 8.05729 51.884H7.39729C7.32396 51.884 7.28729 51.8473 7.28729 51.774V50.41C7.28729 50.3367 7.32396 50.3 7.39729 50.3H11.9183C11.9916 50.3 12.0283 50.3367 12.0283 50.41V51.147C12.0283 51.1763 12.021 51.2203 12.0063 51.279L9.52029 57.912C9.49829 57.9707 9.45796 58 9.39929 58H8.48629ZM17.3902 54.59C17.4709 54.9127 17.5112 55.2463 17.5112 55.591C17.5112 55.9357 17.4672 56.2547 17.3792 56.548C17.2399 57.0173 16.9722 57.3913 16.5762 57.67C16.1875 57.9413 15.7219 58.077 15.1792 58.077C14.6439 58.077 14.1855 57.945 13.8042 57.681C13.4229 57.417 13.1552 57.0577 13.0012 56.603C12.9279 56.3977 12.8875 56.218 12.8802 56.064V56.042C12.8802 55.9833 12.9132 55.954 12.9792 55.954H13.8482C13.9142 55.954 13.9509 55.987 13.9582 56.053C13.9655 56.1043 13.9839 56.1813 14.0132 56.284C14.0939 56.5553 14.2332 56.7717 14.4312 56.933C14.6365 57.087 14.8822 57.164 15.1682 57.164C15.4689 57.164 15.7219 57.0833 15.9272 56.922C16.1399 56.7533 16.2829 56.5223 16.3562 56.229C16.4075 56.075 16.4332 55.8623 16.4332 55.591C16.4332 55.349 16.4112 55.1253 16.3672 54.92C16.3159 54.6413 16.1839 54.4287 15.9712 54.282C15.7659 54.128 15.5092 54.051 15.2012 54.051C14.9152 54.051 14.6585 54.117 14.4312 54.249C14.2039 54.3737 14.0572 54.5423 13.9912 54.755C13.9692 54.821 13.9289 54.854 13.8702 54.854H12.9902C12.9169 54.854 12.8802 54.8173 12.8802 54.744V50.41C12.8802 50.3367 12.9169 50.3 12.9902 50.3H17.1042C17.1775 50.3 17.2142 50.3367 17.2142 50.41V51.103C17.2142 51.1763 17.1775 51.213 17.1042 51.213H13.9802C13.9509 51.213 13.9362 51.2277 13.9362 51.257L13.9252 53.556C13.9252 53.6 13.9435 53.611 13.9802 53.589C14.1562 53.435 14.3579 53.3213 14.5852 53.248C14.8199 53.1673 15.0655 53.127 15.3222 53.127C15.8355 53.127 16.2755 53.2553 16.6422 53.512C17.0162 53.7687 17.2655 54.128 17.3902 54.59Z" fill="#D1CAE5"/>
<path d="M11.1597 94.59C11.2404 94.9127 11.2807 95.2463 11.2807 95.591C11.2807 95.9357 11.2367 96.2547 11.1487 96.548C11.0094 97.0173 10.7417 97.3913 10.3457 97.67C9.95705 97.9413 9.49139 98.077 8.94872 98.077C8.41339 98.077 7.95505 97.945 7.57372 97.681C7.19239 97.417 6.92472 97.0577 6.77072 96.603C6.69739 96.3977 6.65705 96.218 6.64972 96.064V96.042C6.64972 95.9833 6.68272 95.954 6.74872 95.954H7.61772C7.68372 95.954 7.72039 95.987 7.72772 96.053C7.73505 96.1043 7.75339 96.1813 7.78272 96.284C7.86339 96.5553 8.00272 96.7717 8.20072 96.933C8.40605 97.087 8.65172 97.164 8.93772 97.164C9.23839 97.164 9.49139 97.0833 9.69672 96.922C9.90939 96.7533 10.0524 96.5223 10.1257 96.229C10.1771 96.075 10.2027 95.8623 10.2027 95.591C10.2027 95.349 10.1807 95.1253 10.1367 94.92C10.0854 94.6413 9.95339 94.4287 9.74072 94.282C9.53539 94.128 9.27872 94.051 8.97072 94.051C8.68472 94.051 8.42805 94.117 8.20072 94.249C7.97339 94.3737 7.82672 94.5423 7.76072 94.755C7.73872 94.821 7.69839 94.854 7.63972 94.854H6.75972C6.68639 94.854 6.64972 94.8173 6.64972 94.744V90.41C6.64972 90.3367 6.68639 90.3 6.75972 90.3H10.8737C10.9471 90.3 10.9837 90.3367 10.9837 90.41V91.103C10.9837 91.1763 10.9471 91.213 10.8737 91.213H7.74972C7.72039 91.213 7.70572 91.2277 7.70572 91.257L7.69472 93.556C7.69472 93.6 7.71305 93.611 7.74972 93.589C7.92572 93.435 8.12739 93.3213 8.35472 93.248C8.58939 93.1673 8.83505 93.127 9.09172 93.127C9.60505 93.127 10.0451 93.2553 10.4117 93.512C10.7857 93.7687 11.0351 94.128 11.1597 94.59ZM14.8715 98.11C14.1309 98.11 13.5405 97.901 13.1005 97.483C12.6679 97.0577 12.4515 96.4893 12.4515 95.778V92.522C12.4515 91.8107 12.6679 91.246 13.1005 90.828C13.5405 90.41 14.1309 90.201 14.8715 90.201C15.6122 90.201 16.2025 90.41 16.6425 90.828C17.0899 91.246 17.3135 91.8107 17.3135 92.522V95.778C17.3135 96.4893 17.0899 97.0577 16.6425 97.483C16.2025 97.901 15.6122 98.11 14.8715 98.11ZM14.8715 97.197C15.2969 97.197 15.6342 97.076 15.8835 96.834C16.1329 96.5847 16.2575 96.2547 16.2575 95.844V92.478C16.2575 92.0673 16.1329 91.741 15.8835 91.499C15.6342 91.2497 15.2969 91.125 14.8715 91.125C14.4609 91.125 14.1309 91.2497 13.8815 91.499C13.6322 91.741 13.5075 92.0673 13.5075 92.478V95.844C13.5075 96.2547 13.6322 96.5847 13.8815 96.834C14.1309 97.076 14.4609 97.197 14.8715 97.197Z" fill="#D1CAE5"/>
<path d="M8.22779 137.032C8.22046 137.047 8.22046 137.061 8.22779 137.076C8.23512 137.083 8.24612 137.087 8.26079 137.087H11.5718C11.6451 137.087 11.6818 137.124 11.6818 137.197V137.89C11.6818 137.963 11.6451 138 11.5718 138H6.96279C6.88946 138 6.85279 137.963 6.85279 137.89V137.219C6.85279 137.168 6.87112 137.124 6.90779 137.087C7.15712 136.801 7.72912 136.13 8.62379 135.074L9.38279 134.161C10.0648 133.347 10.4058 132.716 10.4058 132.269C10.4058 131.924 10.2885 131.649 10.0538 131.444C9.82646 131.231 9.52212 131.125 9.14079 131.125C8.75946 131.125 8.45512 131.231 8.22779 131.444C8.00046 131.657 7.89046 131.935 7.89779 132.28V132.61C7.89779 132.683 7.86112 132.72 7.78779 132.72H6.94079C6.86746 132.72 6.83079 132.683 6.83079 132.61V132.137C6.84546 131.756 6.95179 131.418 7.14979 131.125C7.35512 130.832 7.63012 130.608 7.97479 130.454C8.31946 130.293 8.70812 130.212 9.14079 130.212C9.61012 130.212 10.0208 130.3 10.3728 130.476C10.7248 130.652 10.9961 130.894 11.1868 131.202C11.3775 131.51 11.4728 131.858 11.4728 132.247C11.4728 132.856 11.1428 133.574 10.4828 134.403C10.1895 134.777 9.84112 135.199 9.43779 135.668C9.03446 136.13 8.63112 136.585 8.22779 137.032ZM17.3902 134.59C17.4709 134.913 17.5112 135.246 17.5112 135.591C17.5112 135.936 17.4672 136.255 17.3792 136.548C17.2399 137.017 16.9722 137.391 16.5762 137.67C16.1875 137.941 15.7219 138.077 15.1792 138.077C14.6439 138.077 14.1855 137.945 13.8042 137.681C13.4229 137.417 13.1552 137.058 13.0012 136.603C12.9279 136.398 12.8875 136.218 12.8802 136.064V136.042C12.8802 135.983 12.9132 135.954 12.9792 135.954H13.8482C13.9142 135.954 13.9509 135.987 13.9582 136.053C13.9655 136.104 13.9839 136.181 14.0132 136.284C14.0939 136.555 14.2332 136.772 14.4312 136.933C14.6365 137.087 14.8822 137.164 15.1682 137.164C15.4689 137.164 15.7219 137.083 15.9272 136.922C16.1399 136.753 16.2829 136.522 16.3562 136.229C16.4075 136.075 16.4332 135.862 16.4332 135.591C16.4332 135.349 16.4112 135.125 16.3672 134.92C16.3159 134.641 16.1839 134.429 15.9712 134.282C15.7659 134.128 15.5092 134.051 15.2012 134.051C14.9152 134.051 14.6585 134.117 14.4312 134.249C14.2039 134.374 14.0572 134.542 13.9912 134.755C13.9692 134.821 13.9289 134.854 13.8702 134.854H12.9902C12.9169 134.854 12.8802 134.817 12.8802 134.744V130.41C12.8802 130.337 12.9169 130.3 12.9902 130.3H17.1042C17.1775 130.3 17.2142 130.337 17.2142 130.41V131.103C17.2142 131.176 17.1775 131.213 17.1042 131.213H13.9802C13.9509 131.213 13.9362 131.228 13.9362 131.257L13.9252 133.556C13.9252 133.6 13.9435 133.611 13.9802 133.589C14.1562 133.435 14.3579 133.321 14.5852 133.248C14.8199 133.167 15.0655 133.127 15.3222 133.127C15.8355 133.127 16.2755 133.255 16.6422 133.512C17.0162 133.769 17.2655 134.128 17.3902 134.59Z" fill="#D1CAE5"/>
<path d="M14.8715 178.11C14.1309 178.11 13.5405 177.901 13.1005 177.483C12.6679 177.058 12.4515 176.489 12.4515 175.778V172.522C12.4515 171.811 12.6679 171.246 13.1005 170.828C13.5405 170.41 14.1309 170.201 14.8715 170.201C15.6122 170.201 16.2025 170.41 16.6425 170.828C17.0899 171.246 17.3135 171.811 17.3135 172.522V175.778C17.3135 176.489 17.0899 177.058 16.6425 177.483C16.2025 177.901 15.6122 178.11 14.8715 178.11ZM14.8715 177.197C15.2969 177.197 15.6342 177.076 15.8835 176.834C16.1329 176.585 16.2575 176.255 16.2575 175.844V172.478C16.2575 172.067 16.1329 171.741 15.8835 171.499C15.6342 171.25 15.2969 171.125 14.8715 171.125C14.4609 171.125 14.1309 171.25 13.8815 171.499C13.6322 171.741 13.5075 172.067 13.5075 172.478V175.844C13.5075 176.255 13.6322 176.585 13.8815 176.834C14.1309 177.076 14.4609 177.197 14.8715 177.197Z" fill="#D1CAE5"/>
</svg>
