<svg width="345" height="205" viewBox="0 0 345 205" fill="none" xmlns="http://www.w3.org/2000/svg">
<g clip-path="url(#clip0_709_2419)">
<path d="M236.272 161.782C201.723 196.332 145.716 196.341 111.179 161.804C76.6414 127.266 76.6509 71.2603 111.201 36.7106C145.75 2.16099 201.756 2.15146 236.294 36.689C270.831 71.2265 270.822 127.233 236.272 161.782Z" stroke="#534D66" stroke-width="0.75"/>
<path d="M206.966 132.476C188.608 150.834 158.849 150.839 140.497 132.487C122.145 114.136 122.15 84.3766 140.509 66.0184C158.867 47.6602 188.626 47.6552 206.977 66.0068C225.329 84.3584 225.324 114.118 206.966 132.476Z" stroke="#534D66" stroke-width="0.75"/>
<path d="M223.713 149.223C196.102 176.833 151.345 176.841 123.744 149.24C96.1434 121.639 96.151 76.882 123.761 49.2716C151.372 21.6611 196.129 21.6536 223.73 49.2543C251.331 76.8549 251.323 121.612 223.713 149.223Z" stroke="#534D66" stroke-width="0.75"/>
<path d="M190.219 115.728C181.113 124.834 166.352 124.837 157.25 115.734C148.147 106.632 148.15 91.8708 157.256 82.7649C166.362 73.659 181.122 73.6566 190.225 82.7592C199.327 91.8617 199.325 106.623 190.219 115.728Z" stroke="#534D66" stroke-width="0.75"/>
<line x1="110.509" y1="162.053" x2="236.258" y2="37.6776" stroke="#534D66"/>
<line x1="111.981" y1="36.9274" x2="236.205" y2="162.807" stroke="#534D66"/>
<path opacity="0.7" d="M121.356 151.153L130.47 55.5808L185.578 86.8105L208.605 134.809L121.356 151.153Z" fill="#9975FF" fill-opacity="0.15" stroke="#9975FF" stroke-width="1.5" stroke-linejoin="round"/>
<g clip-path="url(#clip1_709_2419)">
<g clip-path="url(#clip2_709_2419)">
<path d="M137.259 190.531L136.59 197.704L136.581 197.746C136.552 197.808 136.506 197.824 136.438 197.8L134.987 197.203C134.914 197.174 134.888 197.128 134.896 197.055L135.541 192.309C135.541 192.309 135.535 192.273 135.524 192.273C135.514 192.263 135.493 192.274 135.483 192.295L132.674 196.151C132.624 196.204 132.577 196.22 132.504 196.19L131.08 195.609C131.044 195.594 131.017 195.569 131.006 195.538C130.995 195.507 131.01 195.471 131.03 195.439L135.559 189.846C135.609 189.793 135.655 189.777 135.723 189.802L137.168 190.393C137.23 190.423 137.257 190.469 137.254 190.536L137.259 190.531Z" fill="white"/>
<path d="M131.583 188.195C131.86 188.563 132.025 188.973 132.062 189.412C132.098 189.85 132.011 190.301 131.794 190.748L129.787 194.871C129.787 194.871 129.747 194.923 129.716 194.934C129.685 194.945 129.654 194.945 129.623 194.925L128.321 194.28C128.321 194.28 128.268 194.239 128.257 194.209C128.246 194.178 128.245 194.147 128.265 194.116L130.273 189.993C130.416 189.707 130.44 189.438 130.357 189.176C130.268 188.919 130.092 188.72 129.81 188.58C129.533 188.445 129.269 188.424 129.013 188.511C128.762 188.602 128.56 188.792 128.422 189.073L126.409 193.19C126.409 193.19 126.369 193.243 126.339 193.253C126.308 193.264 126.277 193.265 126.245 193.245L124.944 192.599C124.944 192.599 124.891 192.559 124.88 192.528C124.869 192.497 124.868 192.466 124.888 192.435L126.896 188.313C127.112 187.865 127.409 187.524 127.775 187.281C128.141 187.037 128.561 186.917 129.021 186.915C129.481 186.913 129.959 187.029 130.44 187.269C130.921 187.509 131.31 187.812 131.588 188.18L131.583 188.195Z" fill="white"/>
<path d="M126.892 185.606C126.892 185.606 126.899 185.673 126.884 185.7L123.455 191.673C123.455 191.673 123.409 191.72 123.378 191.731C123.348 191.742 123.317 191.732 123.285 191.722L122.023 190.994C122.023 190.994 121.975 190.948 121.964 190.918C121.953 190.887 121.957 190.851 121.972 190.824L124.713 186.045C124.713 186.045 124.722 185.993 124.696 185.978L121.867 184.34C121.867 184.34 121.82 184.294 121.809 184.263C121.798 184.233 121.807 184.201 121.817 184.17L122.411 183.128C122.411 183.128 122.457 183.081 122.487 183.07C122.518 183.059 122.554 183.064 122.581 183.079L126.829 185.535C126.829 185.535 126.876 185.581 126.887 185.612L126.892 185.606Z" fill="white"/>
<path d="M114.354 186.14C114.354 186.14 114.292 186.141 114.261 186.121L113.053 185.304C113.053 185.304 113.006 185.258 113 185.222C112.993 185.186 112.998 185.16 113.018 185.129L116.846 179.407C116.846 179.407 116.892 179.36 116.928 179.354C116.964 179.348 116.99 179.353 117.021 179.373L118.181 180.155C118.239 180.19 118.266 180.236 118.252 180.303L118.047 184.856C118.047 184.856 118.053 184.892 118.069 184.897C118.084 184.902 118.095 184.892 118.115 184.871L120.233 181.681C120.233 181.681 120.278 181.634 120.314 181.628C120.35 181.622 120.376 181.627 120.408 181.647L121.615 182.464C121.615 182.464 121.663 182.51 121.669 182.546C121.675 182.582 121.67 182.608 121.65 182.639L117.822 188.361C117.822 188.361 117.777 188.408 117.741 188.414C117.705 188.42 117.679 188.415 117.647 188.395L116.482 187.608C116.424 187.573 116.397 187.527 116.411 187.46L116.621 182.922C116.621 182.922 116.615 182.886 116.6 182.881C116.589 182.871 116.574 182.887 116.554 182.908L114.436 186.087C114.436 186.087 114.39 186.134 114.354 186.14Z" fill="white"/>
<path d="M108.473 180.028C108.473 180.028 108.541 180.032 108.562 180.052L111.104 182.03C111.104 182.03 111.156 182.05 111.176 182.019L111.943 181.03C111.943 181.03 111.962 180.978 111.931 180.958L110.299 179.693C110.299 179.693 110.251 179.648 110.256 179.612C110.25 179.575 110.259 179.544 110.279 179.523L111.011 178.582C111.011 178.582 111.056 178.535 111.092 178.539C111.129 178.544 111.16 178.543 111.181 178.564L112.812 179.828C112.812 179.828 112.865 179.848 112.884 179.817L113.706 178.75C113.706 178.75 113.725 178.698 113.694 178.678L111.151 176.7C111.151 176.7 111.104 176.654 111.108 176.618C111.112 176.582 111.111 176.551 111.131 176.53L111.868 175.583C111.868 175.583 111.913 175.536 111.949 175.541C111.986 175.545 112.017 175.545 112.038 175.565L115.875 178.545C115.875 178.545 115.923 178.59 115.919 178.626C115.925 178.662 115.915 178.694 115.895 178.715L111.683 184.159C111.683 184.159 111.637 184.206 111.601 184.201C111.565 184.197 111.534 184.197 111.513 184.177L107.675 181.197C107.675 181.197 107.628 181.152 107.632 181.115C107.626 181.079 107.636 181.048 107.656 181.027L108.392 180.081C108.392 180.081 108.437 180.033 108.474 180.038L108.473 180.028Z" fill="white"/>
<path d="M108.326 172.444L107.434 175.278C107.434 175.278 107.435 175.33 107.456 175.35L107.963 175.796C107.963 175.796 108.015 175.816 108.035 175.795L109.805 173.804C109.805 173.804 109.856 173.762 109.887 173.761C109.918 173.761 109.949 173.771 109.976 173.796L111.068 174.765C111.068 174.765 111.111 174.816 111.111 174.847C111.112 174.878 111.103 174.909 111.077 174.935L106.507 180.085C106.507 180.085 106.456 180.127 106.425 180.128C106.394 180.128 106.363 180.119 106.337 180.093L104.062 178.07C103.724 177.765 103.488 177.438 103.351 177.074C103.213 176.71 103.193 176.338 103.272 175.96C103.356 175.587 103.544 175.232 103.825 174.908C104.127 174.572 104.473 174.35 104.863 174.251C105.253 174.151 105.651 174.181 106.048 174.34C106.084 174.355 106.105 174.344 106.119 174.308L106.961 171.314C106.961 171.314 106.976 171.268 106.986 171.257C107.026 171.215 107.067 171.225 107.125 171.27L108.276 172.295C108.324 172.341 108.341 172.397 108.321 172.459L108.326 172.444ZM106.15 177.917L107.11 176.832C107.11 176.832 107.129 176.781 107.108 176.76L106.258 176.004C106.074 175.837 105.87 175.753 105.658 175.751C105.447 175.749 105.268 175.84 105.117 176.007C104.956 176.186 104.894 176.378 104.914 176.589C104.935 176.801 105.048 176.99 105.233 177.157L106.082 177.913C106.082 177.913 106.135 177.933 106.155 177.912L106.15 177.917Z" fill="white"/>
<path d="M103.031 167.267L102.565 168.091C102.565 168.091 102.556 168.143 102.572 168.158L104.203 169.836C104.203 169.836 104.24 169.851 104.266 169.845L105.102 169.408C105.163 169.376 105.226 169.385 105.273 169.441L106.37 170.565C106.401 170.595 106.412 170.626 106.408 170.652C106.409 170.683 106.383 170.709 106.332 170.731L99.8714 173.955C99.8101 173.986 99.7532 173.982 99.7054 173.926L98.3548 172.538C98.3072 172.493 98.3006 172.436 98.3352 172.368L101.735 165.992C101.735 165.992 101.749 165.966 101.765 165.95C101.805 165.908 101.857 165.918 101.91 165.969L103.006 167.092C103.059 167.143 103.071 167.205 103.031 167.267ZM102.989 170.454L101.924 169.361C101.893 169.331 101.867 169.336 101.852 169.373L100.521 171.754C100.521 171.754 100.506 171.791 100.517 171.801C100.527 171.811 100.543 171.806 100.563 171.795L102.975 170.522C103.011 170.495 103.016 170.48 102.994 170.449L102.989 170.454Z" fill="white"/>
<path d="M95.5526 164.099C95.4017 163.409 95.6149 162.827 96.197 162.338C96.7184 161.901 97.2522 161.758 97.8135 161.904C98.3749 162.049 98.8951 162.418 99.3896 163.004L101.145 165.093C101.145 165.093 101.172 165.149 101.173 165.18C101.168 165.216 101.153 165.242 101.133 165.263L95.8582 169.687C95.8582 169.687 95.802 169.713 95.771 169.714C95.7347 169.709 95.7086 169.694 95.6874 169.674L93.9856 167.646C93.4485 167.009 93.1658 166.425 93.1271 165.894C93.0938 165.368 93.3402 164.878 93.8767 164.425C94.3881 163.999 94.9281 163.902 95.5018 164.131C95.5436 164.151 95.5587 164.135 95.5421 164.089L95.5526 164.099ZM97.7247 163.573C97.5328 163.54 97.3432 163.6 97.1608 163.747C96.9887 163.895 96.8948 164.067 96.8942 164.258C96.8937 164.449 96.9813 164.654 97.1621 164.868L97.8693 165.709C97.8693 165.709 97.9164 165.734 97.9419 165.718L98.9797 164.849C98.9797 164.849 99.0044 164.802 98.9883 164.777L98.281 163.936C98.1055 163.727 97.9166 163.606 97.7298 163.568L97.7247 163.573ZM95.8209 167.503L96.803 166.681C96.803 166.681 96.8277 166.634 96.8116 166.609L96.1575 165.829C95.9767 165.615 95.7979 165.484 95.606 165.451C95.4191 165.413 95.2395 165.462 95.0725 165.604C94.9005 165.752 94.8166 165.913 94.8213 166.109C94.8261 166.305 94.9187 166.505 95.0995 166.719L95.7536 167.499C95.7536 167.499 95.8007 167.524 95.8261 167.508L95.8209 167.503Z" fill="white"/>
<path d="M97.0161 160.109C97.0161 160.109 96.997 160.171 96.9715 160.187L91.4729 164.335C91.4729 164.335 91.4167 164.362 91.3805 164.357C91.3442 164.353 91.318 164.338 91.2966 164.307L90.4164 163.149C90.4164 163.149 90.3892 163.093 90.3935 163.057C90.3978 163.02 90.4126 162.994 90.4431 162.973L95.9417 158.825C95.9417 158.825 95.9979 158.798 96.0342 158.803C96.0705 158.807 96.0966 158.823 96.118 158.853L96.9983 160.011C96.9983 160.011 97.0254 160.068 97.0212 160.104L97.0161 160.109Z" fill="white"/>
<path d="M95.224 157.762C95.224 157.762 95.1996 157.82 95.1691 157.841L89.4832 161.718C89.4832 161.718 89.427 161.745 89.3907 161.74C89.3545 161.736 89.3333 161.715 89.3119 161.685L88.4874 160.479C88.4874 160.479 88.4602 160.423 88.4645 160.387C88.4687 160.351 88.4889 160.33 88.5194 160.308L93.0723 157.209C93.0723 157.209 93.1076 157.172 93.0862 157.141L91.2339 154.444C91.2339 154.444 91.2067 154.388 91.211 154.352C91.2153 154.316 91.2354 154.295 91.2659 154.274L92.2619 153.596C92.2619 153.596 92.3181 153.57 92.3543 153.574C92.3856 153.584 92.4117 153.599 92.4332 153.63L95.2064 157.675C95.2064 157.675 95.2336 157.731 95.2293 157.768L95.224 157.762Z" fill="white"/>
<path d="M91.8321 152.7C91.8321 152.7 91.8077 152.757 91.7772 152.778L85.9037 156.374C85.9037 156.374 85.8422 156.396 85.811 156.386C85.7798 156.376 85.7536 156.361 85.7322 156.331L84.9688 155.093C84.9688 155.093 84.9467 155.032 84.9563 155.001C84.9658 154.969 84.9807 154.943 85.0112 154.922L90.8847 151.326C90.8847 151.326 90.9462 151.304 90.9774 151.314C91.0086 151.324 91.0348 151.339 91.0562 151.37L91.8196 152.607C91.8196 152.607 91.8417 152.669 91.8321 152.7Z" fill="white"/>
<path d="M81.5466 148.993C81.5466 148.993 81.5764 148.941 81.6068 148.92L82.6723 148.34C82.6723 148.34 82.7338 148.318 82.765 148.328C82.7962 148.338 82.8174 148.358 82.8388 148.388L83.7083 149.96C83.7083 149.96 83.7453 149.995 83.7811 149.979L88.6138 147.34C88.6138 147.34 88.6752 147.318 88.7064 147.328C88.7377 147.338 88.7639 147.353 88.7802 147.389L89.4876 148.663C89.4876 148.663 89.5098 148.725 89.5002 148.756C89.4906 148.787 89.4705 148.808 89.44 148.829L84.6124 151.463C84.6124 151.463 84.5771 151.5 84.5935 151.536L85.4308 153.056C85.4308 153.056 85.453 153.118 85.4434 153.149C85.4338 153.18 85.4137 153.201 85.3832 153.222L84.3177 153.802C84.3177 153.802 84.2563 153.824 84.225 153.814C84.1938 153.804 84.1727 153.784 84.1513 153.753L81.5695 149.086C81.5695 149.086 81.5474 149.024 81.557 148.993L81.5466 148.993Z" fill="white"/>
<path d="M87.3047 144.67C87.3047 144.67 87.2699 144.728 87.2392 144.739L81.0414 147.741C81.0414 147.741 80.9746 147.758 80.9485 147.743C80.9223 147.728 80.8908 147.707 80.8797 147.677L80.2385 146.365C80.2385 146.365 80.2164 146.303 80.231 146.267C80.2406 146.236 80.2607 146.215 80.2965 146.199L86.4943 143.196C86.4943 143.196 86.561 143.18 86.5872 143.195C86.6134 143.21 86.6396 143.225 86.6559 143.261L87.3022 144.567C87.3022 144.567 87.3193 144.634 87.3044 144.66L87.3047 144.67Z" fill="white"/>
<path d="M78.7799 139.66C78.7799 139.66 78.8376 139.695 78.8487 139.726L80.1287 142.679C80.1287 142.679 80.1657 142.715 80.1964 142.704L81.3518 142.21C81.3518 142.21 81.3871 142.174 81.376 142.143L80.5607 140.25C80.5607 140.25 80.5488 140.189 80.5584 140.158C80.568 140.126 80.5932 140.1 80.6239 140.089L81.7231 139.622C81.7231 139.622 81.7848 139.611 81.816 139.621C81.8473 139.631 81.8737 139.656 81.8848 139.687L82.7051 141.574C82.7051 141.574 82.7422 141.609 82.7729 141.599L84.0101 141.073C84.0101 141.073 84.0454 141.036 84.0343 141.005L82.7543 138.051C82.7543 138.051 82.7425 137.989 82.752 137.958C82.7616 137.927 82.7868 137.901 82.8175 137.89L83.9218 137.418C83.9218 137.418 83.9835 137.406 84.0147 137.416C84.0459 137.426 84.0724 137.451 84.0834 137.482L86.0091 141.934C86.0091 141.934 86.0209 141.995 86.0114 142.026C86.0018 142.058 85.9766 142.084 85.9459 142.095L79.6066 144.8C79.6066 144.8 79.5449 144.811 79.5137 144.802C79.4825 144.792 79.456 144.766 79.445 144.736L77.5193 140.284C77.5193 140.284 77.5074 140.222 77.517 140.191C77.5266 140.16 77.5518 140.134 77.5825 140.123L78.6867 139.651C78.6867 139.651 78.7485 139.639 78.7797 139.649L78.7799 139.66Z" fill="white"/>
<path d="M83.1044 135.443C83.0741 135.898 82.9441 136.287 82.6989 136.617C82.4588 136.941 82.1289 137.178 81.714 137.324L81.5297 137.389C81.5297 137.389 81.4679 137.401 81.4365 137.381C81.4103 137.366 81.3838 137.34 81.3677 137.315L80.886 135.975C80.886 135.975 80.8742 135.913 80.8941 135.881C80.9089 135.855 80.9341 135.829 80.9596 135.813L81.0774 135.775C81.2925 135.699 81.4381 135.527 81.5195 135.262C81.601 134.997 81.5779 134.683 81.4502 134.318C81.3453 134.036 81.2116 133.847 81.0441 133.757C80.8767 133.666 80.711 133.648 80.547 133.703C80.419 133.751 80.3278 133.825 80.2737 133.934C80.2195 134.044 80.1968 134.173 80.1902 134.328C80.1836 134.483 80.1841 134.715 80.1918 135.036C80.1878 135.082 80.1888 135.123 80.1898 135.165C80.1908 135.206 80.1968 135.242 80.1978 135.283C80.209 135.748 80.1984 136.161 80.1504 136.529C80.1075 136.891 79.9815 137.234 79.7775 137.552C79.5734 137.87 79.2742 138.097 78.8593 138.243C78.4598 138.384 78.078 138.401 77.7036 138.293C77.3291 138.186 76.9987 137.979 76.7018 137.664C76.405 137.348 76.1733 136.955 76.007 136.482C75.8298 135.989 75.7614 135.51 75.7967 135.05C75.8321 134.59 75.9775 134.195 76.2224 133.855C76.4673 133.516 76.8023 133.273 77.2274 133.126L77.3607 133.083C77.3607 133.083 77.4224 133.071 77.4539 133.092C77.4853 133.112 77.5065 133.132 77.5226 133.158L78.0043 134.498C78.0043 134.498 78.0162 134.559 77.9963 134.591C77.9814 134.617 77.9562 134.643 77.9308 134.659L77.8643 134.686C77.6389 134.762 77.4726 134.935 77.3756 135.195C77.2785 135.455 77.2858 135.754 77.4023 136.088C77.4962 136.339 77.614 136.513 77.7664 136.619C77.9187 136.725 78.0897 136.748 78.2741 136.683C78.4124 136.634 78.5187 136.545 78.5726 136.425C78.6265 136.305 78.6689 136.134 78.6843 135.917C78.6997 135.7 78.697 135.375 78.6863 134.931C78.6793 134.43 78.6903 134.027 78.7142 133.737C78.7382 133.448 78.8446 133.147 79.023 132.834C79.2013 132.521 79.5056 132.289 79.9308 132.143C80.3456 131.996 80.7428 131.975 81.1226 132.087C81.4971 132.195 81.838 132.411 82.1402 132.732C82.4373 133.057 82.6797 133.472 82.8625 133.98C83.051 134.514 83.1352 135.009 83.1049 135.463L83.1044 135.443Z" fill="white"/>
</g>
</g>
<g clip-path="url(#clip3_709_2419)">
<g clip-path="url(#clip4_709_2419)">
<path d="M267.248 117.483C267.248 117.483 267.308 117.456 267.34 117.464L274.207 118.673C274.207 118.673 274.266 118.694 274.29 118.723C274.308 118.748 274.316 118.784 274.309 118.816L274.057 120.254C274.057 120.254 274.036 120.313 274.007 120.337C273.983 120.355 273.947 120.363 273.915 120.355L267.048 119.146C267.048 119.146 266.988 119.125 266.965 119.096C266.947 119.071 266.938 119.036 266.946 119.004L267.198 117.565C267.198 117.565 267.218 117.506 267.248 117.483Z" fill="white"/>
<path d="M272.809 125.986C272.809 125.986 272.835 126.046 272.828 126.078L272.502 127.502C272.502 127.502 272.475 127.557 272.446 127.58C272.422 127.598 272.386 127.606 272.354 127.599L265.559 126.028C265.559 126.028 265.504 126.001 265.481 125.972C265.457 125.943 265.454 125.912 265.462 125.88L265.777 124.514C265.792 124.45 265.83 124.405 265.891 124.389L270.258 122.971C270.258 122.971 270.293 122.952 270.291 122.931C270.29 122.921 270.278 122.911 270.251 122.898L266.468 122.034C266.468 122.034 266.413 122.008 266.389 121.979C266.371 121.954 266.363 121.918 266.371 121.886L266.696 120.462C266.696 120.462 266.723 120.408 266.758 120.389C266.782 120.371 266.818 120.363 266.85 120.37L273.645 121.941C273.645 121.941 273.7 121.968 273.723 121.997C273.741 122.022 273.75 122.057 273.742 122.089L273.428 123.465C273.413 123.529 273.375 123.574 273.314 123.59L268.962 125.002C268.962 125.002 268.927 125.021 268.929 125.042C268.93 125.052 268.942 125.062 268.969 125.075L272.736 125.935C272.736 125.935 272.791 125.961 272.815 125.991L272.809 125.986Z" fill="white"/>
<path d="M264.994 128.392C265.319 128.061 265.701 127.834 266.141 127.732C266.582 127.631 267.054 127.652 267.543 127.802L269.677 128.456C270.166 128.606 270.559 128.849 270.866 129.182C271.174 129.516 271.361 129.912 271.445 130.375C271.528 130.838 271.489 131.322 271.327 131.848C271.166 132.375 270.928 132.808 270.613 133.139C270.299 133.48 269.932 133.7 269.513 133.81C269.095 133.92 268.654 133.907 268.197 133.764C268.165 133.757 268.143 133.738 268.129 133.707C268.116 133.677 268.114 133.646 268.121 133.614L268.457 132.189C268.482 132.114 268.526 132.084 268.602 132.109C268.908 132.202 269.189 132.188 269.428 132.062C269.668 131.937 269.831 131.719 269.929 131.417C270.027 131.116 270.003 130.847 269.871 130.602C269.739 130.358 269.521 130.194 269.225 130.1L266.983 129.414C266.677 129.321 266.412 129.339 266.173 129.464C265.933 129.59 265.77 129.808 265.672 130.109C265.574 130.411 265.598 130.68 265.724 130.92C265.85 131.159 266.064 131.329 266.371 131.422C266.44 131.442 266.461 131.498 266.442 131.578L265.945 132.954C265.945 132.954 265.914 133.014 265.883 133.027C265.859 133.045 265.828 133.048 265.806 133.039C265.339 132.897 264.962 132.659 264.676 132.334C264.385 132.004 264.203 131.613 264.136 131.154C264.063 130.7 264.102 130.206 264.264 129.679C264.425 129.153 264.669 128.724 264.988 128.388L264.994 128.392Z" fill="white"/>
<path d="M262.965 134.564C263.323 134.25 263.735 134.057 264.193 133.98C264.657 133.908 265.137 133.965 265.641 134.156L267.568 134.896C268.055 135.083 268.451 135.356 268.74 135.723C269.034 136.084 269.213 136.502 269.267 136.978C269.325 137.448 269.255 137.945 269.057 138.47C268.858 138.994 268.582 139.405 268.219 139.724C267.856 140.043 267.45 140.241 266.987 140.313C266.528 140.39 266.058 140.332 265.571 140.145L263.643 139.405C263.14 139.215 262.744 138.941 262.445 138.576C262.151 138.215 261.972 137.797 261.913 137.316C261.853 136.835 261.923 136.338 262.123 135.824C262.322 135.31 262.597 134.889 262.956 134.575L262.965 134.564ZM263.511 137.196C263.635 137.462 263.867 137.656 264.202 137.784L266.199 138.543C266.525 138.671 266.828 138.676 267.105 138.563C267.382 138.45 267.578 138.239 267.691 137.931C267.805 137.634 267.795 137.347 267.666 137.077C267.532 136.811 267.305 136.612 266.975 136.489L264.978 135.73C264.643 135.603 264.344 135.592 264.072 135.71C263.801 135.828 263.61 136.033 263.496 136.33C263.383 136.638 263.382 136.926 263.511 137.186L263.511 137.196Z" fill="white"/>
<path d="M265.353 146.863L264.74 148.181C264.74 148.181 264.698 148.232 264.667 148.245C264.637 148.258 264.601 148.256 264.573 148.243L258.259 145.282C258.259 145.282 258.208 145.239 258.195 145.209C258.181 145.179 258.183 145.142 258.197 145.115L258.814 143.791C258.814 143.791 258.856 143.74 258.886 143.727C258.916 143.714 258.953 143.716 258.981 143.729L262.735 145.489C262.735 145.489 262.773 145.501 262.783 145.49C262.792 145.479 262.785 145.464 262.767 145.439L261.851 144.031C261.815 143.981 261.81 143.93 261.836 143.865L262.147 143.205C262.178 143.145 262.223 143.115 262.285 143.109L263.965 142.904C263.965 142.904 264.006 142.89 264.015 142.879C264.024 142.868 264.007 142.853 263.986 142.845L260.225 141.08C260.225 141.08 260.174 141.038 260.161 141.008C260.148 140.977 260.15 140.941 260.163 140.913L260.78 139.589C260.78 139.589 260.823 139.539 260.853 139.525C260.883 139.512 260.92 139.514 260.947 139.528L267.262 142.489C267.262 142.489 267.313 142.531 267.326 142.561C267.339 142.592 267.337 142.628 267.324 142.656L266.711 143.974C266.685 144.029 266.641 144.059 266.574 144.07L263.934 144.412C263.934 144.412 263.878 144.432 263.908 144.466L265.348 146.696C265.384 146.745 265.388 146.797 265.363 146.862L265.353 146.863Z" fill="white"/>
<path d="M261.535 153.427C261.189 153.646 260.818 153.757 260.421 153.76C260.024 153.764 259.627 153.652 259.23 153.426C258.839 153.204 258.542 152.927 258.344 152.579C258.14 152.236 258.048 151.853 258.068 151.438C258.088 151.024 258.217 150.605 258.45 150.177L259.062 149.078C259.062 149.078 259.067 149.025 259.045 149.006L256.875 147.786C256.875 147.786 256.825 147.744 256.816 147.708C256.808 147.672 256.81 147.646 256.828 147.613L257.539 146.338C257.539 146.338 257.581 146.287 257.617 146.279C257.653 146.27 257.679 146.273 257.712 146.291L263.796 149.701C263.796 149.701 263.847 149.744 263.855 149.78C263.864 149.815 263.861 149.842 263.843 149.875L262.39 152.474C262.165 152.88 261.875 153.193 261.534 153.417L261.535 153.427ZM259.611 151.396C259.663 151.622 259.8 151.803 260.02 151.93C260.251 152.056 260.478 152.083 260.702 152.011C260.925 151.939 261.109 151.777 261.249 151.529L261.766 150.601C261.766 150.601 261.771 150.548 261.749 150.529L260.328 149.734C260.328 149.734 260.276 149.729 260.257 149.751L259.74 150.68C259.6 150.927 259.559 151.161 259.616 151.391L259.611 151.396Z" fill="white"/>
<path d="M254.471 151.833C254.471 151.833 254.539 151.832 254.562 151.851L260.414 155.652C260.414 155.652 260.465 155.695 260.468 155.726C260.476 155.762 260.469 155.794 260.45 155.816L259.656 157.041C259.656 157.041 259.614 157.092 259.583 157.094C259.552 157.097 259.515 157.095 259.492 157.076L254.812 154.034C254.812 154.034 254.758 154.018 254.74 154.051L252.956 156.805C252.956 156.805 252.914 156.855 252.882 156.858C252.847 156.866 252.815 156.859 252.792 156.84L251.77 156.177C251.77 156.177 251.719 156.135 251.717 156.104C251.708 156.068 251.716 156.036 251.735 156.013L254.414 151.89C254.414 151.89 254.456 151.839 254.487 151.837L254.471 151.833Z" fill="white"/>
<path d="M252.709 164.418C252.709 164.418 252.714 164.355 252.737 164.327L254.672 161.738C254.672 161.738 254.688 161.684 254.665 161.665L253.646 160.908C253.646 160.908 253.592 160.892 253.573 160.915L252.338 162.575C252.338 162.575 252.29 162.621 252.259 162.624C252.228 162.627 252.196 162.619 252.163 162.601L251.193 161.876C251.193 161.876 251.147 161.828 251.144 161.797C251.136 161.761 251.149 161.734 251.167 161.701L252.402 160.041C252.402 160.041 252.418 159.987 252.395 159.968L251.302 159.15C251.302 159.15 251.249 159.134 251.23 159.156L249.295 161.746C249.295 161.746 249.247 161.792 249.216 161.794C249.185 161.797 249.153 161.789 249.12 161.771L248.144 161.042C248.144 161.042 248.098 160.994 248.095 160.963C248.087 160.927 248.1 160.9 248.118 160.867L251.026 156.964C251.026 156.964 251.074 156.918 251.105 156.915C251.137 156.912 251.169 156.92 251.202 156.938L256.79 161.113C256.79 161.113 256.836 161.161 256.839 161.192C256.841 161.223 256.834 161.255 256.816 161.288L253.908 165.191C253.908 165.191 253.86 165.237 253.828 165.24C253.797 165.242 253.765 165.235 253.732 165.217L252.757 164.487C252.757 164.487 252.711 164.439 252.708 164.408L252.709 164.418Z" fill="white"/>
<path d="M249.436 170.47C249.436 170.47 249.373 170.465 249.344 170.441L248.41 169.64C248.41 169.64 248.368 169.586 248.365 169.555C248.362 169.524 248.37 169.492 248.394 169.464L249.566 168.096C249.566 168.096 249.588 168.047 249.559 168.024L245.323 164.404C245.323 164.404 245.281 164.351 245.279 164.319C245.276 164.288 245.283 164.256 245.307 164.228L246.257 163.115C246.257 163.115 246.311 163.074 246.342 163.071C246.373 163.069 246.405 163.076 246.433 163.1L250.67 166.719C250.67 166.719 250.719 166.741 250.742 166.713L251.871 165.386C251.871 165.386 251.925 165.344 251.956 165.342C251.987 165.339 252.019 165.346 252.048 165.37L252.982 166.171C252.982 166.171 253.024 166.225 253.027 166.256C253.029 166.287 253.022 166.319 252.998 166.347L249.525 170.42C249.525 170.42 249.472 170.461 249.44 170.464L249.436 170.47Z" fill="white"/>
<path d="M243.918 174.184C243.918 174.184 243.933 174.12 243.952 174.097L246.204 171.783C246.204 171.783 246.226 171.734 246.208 171.71L245.297 170.823C245.297 170.823 245.248 170.801 245.224 170.819L243.78 172.305C243.78 172.305 243.731 172.34 243.689 172.344C243.658 172.347 243.625 172.329 243.602 172.31L242.737 171.472C242.737 171.472 242.702 171.422 242.704 171.386C242.705 171.349 242.719 171.322 242.737 171.299L244.181 169.814C244.181 169.814 244.203 169.765 244.185 169.74L243.211 168.791C243.211 168.791 243.162 168.769 243.137 168.787L240.885 171.102C240.885 171.102 240.836 171.137 240.795 171.141C240.764 171.144 240.731 171.126 240.708 171.107L239.836 170.253C239.836 170.253 239.801 170.204 239.803 170.167C239.804 170.131 239.818 170.103 239.836 170.081L243.232 166.595C243.232 166.595 243.281 166.559 243.318 166.561C243.354 166.563 243.382 166.576 243.404 166.595L248.402 171.465C248.402 171.465 248.443 171.518 248.436 171.55C248.439 171.581 248.421 171.614 248.402 171.637L245.007 175.123C245.007 175.123 244.958 175.159 244.916 175.162C244.885 175.165 244.852 175.147 244.829 175.128L243.958 174.275C243.958 174.275 243.916 174.221 243.924 174.189L243.918 174.184Z" fill="white"/>
<path d="M235.99 182.907C235.99 182.907 235.93 182.886 235.902 182.862L235.126 181.907C235.126 181.907 235.095 181.852 235.097 181.815C235.098 181.778 235.112 181.751 235.141 181.728L236.538 180.586C236.538 180.586 236.565 180.542 236.547 180.517L233.026 176.203C233.026 176.203 232.995 176.148 232.997 176.111C232.999 176.074 233.018 176.052 233.042 176.024L234.176 175.103C234.176 175.103 234.231 175.073 234.267 175.075C234.304 175.077 234.327 175.095 234.355 175.119L237.876 179.434C237.876 179.434 237.92 179.461 237.949 179.438L239.298 178.342C239.298 178.342 239.353 178.311 239.389 178.313C239.426 178.315 239.449 178.334 239.477 178.358L240.248 179.309C240.248 179.309 240.279 179.363 240.277 179.4C240.275 179.437 240.256 179.459 240.233 179.488L236.08 182.868C236.08 182.868 236.026 182.899 235.989 182.897L235.99 182.907Z" fill="white"/>
<path d="M227.692 180.147L230.271 181.681C230.271 181.681 230.325 181.697 230.349 181.679L230.905 181.29C230.905 181.29 230.938 181.251 230.919 181.216L229.35 179.013C229.35 179.013 229.324 178.953 229.332 178.921C229.339 178.889 229.352 178.861 229.382 178.838L230.575 177.996C230.575 177.996 230.636 177.97 230.668 177.978C230.7 177.985 230.727 177.999 230.751 178.028L234.787 183.713C234.787 183.713 234.814 183.773 234.806 183.805C234.799 183.837 234.785 183.865 234.756 183.888L232.261 185.654C231.887 185.917 231.509 186.07 231.127 186.115C230.744 186.159 230.368 186.103 230.018 185.935C229.668 185.767 229.362 185.502 229.111 185.148C228.847 184.774 228.707 184.378 228.696 183.977C228.686 183.576 228.798 183.19 229.048 182.833C229.071 182.805 229.064 182.779 229.036 182.756L226.285 181.232C226.285 181.232 226.24 181.204 226.234 181.189C226.204 181.145 226.215 181.097 226.279 181.055L227.536 180.16C227.59 180.119 227.647 180.119 227.708 180.15L227.692 180.147ZM232.579 183.562L231.734 182.367C231.734 182.367 231.694 182.334 231.659 182.353L230.726 183.01C230.519 183.153 230.389 183.332 230.34 183.54C230.291 183.748 230.34 183.942 230.472 184.14C230.616 184.336 230.788 184.451 230.999 184.475C231.21 184.498 231.42 184.443 231.631 184.294L232.564 183.637C232.564 183.637 232.598 183.597 232.579 183.562Z" fill="white"/>
<path d="M221.437 184.145L222.143 184.794C222.143 184.794 222.192 184.815 222.212 184.803L224.225 183.592C224.225 183.592 224.248 183.563 224.245 183.532L224 182.608C223.983 182.537 224.005 182.488 224.069 182.445L225.422 181.631C225.457 181.613 225.493 181.604 225.52 181.618C225.552 181.625 225.571 181.66 225.585 181.701L227.309 188.807C227.326 188.878 227.305 188.927 227.245 188.964L225.58 189.967C225.52 190.004 225.468 189.998 225.411 189.951L219.905 185.126C219.905 185.126 219.883 185.107 219.866 185.093C219.835 185.038 219.852 184.995 219.916 184.953L221.269 184.139C221.333 184.097 221.392 184.107 221.448 184.155L221.437 184.145ZM224.56 184.926L223.246 185.716C223.211 185.734 223.208 185.761 223.242 185.789L225.287 187.652C225.287 187.652 225.321 187.681 225.33 187.669C225.34 187.658 225.349 187.647 225.342 187.621L224.63 184.956C224.63 184.956 224.594 184.907 224.56 184.926Z" fill="white"/>
<path d="M218.922 185.464C218.922 185.464 218.982 185.495 218.995 185.525L222.28 191.674C222.28 191.674 222.296 191.735 222.288 191.767C222.28 191.799 222.257 191.827 222.227 191.84L220.935 192.523C220.935 192.523 220.874 192.539 220.841 192.532C220.809 192.524 220.781 192.5 220.768 192.47L217.484 186.322C217.484 186.322 217.468 186.26 217.475 186.228C217.483 186.196 217.507 186.168 217.537 186.155L218.829 185.472C218.829 185.472 218.89 185.456 218.922 185.464Z" fill="white"/>
<path d="M215.662 195.072C215.662 195.072 215.625 195.127 215.601 195.145L214.277 195.763C214.277 195.763 214.216 195.779 214.178 195.767C214.146 195.759 214.122 195.73 214.104 195.705L211.14 189.393C211.14 189.393 211.124 189.332 211.132 189.3C211.139 189.267 211.168 189.244 211.193 189.226L212.467 188.633C212.527 188.607 212.585 188.607 212.63 188.645L216.452 191.209C216.452 191.209 216.49 191.221 216.505 191.215C216.514 191.204 216.518 191.188 216.5 191.163L214.84 187.657C214.84 187.657 214.824 187.595 214.832 187.563C214.839 187.531 214.868 187.508 214.893 187.49L216.217 186.872C216.217 186.872 216.278 186.856 216.31 186.864C216.342 186.871 216.366 186.901 216.384 186.925L219.348 193.238C219.348 193.238 219.364 193.299 219.352 193.337C219.339 193.374 219.315 193.392 219.29 193.41L218.012 194.008C217.951 194.035 217.894 194.034 217.849 193.997L214.042 191.437C214.042 191.437 214.005 191.424 213.99 191.431C213.975 191.437 213.977 191.458 213.994 191.483L215.643 194.979C215.643 194.979 215.659 195.041 215.652 195.073L215.662 195.072Z" fill="white"/>
<path d="M209.914 189.767C209.914 189.767 209.965 189.81 209.983 189.834L212.616 196.291C212.616 196.291 212.627 196.358 212.614 196.385C212.601 196.413 212.571 196.436 212.547 196.454L211.191 197.007C211.191 197.007 211.13 197.023 211.097 197.005C211.069 196.991 211.046 196.962 211.028 196.938L208.395 190.481C208.395 190.481 208.384 190.414 208.397 190.387C208.41 190.359 208.44 190.336 208.464 190.318L209.82 189.765C209.82 189.765 209.881 189.749 209.914 189.767Z" fill="white"/>
<path d="M205.662 198.977C205.662 198.977 205.62 199.028 205.589 199.041L204.211 199.517C204.211 199.517 204.144 199.529 204.117 199.515C204.089 199.502 204.066 199.473 204.053 199.442L201.769 192.856C201.769 192.856 201.758 192.789 201.771 192.762C201.789 192.729 201.813 192.711 201.843 192.698L203.166 192.242C203.232 192.22 203.285 192.226 203.331 192.274L206.859 195.225C206.859 195.225 206.897 195.237 206.912 195.23C206.921 195.219 206.931 195.208 206.918 195.178L205.636 191.518C205.636 191.518 205.624 191.451 205.638 191.424C205.651 191.396 205.68 191.373 205.71 191.36L207.089 190.883C207.089 190.883 207.156 190.872 207.183 190.885C207.21 190.899 207.234 190.928 207.247 190.958L209.535 197.539C209.535 197.539 209.547 197.606 209.533 197.633C209.52 197.661 209.491 197.684 209.461 197.697L208.128 198.154C208.062 198.176 208.009 198.17 207.963 198.122L204.446 195.181C204.446 195.181 204.413 195.163 204.398 195.169C204.388 195.181 204.379 195.192 204.392 195.222L205.673 198.871C205.673 198.871 205.685 198.938 205.671 198.966L205.662 198.977Z" fill="white"/>
<path d="M199.487 193.631C199.946 193.737 200.336 193.948 200.664 194.28C200.991 194.601 201.217 195.02 201.362 195.525L201.913 197.567C202.047 198.072 202.058 198.541 201.936 198.986C201.819 199.425 201.587 199.805 201.24 200.129C200.898 200.446 200.459 200.683 199.929 200.824C199.408 200.964 198.908 200.987 198.456 200.896C197.998 200.8 197.61 200.61 197.29 200.314C196.976 200.023 196.756 199.666 196.644 199.237L196.629 199.186C196.629 199.186 196.623 199.124 196.641 199.091C196.665 199.063 196.684 199.04 196.72 199.032L198.133 198.651C198.133 198.651 198.195 198.646 198.228 198.664C198.256 198.688 198.279 198.707 198.287 198.742C198.358 199.003 198.512 199.198 198.738 199.33C198.964 199.461 199.238 199.49 199.549 199.405C199.856 199.325 200.071 199.16 200.205 198.908C200.334 198.662 200.361 198.377 200.274 198.056L199.699 195.917C199.612 195.595 199.44 195.365 199.182 195.226C198.918 195.082 198.638 195.049 198.327 195.134C198.031 195.212 197.819 195.351 197.686 195.556C197.547 195.756 197.517 195.999 197.589 196.28L197.662 196.561C197.662 196.561 197.692 196.605 197.728 196.597L198.722 196.327C198.722 196.327 198.784 196.321 198.817 196.339C198.846 196.363 198.868 196.382 198.877 196.418L199.174 197.51C199.174 197.51 199.18 197.572 199.162 197.605C199.138 197.633 199.119 197.656 199.084 197.664L196.537 198.342C196.537 198.342 196.475 198.348 196.442 198.33C196.414 198.306 196.391 198.287 196.382 198.252L196.015 196.899C195.881 196.404 195.87 195.935 195.997 195.495C196.125 195.056 196.352 194.68 196.695 194.373C197.039 194.066 197.483 193.834 198.008 193.688C198.539 193.547 199.034 193.53 199.493 193.636L199.487 193.631Z" fill="white"/>
</g>
</g>
<g clip-path="url(#clip5_709_2419)">
<g clip-path="url(#clip6_709_2419)">
<path d="M81.7442 55.7138L82.3618 54.4039C82.3618 54.4039 82.4064 54.3555 82.4317 54.3391C82.4626 54.3278 82.4995 54.3321 82.5265 54.347L88.8889 57.4553C88.8889 57.4553 88.9385 57.501 88.9555 57.5267C88.9676 57.5578 88.9693 57.5892 88.95 57.6211L88.3275 58.9364C88.3275 58.9364 88.2829 58.9847 88.2575 59.0011C88.2267 59.0124 88.1898 59.0082 88.1628 58.9932L84.3818 57.144C84.3818 57.144 84.3394 57.1347 84.3344 57.1401C84.3245 57.1508 84.3305 57.1664 84.3476 57.1921L85.2717 58.6221C85.3108 58.6681 85.3191 58.7255 85.2854 58.784L84.9742 59.4416C84.9461 59.5052 84.9004 59.5326 84.8376 59.5344L83.1488 59.7062C83.1488 59.7062 83.1075 59.7178 83.1031 59.7336C83.0932 59.7443 83.1097 59.7596 83.1312 59.7695L86.9227 61.6184C86.9227 61.6184 86.9772 61.6588 86.9893 61.6898C87.0014 61.7209 86.9981 61.7577 86.9838 61.7842L86.3612 63.0995C86.3612 63.0995 86.3221 63.1529 86.2913 63.1642C86.2604 63.1755 86.229 63.1764 86.1965 63.1563L79.8297 60.0639C79.8297 60.0639 79.7801 60.0182 79.763 59.9924C79.7509 59.9614 79.7493 59.93 79.7686 59.8981L80.3861 58.5882C80.4148 58.535 80.4605 58.5076 80.5228 58.4955L83.1798 58.2029C83.1798 58.2029 83.2366 58.1857 83.2085 58.1498L81.7579 55.8757C81.7188 55.8296 81.7106 55.7723 81.7442 55.7138Z" fill="white"/>
<path d="M86.9521 49.1221C86.9521 49.1221 86.9554 49.1849 86.9361 49.2168L85.3643 52.0133C85.3643 52.0133 85.3566 52.0659 85.3836 52.0808L86.5022 52.7255C86.5022 52.7255 86.5551 52.7346 86.5694 52.708L87.5809 50.9162C87.5809 50.9162 87.6255 50.8679 87.6563 50.8565C87.6927 50.8503 87.7191 50.8548 87.7516 50.8749L88.8162 51.4897C88.8162 51.4897 88.8658 51.5354 88.8779 51.5665C88.89 51.5976 88.8812 51.6292 88.8669 51.6558L87.8554 53.4476C87.8554 53.4476 87.8477 53.5001 87.8747 53.5151L90.2958 54.9146C90.2958 54.9146 90.3454 54.9604 90.3575 54.9915C90.3696 55.0226 90.3608 55.0542 90.3465 55.0808L89.6325 56.3514C89.6325 56.3514 89.5879 56.3997 89.5571 56.4111C89.5262 56.4224 89.4943 56.4128 89.4618 56.3927L83.328 52.849C83.328 52.849 83.2784 52.8032 83.2663 52.7721C83.2542 52.7411 83.263 52.7094 83.2773 52.6828L85.6495 48.4668C85.6495 48.4668 85.6941 48.4184 85.725 48.4071C85.7558 48.3958 85.7878 48.4054 85.8202 48.4255L86.8904 49.0453C86.8904 49.0453 86.9399 49.0911 86.9521 49.1221Z" fill="white"/>
<path d="M94.3985 48.2275L93.4716 47.9388C93.4716 47.9388 93.4192 47.9402 93.4099 47.9614L92.1401 49.9225C92.1401 49.9225 92.1318 49.9646 92.1489 49.9903L92.785 50.7268C92.8351 50.783 92.8329 50.8406 92.7943 50.9045L91.941 52.2156C91.9112 52.2478 91.8914 52.2693 91.86 52.2702C91.8286 52.271 91.7911 52.2563 91.7631 52.2205L87.0384 46.4762C86.9883 46.42 86.9856 46.3677 87.0241 46.3038L88.0758 44.6785C88.1094 44.62 88.1661 44.6027 88.2355 44.627L95.3493 46.6782C95.3493 46.6782 95.3813 46.6878 95.4028 46.6977C95.4518 46.733 95.4595 46.7799 95.4209 46.8437L94.5731 48.1599C94.5346 48.2238 94.4778 48.241 94.4035 48.2221L94.3985 48.2275ZM91.2396 48.8426L92.0682 47.5584C92.093 47.5315 92.0808 47.5004 92.0384 47.4911L89.3644 46.6639C89.3644 46.6639 89.322 46.6546 89.3176 46.6704C89.3077 46.6811 89.3192 46.7017 89.3358 46.717L91.1664 48.8446C91.1994 48.8751 91.2203 48.8745 91.2396 48.8426Z" fill="white"/>
<path d="M97.9521 43.0629C97.5269 43.2473 97.0846 43.3065 96.6302 43.2352C96.1758 43.1639 95.7462 42.9662 95.3359 42.6372L93.5685 41.2145C93.1637 40.8906 92.8768 40.5163 92.7127 40.0863C92.5486 39.6563 92.5046 39.2178 92.6011 38.7597C92.6975 38.3016 92.9046 37.8562 93.244 37.4334C93.5833 37.0106 93.9651 36.6965 94.3793 36.502C94.7935 36.3074 95.2248 36.238 95.6577 36.2995C96.0956 36.3556 96.4982 36.5382 96.8809 36.8419C96.9085 36.8673 96.9305 36.8876 96.9272 36.9244C96.9289 36.9557 96.92 36.9874 96.8952 37.0142L96.0618 38.2044C96.0072 38.2635 95.9555 38.2753 95.8954 38.2299C95.6382 38.0223 95.3717 37.9353 95.1056 37.9583C94.8346 37.9867 94.6005 38.1187 94.4039 38.3649C94.2072 38.6111 94.1317 38.8696 94.162 39.1463C94.1972 39.4175 94.3409 39.6596 94.5926 39.8621L96.4475 41.3557C96.6992 41.5582 96.9553 41.6454 97.2318 41.6221C97.5028 41.5938 97.7369 41.4617 97.9336 41.2156C98.1302 40.9694 98.2112 40.7159 98.181 40.4393C98.1507 40.1627 98.0075 39.931 97.7558 39.7285C97.7008 39.6777 97.6876 39.6257 97.7415 39.5561L98.7061 38.4671C98.7061 38.4671 98.7507 38.4188 98.7821 38.4179C98.8135 38.417 98.84 38.4216 98.8614 38.4314C99.2497 38.7401 99.5152 39.1046 99.6682 39.5244C99.8158 39.9391 99.8438 40.3729 99.7524 40.8256C99.6609 41.2783 99.4378 41.7189 99.0984 42.1417C98.7591 42.5645 98.3718 42.8735 97.9466 43.0579L97.9521 43.0629Z" fill="white"/>
<path d="M102.083 38.1131C101.635 38.2667 101.175 38.2897 100.714 38.182C100.252 38.0742 99.8205 37.8347 99.4184 37.4636L97.8764 36.04C97.4853 35.679 97.2127 35.2782 97.074 34.8318C96.9297 34.3803 96.9165 33.9304 97.0334 33.4613C97.1557 32.9973 97.4003 32.5666 97.7771 32.1585C98.1539 31.7503 98.5637 31.4721 99.0165 31.3132C99.4692 31.1542 99.9292 31.1312 100.385 31.2339C100.841 31.3366 101.268 31.5709 101.659 31.9319L103.201 33.3555C103.603 33.7267 103.881 34.1326 104.025 34.5841C104.169 35.0356 104.188 35.4905 104.066 35.9545C103.943 36.4185 103.699 36.8597 103.327 37.2624C102.951 37.6706 102.541 37.9488 102.088 38.1077L102.083 38.1131ZM102.525 35.4574C102.504 35.1596 102.354 34.8915 102.09 34.6475L100.492 33.1731C100.228 32.929 99.9493 32.811 99.6508 32.8139C99.3523 32.8169 99.0912 32.9339 98.8681 33.1756C98.65 33.4119 98.5541 33.6815 98.5799 33.9739C98.6058 34.2664 98.7512 34.5398 99.0155 34.7839L100.613 36.2583C100.883 36.5074 101.161 36.6255 101.46 36.6225C101.758 36.6196 102.009 36.5028 102.227 36.2665C102.45 36.0248 102.546 35.7552 102.52 35.4628L102.525 35.4574Z" fill="white"/>
<path d="M107.036 33.1563L100.647 29.4364L100.614 29.4058C100.564 29.3601 100.562 29.3078 100.617 29.2592L101.755 28.1811C101.804 28.1274 101.872 28.1203 101.932 28.1553L106.074 30.806C106.074 30.806 106.106 30.8156 106.116 30.8049C106.126 30.7941 106.126 30.7837 106.114 30.7631L103.664 26.5114C103.629 26.4495 103.642 26.3916 103.696 26.3325L104.814 25.2759C104.844 25.2437 104.875 25.2323 104.907 25.2419C104.944 25.2462 104.971 25.2716 104.984 25.3131L108.348 31.8903C108.383 31.9522 108.37 32.0101 108.325 32.0584L107.197 33.1258C107.153 33.1741 107.09 33.1758 107.03 33.1408L107.036 33.1563Z" fill="white"/>
<path d="M110.769 22.2286C110.769 22.2286 110.752 22.2919 110.726 22.3083L108.245 24.3549C108.245 24.3549 108.216 24.3976 108.239 24.4284L109.067 25.4213C109.067 25.4213 109.11 25.4515 109.14 25.4297L110.727 24.1195C110.727 24.1195 110.783 24.0918 110.815 24.0909C110.852 24.0952 110.879 24.1101 110.896 24.1358L111.679 25.0776C111.679 25.0776 111.708 25.1344 111.71 25.1658C111.706 25.2025 111.692 25.2291 111.667 25.2455L110.08 26.5557C110.08 26.5557 110.051 26.5984 110.073 26.6292L110.957 27.6938C110.957 27.6938 111.001 27.7241 111.031 27.7023L113.512 25.6557C113.512 25.6557 113.568 25.628 113.6 25.6271C113.636 25.6313 113.663 25.6463 113.68 25.672L114.475 26.624C114.475 26.624 114.504 26.6807 114.505 26.7121C114.502 26.7488 114.488 26.7754 114.462 26.7918L110.726 29.8674C110.726 29.8674 110.669 29.8951 110.638 29.896C110.601 29.8917 110.574 29.8768 110.557 29.8511L106.016 24.4054C106.016 24.4054 105.987 24.3486 105.985 24.3172C105.988 24.2805 106.003 24.2539 106.028 24.2375L109.765 21.162C109.765 21.162 109.821 21.1343 109.852 21.1334C109.889 21.1376 109.916 21.1526 109.933 21.1783L110.728 22.1303C110.728 22.1303 110.757 22.187 110.758 22.2184L110.769 22.2286Z" fill="white"/>
<path d="M118.323 23.8803L115.695 22.3294C115.695 22.3294 115.647 22.315 115.622 22.3314L115.071 22.7286C115.071 22.7286 115.037 22.7662 115.059 22.797L116.68 25.0193C116.68 25.0193 116.709 25.0761 116.706 25.1128C116.703 25.1496 116.683 25.1711 116.653 25.1928L115.471 26.0418C115.471 26.0418 115.415 26.0695 115.378 26.0653C115.341 26.061 115.319 26.0407 115.296 26.0099L111.118 20.2821C111.118 20.2821 111.088 20.2253 111.092 20.1886C111.095 20.1519 111.115 20.1304 111.145 20.1086L113.62 18.3344C113.983 18.0732 114.363 17.9162 114.753 17.8689C115.144 17.8216 115.514 17.8848 115.868 18.053C116.223 18.2213 116.536 18.4902 116.796 18.8495C117.072 19.2241 117.219 19.618 117.24 20.0257C117.262 20.4334 117.151 20.8186 116.913 21.1758C116.888 21.2027 116.9 21.2338 116.933 21.2538L119.733 22.7948C119.733 22.7948 119.777 22.825 119.788 22.8352C119.817 22.8815 119.808 22.9236 119.748 22.9671L118.495 23.8599C118.439 23.8981 118.382 23.9049 118.323 23.8699L118.323 23.8803ZM113.332 20.4362L114.212 21.6371C114.212 21.6371 114.251 21.6727 114.281 21.6509L115.206 20.9922C115.413 20.8452 115.534 20.6691 115.581 20.4637C115.628 20.2582 115.576 20.0607 115.44 19.8655C115.298 19.6653 115.114 19.5551 114.903 19.5295C114.692 19.5038 114.475 19.5621 114.274 19.7142L113.349 20.3729C113.349 20.3729 113.315 20.4105 113.337 20.4413L113.332 20.4362Z" fill="white"/>
<path d="M124.532 19.884L123.806 19.2337C123.806 19.2337 123.753 19.2143 123.743 19.225L121.747 20.4365C121.747 20.4365 121.723 20.4633 121.73 20.4998L121.993 21.4296C122.013 21.4971 121.99 21.5553 121.923 21.5938L120.583 22.4052C120.547 22.4219 120.516 22.4332 120.484 22.4236C120.452 22.414 120.435 22.3779 120.416 22.3312L118.532 15.1901C118.513 15.1226 118.531 15.0698 118.586 15.0316L120.242 14.0231C120.303 13.99 120.361 13.9937 120.41 14.0395L126.047 18.895C126.047 18.895 126.069 18.9154 126.086 18.9306C126.12 18.982 126.107 19.0295 126.04 19.068L124.7 19.8794C124.634 19.9178 124.576 19.9142 124.521 19.8633L124.532 19.884ZM121.378 19.0908L122.683 18.296C122.719 18.2793 122.723 18.2531 122.684 18.2175L120.589 16.3431C120.589 16.3431 120.556 16.3126 120.541 16.3287C120.531 16.3395 120.527 16.3553 120.538 16.3759L121.308 19.056C121.326 19.0922 121.347 19.1021 121.378 19.0908Z" fill="white"/>
<path d="M127.695 17.9496C127.223 17.9415 126.792 17.812 126.391 17.5612C125.995 17.3051 125.672 16.9475 125.422 16.4779L124.411 14.5896C124.161 14.1201 124.043 13.6627 124.06 13.2015C124.073 12.7457 124.213 12.3179 124.476 11.9338C124.739 11.5497 125.115 11.2306 125.6 10.9817C126.079 10.7383 126.555 10.6101 127.026 10.6077C127.498 10.6053 127.922 10.7088 128.301 10.9393C128.68 11.1697 128.974 11.4705 129.183 11.8627L129.212 11.909C129.212 11.909 129.236 11.9711 129.222 12.0082C129.213 12.0398 129.189 12.0667 129.158 12.078L127.862 12.7416C127.862 12.7416 127.8 12.7642 127.762 12.7495C127.73 12.74 127.708 12.7196 127.691 12.6835C127.563 12.4461 127.371 12.2787 127.11 12.1968C126.849 12.1149 126.578 12.1433 126.297 12.2923C126.022 12.4359 125.839 12.6451 125.77 12.9192C125.7 13.1933 125.736 13.475 125.898 13.7742L126.962 15.7605C127.119 16.0546 127.338 16.2475 127.626 16.3339C127.914 16.4203 128.2 16.3967 128.486 16.2423C128.756 16.1041 128.935 15.9212 129.017 15.6886C129.105 15.4611 129.076 15.2159 128.937 14.9579L128.798 14.7C128.798 14.7 128.759 14.6644 128.728 14.6757L127.815 15.1457C127.815 15.1457 127.753 15.1683 127.716 15.1536C127.678 15.1389 127.662 15.1237 127.644 15.0875L127.104 14.071C127.104 14.071 127.079 14.0089 127.093 13.9719C127.107 13.9348 127.122 13.9187 127.158 13.902L129.489 12.7023C129.489 12.7023 129.551 12.6797 129.588 12.6944C129.62 12.704 129.642 12.7243 129.66 12.7605L130.328 14.0143C130.578 14.4733 130.691 14.9361 130.673 15.3868C130.66 15.8426 130.52 16.26 130.252 16.639C129.983 17.018 129.607 17.3372 129.122 17.586C128.638 17.8348 128.157 17.9579 127.685 17.9498L127.695 17.9496Z" fill="white"/>
<path d="M134.762 8.43828C134.762 8.43828 134.728 8.49678 134.697 8.50809L131.736 9.78263C131.736 9.78263 131.701 9.82022 131.713 9.8513L132.246 11.0198C132.246 11.0198 132.285 11.0554 132.315 11.0441L134.211 10.2279C134.211 10.2279 134.274 10.2158 134.306 10.2254C134.338 10.235 134.365 10.2604 134.377 10.2915L134.881 11.4032C134.881 11.4032 134.895 11.4656 134.886 11.4973C134.877 11.5289 134.852 11.5558 134.822 11.5671L132.926 12.3832C132.926 12.3832 132.891 12.4208 132.903 12.4519L133.472 13.7136C133.472 13.7136 133.511 13.7492 133.542 13.7379L136.504 12.4633C136.504 12.4633 136.566 12.4512 136.598 12.4608C136.63 12.4704 136.657 12.4958 136.669 12.5269L137.179 13.6541C137.179 13.6541 137.193 13.7165 137.184 13.7482C137.175 13.7798 137.151 13.8067 137.12 13.818L132.657 15.7461C132.657 15.7461 132.595 15.7582 132.563 15.7486C132.531 15.739 132.503 15.7136 132.491 15.6825L129.575 9.25018C129.575 9.25018 129.561 9.18774 129.57 9.15609C129.579 9.12444 129.604 9.09758 129.634 9.08627L134.097 7.15822C134.097 7.15822 134.159 7.14605 134.191 7.15564C134.223 7.16524 134.251 7.19066 134.263 7.22174L134.773 8.34898C134.773 8.34898 134.787 8.41143 134.778 8.44308L134.762 8.43828Z" fill="white"/>
</g>
</g>
<g clip-path="url(#clip7_709_2419)">
<g clip-path="url(#clip8_709_2419)">
<path d="M208.029 5.08658C208.029 5.08658 208.044 5.14831 208.035 5.17961L207.666 6.32891C207.666 6.32891 207.634 6.38676 207.603 6.39795C207.573 6.40915 207.542 6.41 207.51 6.40052L205.799 5.79533C205.799 5.79533 205.748 5.79676 205.734 5.82303L204.069 11.026C204.069 11.026 204.037 11.0839 204.006 11.0951C203.976 11.1063 203.945 11.1071 203.913 11.0976L202.521 10.6079C202.521 10.6079 202.462 10.5733 202.45 10.5426C202.437 10.5119 202.435 10.4808 202.443 10.4495L204.108 5.24655C204.108 5.24655 204.104 5.19487 204.077 5.18008L202.42 4.59413C202.42 4.59413 202.36 4.55952 202.348 4.5288C202.336 4.49807 202.334 4.46706 202.342 4.43577L202.701 3.29709C202.701 3.29709 202.734 3.23924 202.764 3.22805C202.795 3.21685 202.826 3.216 202.857 3.22548L207.953 5.02656C207.953 5.02656 208.012 5.06117 208.024 5.09189L208.029 5.08658Z" fill="white"/>
<path d="M207.805 12.3573C207.495 11.9879 207.301 11.5686 207.234 11.1097C207.161 10.6457 207.228 10.1726 207.419 9.68585L208.165 7.81162C208.356 7.33516 208.627 6.96007 208.993 6.69109C209.353 6.41708 209.773 6.26568 210.243 6.22684C210.718 6.19302 211.211 6.28296 211.729 6.50167C212.247 6.72039 212.661 7.01962 212.977 7.39407C213.292 7.76852 213.481 8.18272 213.558 8.64141C213.625 9.10038 213.574 9.56781 213.382 10.0443L212.636 11.9185C212.446 12.4053 212.166 12.791 211.8 13.0703C211.435 13.3496 211.015 13.501 210.54 13.5348C210.065 13.5687 209.566 13.4737 209.048 13.255C208.53 13.0363 208.116 12.737 207.806 12.3676L207.805 12.3573ZM210.438 11.9377C210.705 11.8216 210.903 11.6039 211.032 11.2845L211.8 9.34232C211.929 9.02292 211.935 8.72761 211.828 8.44579C211.716 8.16927 211.51 7.96266 211.201 7.83657C210.902 7.7102 210.616 7.70255 210.349 7.81866C210.082 7.93476 209.884 8.15252 209.755 8.47192L208.987 10.4141C208.859 10.7438 208.853 11.0391 208.959 11.3106C209.066 11.5821 209.276 11.7834 209.575 11.9098C209.88 12.0412 210.165 12.0488 210.433 11.9327L210.438 11.9377Z" fill="white"/>
<path d="M213.885 15.0839C213.595 14.6932 213.437 14.2678 213.395 13.803C213.354 13.3381 213.447 12.8695 213.675 12.3972L214.549 10.5816C214.767 10.1199 215.07 9.76467 215.453 9.5211C215.831 9.2725 216.264 9.15183 216.735 9.14399C217.212 9.14119 217.703 9.26744 218.202 9.51774C218.707 9.77306 219.102 10.0935 219.388 10.4895C219.679 10.8802 219.842 11.3106 219.883 11.7651C219.924 12.23 219.831 12.6882 219.613 13.1499L218.738 14.9655C218.51 15.4378 218.202 15.7984 217.82 16.0523C217.438 16.3062 217.005 16.4269 216.528 16.4297C216.051 16.4325 215.56 16.3062 215.055 16.0509C214.55 15.7956 214.155 15.4751 213.875 15.0842L213.885 15.0839ZM216.546 14.8448C216.82 14.7544 217.029 14.5467 217.185 14.2317L218.091 12.3479C218.241 12.0382 218.268 11.7424 218.176 11.4549C218.084 11.1675 217.894 10.9553 217.598 10.803C217.308 10.6556 217.027 10.6323 216.748 10.728C216.474 10.8288 216.26 11.0315 216.114 11.3358L215.208 13.2196C215.053 13.5346 215.026 13.8305 215.122 14.1126C215.214 14.3896 215.41 14.6069 215.7 14.7542C215.995 14.9066 216.282 14.9349 216.556 14.8341L216.546 14.8448Z" fill="white"/>
<path d="M218.664 17.7324C218.664 17.7324 218.66 17.6704 218.679 17.6388L222.13 11.7704C222.13 11.7704 222.173 11.7226 222.204 11.7114C222.239 11.7052 222.266 11.7097 222.298 11.7295L223.564 12.5023C223.564 12.5023 223.613 12.5475 223.626 12.5783C223.638 12.609 223.63 12.6403 223.611 12.6719L220.844 17.3668C220.844 17.3668 220.837 17.4188 220.864 17.4335L223.709 19.1673C223.709 19.1673 223.759 19.2125 223.771 19.2432C223.783 19.274 223.775 19.3053 223.756 19.3368L223.156 20.3631C223.156 20.3631 223.113 20.4109 223.082 20.4221C223.052 20.4333 223.02 20.4238 222.988 20.404L218.726 17.8084C218.726 17.8084 218.676 17.7632 218.664 17.7324Z" fill="white"/>
<path d="M223.991 20.9874C223.991 20.9874 223.987 20.9253 224.006 20.8938L227.652 15.1545C227.652 15.1545 227.696 15.1067 227.732 15.1006C227.768 15.0944 227.794 15.0989 227.826 15.1187L229.068 15.9284C229.068 15.9284 229.118 15.9736 229.126 16.0096C229.133 16.0457 229.13 16.0717 229.111 16.1032L225.465 21.8425C225.465 21.8425 225.421 21.8903 225.385 21.8964C225.349 21.9026 225.323 21.8981 225.291 21.8783L224.049 21.0686C224.049 21.0686 223.999 21.0234 223.991 20.9874Z" fill="white"/>
<path d="M233.916 19.3777C233.916 19.3777 233.984 19.381 234.006 19.4011L235.211 20.274C235.211 20.274 235.26 20.3192 235.258 20.3555C235.265 20.3916 235.257 20.4229 235.238 20.4441L231.292 25.9793C231.292 25.9793 231.249 26.0271 231.212 26.0229C231.176 26.0291 231.144 26.0196 231.122 25.9995L229.972 25.1666C229.917 25.1266 229.893 25.0755 229.899 25.0132L230.187 20.4696C230.187 20.4696 230.184 20.4282 230.168 20.4235C230.152 20.4187 230.143 20.4294 230.123 20.4506L227.933 23.5349C227.933 23.5349 227.89 23.5827 227.853 23.5785C227.817 23.5847 227.785 23.5752 227.763 23.5551L226.558 22.6822C226.558 22.6822 226.509 22.637 226.511 22.6007C226.504 22.5646 226.512 22.5333 226.531 22.5121L230.477 16.9769C230.477 16.9769 230.52 16.9291 230.557 16.9333C230.593 16.9271 230.625 16.9366 230.647 16.9567L231.808 17.7997C231.863 17.8396 231.887 17.8907 231.881 17.953L231.587 22.4813C231.587 22.4813 231.59 22.5227 231.606 22.5274C231.622 22.5322 231.637 22.5266 231.651 22.5003L233.831 19.4267C233.831 19.4267 233.875 19.3789 233.906 19.378L233.916 19.3777Z" fill="white"/>
<path d="M233.262 27.4317C233.072 26.9968 233.021 26.5529 233.085 26.1059C233.153 25.6535 233.353 25.2338 233.675 24.8469L234.996 23.2623C235.322 22.8702 235.698 22.6009 236.124 22.4545C236.55 22.3081 236.995 22.2855 237.453 22.392C237.912 22.4984 238.358 22.7295 238.786 23.0904C239.21 23.4464 239.521 23.8365 239.716 24.266C239.911 24.6956 239.986 25.1233 239.936 25.544C239.887 25.9648 239.725 26.3421 239.452 26.6758L239.418 26.713C239.418 26.713 239.374 26.7608 239.338 26.7566C239.307 26.7575 239.275 26.748 239.247 26.7229L238.105 25.7706C238.105 25.7706 238.06 25.7201 238.058 25.6891C238.056 25.6581 238.064 25.6268 238.088 25.6002C238.251 25.399 238.323 25.164 238.296 24.9058C238.267 24.6374 238.127 24.4031 237.875 24.1926C237.627 23.9871 237.367 23.8959 237.089 23.9243C236.811 23.9527 236.571 24.0939 236.365 24.3429L234.982 26.0069C234.776 26.256 234.695 26.5223 234.73 26.8164C234.765 27.1106 234.912 27.3603 235.165 27.5708C235.401 27.7662 235.641 27.8683 235.885 27.8667C236.128 27.8652 236.339 27.7558 236.522 27.5437L236.699 27.3265C236.699 27.3265 236.716 27.2742 236.694 27.2541L235.892 26.5824C235.892 26.5824 235.847 26.5319 235.845 26.5009C235.843 26.4699 235.851 26.4386 235.875 26.412L236.581 25.5589C236.581 25.5589 236.63 25.5162 236.661 25.5153C236.692 25.5144 236.724 25.5239 236.751 25.5491L238.801 27.2685C238.801 27.2685 238.846 27.319 238.848 27.35C238.85 27.381 238.842 27.4123 238.818 27.4389L237.944 28.4882C237.622 28.875 237.251 29.139 236.825 29.2854C236.399 29.4318 235.964 29.4438 235.506 29.3373C235.052 29.2256 234.606 28.9945 234.177 28.6335C233.749 28.2726 233.442 27.8772 233.258 27.4473L233.262 27.4317Z" fill="white"/>
<path d="M246.587 32.3712C246.587 32.3712 246.524 32.3626 246.501 32.3322L244.178 30.0145C244.178 30.0145 244.129 29.9899 244.105 30.0165L243.23 30.8898C243.23 30.8898 243.207 30.937 243.235 30.9621L244.719 32.4486C244.719 32.4486 244.759 32.5045 244.756 32.5408C244.754 32.5771 244.75 32.6031 244.721 32.6246L243.884 33.4555C243.884 33.4555 243.829 33.4932 243.798 33.4941C243.767 33.4949 243.736 33.4854 243.713 33.455L242.228 31.9685C242.228 31.9685 242.18 31.944 242.156 31.9705L241.212 32.9078C241.212 32.9078 241.189 32.9551 241.217 32.9802L243.54 35.2979C243.54 35.2979 243.58 35.3537 243.583 35.3847C243.585 35.4157 243.576 35.447 243.547 35.4686L242.705 36.3047C242.705 36.3047 242.651 36.3424 242.62 36.3433C242.588 36.3442 242.557 36.3347 242.534 36.3042L239.037 32.8125C239.037 32.8125 238.997 32.7567 238.995 32.7256C238.993 32.6946 239.002 32.6633 239.031 32.6418L243.852 27.854C243.852 27.854 243.906 27.8162 243.937 27.8154C243.968 27.8145 244 27.824 244.023 27.8544L247.519 31.3462C247.519 31.3462 247.559 31.402 247.561 31.433C247.563 31.464 247.555 31.4953 247.525 31.5169L246.684 32.353C246.684 32.353 246.629 32.3907 246.593 32.3866L246.587 32.3712Z" fill="white"/>
<path d="M243.193 36.9229C243.193 36.9229 243.231 36.8701 243.277 36.8636L247.115 36.1623C247.115 36.1623 247.151 36.1457 247.154 36.1198L248.392 32.4508L248.425 32.3929C248.458 32.3558 248.511 32.3647 248.562 32.4306L249.623 33.6388C249.674 33.6944 249.688 33.7561 249.666 33.8137L248.848 36.0782C248.848 36.0782 248.856 36.1246 248.892 36.1184L251.277 35.6384C251.338 35.6263 251.392 35.6456 251.442 35.7011L252.503 36.9093C252.542 36.9445 252.544 36.9755 252.536 37.0068C252.522 37.0331 252.492 37.0546 252.451 37.0661L248.619 37.7725C248.619 37.7725 248.583 37.789 248.58 37.815L247.336 41.4789C247.336 41.4789 247.313 41.5261 247.304 41.5368C247.27 41.5739 247.218 41.565 247.177 41.5092L246.122 40.306C246.077 40.2555 246.062 40.1937 246.079 40.1311L246.876 37.8568C246.876 37.8568 246.873 37.8051 246.832 37.8166L244.451 38.2913C244.384 38.2984 244.331 38.2791 244.286 38.2286L243.231 37.0254C243.192 36.9902 243.184 36.9542 243.193 36.9229Z" fill="white"/>
<path d="M255.927 41.801C255.996 42.203 255.959 42.5871 255.807 42.9434C255.654 43.2997 255.4 43.6122 255.045 43.8809C254.694 44.1443 254.32 44.2893 253.928 44.3311C253.531 44.368 253.148 44.2905 252.777 44.0988C252.406 43.9071 252.065 43.6162 251.764 43.2259L250.991 42.2116C250.991 42.2116 250.952 42.1765 250.917 42.2033L248.965 43.65C248.965 43.65 248.91 43.6774 248.873 43.6732C248.837 43.6691 248.815 43.649 248.787 43.6238L247.889 42.4474C247.889 42.4474 247.859 42.3912 247.862 42.3549C247.864 42.3186 247.884 42.2974 247.908 42.2708L253.374 38.2159C253.374 38.2159 253.429 38.1885 253.466 38.1927C253.502 38.1969 253.529 38.2117 253.552 38.2421L255.388 40.6405C255.673 41.0158 255.854 41.4043 255.928 41.8113L255.927 41.801ZM253.32 42.6807C253.551 42.7261 253.766 42.6787 253.969 42.5333C254.177 42.3826 254.283 42.1881 254.304 41.9545C254.324 41.721 254.246 41.4849 254.076 41.2618L253.422 40.4048C253.422 40.4048 253.383 40.3696 253.349 40.3965L252.074 41.3429C252.074 41.3429 252.04 41.3801 252.068 41.4156L252.722 42.2726C252.898 42.5007 253.099 42.635 253.325 42.6857L253.32 42.6807Z" fill="white"/>
<path d="M252.599 48.422C252.547 47.9471 252.621 47.5101 252.827 47.0954C253.028 46.686 253.352 46.3405 253.795 46.0539L255.496 44.9714C255.929 44.6954 256.371 44.5537 256.837 44.5409C257.298 44.523 257.741 44.635 258.161 44.872C258.582 45.1089 258.948 45.4612 259.265 45.934C259.576 46.4018 259.758 46.8783 259.811 47.3532C259.863 47.8281 259.794 48.2701 259.594 48.6795C259.393 49.0889 259.073 49.4291 258.651 49.7049L256.949 50.7874C256.511 51.0687 256.054 51.2159 255.589 51.2391C255.123 51.252 254.68 51.1399 254.259 50.903C253.833 50.661 253.467 50.3087 253.161 49.8356C252.854 49.3625 252.667 48.8914 252.61 48.4218L252.599 48.422ZM255.068 49.5707C255.357 49.6301 255.648 49.5651 255.942 49.3757L257.698 48.2555C257.986 48.0715 258.162 47.8336 258.226 47.5523C258.291 47.2709 258.235 46.9876 258.045 46.7081C257.867 46.4386 257.627 46.2692 257.333 46.2152C257.044 46.1558 256.752 46.2208 256.464 46.4048L254.708 47.5251C254.414 47.7144 254.233 47.9472 254.174 48.2336C254.11 48.515 254.17 48.7929 254.354 49.0674C254.539 49.342 254.778 49.5114 255.068 49.5707Z" fill="white"/>
<path d="M256.115 53.9791C256.058 53.5199 256.119 53.1195 256.297 52.7573C256.475 52.3951 256.752 52.1131 257.137 51.9005L257.302 51.8079C257.302 51.8079 257.363 51.7855 257.395 51.795C257.427 51.8045 257.449 51.8246 257.467 51.8604L258.189 53.1193C258.189 53.1193 258.214 53.1808 258.206 53.2121C258.197 53.2434 258.178 53.2646 258.143 53.2811L258.038 53.341C257.843 53.4447 257.726 53.6395 257.698 53.9147C257.669 54.1899 257.752 54.4983 257.941 54.8349C258.093 55.0999 258.265 55.266 258.446 55.3335C258.627 55.401 258.798 55.3911 258.943 55.3095C259.063 55.244 259.134 55.154 259.168 55.0392C259.202 54.9243 259.203 54.7897 259.183 54.6349C259.162 54.4801 259.121 54.2483 259.053 53.9343C259.05 53.893 259.042 53.8466 259.029 53.8055C259.016 53.7645 259.008 53.7284 259.005 53.6871C258.907 53.229 258.843 52.8113 258.823 52.4443C258.804 52.0772 258.863 51.7234 259.001 51.3727C259.144 51.0271 259.4 50.7559 259.781 50.5487C260.146 50.347 260.525 50.2744 260.912 50.3155C261.304 50.3617 261.667 50.5173 262.017 50.7873C262.367 51.0572 262.665 51.4063 262.918 51.8498C263.182 52.3136 263.338 52.7753 263.384 53.2349C263.43 53.6944 263.365 54.1105 263.183 54.4883C263.001 54.8661 262.719 55.1535 262.323 55.3663L262.198 55.4371C262.198 55.4371 262.138 55.4595 262.106 55.45C262.074 55.4405 262.052 55.4204 262.034 55.3847L261.312 54.1257C261.312 54.1257 261.287 54.0642 261.295 54.033C261.303 54.0017 261.323 53.9804 261.358 53.9639L261.418 53.9312C261.623 53.8168 261.756 53.6267 261.805 53.351C261.859 53.0802 261.793 52.7869 261.616 52.4708C261.481 52.2311 261.33 52.0748 261.159 51.9967C260.988 51.9185 260.816 51.9181 260.647 52.016C260.516 52.0817 260.43 52.1876 260.392 52.3181C260.354 52.4486 260.35 52.6196 260.38 52.8414C260.405 53.0582 260.469 53.3878 260.565 53.8149C260.666 54.3144 260.728 54.7113 260.758 55.0005C260.788 55.2896 260.742 55.6067 260.624 55.9465C260.502 56.2813 260.25 56.5575 259.855 56.7703C259.469 56.9829 259.086 57.0608 258.688 57.0096C258.29 56.9585 257.922 56.7978 257.566 56.5228C257.21 56.2478 256.895 55.8734 256.624 55.3941C256.342 54.8945 256.17 54.4177 256.108 53.9638L256.115 53.9791Z" fill="white"/>
<path d="M259.327 59.7363C259.332 59.2753 259.455 58.8629 259.695 58.499C259.936 58.1351 260.285 57.851 260.733 57.6471L264.871 55.7621C264.871 55.7621 264.932 55.75 264.964 55.7595C264.996 55.769 265.023 55.7941 265.036 55.8249L265.685 57.1532C265.685 57.1532 265.7 57.2149 265.691 57.2462C265.683 57.2775 265.659 57.304 265.628 57.3152L261.491 59.2002C261.199 59.3325 261.014 59.524 260.922 59.7699C260.835 60.0209 260.853 60.2896 260.996 60.5756C261.134 60.8566 261.329 61.0428 261.589 61.134C261.849 61.2252 262.118 61.2074 262.41 61.0751L266.548 59.1901C266.548 59.1901 266.609 59.1781 266.641 59.1876C266.673 59.197 266.7 59.2222 266.713 59.2529L267.362 60.5812C267.362 60.5812 267.376 60.6429 267.368 60.6742C267.36 60.7055 267.335 60.7321 267.305 60.7433L263.167 62.6282C262.719 62.8322 262.273 62.9118 261.829 62.8568C261.385 62.812 260.979 62.6368 260.607 62.3468C260.234 62.0568 259.928 61.6614 259.687 61.1709C259.447 60.6805 259.327 60.2023 259.332 59.7413L259.327 59.7363Z" fill="white"/>
<path d="M262.948 68.1177L265.009 66.0415C265.009 66.0415 265.032 65.9943 265.025 65.9686L264.765 65.3337C264.765 65.3337 264.731 65.2932 264.7 65.3044L262.21 66.2326C262.21 66.2326 262.149 66.2447 262.116 66.2249C262.085 66.2154 262.062 66.185 262.045 66.1595L261.487 64.7976C261.487 64.7976 261.472 64.7359 261.485 64.6993C261.493 64.668 261.523 64.6465 261.548 64.6303L267.965 62.2371C267.965 62.2371 268.027 62.2251 268.059 62.2449C268.091 62.2544 268.114 62.2848 268.131 62.3102L269.298 65.1672C269.471 65.587 269.534 65.9943 269.498 66.3785C269.461 66.7626 269.318 67.098 269.078 67.3945C268.833 67.6861 268.511 67.9073 268.111 68.0581C267.686 68.2148 267.273 68.2469 266.883 68.1541C266.487 68.0563 266.141 67.8484 265.845 67.52C265.817 67.4949 265.791 67.4904 265.767 67.517L263.676 69.7597C263.676 69.7597 263.642 69.7969 263.627 69.8025C263.576 69.8246 263.533 69.7947 263.507 69.7229L262.918 68.2842C262.893 68.2228 262.905 68.1655 262.948 68.1177ZM267.353 64.3199L266.006 64.8231C266.006 64.8231 265.967 64.8552 265.98 64.886L266.414 65.951C266.513 66.1864 266.654 66.3534 266.842 66.4569C267.035 66.5551 267.238 66.5651 267.451 66.4867C267.674 66.4081 267.815 66.2644 267.895 66.0654C267.965 65.8668 267.955 65.6547 267.862 65.4139L267.427 64.349C267.427 64.349 267.393 64.3085 267.363 64.3197L267.353 64.3199Z" fill="white"/>
<path d="M270.973 74.0009C270.973 74.0009 270.923 73.9557 270.911 73.9249L269.879 70.8415C269.879 70.8415 269.846 70.801 269.81 70.8072L268.609 71.1614C268.609 71.1614 268.564 71.1885 268.577 71.2295L269.238 73.1996C269.238 73.1996 269.248 73.2666 269.234 73.2929C269.216 73.3245 269.191 73.3407 269.16 73.3519L268.021 73.694C268.021 73.694 267.954 73.701 267.927 73.6862C267.9 73.6714 267.878 73.641 267.865 73.6103L267.204 71.6402C267.204 71.6402 267.175 71.5944 267.135 71.6059L265.848 71.9883C265.848 71.9883 265.803 72.0155 265.816 72.0565L266.847 75.1399C266.847 75.1399 266.857 75.207 266.843 75.2332C266.829 75.2595 266.8 75.281 266.769 75.2922L265.62 75.6346C265.62 75.6346 265.553 75.6416 265.526 75.6268C265.499 75.612 265.476 75.5816 265.464 75.5509L263.908 70.9027C263.908 70.9027 263.898 70.8357 263.912 70.8094C263.926 70.7832 263.955 70.7616 263.986 70.7504L270.562 68.793C270.562 68.793 270.629 68.786 270.656 68.8008C270.683 68.8156 270.706 68.846 270.718 68.8767L272.274 73.5249C272.274 73.5249 272.284 73.5919 272.27 73.6182C272.256 73.6444 272.226 73.666 272.196 73.6772L271.047 74.0196C271.047 74.0196 270.98 74.0266 270.953 74.0118L270.973 74.0009Z" fill="white"/>
</g>
</g>
</g>
<defs>
<clipPath id="clip0_709_2419">
<rect width="345" height="205" fill="white"/>
</clipPath>
<clipPath id="clip1_709_2419">
<rect width="220.662" height="220.662" fill="white" transform="translate(176.148 258) rotate(-136.156)"/>
</clipPath>
<clipPath id="clip2_709_2419">
<rect width="87.8258" height="17.5652" fill="white" transform="translate(130.798 203.788) rotate(-136.156)"/>
</clipPath>
<clipPath id="clip3_709_2419">
<rect width="220.662" height="220.662" fill="white" transform="translate(328.416 88.1382) rotate(129.903)"/>
</clipPath>
<clipPath id="clip4_709_2419">
<rect width="111.978" height="25.2499" fill="white" transform="translate(285.196 127.844) rotate(129.903)"/>
</clipPath>
<clipPath id="clip5_709_2419">
<rect width="220.662" height="220.662" fill="white" transform="translate(17.093 108.229) rotate(-47.288)"/>
</clipPath>
<clipPath id="clip6_709_2419">
<rect width="75.7497" height="16.4673" fill="white" transform="translate(75.6111 56.1694) rotate(-47.288)"/>
</clipPath>
<clipPath id="clip7_709_2419">
<rect width="220.662" height="220.662" fill="white" transform="translate(165.639 -53.8574) rotate(42.2957)"/>
</clipPath>
<clipPath id="clip8_709_2419">
<rect width="98.804" height="20.8586" fill="white" transform="translate(209.19 -3.84595) rotate(42.2957)"/>
</clipPath>
</defs>
</svg>
