<svg width="345" height="183" viewBox="0 0 345 183" fill="none" xmlns="http://www.w3.org/2000/svg">
<g clip-path="url(#clip0_868_2614)">
<path d="M298.017 77.8606L306.307 66.8374" stroke="white" stroke-width="1.5" stroke-linecap="round" stroke-linejoin="round"/>
<path d="M269.401 61.2871L275.525 48.9917" stroke="white" stroke-width="1.5" stroke-linecap="round" stroke-linejoin="round"/>
<path d="M239.792 49.5618L244.329 36.6304" stroke="white" stroke-width="1.5" stroke-linecap="round" stroke-linejoin="round"/>
<path d="M211.949 42.7431L214.727 29.3501" stroke="white" stroke-width="1.5" stroke-linecap="round" stroke-linejoin="round"/>
<path d="M186.147 39.6868L187.061 26.061" stroke="white" stroke-width="1.5" stroke-linecap="round" stroke-linejoin="round"/>
<path d="M161.957 39.5123L161.228 25.8711" stroke="white" stroke-width="1.5" stroke-linecap="round" stroke-linejoin="round"/>
<path d="M140.405 41.5294L138.283 28.0278" stroke="white" stroke-width="1.5" stroke-linecap="round" stroke-linejoin="round"/>
<path d="M120.002 45.4039L116.563 32.1621" stroke="white" stroke-width="1.5" stroke-linecap="round" stroke-linejoin="round"/>
<path d="M102.709 50.2793L98.1111 37.375" stroke="white" stroke-width="1.5" stroke-linecap="round" stroke-linejoin="round"/>
<path d="M87.4992 55.8725L81.8423 43.3716" stroke="white" stroke-width="1.5" stroke-linecap="round" stroke-linejoin="round"/>
<path d="M74.038 61.927L67.6765 49.748" stroke="white" stroke-width="1.5" stroke-linecap="round" stroke-linejoin="round"/>
<path d="M62.6996 67.9082L55.5127 56.1714" stroke="white" stroke-width="1.5" stroke-linecap="round" stroke-linejoin="round"/>
<path d="M52.9463 73.7609L45.1755 62.3887" stroke="white" stroke-width="1.5" stroke-linecap="round" stroke-linejoin="round"/>
<path d="M44.7396 79.2529L36.4414 68.1909" stroke="white" stroke-width="1.5" stroke-linecap="round" stroke-linejoin="round"/>
<path d="M37.8868 84.2642L29.1619 73.5669" stroke="white" stroke-width="1.5" stroke-linecap="round" stroke-linejoin="round"/>
<path d="M32.3373 88.6396L23.2903 78.1982" stroke="white" stroke-width="1.5" stroke-linecap="round" stroke-linejoin="round"/>
<path d="M28.0148 92.2583L18.6416 82.0923" stroke="white" stroke-width="1.5" stroke-linecap="round" stroke-linejoin="round"/>
<path d="M24.8331 95.047L15.2063 85.106" stroke="white" stroke-width="1.5" stroke-linecap="round" stroke-linejoin="round"/>
<path d="M22.2729 97.3741L12.5696 87.5068" stroke="white" stroke-width="1.5" stroke-linecap="round" stroke-linejoin="round"/>
<path d="M20.2879 99.2281L10.5967 89.353" stroke="white" stroke-width="1.5" stroke-linecap="round" stroke-linejoin="round"/>
<path d="M335.884 91.1141L325.782 100.481C286.522 62.6603 232.288 39.2681 172.381 39.2681C112.474 39.2681 58.2356 62.6603 18.9753 100.481L9.11499 90.7612" stroke="white" stroke-width="1.5" stroke-linecap="round" stroke-linejoin="round"/>
<path d="M4.02307 87.6315C3.61642 87.6703 3.22587 87.5385 2.8474 87.2359L1.60328 86.2391C1.22883 85.9404 1.03155 85.5953 1.00336 85.2074C0.975179 84.8195 1.12415 84.4394 1.45028 84.0632C1.77641 83.6869 2.1428 83.4775 2.54543 83.431C2.95208 83.3844 3.3386 83.5124 3.70902 83.8072L4.95314 84.804C5.33161 85.1065 5.53293 85.4556 5.56111 85.8512C5.58929 86.2469 5.44435 86.6309 5.11822 87.0071C4.79209 87.3833 4.4257 87.5928 4.02307 87.6315ZM4.53038 86.0297C4.51428 85.8939 4.43778 85.7659 4.29686 85.6573L2.97624 84.5984C2.83532 84.486 2.6944 84.4355 2.55348 84.4433C2.40853 84.451 2.28372 84.5209 2.17501 84.645C2.07033 84.7652 2.02604 84.8932 2.04617 85.029C2.06227 85.1647 2.1428 85.2888 2.27969 85.4013L3.60031 86.4602C3.74123 86.5727 3.87813 86.6231 4.01905 86.6192C4.15997 86.6115 4.28478 86.5494 4.38946 86.4253C4.49817 86.3012 4.54246 86.1693 4.52636 86.0335L4.53038 86.0297Z" fill="white"/>
<path d="M6.72082 79.1603L7.42541 78.5203C7.42541 78.5203 7.46165 78.497 7.48178 78.5009C7.50191 78.5009 7.52204 78.5087 7.53815 78.5242L10.6142 81.6659C10.6142 81.6659 10.6384 81.7008 10.6344 81.7202C10.6344 81.7396 10.6263 81.759 10.6102 81.7745L9.92573 82.3951C9.92573 82.3951 9.8895 82.4184 9.86937 82.4145C9.84923 82.4145 9.8291 82.4067 9.813 82.3912L7.40528 79.9322C7.40528 79.9322 7.38918 79.9244 7.3771 79.9205C7.36502 79.9166 7.35697 79.9244 7.35294 79.9322L6.98655 80.4674L6.97044 80.4907C6.94226 80.5178 6.91005 80.514 6.87784 80.479L6.39066 80.002C6.35845 79.9709 6.35442 79.936 6.37053 79.8972L6.66042 79.2379C6.67653 79.2068 6.69666 79.1797 6.72082 79.1564V79.1603Z" fill="white"/>
<path d="M11.1461 80.8319C10.7394 80.8203 10.369 80.6418 10.0348 80.2928L8.93967 79.1447C8.60952 78.7995 8.46055 78.4349 8.4847 78.047C8.50886 77.6592 8.71017 77.2984 9.08462 76.9688C9.45906 76.6391 9.84961 76.4762 10.2563 76.48C10.6629 76.4878 11.0293 76.6585 11.3595 76.9998L12.4546 78.1479C12.7888 78.4969 12.9418 78.8693 12.9136 79.261C12.8895 79.6567 12.6881 80.0213 12.3137 80.3509C11.9392 80.6806 11.5487 80.8435 11.142 80.8319H11.1461ZM11.8668 79.3076C11.8668 79.168 11.8104 79.0361 11.6856 78.9081L10.522 77.6902C10.4012 77.5622 10.2643 77.4924 10.1234 77.4846C9.97845 77.4769 9.84558 77.5273 9.72077 77.6359C9.59998 77.7406 9.53959 77.8647 9.53959 78.0005C9.53959 78.1362 9.59998 78.272 9.72077 78.4L10.8844 79.6179C11.0092 79.7459 11.138 79.8157 11.2789 79.8273C11.4199 79.839 11.5527 79.7885 11.6735 79.6799C11.7983 79.5713 11.8587 79.4472 11.8628 79.3076H11.8668Z" fill="white"/>
<path d="M18.3335 73.8895C18.3335 73.8895 18.3536 73.8895 18.3617 73.8818L19.6501 72.8268C19.6501 72.8268 19.6863 72.8074 19.7065 72.8074C19.7266 72.8074 19.7467 72.819 19.7588 72.8345L20.2661 73.4086C20.2661 73.4086 20.2863 73.4435 20.2863 73.4629C20.2863 73.4823 20.2742 73.5017 20.2581 73.5133L17.8906 75.4565C17.8906 75.4565 17.8544 75.4759 17.8343 75.4759C17.8141 75.4759 17.794 75.4643 17.7819 75.4488L17.3068 74.9096C17.2827 74.8786 17.2706 74.8476 17.2746 74.8127C17.3149 74.4636 17.3511 73.9865 17.3873 73.3698L17.4195 72.8151C17.4558 72.2605 17.4115 71.9114 17.2907 71.7718C17.2062 71.6787 17.1015 71.6283 16.9767 71.6283C16.8478 71.6283 16.727 71.6709 16.6143 71.764C16.5016 71.8571 16.4331 71.9657 16.417 72.086C16.4009 72.2062 16.4371 72.3148 16.5257 72.4156L16.6304 72.532C16.6304 72.532 16.6505 72.5669 16.6505 72.5863C16.6505 72.6057 16.6385 72.6251 16.6223 72.6367L15.8936 73.234C15.8936 73.234 15.8574 73.2534 15.8372 73.2534C15.8171 73.2534 15.797 73.2418 15.7849 73.2263L15.5715 72.9819C15.4225 72.788 15.346 72.5785 15.338 72.3536C15.3299 72.1247 15.3823 71.8998 15.499 71.6787C15.6158 71.4576 15.7849 71.2559 16.0063 71.0736C16.256 70.8681 16.5136 70.7362 16.7794 70.6702C17.0451 70.6043 17.2947 70.6082 17.5283 70.6819C17.7618 70.7556 17.9631 70.8797 18.1241 71.0659C18.2409 71.1977 18.3255 71.3606 18.3818 71.5507C18.4342 71.7408 18.4624 71.9696 18.4624 72.2333C18.4624 72.4195 18.4624 72.6212 18.4422 72.8307C18.4261 73.0401 18.3979 73.3271 18.3577 73.6878L18.3375 73.8624C18.3375 73.8624 18.3375 73.8818 18.3496 73.8857L18.3335 73.8895Z" fill="white"/>
<path d="M20.8034 72.6443C20.3967 72.6094 20.0384 72.4116 19.7244 72.047L18.6936 70.8446C18.3836 70.4839 18.2548 70.1077 18.3031 69.7237C18.3514 69.3397 18.5728 68.9906 18.9634 68.6765C19.3539 68.3662 19.7566 68.2227 20.1632 68.2498C20.5699 68.277 20.9282 68.4709 21.2342 68.8277L22.2649 70.0301C22.575 70.3947 22.7078 70.7748 22.6635 71.1666C22.6152 71.5583 22.3978 71.9113 22.0032 72.2255C21.6127 72.5357 21.2101 72.6754 20.8034 72.6443ZM21.6087 71.1588C21.6207 71.0192 21.5684 70.8834 21.4516 70.7477L20.3605 69.4716C20.2438 69.3358 20.1149 69.2622 19.974 69.2466C19.8331 69.2311 19.6962 69.2738 19.5673 69.3746C19.4425 69.4755 19.3741 69.5918 19.366 69.7315C19.358 69.8672 19.4103 70.003 19.5271 70.1387L20.6182 71.4148C20.735 71.5506 20.8598 71.6281 21.0007 71.6437C21.1416 71.663 21.2745 71.6204 21.4033 71.5195C21.5322 71.4148 21.6046 71.2946 21.6127 71.1588H21.6087Z" fill="white"/>
<path d="M30.632 63.735C30.7769 63.9173 30.8736 64.1151 30.9299 64.3285C31.0105 64.6155 30.9984 64.8986 30.8857 65.1779C30.777 65.4571 30.5797 65.6976 30.2978 65.9032C30.024 66.101 29.7261 66.2135 29.412 66.2368C29.098 66.26 28.8041 66.1941 28.5343 66.0389C28.3733 65.942 28.2203 65.8179 28.0834 65.6627C28.0512 65.62 28.0552 65.5851 28.0995 65.5541L28.8645 65.0033C28.9088 64.9723 28.945 64.9762 28.9812 65.015C29.0537 65.0964 29.1383 65.1624 29.2349 65.2128C29.3154 65.2593 29.4 65.2826 29.4845 65.2748C29.5691 65.271 29.6496 65.2399 29.7261 65.1818C29.8751 65.0732 29.9355 64.9296 29.9073 64.7473C29.8912 64.6271 29.8267 64.4952 29.718 64.3556C29.6134 64.2199 29.4926 64.119 29.3637 64.0531C29.1906 63.9794 29.0295 63.9988 28.8765 64.1112C28.8363 64.1384 28.8041 64.1849 28.7759 64.2431C28.7477 64.3013 28.7155 64.3866 28.6833 64.4914C28.6752 64.5146 28.6632 64.5301 28.6511 64.5379C28.6309 64.5534 28.6068 64.5534 28.5786 64.5379L27.8056 64.3013C27.7814 64.2935 27.7653 64.2819 27.7572 64.2703C27.7411 64.2509 27.7371 64.2276 27.7492 64.2043L28.0995 63.0175C28.0995 63.0175 28.0995 62.9981 28.0914 62.9903C28.0834 62.9826 28.0753 62.9864 28.0632 62.9903L26.9037 63.832C26.9037 63.832 26.8674 63.8514 26.8433 63.8475C26.8231 63.8475 26.803 63.8359 26.7909 63.8165L26.3199 63.2153C26.3199 63.2153 26.2997 63.1804 26.3038 63.1571C26.3038 63.1377 26.3158 63.1183 26.336 63.1067L28.6471 61.435C28.6471 61.435 28.6833 61.4156 28.7074 61.4195C28.7276 61.4195 28.7477 61.4311 28.7598 61.4505L29.2913 62.1293C29.3154 62.1603 29.3235 62.1952 29.3154 62.234L29.0537 63.1842C29.0537 63.1842 29.0537 63.2036 29.0618 63.2114C29.0698 63.2153 29.0779 63.2192 29.094 63.2114C29.4322 63.0795 29.7744 63.1028 30.1166 63.2851C30.3139 63.3976 30.4871 63.5488 30.632 63.735Z" fill="white"/>
<path d="M32.0948 64.1306C31.6922 64.0724 31.3459 63.8552 31.056 63.4712L30.1058 62.2107C29.82 61.8306 29.7113 61.4505 29.7837 61.0704C29.8562 60.6864 30.0978 60.3528 30.5085 60.0658C30.9191 59.7788 31.3258 59.6585 31.7325 59.7089C32.1351 59.7594 32.4813 59.9727 32.7632 60.3489L33.7134 61.6095C34.0033 61.9935 34.112 62.3775 34.0395 62.7692C33.967 63.1609 33.7255 63.4984 33.3148 63.7854C32.9041 64.0724 32.4974 64.1888 32.0908 64.1345L32.0948 64.1306ZM32.9927 62.6955C33.0128 62.5598 32.9685 62.4201 32.8598 62.2766L31.8492 60.9385C31.7445 60.7988 31.6197 60.7135 31.4788 60.6902C31.3379 60.667 31.197 60.7019 31.0641 60.795C30.9312 60.8881 30.8588 61.0005 30.8386 61.1363C30.8225 61.272 30.8668 61.4117 30.9715 61.5513L31.9821 62.8894C32.0908 63.0291 32.2116 63.1144 32.3485 63.1416C32.4854 63.1687 32.6223 63.1338 32.7592 63.0407C32.8961 62.9437 32.9725 62.8313 32.9927 62.6916V62.6955Z" fill="white"/>
<path d="M41.6822 56.2994C41.8151 56.4894 41.8996 56.695 41.9439 56.9083C42.0083 57.1992 41.9761 57.4823 41.8513 57.7539C41.7265 58.0254 41.5171 58.2581 41.2232 58.4443C40.9373 58.6304 40.6354 58.7235 40.3213 58.7274C40.0073 58.7313 39.7174 58.6498 39.4557 58.4792C39.2986 58.3744 39.1537 58.2426 39.0289 58.0797C39.0007 58.037 39.0087 58.0021 39.049 57.9749L39.8422 57.463C39.8865 57.4358 39.9267 57.4397 39.9589 57.4823C40.0274 57.5677 40.1079 57.6375 40.2005 57.6957C40.277 57.7461 40.3616 57.7732 40.4461 57.7732C40.5307 57.7732 40.6152 57.7461 40.6958 57.6957C40.8488 57.5948 40.9212 57.4552 40.9051 57.269C40.8971 57.1488 40.8407 57.013 40.74 56.8695C40.6434 56.726 40.5307 56.6213 40.4059 56.5476C40.2368 56.4661 40.0757 56.4778 39.9187 56.5786C39.8784 56.6058 39.8422 56.6484 39.81 56.7066C39.7778 56.7648 39.7415 56.8462 39.7013 56.9471C39.6892 56.9704 39.6811 56.9859 39.6691 56.9898C39.6489 57.0053 39.6248 57.0053 39.5966 56.9898L38.8356 56.7105C38.8115 56.6989 38.7953 56.6911 38.7913 56.6795C38.7752 56.6601 38.7752 56.6368 38.7873 56.6135L39.206 55.446C39.206 55.446 39.206 55.4267 39.198 55.4189C39.1899 55.4111 39.1819 55.415 39.1698 55.4189L37.9619 56.1946C37.9619 56.1946 37.9216 56.2101 37.9015 56.2063C37.8814 56.2024 37.8653 56.1908 37.8492 56.1752L37.4143 55.5469C37.4143 55.5469 37.3982 55.5081 37.4023 55.4887C37.4063 55.4693 37.4184 55.4499 37.4345 55.4383L39.8382 53.8946C39.8382 53.8946 39.8784 53.8791 39.8985 53.8829C39.9187 53.8868 39.9388 53.8985 39.9509 53.914L40.4381 54.6199C40.4582 54.6509 40.4663 54.6858 40.4542 54.7246L40.1361 55.6594C40.1361 55.6594 40.1361 55.6788 40.1442 55.6865C40.1522 55.6943 40.1603 55.6943 40.1764 55.6865C40.5226 55.5702 40.8608 55.6167 41.191 55.8184C41.3802 55.9425 41.5453 56.1015 41.6782 56.2955L41.6822 56.2994Z" fill="white"/>
<path d="M44.8129 54.3954C44.9337 54.5739 45.0142 54.7678 45.0585 54.9734C45.1108 55.2565 45.0706 55.5319 44.9337 55.8073C44.7968 56.0827 44.5834 56.3076 44.2895 56.4899C43.9955 56.6722 43.6936 56.7653 43.3836 56.7731C43.0735 56.7808 42.7917 56.7032 42.5421 56.5403C42.4334 56.4666 42.3327 56.3774 42.2361 56.2727L42.228 56.2611C42.1998 56.2223 42.2119 56.1874 42.2562 56.1602L43.0695 55.656C43.1017 55.6366 43.142 55.6366 43.1822 55.6599C43.1983 55.6793 43.2306 55.6987 43.2789 55.7219C43.448 55.8267 43.609 55.8267 43.7661 55.7297C43.8426 55.6831 43.9029 55.6172 43.9392 55.5435C43.9754 55.4659 43.9915 55.3806 43.9794 55.2875C43.9714 55.1906 43.9311 55.0897 43.8627 54.9811C43.7942 54.8803 43.7177 54.8066 43.6332 54.7561C43.5647 54.7096 43.4882 54.6825 43.3997 54.6863C43.3151 54.6863 43.2306 54.7096 43.1541 54.76C43.0695 54.8143 43.0011 54.8841 42.9527 54.9695C42.9044 55.0548 42.8883 55.1363 42.9044 55.2138C42.9165 55.2565 42.9044 55.2914 42.8682 55.3108L42.0388 55.8267C42.0388 55.8267 41.9985 55.8422 41.9784 55.8383C41.9583 55.8344 41.9421 55.8228 41.9301 55.8034L40.4524 53.5964C40.4524 53.5964 40.4363 53.5576 40.4403 53.5382C40.4444 53.5189 40.4565 53.5033 40.4766 53.4917L42.9165 51.9751C42.9165 51.9751 42.9568 51.9596 42.9769 51.9635C42.997 51.9674 43.0131 51.979 43.0252 51.9984L43.448 52.6306C43.448 52.6306 43.4641 52.6694 43.4601 52.6888C43.456 52.7082 43.4439 52.7237 43.4238 52.7354L41.8697 53.7012C41.8697 53.7012 41.8495 53.7283 41.8616 53.7438L42.2804 54.3722C42.2804 54.3722 42.2965 54.3877 42.3045 54.3877C42.3126 54.3877 42.3206 54.3799 42.3246 54.3683C42.4213 54.186 42.5622 54.0386 42.7555 53.9184C43.0212 53.7555 43.295 53.674 43.5808 53.6779C43.8667 53.6818 44.1284 53.7671 44.366 53.9339C44.5431 54.0657 44.6921 54.217 44.8048 54.3916L44.8129 54.3954Z" fill="white"/>
<path d="M51.3657 49.8532C51.3858 49.857 51.4019 49.8687 51.414 49.8881L51.8327 50.563C51.8327 50.563 51.8488 50.6017 51.8408 50.6211C51.8368 50.6405 51.8247 50.656 51.8046 50.6677L51.559 50.8073C51.559 50.8073 51.5348 50.8345 51.5469 50.85L52.0864 51.7149C52.0864 51.7149 52.1025 51.7537 52.0945 51.7731C52.0904 51.7925 52.0783 51.808 52.0582 51.8196L51.2489 52.2851C51.2489 52.2851 51.2087 52.3006 51.1885 52.2928C51.1684 52.2851 51.1523 52.2773 51.1402 52.2579L50.6007 51.393C50.6007 51.393 50.5725 51.3697 50.5564 51.3813L48.7808 52.4053C48.7808 52.4053 48.7406 52.4208 48.7204 52.4131C48.7003 52.4053 48.6842 52.3976 48.6721 52.3782L48.342 51.8468C48.3299 51.8235 48.3178 51.7925 48.3097 51.7537L47.9554 49.0425C47.9514 48.9999 47.9675 48.9688 48.0038 48.9455L48.8694 48.4452C48.8976 48.4297 48.9177 48.4258 48.9338 48.4336C48.9499 48.4413 48.962 48.4607 48.966 48.4917L49.2922 50.9702C49.2922 50.9702 49.2962 50.9857 49.3042 50.9935C49.3123 50.9974 49.3203 50.9974 49.3284 50.9935L50.0572 50.5746C50.0572 50.5746 50.0813 50.5474 50.0692 50.5319L49.6867 49.9191C49.6867 49.9191 49.6706 49.8803 49.6787 49.8609C49.6827 49.8415 49.6948 49.826 49.7149 49.8144L50.5242 49.3489C50.5242 49.3489 50.5645 49.3334 50.5846 49.3412C50.6047 49.3489 50.6208 49.3567 50.6329 49.3761L51.0154 49.9889C51.0154 49.9889 51.0436 50.0122 51.0597 50.0005L51.3053 49.8609C51.3053 49.8609 51.3456 49.8454 51.3657 49.8532Z" fill="white"/>
<path d="M53.1319 50.8269C52.7373 50.73 52.4152 50.474 52.1737 50.0667L51.3684 48.7169C51.1268 48.3097 51.0624 47.9218 51.1751 47.5495C51.2879 47.1771 51.5657 46.8668 52.0086 46.6225C52.4474 46.3781 52.8662 46.3005 53.2648 46.3936C53.6634 46.4867 53.9815 46.7311 54.219 47.1345L55.0283 48.4842C55.2739 48.8954 55.3383 49.2871 55.2256 49.6711C55.1128 50.0551 54.835 50.3654 54.3921 50.6097C53.9533 50.8541 53.5345 50.9278 53.14 50.8308L53.1319 50.8269ZM54.1828 49.4927C54.215 49.3569 54.1908 49.2134 54.0982 49.0621L53.2406 47.627C53.152 47.4758 53.0353 47.3788 52.8984 47.34C52.7615 47.3012 52.6206 47.3206 52.4716 47.4021C52.3307 47.4797 52.2421 47.5883 52.2099 47.7201C52.1777 47.852 52.2099 47.9955 52.2985 48.1468L53.1561 49.5819C53.2447 49.7332 53.3574 49.8301 53.4943 49.8689C53.6271 49.9116 53.7681 49.8883 53.913 49.8107C54.058 49.7293 54.1506 49.6207 54.1828 49.4888V49.4927Z" fill="white"/>
<path d="M64.238 43.0619C64.2582 43.0697 64.2743 43.0813 64.2864 43.1007L64.6608 43.7988C64.6608 43.7988 64.6729 43.8376 64.6648 43.857C64.6568 43.8764 64.6447 43.8919 64.6246 43.9036L64.3709 44.0316C64.3709 44.0316 64.3467 44.0548 64.3548 44.0742L64.838 44.9702C64.838 44.9702 64.85 45.009 64.842 45.0284C64.8339 45.0478 64.8218 45.0633 64.8017 45.0749L63.9643 45.4938C63.9643 45.4938 63.924 45.5055 63.9039 45.4977C63.8837 45.4899 63.8676 45.4783 63.8555 45.4589L63.3724 44.5629C63.3724 44.5629 63.3482 44.5397 63.3281 44.5474L61.4921 45.4628C61.4921 45.4628 61.4519 45.4744 61.4317 45.4667C61.4116 45.4589 61.3955 45.4473 61.3834 45.4279L61.0895 44.8771C61.0774 44.8538 61.0694 44.8228 61.0613 44.784L60.8801 42.0535C60.8801 42.0108 60.8962 41.9798 60.9365 41.9604L61.8303 41.5143C61.8585 41.4988 61.8786 41.4988 61.8988 41.5066C61.9149 41.5143 61.927 41.5337 61.927 41.5686L62.092 44.0587C62.092 44.0587 62.0961 44.0742 62.1041 44.082C62.1122 44.0859 62.1202 44.0897 62.1283 44.082L62.8812 43.7058C62.8812 43.7058 62.9053 43.6825 62.8973 43.6631L62.5551 43.027C62.5551 43.027 62.543 42.9882 62.551 42.9688C62.5591 42.9494 62.5712 42.9339 62.5913 42.9223L63.4288 42.5034C63.4288 42.5034 63.469 42.4917 63.4892 42.4995C63.5093 42.5073 63.5254 42.5189 63.5375 42.5383L63.8797 43.1744C63.8797 43.1744 63.9039 43.1977 63.924 43.1899L64.1776 43.0619C64.1776 43.0619 64.2179 43.0503 64.238 43.058V43.0619Z" fill="white"/>
<path d="M67.8978 41.9563C67.9945 42.1463 68.0549 42.348 68.075 42.5575C68.0951 42.8445 68.0226 43.116 67.8535 43.372C67.6885 43.628 67.4469 43.8335 67.1369 43.9848C66.8228 44.1361 66.5128 44.1981 66.2028 44.171C65.8927 44.1438 65.623 44.0391 65.3935 43.8491C65.2928 43.7637 65.2043 43.6629 65.1197 43.5504V43.5388C65.0915 43.4961 65.1036 43.4651 65.1519 43.4418L66.0176 43.0268C66.0538 43.0113 66.09 43.0151 66.1303 43.0423C66.1464 43.0617 66.1746 43.0888 66.2189 43.1121C66.3759 43.2323 66.5369 43.2517 66.702 43.1742C66.7866 43.1354 66.851 43.0772 66.8953 43.0074C66.9436 42.9337 66.9637 42.8522 66.9637 42.7553C66.9678 42.6583 66.9396 42.5536 66.8832 42.4372C66.8268 42.3325 66.7624 42.2472 66.6819 42.1929C66.6175 42.1386 66.545 42.1037 66.4605 42.0959C66.3759 42.0881 66.2913 42.1037 66.2068 42.1424C66.1142 42.1851 66.0417 42.2472 65.9853 42.3286C65.929 42.4101 65.9008 42.4876 65.9089 42.5652C65.9169 42.6079 65.9008 42.6389 65.8605 42.6583L64.9748 43.0811C64.9748 43.0811 64.9345 43.0927 64.9144 43.085C64.8942 43.0772 64.8781 43.0656 64.8701 43.0462L63.6582 40.6957C63.6582 40.6957 63.6461 40.6569 63.6541 40.6375C63.6622 40.6181 63.6743 40.6026 63.6944 40.5949L66.2954 39.3498C66.2954 39.3498 66.3356 39.3382 66.3558 39.3459C66.3759 39.3537 66.392 39.3653 66.4001 39.3847L66.7463 40.0596C66.7463 40.0596 66.7584 40.0984 66.7503 40.1178C66.7423 40.1372 66.7302 40.1527 66.7101 40.1604L65.0513 40.9517C65.0513 40.9517 65.0271 40.975 65.0351 40.9944L65.3814 41.6654C65.3814 41.6654 65.3935 41.6809 65.4056 41.6809C65.4176 41.6809 65.4217 41.677 65.4257 41.6654C65.5425 41.4947 65.6995 41.3628 65.9089 41.262C66.1907 41.1262 66.4725 41.0758 66.7584 41.1146C67.0443 41.1534 67.2939 41.262 67.5113 41.452C67.6724 41.6033 67.8012 41.7701 67.8938 41.9524L67.8978 41.9563Z" fill="white"/>
<path d="M78.4966 37.2828C78.5852 37.4767 78.6335 37.6823 78.6415 37.8917C78.6456 38.1787 78.557 38.4464 78.3798 38.6946C78.2027 38.9428 77.9531 39.1368 77.631 39.2725C77.3129 39.4083 76.9948 39.4548 76.6888 39.416C76.3828 39.3773 76.1171 39.257 75.8956 39.0553C75.803 38.9661 75.7144 38.8614 75.6379 38.745V38.7334C75.6138 38.6907 75.6259 38.6597 75.6782 38.6364L76.564 38.2641C76.6002 38.2486 76.6365 38.2563 76.6767 38.2874C76.6928 38.3106 76.721 38.3339 76.7613 38.3649C76.9102 38.4929 77.0713 38.5201 77.2404 38.4503C77.325 38.4153 77.3934 38.361 77.4417 38.2912C77.49 38.2214 77.5182 38.14 77.5263 38.043C77.5343 37.946 77.5142 37.8374 77.4618 37.7211C77.4135 37.6125 77.3491 37.5271 77.2726 37.4651C77.2122 37.4069 77.1397 37.372 77.0552 37.3604C76.9706 37.3487 76.8861 37.3604 76.8015 37.3953C76.7089 37.434 76.6324 37.4922 76.568 37.5698C76.5076 37.6474 76.4754 37.7249 76.4794 37.8025C76.4835 37.8452 76.4674 37.8762 76.4271 37.8956L75.5212 38.2757C75.501 38.2835 75.4809 38.2835 75.4608 38.2757C75.4407 38.268 75.4246 38.2563 75.4165 38.2369L74.3254 35.8322C74.3173 35.8128 74.3173 35.7934 74.3254 35.774C74.3334 35.7546 74.3455 35.7391 74.3697 35.7313L77.031 34.6104C77.031 34.6104 77.0713 34.6026 77.0914 34.6104C77.1116 34.6181 77.1277 34.6298 77.1357 34.6492L77.4498 35.3396C77.4578 35.359 77.4578 35.3784 77.4498 35.3977C77.4417 35.4171 77.4256 35.4327 77.4055 35.4404L75.7104 36.1541C75.6903 36.1618 75.6863 36.1774 75.6943 36.1968L76.0043 36.8833C76.0043 36.8833 76.0164 36.9027 76.0285 36.9027C76.0365 36.9027 76.0446 36.8988 76.0486 36.8872C76.1734 36.7243 76.3385 36.5963 76.5519 36.507C76.8378 36.3868 77.1236 36.348 77.4055 36.3984C77.6873 36.4489 77.9329 36.573 78.1383 36.7747C78.2913 36.9337 78.412 37.1044 78.4966 37.2944V37.2828Z" fill="white"/>
<path d="M79.7702 37.9767C79.3918 37.8332 79.1059 37.5423 78.9167 37.104L78.2926 35.665C78.1034 35.2345 78.0913 34.8389 78.2523 34.482C78.4134 34.1252 78.7315 33.8537 79.1985 33.6636C79.6656 33.4736 80.0924 33.4503 80.4748 33.5899C80.8573 33.7296 81.1392 34.0127 81.3244 34.4433L81.9485 35.8822C82.1377 36.3166 82.1498 36.72 81.9887 37.0807C81.8277 37.4415 81.5096 37.7207 81.0385 37.9108C80.5674 38.1008 80.1447 38.1202 79.7662 37.9767H79.7702ZM80.9862 36.7821C81.0385 36.6541 81.0305 36.5067 80.958 36.3477L80.2977 34.8195C80.2292 34.6566 80.1286 34.5519 79.9957 34.4937C79.8629 34.4394 79.7219 34.4433 79.5649 34.5053C79.4119 34.5674 79.3153 34.6605 79.2629 34.7885C79.2146 34.9165 79.2227 35.06 79.2951 35.2229L79.9555 36.7511C80.0239 36.914 80.1246 37.0226 80.2534 37.0769C80.3822 37.135 80.5232 37.1312 80.6762 37.0691C80.8292 37.007 80.9338 36.9101 80.9862 36.7821Z" fill="white"/>
<path d="M95.4316 31.0261C95.5041 31.2278 95.5363 31.4334 95.5282 31.6428C95.5081 31.9298 95.3994 32.1897 95.2021 32.4263C95.0048 32.6629 94.7391 32.8336 94.4089 32.946C94.0788 33.0546 93.7607 33.0818 93.4587 33.0159C93.1568 32.9499 92.9031 32.8142 92.6978 32.597C92.6132 32.5 92.5327 32.3914 92.4683 32.2673V32.2556C92.4481 32.213 92.4683 32.1819 92.5166 32.1626L93.4305 31.8561C93.4668 31.8445 93.503 31.8561 93.5393 31.8872C93.5513 31.9104 93.5795 31.9376 93.6198 31.9686C93.7567 32.1082 93.9177 32.147 94.0908 32.0889C94.1794 32.0578 94.2519 32.0113 94.3042 31.9453C94.3606 31.8794 94.3928 31.798 94.4049 31.7049C94.421 31.6079 94.4049 31.4993 94.3646 31.3791C94.3244 31.2666 94.268 31.1774 94.1955 31.1114C94.1392 31.0494 94.0707 31.0067 93.9862 30.9873C93.9016 30.9679 93.8171 30.9718 93.7285 31.0028C93.6319 31.0339 93.5513 31.0882 93.4829 31.158C93.4144 31.2317 93.3782 31.3054 93.3742 31.3829C93.3742 31.4256 93.3581 31.4566 93.3138 31.4721L92.3797 31.7863C92.3595 31.7941 92.3394 31.7941 92.3193 31.7863C92.2992 31.7786 92.2871 31.763 92.279 31.7437L91.3852 29.2652C91.3771 29.2458 91.3771 29.2264 91.3852 29.207C91.3932 29.1876 91.4093 29.176 91.4295 29.1682L94.1714 28.249C94.1915 28.2412 94.2116 28.2412 94.2318 28.249C94.2519 28.2567 94.264 28.2723 94.272 28.2916L94.5297 29.0053C94.5378 29.0247 94.5378 29.0441 94.5297 29.0635C94.5217 29.0829 94.5056 29.0945 94.4854 29.1023L92.738 29.688C92.7179 29.6957 92.7098 29.7074 92.7179 29.7268L92.9715 30.4327C92.9715 30.4327 92.9836 30.4521 92.9917 30.4521C92.9997 30.4521 93.0078 30.4521 93.0158 30.4365C93.1527 30.2814 93.3299 30.1689 93.5473 30.0952C93.8453 29.9944 94.1311 29.9827 94.4089 30.0487C94.6867 30.1146 94.9203 30.262 95.1095 30.4753C95.2504 30.646 95.3551 30.8244 95.4235 31.0183L95.4316 31.0261Z" fill="white"/>
<path d="M98.8993 29.9208C98.9678 30.1225 98.996 30.3281 98.9839 30.5375C98.9597 30.8246 98.847 31.0806 98.6457 31.3133C98.4444 31.546 98.1786 31.7167 97.8444 31.8214C97.5143 31.9261 97.1962 31.9455 96.8942 31.8796C96.5923 31.8136 96.3386 31.6701 96.1413 31.449C96.0568 31.3521 95.9803 31.2396 95.9158 31.1155V31.1038C95.8957 31.0612 95.9159 31.0301 95.9642 31.0146L96.8822 30.7237C96.9184 30.7121 96.9546 30.7237 96.9909 30.7547C97.0029 30.778 97.0271 30.8052 97.0674 30.8362C97.2043 30.9758 97.3613 31.0185 97.5384 30.9642C97.627 30.937 97.6995 30.8905 97.7559 30.8246C97.8122 30.7586 97.8485 30.681 97.8605 30.5841C97.8807 30.4871 97.8686 30.3785 97.8243 30.2583C97.784 30.1458 97.7317 30.0566 97.6633 29.9868C97.6069 29.9247 97.5384 29.882 97.4539 29.8627C97.3693 29.8433 97.2848 29.8471 97.1962 29.8743C97.0996 29.9053 97.019 29.9557 96.9466 30.0256C96.8741 30.0954 96.8419 30.1729 96.8338 30.2505C96.8338 30.2932 96.8137 30.3242 96.7734 30.3358L95.8353 30.6345C95.8152 30.6423 95.7951 30.6384 95.7749 30.6306C95.7548 30.6229 95.7427 30.6074 95.7347 30.588L94.8811 28.094C94.873 28.0746 94.8771 28.0552 94.8851 28.0358C94.8932 28.0164 94.9093 28.0048 94.9294 27.997L97.6874 27.1204C97.7075 27.1127 97.7277 27.1166 97.7478 27.1243C97.7679 27.1321 97.78 27.1476 97.7881 27.1709L98.0337 27.8845C98.0417 27.9039 98.0377 27.9233 98.0296 27.9427C98.0216 27.9621 98.0055 27.9737 97.9813 27.9815L96.2259 28.54C96.2057 28.5478 96.1977 28.5594 96.2057 28.5788L96.4513 29.2886C96.4513 29.2886 96.4634 29.308 96.4715 29.308C96.4795 29.308 96.4876 29.308 96.4956 29.2925C96.6325 29.1412 96.8137 29.0287 97.0311 28.9589C97.3291 28.8658 97.6149 28.8542 97.8928 28.9279C98.1706 29.0016 98.4001 29.149 98.5893 29.3662C98.7262 29.5368 98.8309 29.7191 98.8953 29.9131L98.8993 29.9208Z" fill="white"/>
<path d="M115.229 25.4607C115.293 25.7011 115.301 25.9183 115.265 26.1162C115.221 26.3954 115.088 26.6398 114.874 26.8453C114.661 27.0548 114.383 27.1983 114.045 27.2798C113.711 27.3612 113.397 27.3573 113.107 27.272C112.817 27.1867 112.575 27.0238 112.394 26.7949C112.265 26.632 112.173 26.4381 112.112 26.2131L111.629 24.3746C111.569 24.1536 111.581 23.9402 111.666 23.7385C111.746 23.5368 111.891 23.3584 112.096 23.211C112.302 23.0598 112.551 22.9473 112.853 22.8775C113.143 22.8077 113.417 22.7921 113.663 22.827C113.912 22.8658 114.122 22.955 114.291 23.0947C114.46 23.2343 114.573 23.4166 114.629 23.6338L114.685 23.8433C114.689 23.8627 114.685 23.882 114.677 23.9014C114.665 23.9208 114.649 23.9325 114.629 23.9363L113.715 24.1574C113.695 24.1613 113.675 24.1574 113.655 24.1497C113.634 24.1419 113.622 24.1225 113.618 24.1031L113.602 24.0411C113.574 23.9286 113.51 23.8471 113.409 23.7928C113.308 23.7385 113.2 23.7269 113.075 23.754C112.946 23.7851 112.849 23.851 112.785 23.948C112.72 24.0449 112.704 24.1497 112.737 24.266L112.861 24.7509C112.861 24.7509 112.869 24.7703 112.881 24.7741C112.89 24.7741 112.898 24.7741 112.906 24.7625C113.038 24.5996 113.24 24.4832 113.506 24.4173C113.767 24.3552 114.021 24.3591 114.271 24.4289C114.52 24.4988 114.734 24.6384 114.915 24.8401C115.056 25.003 115.164 25.2124 115.229 25.4684V25.4607ZM114.166 25.7399C114.13 25.608 114.065 25.4994 113.969 25.4102C113.848 25.3094 113.703 25.2784 113.534 25.3171C113.349 25.3637 113.232 25.4568 113.183 25.6042C113.147 25.7089 113.147 25.833 113.183 25.9726C113.216 26.1006 113.272 26.2054 113.353 26.2868C113.469 26.4071 113.622 26.4458 113.808 26.3993C113.985 26.3566 114.097 26.2558 114.15 26.0929C114.19 25.9843 114.19 25.864 114.158 25.736L114.166 25.7399Z" fill="white"/>
<path d="M116.355 26.3448C116.005 26.1431 115.775 25.8095 115.662 25.3518L115.292 23.8353C115.179 23.3776 115.236 22.9897 115.453 22.6639C115.675 22.3381 116.029 22.1209 116.524 22.0084C117.019 21.8959 117.442 21.9386 117.796 22.1364C118.151 22.3342 118.38 22.66 118.493 23.11L118.863 24.6265C118.976 25.0881 118.92 25.4837 118.698 25.8173C118.477 26.1508 118.114 26.3719 117.623 26.4844C117.128 26.5969 116.705 26.5503 116.355 26.3486V26.3448ZM117.76 25.3557C117.833 25.2355 117.849 25.092 117.808 24.9213L117.414 23.3117C117.374 23.141 117.293 23.0208 117.172 22.9432C117.052 22.8695 116.911 22.8501 116.746 22.885C116.584 22.9199 116.472 22.9975 116.399 23.1177C116.327 23.238 116.315 23.3815 116.355 23.5521L116.75 25.1618C116.79 25.3324 116.87 25.4566 116.987 25.5303C117.104 25.6039 117.245 25.6272 117.406 25.5884C117.571 25.5496 117.688 25.4721 117.76 25.3557Z" fill="white"/>
<path d="M136.947 21.3646C136.987 21.609 136.975 21.8262 136.919 22.0201C136.846 22.2955 136.693 22.5244 136.46 22.7105C136.226 22.8967 135.936 23.0169 135.59 23.0712C135.248 23.1217 134.938 23.0906 134.656 22.9782C134.374 22.8657 134.153 22.6834 133.992 22.439C133.879 22.2645 133.802 22.0628 133.766 21.834L133.464 19.9606C133.428 19.7317 133.46 19.5223 133.561 19.3283C133.661 19.1344 133.822 18.9715 134.04 18.8396C134.257 18.7078 134.519 18.6185 134.825 18.572C135.123 18.5293 135.393 18.5371 135.638 18.5953C135.884 18.6573 136.081 18.7659 136.238 18.9211C136.391 19.0762 136.488 19.2663 136.524 19.4874L136.56 19.7007C136.56 19.7201 136.56 19.7395 136.544 19.7589C136.532 19.7744 136.512 19.786 136.492 19.7899L135.562 19.9295C135.542 19.9295 135.522 19.9295 135.501 19.914C135.481 19.8985 135.473 19.883 135.469 19.8636L135.461 19.8015C135.441 19.6891 135.389 19.5998 135.292 19.5339C135.199 19.4718 135.091 19.4486 134.962 19.468C134.829 19.4874 134.728 19.5417 134.656 19.6348C134.583 19.724 134.555 19.8287 134.575 19.9489L134.656 20.4415C134.656 20.4415 134.664 20.4609 134.672 20.4648C134.68 20.4648 134.688 20.4648 134.696 20.4531C134.845 20.3019 135.059 20.2049 135.328 20.1661C135.594 20.1273 135.848 20.1545 136.089 20.2476C136.331 20.3407 136.532 20.4958 136.689 20.713C136.814 20.8876 136.899 21.1048 136.943 21.3685L136.947 21.3646ZM135.864 21.5469C135.844 21.4112 135.787 21.2987 135.703 21.2017C135.59 21.0892 135.449 21.0466 135.28 21.0699C135.091 21.097 134.966 21.1823 134.906 21.3258C134.857 21.4267 134.849 21.5508 134.869 21.6943C134.889 21.8262 134.938 21.9348 135.01 22.024C135.115 22.1559 135.264 22.2063 135.449 22.1792C135.63 22.152 135.751 22.0589 135.819 21.9038C135.868 21.799 135.884 21.6788 135.864 21.5469Z" fill="white"/>
<path d="M140.555 20.8759C140.587 21.0854 140.575 21.2948 140.523 21.5004C140.446 21.7758 140.289 22.0124 140.044 22.2063C139.802 22.4002 139.508 22.5205 139.162 22.567C138.816 22.6136 138.502 22.5787 138.216 22.4584C137.93 22.3382 137.709 22.1559 137.556 21.9038C137.491 21.7913 137.439 21.671 137.395 21.5392V21.5275C137.386 21.481 137.411 21.4538 137.463 21.4461L138.421 21.3181C138.462 21.3142 138.494 21.3297 138.522 21.3685C138.53 21.3918 138.55 21.4267 138.582 21.4655C138.691 21.6284 138.836 21.6943 139.021 21.671C139.114 21.6594 139.194 21.6245 139.263 21.5702C139.331 21.5159 139.38 21.4422 139.412 21.353C139.448 21.2638 139.456 21.1552 139.44 21.0272C139.424 20.9108 139.388 20.81 139.331 20.7324C139.291 20.6587 139.231 20.6083 139.15 20.5734C139.069 20.5385 138.985 20.5268 138.892 20.5385C138.792 20.5501 138.699 20.5889 138.619 20.6471C138.538 20.7053 138.486 20.7712 138.466 20.8488C138.457 20.8914 138.433 20.9186 138.389 20.9225L137.411 21.0543C137.391 21.0543 137.37 21.0543 137.35 21.0388C137.334 21.0272 137.322 21.0078 137.318 20.9884L136.944 18.3897C136.944 18.3703 136.944 18.3509 136.96 18.3315C136.972 18.316 136.992 18.3044 137.012 18.3005L139.887 17.9165C139.907 17.9165 139.927 17.9165 139.947 17.932C139.963 17.9437 139.975 17.963 139.979 17.9824L140.088 18.7271C140.088 18.7465 140.088 18.7659 140.072 18.7853C140.06 18.8008 140.04 18.8125 140.02 18.8164L138.188 19.0607C138.168 19.0607 138.156 19.0762 138.16 19.0956L138.268 19.8364C138.268 19.8364 138.276 19.8558 138.284 19.8597C138.292 19.8597 138.3 19.8597 138.309 19.8481C138.474 19.724 138.671 19.6464 138.896 19.6154C139.206 19.5727 139.492 19.6154 139.75 19.7317C140.008 19.852 140.209 20.0343 140.354 20.2825C140.459 20.4764 140.523 20.6742 140.555 20.8759Z" fill="white"/>
<path d="M157.45 20.6818L158.658 17.1755C158.658 17.1755 158.658 17.16 158.654 17.1522C158.65 17.1445 158.638 17.1406 158.63 17.1406L157.583 17.1988C157.563 17.1988 157.551 17.2104 157.551 17.2337L157.567 17.5323C157.567 17.5517 157.563 17.5711 157.547 17.5866C157.531 17.6022 157.515 17.6099 157.491 17.6138L156.754 17.6526C156.73 17.6526 156.714 17.6487 156.697 17.6332C156.681 17.6177 156.673 17.6022 156.669 17.5789L156.609 16.4192C156.609 16.3998 156.613 16.3804 156.629 16.3649C156.645 16.3493 156.661 16.3416 156.685 16.3377L159.685 16.1748C159.705 16.1748 159.725 16.1787 159.741 16.1942C159.757 16.2097 159.765 16.2252 159.77 16.2485L159.814 17.0281C159.814 17.0553 159.814 17.0863 159.798 17.1251L158.602 20.6585C158.59 20.6973 158.562 20.7167 158.513 20.7206L157.515 20.7749C157.446 20.7749 157.426 20.7516 157.442 20.6896L157.45 20.6818Z" fill="white"/>
<path d="M160.781 20.263C160.479 19.9992 160.314 19.6308 160.294 19.1615L160.225 17.6022C160.205 17.1329 160.334 16.7606 160.616 16.4813C160.898 16.202 161.288 16.0508 161.8 16.0314C162.307 16.012 162.714 16.1283 163.024 16.3882C163.33 16.6481 163.495 17.0088 163.515 17.4704L163.583 19.0296C163.603 19.5028 163.471 19.8829 163.189 20.166C162.903 20.453 162.508 20.6043 162.001 20.6276C161.494 20.647 161.087 20.5267 160.785 20.263H160.781ZM162.351 19.5493C162.448 19.4446 162.488 19.305 162.484 19.1304L162.412 17.4781C162.404 17.3036 162.347 17.1678 162.247 17.0709C162.146 16.9739 162.009 16.9312 161.84 16.9351C161.675 16.9429 161.55 16.9972 161.453 17.1019C161.361 17.2066 161.317 17.3462 161.325 17.5208L161.397 19.1731C161.405 19.3476 161.457 19.4834 161.558 19.5803C161.659 19.6773 161.792 19.72 161.961 19.7161C162.13 19.7083 162.259 19.654 162.355 19.5493H162.351Z" fill="white"/>
<path d="M184.473 20.581L186.083 17.2259C186.083 17.2259 186.083 17.2104 186.083 17.1988C186.075 17.191 186.071 17.1871 186.059 17.1833L185.012 17.1251C184.988 17.1251 184.98 17.1328 184.976 17.1561L184.96 17.4548C184.96 17.4742 184.948 17.4935 184.932 17.5091C184.916 17.5246 184.895 17.5285 184.875 17.5285L184.139 17.4897C184.118 17.4897 184.098 17.4819 184.082 17.4625C184.066 17.447 184.062 17.4276 184.062 17.4082L184.139 16.2485C184.139 16.2291 184.147 16.2097 184.167 16.1942C184.187 16.1787 184.203 16.1748 184.223 16.1748L187.223 16.3377C187.243 16.3377 187.263 16.3493 187.279 16.3649C187.295 16.3804 187.299 16.3998 187.299 16.4192L187.255 17.1988C187.255 17.2259 187.247 17.257 187.231 17.2919L185.632 20.6741C185.616 20.7128 185.584 20.7284 185.536 20.7245L184.537 20.6702C184.469 20.6702 184.449 20.6353 184.477 20.5771L184.473 20.581Z" fill="white"/>
<path d="M190.67 19.6035C190.654 19.8168 190.602 20.0185 190.505 20.2086C190.372 20.4645 190.163 20.6624 189.885 20.802C189.607 20.9416 189.293 20.9998 188.943 20.9765C188.593 20.9533 188.295 20.8524 188.041 20.6818C187.787 20.5111 187.61 20.2822 187.514 20.0069C187.473 19.8827 187.449 19.7548 187.437 19.619V19.6074C187.441 19.5608 187.469 19.5375 187.522 19.5414L188.488 19.6074C188.528 19.6074 188.556 19.6345 188.576 19.6772C188.576 19.7043 188.593 19.7392 188.617 19.7819C188.689 19.9603 188.814 20.0573 188.999 20.0728C189.092 20.0806 189.176 20.0612 189.257 20.0224C189.333 19.9836 189.398 19.9215 189.45 19.8401C189.507 19.7586 189.539 19.6539 189.547 19.5259C189.555 19.4057 189.543 19.3048 189.502 19.2156C189.478 19.138 189.43 19.0721 189.362 19.0217C189.293 18.9713 189.213 18.9441 189.12 18.9364C189.019 18.9286 188.923 18.948 188.83 18.9868C188.737 19.0256 188.673 19.0837 188.637 19.1536C188.621 19.1962 188.589 19.2156 188.548 19.2117L187.562 19.1458C187.542 19.1458 187.522 19.1342 187.505 19.1187C187.489 19.1031 187.485 19.0837 187.485 19.0643L187.679 16.4463C187.679 16.4269 187.691 16.4075 187.707 16.392C187.723 16.3764 187.743 16.3726 187.763 16.3726L190.662 16.5704C190.682 16.5704 190.702 16.582 190.714 16.5975C190.731 16.613 190.735 16.6324 190.735 16.6518L190.678 17.4043C190.678 17.4276 190.666 17.4431 190.65 17.4586C190.634 17.4741 190.614 17.478 190.594 17.478L188.75 17.35C188.729 17.35 188.717 17.3577 188.713 17.381L188.657 18.1257C188.657 18.1257 188.657 18.149 188.669 18.1529C188.677 18.1567 188.685 18.1529 188.697 18.149C188.886 18.0598 189.096 18.021 189.325 18.0365C189.639 18.0598 189.909 18.1529 190.135 18.3235C190.36 18.4942 190.517 18.7114 190.606 18.9829C190.666 19.1923 190.69 19.3979 190.674 19.6035H190.67Z" fill="white"/>
<path d="M215.408 22.8541C215.368 23.0791 215.279 23.2769 215.142 23.4437C214.977 23.6493 214.76 23.7967 214.49 23.8897C214.22 23.9828 213.91 23.9983 213.568 23.9402C213.242 23.8859 212.96 23.7695 212.727 23.5988C212.493 23.4282 212.332 23.211 212.251 22.9472C212.183 22.7494 212.175 22.5322 212.215 22.2995C212.239 22.1793 212.276 22.0629 212.324 21.9504C212.372 21.8379 212.429 21.7487 212.493 21.6711C212.594 21.5509 212.706 21.4578 212.831 21.3996C212.851 21.3919 212.855 21.3764 212.839 21.357C212.759 21.2639 212.69 21.1514 212.642 21.0118C212.582 20.8295 212.57 20.6394 212.606 20.4416C212.662 20.1352 212.807 19.887 213.041 19.6969C213.206 19.5573 213.407 19.4603 213.645 19.406C213.882 19.3517 214.136 19.3517 214.406 19.3983C214.679 19.4448 214.917 19.534 215.118 19.662C215.32 19.79 215.468 19.949 215.569 20.1274C215.722 20.3873 215.77 20.6666 215.718 20.9691C215.678 21.1824 215.589 21.3647 215.448 21.5121C215.368 21.6013 215.271 21.6789 215.15 21.741C215.13 21.7565 215.126 21.7681 215.134 21.7836C215.247 21.8884 215.324 22.0163 215.368 22.1599C215.44 22.3732 215.452 22.602 215.408 22.8464V22.8541ZM214.329 22.5671C214.357 22.4236 214.353 22.3111 214.317 22.2258C214.269 22.059 214.14 21.9543 213.934 21.9194C213.737 21.8845 213.584 21.9388 213.476 22.0823C213.411 22.1676 213.367 22.2762 213.343 22.4081C213.314 22.5516 213.327 22.6718 213.371 22.7766C213.431 22.9201 213.552 23.0093 213.733 23.0403C213.91 23.0713 214.051 23.0364 214.156 22.9317C214.24 22.8503 214.301 22.73 214.333 22.5671H214.329ZM213.677 20.6782C213.657 20.7829 213.665 20.8799 213.697 20.9691C213.757 21.1126 213.878 21.2018 214.059 21.2329C214.253 21.2639 214.402 21.2251 214.514 21.1087C214.575 21.0467 214.615 20.9536 214.639 20.8372C214.655 20.748 214.651 20.6705 214.627 20.6006C214.599 20.5269 214.555 20.461 214.486 20.4028C214.418 20.3446 214.333 20.3097 214.232 20.2903C214.14 20.2748 214.055 20.2787 213.975 20.3059C213.894 20.3291 213.826 20.3796 213.773 20.4532C213.725 20.5269 213.693 20.6006 213.677 20.6782Z" fill="white"/>
<path d="M216.111 23.9943C215.878 23.6724 215.809 23.2768 215.902 22.8152L216.212 21.287C216.304 20.8255 216.522 20.4919 216.86 20.2824C217.198 20.073 217.617 20.0148 218.116 20.1079C218.615 20.201 218.982 20.4066 219.219 20.7285C219.457 21.0504 219.529 21.4344 219.437 21.8921L219.127 23.4203C219.034 23.8857 218.813 24.2232 218.47 24.4404C218.124 24.6537 217.701 24.7158 217.202 24.6227C216.703 24.5296 216.336 24.3201 216.107 23.9982L216.111 23.9943ZM217.81 23.6491C217.927 23.5677 218.003 23.4436 218.04 23.2729L218.366 21.6477C218.402 21.4771 218.378 21.3336 218.301 21.2172C218.225 21.1008 218.1 21.0271 217.939 20.9961C217.778 20.9651 217.641 20.9922 217.524 21.0698C217.407 21.1474 217.335 21.2754 217.299 21.446L216.973 23.0712C216.936 23.2419 216.957 23.3854 217.029 23.5017C217.101 23.6181 217.222 23.6918 217.387 23.7228C217.552 23.7538 217.693 23.7306 217.81 23.6491Z" fill="white"/>
<path d="M245.901 30.3512C245.829 30.5684 245.716 30.7546 245.559 30.902C245.37 31.0843 245.132 31.2045 244.851 31.2588C244.569 31.317 244.263 31.2937 243.928 31.189C243.614 31.092 243.349 30.9446 243.139 30.743C242.93 30.5451 242.801 30.3085 242.757 30.037C242.717 29.8315 242.737 29.6181 242.813 29.3893C242.853 29.2729 242.906 29.1605 242.97 29.0596C243.035 28.9549 243.103 28.8734 243.176 28.8036C243.292 28.695 243.413 28.6213 243.55 28.5787C243.57 28.5709 243.574 28.5593 243.566 28.536C243.498 28.4352 243.449 28.311 243.417 28.1675C243.381 27.9775 243.397 27.7874 243.461 27.5974C243.558 27.3026 243.735 27.0737 243.993 26.9147C244.174 26.7984 244.388 26.7285 244.629 26.7053C244.871 26.682 245.12 26.713 245.382 26.7945C245.648 26.8759 245.869 26.9962 246.05 27.1474C246.232 27.2987 246.36 27.4771 246.433 27.6672C246.55 27.9464 246.558 28.2296 246.461 28.5205C246.393 28.7261 246.28 28.8967 246.119 29.0247C246.026 29.1023 245.917 29.1682 245.793 29.2109C245.769 29.2225 245.764 29.2342 245.773 29.2497C245.869 29.3699 245.926 29.5018 245.95 29.6531C245.994 29.8703 245.974 30.103 245.893 30.3396L245.901 30.3512ZM244.875 29.9246C244.919 29.7888 244.931 29.6724 244.911 29.5871C244.887 29.4126 244.774 29.2962 244.577 29.2342C244.388 29.176 244.226 29.2109 244.098 29.335C244.021 29.4087 243.961 29.5134 243.92 29.6414C243.876 29.7811 243.868 29.9013 243.896 30.0099C243.933 30.1612 244.041 30.262 244.218 30.3163C244.392 30.3706 244.536 30.3512 244.653 30.262C244.75 30.1922 244.826 30.0797 244.879 29.9207L244.875 29.9246ZM244.488 27.9658C244.456 28.0667 244.448 28.1636 244.468 28.2567C244.504 28.408 244.613 28.5089 244.79 28.5632C244.975 28.6213 245.132 28.5981 245.257 28.5011C245.326 28.4468 245.378 28.3615 245.418 28.249C245.446 28.1636 245.454 28.0861 245.438 28.0163C245.422 27.9387 245.386 27.8689 245.326 27.8029C245.265 27.737 245.189 27.6905 245.092 27.6594C245.004 27.6323 244.919 27.6245 244.834 27.64C244.75 27.6555 244.677 27.6943 244.613 27.7603C244.553 27.8262 244.512 27.896 244.488 27.9697V27.9658Z" fill="white"/>
<path d="M249.421 31.3635C249.349 31.5652 249.244 31.7475 249.103 31.9065C248.906 32.1198 248.656 32.2633 248.35 32.3332C248.044 32.403 247.726 32.3836 247.396 32.275C247.066 32.1664 246.8 31.9996 246.599 31.7708C246.397 31.5419 246.289 31.282 246.264 30.9911C246.256 30.8631 246.264 30.7313 246.293 30.5955V30.5839C246.313 30.5412 246.345 30.5257 246.397 30.5412L247.315 30.8399C247.352 30.8515 247.376 30.8825 247.384 30.9291C247.38 30.9562 247.384 30.9911 247.396 31.0416C247.416 31.2316 247.517 31.3557 247.694 31.4139C247.782 31.4411 247.867 31.4488 247.955 31.4294C248.04 31.41 248.121 31.3674 248.189 31.3014C248.261 31.2355 248.322 31.1424 248.366 31.0222C248.406 30.9097 248.418 30.805 248.406 30.7119C248.406 30.6304 248.374 30.5567 248.318 30.4908C248.265 30.4249 248.193 30.3783 248.104 30.3512C248.008 30.3201 247.911 30.3124 247.811 30.3279C247.71 30.3434 247.633 30.3822 247.581 30.4404C247.553 30.4753 247.521 30.4869 247.48 30.4753L246.542 30.1727C246.522 30.165 246.506 30.1534 246.498 30.134C246.49 30.1146 246.486 30.0952 246.498 30.0758L247.368 27.5896C247.376 27.5702 247.388 27.5547 247.408 27.5469C247.428 27.5391 247.448 27.5353 247.468 27.5469L250.218 28.4429C250.238 28.4506 250.254 28.4623 250.263 28.4817C250.271 28.501 250.275 28.5204 250.263 28.5398L250.013 29.2535C250.005 29.2729 249.993 29.2884 249.973 29.2962C249.952 29.3039 249.932 29.3078 249.912 29.2962L248.161 28.726C248.141 28.7182 248.125 28.726 248.121 28.7454L247.871 29.4552C247.871 29.4552 247.871 29.4785 247.871 29.4823C247.871 29.4862 247.887 29.4901 247.899 29.4823C248.104 29.4397 248.318 29.4552 248.535 29.5289C248.833 29.6259 249.071 29.7849 249.244 30.0021C249.421 30.2193 249.514 30.4714 249.526 30.7545C249.526 30.9718 249.498 31.1773 249.429 31.3713L249.421 31.3635Z" fill="white"/>
<path d="M277.983 41.1844L277.118 42.8949C277.013 43.1005 276.864 43.2556 276.663 43.3603C276.461 43.4651 276.236 43.5116 275.982 43.5C275.724 43.4883 275.459 43.4185 275.181 43.2866C274.911 43.1587 274.694 43.0035 274.529 42.8173C274.364 42.6312 274.263 42.4333 274.231 42.22C274.194 42.0106 274.231 41.8011 274.335 41.5917L274.432 41.4016C274.432 41.4016 274.456 41.3706 274.476 41.3628C274.496 41.3551 274.517 41.359 274.537 41.3628L275.382 41.7623C275.382 41.7623 275.414 41.7856 275.422 41.805C275.431 41.8244 275.427 41.8438 275.422 41.8632L275.394 41.9136C275.342 42.0183 275.334 42.1192 275.374 42.2239C275.414 42.3286 275.491 42.4062 275.604 42.4605C275.724 42.5148 275.837 42.5264 275.95 42.4954C276.063 42.4644 276.147 42.3946 276.2 42.286L276.425 41.8438C276.425 41.8438 276.429 41.8244 276.425 41.8166C276.421 41.8089 276.409 41.8089 276.397 41.8128C276.187 41.8515 275.958 41.8128 275.716 41.7003C275.475 41.5878 275.282 41.4249 275.137 41.2154C274.992 41.006 274.919 40.7655 274.915 40.5018C274.915 40.3001 274.976 40.0751 275.1 39.8269C275.209 39.6097 275.346 39.4351 275.507 39.2994C275.733 39.1171 275.994 39.0124 276.296 38.9852C276.598 38.9581 276.904 39.0201 277.218 39.1675C277.528 39.3149 277.766 39.5088 277.931 39.7571C278.096 40.0053 278.168 40.2729 278.156 40.5677C278.144 40.7733 278.088 40.9788 277.983 41.1844ZM276.997 40.6996C277.057 40.5793 277.081 40.4669 277.077 40.3544C277.069 40.1876 276.981 40.0674 276.812 39.9898C276.642 39.9122 276.489 39.9161 276.344 40.0053C276.244 40.0635 276.159 40.1527 276.095 40.2807C276.03 40.4126 276.002 40.5328 276.018 40.6492C276.043 40.8043 276.135 40.9168 276.288 40.9905C276.457 41.0719 276.61 41.0681 276.747 40.9866C276.844 40.9284 276.928 40.8353 276.993 40.7035L276.997 40.6996Z" fill="white"/>
<path d="M277.584 43.9924C277.451 43.62 277.499 43.2244 277.721 42.8016L278.453 41.4131C278.675 40.9942 278.977 40.7304 279.363 40.6179C279.75 40.5054 280.169 40.5598 280.624 40.7808C281.079 41.0019 281.372 41.2967 281.509 41.669C281.646 42.0375 281.606 42.4331 281.389 42.8443L280.656 44.2328C280.434 44.6556 280.124 44.9232 279.734 45.0396C279.343 45.156 278.916 45.1017 278.465 44.8806C278.015 44.6595 277.721 44.3608 277.588 43.9885L277.584 43.9924ZM279.319 44.1087C279.456 44.0622 279.565 43.9613 279.645 43.8062L280.422 42.3323C280.503 42.1772 280.523 42.0336 280.483 41.9018C280.442 41.7699 280.346 41.6652 280.197 41.5915C280.052 41.5217 279.911 41.5061 279.778 41.5566C279.645 41.6031 279.536 41.704 279.456 41.8591L278.679 43.333C278.598 43.4881 278.574 43.6316 278.61 43.7635C278.647 43.8954 278.743 43.9962 278.892 44.0699C279.041 44.1436 279.186 44.1553 279.319 44.1126V44.1087Z" fill="white"/>
<path d="M310.751 59.4138L309.62 60.9769C309.483 61.167 309.31 61.295 309.096 61.3686C308.883 61.4423 308.654 61.454 308.4 61.4036C308.146 61.3531 307.897 61.2445 307.639 61.0739C307.393 60.9071 307.204 60.7209 307.071 60.5115C306.938 60.302 306.87 60.0926 306.87 59.8792C306.87 59.6659 306.934 59.4642 307.071 59.2742L307.196 59.0996C307.196 59.0996 307.224 59.0725 307.248 59.0686C307.273 59.0647 307.289 59.0686 307.309 59.0802L308.082 59.6C308.082 59.6 308.11 59.6271 308.114 59.6504C308.114 59.6698 308.114 59.6892 308.102 59.7086L308.07 59.7551C308.001 59.8482 307.977 59.9491 308.001 60.0577C308.021 60.1663 308.086 60.2555 308.19 60.3253C308.299 60.399 308.412 60.4261 308.529 60.4106C308.645 60.3951 308.738 60.3369 308.811 60.24L309.1 59.8366C309.1 59.8366 309.108 59.8172 309.104 59.8094C309.1 59.8017 309.092 59.7978 309.08 59.8017C308.867 59.8094 308.649 59.7357 308.428 59.5883C308.207 59.441 308.042 59.2509 307.933 59.0221C307.824 58.7932 307.788 58.545 307.828 58.2812C307.86 58.0795 307.957 57.8662 308.118 57.6451C308.263 57.4473 308.424 57.2922 308.605 57.1836C308.859 57.0362 309.133 56.9702 309.435 56.9896C309.737 57.009 310.031 57.1138 310.316 57.3038C310.598 57.4939 310.804 57.7227 310.924 57.9942C311.045 58.2618 311.077 58.5411 311.017 58.8281C310.973 59.0298 310.884 59.2237 310.747 59.4099L310.751 59.4138ZM309.853 58.7893C309.93 58.6807 309.978 58.5721 309.986 58.4597C310.002 58.2929 309.934 58.161 309.785 58.0602C309.636 57.9593 309.479 57.9399 309.322 58.0058C309.213 58.0446 309.117 58.1222 309.032 58.2386C308.947 58.3588 308.899 58.4752 308.899 58.5915C308.899 58.7467 308.972 58.8747 309.112 58.9678C309.27 59.0725 309.418 59.0919 309.567 59.0298C309.672 58.9872 309.769 58.9057 309.857 58.7893H309.853Z" fill="white"/>
<path d="M312.829 62.7847C312.7 62.9592 312.543 63.1027 312.362 63.2152C312.108 63.3665 311.826 63.4286 311.512 63.4092C311.198 63.3898 310.9 63.2812 310.615 63.0833C310.333 62.8855 310.127 62.6489 310.007 62.3736C309.886 62.0982 309.858 61.8189 309.922 61.5319C309.954 61.4078 310.003 61.2837 310.067 61.1595L310.075 61.1479C310.103 61.1091 310.139 61.1052 310.184 61.1363L310.969 61.6793C311.001 61.7025 311.013 61.7375 311.005 61.784C310.993 61.8073 310.985 61.8422 310.981 61.8926C310.945 62.0827 311.001 62.23 311.15 62.3309C311.227 62.3813 311.307 62.4123 311.396 62.4201C311.484 62.4279 311.573 62.4085 311.657 62.3619C311.75 62.3193 311.835 62.2494 311.911 62.1447C311.983 62.0477 312.028 61.9508 312.044 61.8577C312.064 61.7762 312.06 61.6987 312.028 61.6211C311.996 61.5435 311.943 61.4776 311.867 61.4272C311.782 61.369 311.694 61.3341 311.593 61.3224C311.492 61.3108 311.408 61.3224 311.339 61.3651C311.303 61.3923 311.267 61.3923 311.231 61.3651L310.429 60.8105C310.429 60.8105 310.401 60.7833 310.397 60.76C310.397 60.7406 310.397 60.7212 310.413 60.7019L312.004 58.5725C312.004 58.5725 312.036 58.5453 312.056 58.5414C312.076 58.5376 312.096 58.5414 312.116 58.557L314.472 60.1899C314.472 60.1899 314.5 60.2209 314.504 60.2403C314.508 60.2597 314.504 60.2791 314.488 60.2985L314.033 60.9113C314.033 60.9113 314.001 60.9385 313.981 60.9423C313.96 60.9423 313.94 60.9423 313.92 60.9307L312.418 59.8912C312.418 59.8912 312.386 59.8796 312.374 59.899L311.919 60.504C311.919 60.504 311.911 60.5234 311.915 60.5312C311.919 60.539 311.927 60.5428 311.939 60.5389C312.149 60.5583 312.346 60.632 312.531 60.76C312.785 60.9385 312.962 61.1557 313.063 61.4116C313.163 61.6715 313.175 61.9353 313.103 62.2107C313.038 62.4201 312.946 62.6063 312.821 62.7731L312.829 62.7847Z" fill="white"/>
<path d="M338.397 81.3475L339.094 81.9952C339.094 81.9952 339.118 82.0262 339.118 82.0495C339.118 82.0689 339.11 82.0883 339.094 82.1038L335.989 85.2184C335.989 85.2184 335.957 85.2416 335.933 85.2416C335.913 85.2416 335.893 85.2339 335.877 85.2184L335.196 84.59C335.196 84.59 335.172 84.559 335.172 84.5357C335.172 84.5163 335.18 84.4969 335.192 84.4814L337.62 82.0456C337.62 82.0456 337.628 82.0301 337.628 82.0185C337.628 82.0068 337.624 81.9991 337.612 81.9952L337.036 81.6694L337.012 81.6577C336.984 81.6306 336.988 81.5996 337.02 81.5685L337.491 81.076C337.523 81.0449 337.556 81.0372 337.6 81.0527L338.301 81.3009C338.337 81.3164 338.365 81.3319 338.385 81.3552L338.397 81.3475Z" fill="white"/>
<path d="M336.88 85.684C336.872 85.2923 337.041 84.9277 337.384 84.5902L338.519 83.4809C338.861 83.1474 339.232 82.9845 339.634 82.9883C340.037 82.9961 340.419 83.1706 340.782 83.512C341.144 83.8572 341.333 84.2256 341.345 84.6174C341.357 85.0091 341.196 85.3737 340.858 85.7034L339.723 86.8127C339.381 87.1502 339.002 87.3169 338.591 87.3131C338.181 87.3092 337.794 87.1346 337.432 86.7894C337.069 86.4442 336.884 86.0758 336.876 85.684H336.88ZM338.495 86.3007C338.64 86.2968 338.773 86.2309 338.901 86.1068L340.105 84.9277C340.234 84.8036 340.299 84.6717 340.299 84.5321C340.299 84.3924 340.242 84.2683 340.121 84.1558C340.005 84.0433 339.876 83.9929 339.735 83.9968C339.594 84.0007 339.457 84.0666 339.332 84.1907L338.128 85.3698C338 85.494 337.935 85.6258 337.931 85.7616C337.927 85.8973 337.983 86.0215 338.104 86.1339C338.225 86.2464 338.354 86.3007 338.499 86.2968L338.495 86.3007Z" fill="white"/>
<path d="M339.583 88.2007C339.555 87.8089 339.704 87.4366 340.03 87.0836L341.105 85.92C341.427 85.5709 341.789 85.3886 342.196 85.3731C342.598 85.3576 342.989 85.5166 343.371 85.8424C343.75 86.1682 343.959 86.5251 343.996 86.9168C344.032 87.3086 343.887 87.677 343.569 88.0261L342.494 89.1897C342.168 89.5427 341.801 89.7288 341.386 89.7444C340.976 89.7599 340.581 89.6047 340.199 89.2789C339.82 88.9531 339.615 88.5963 339.587 88.2045L339.583 88.2007ZM341.229 88.7398C341.374 88.7281 341.503 88.6583 341.624 88.5265L342.763 87.2892C342.884 87.1573 342.941 87.0254 342.937 86.8858C342.933 86.7462 342.864 86.6259 342.739 86.5173C342.619 86.4126 342.486 86.366 342.345 86.3777C342.204 86.3893 342.071 86.463 341.95 86.591L340.811 87.8283C340.69 87.9602 340.63 88.092 340.634 88.2278C340.638 88.3636 340.698 88.4838 340.827 88.5924C340.952 88.701 341.089 88.7475 341.229 88.7359V88.7398Z" fill="white"/>
<path d="M251.875 24.5665C252.502 22.7381 251.515 20.7871 249.67 20.2087C247.826 19.6302 245.822 20.6435 245.195 22.4719L251.875 24.5665ZM151.088 318.407L251.875 24.5665L245.195 22.4719L144.408 316.313L151.088 318.407Z" fill="white"/>
<rect x="98.5" y="87.5" width="149" height="95" rx="7.5" fill="#1A161E"/>
<rect x="98.5" y="87.5" width="149" height="95" rx="7.5" stroke="#534D66"/>
<path d="M169.398 128.605C170.318 130.445 170.778 132.505 170.778 134.785C170.778 137.185 170.278 139.245 169.278 140.965C168.238 143.005 166.638 144.625 164.478 145.825C162.358 146.985 159.818 147.565 156.858 147.565C154.058 147.565 151.538 147.005 149.298 145.885C147.058 144.725 145.378 143.065 144.258 140.905C143.298 139.025 142.818 136.965 142.818 134.725C142.818 132.525 143.278 130.465 144.198 128.545C144.878 127.145 145.878 126.005 147.198 125.125C147.358 125.005 147.358 124.865 147.198 124.705C146.238 123.985 145.418 123.025 144.738 121.825C143.818 120.225 143.358 118.425 143.358 116.425C143.358 113.585 144.158 111.185 145.758 109.225C146.918 107.665 148.458 106.465 150.378 105.625C152.338 104.745 154.498 104.305 156.858 104.305C159.298 104.305 161.458 104.745 163.338 105.625C165.218 106.505 166.738 107.705 167.898 109.225C169.498 111.305 170.298 113.705 170.298 116.425C170.298 118.505 169.778 120.365 168.738 122.005C168.058 123.045 167.238 123.925 166.278 124.645C166.118 124.805 166.118 124.945 166.278 125.065C167.598 125.905 168.638 127.085 169.398 128.605ZM152.358 114.205C151.958 115.005 151.758 115.845 151.758 116.725C151.758 117.885 152.018 118.925 152.538 119.845C153.458 121.285 154.878 122.005 156.798 122.005C158.718 122.005 160.178 121.285 161.178 119.845C161.698 118.965 161.958 117.905 161.958 116.665C161.958 115.785 161.758 114.945 161.358 114.145C160.958 113.345 160.358 112.725 159.558 112.285C158.758 111.805 157.818 111.565 156.738 111.565C155.778 111.565 154.898 111.805 154.098 112.285C153.338 112.725 152.758 113.365 152.358 114.205ZM161.118 138.205C161.878 137.125 162.258 135.725 162.258 134.005C162.258 132.525 161.978 131.285 161.418 130.285C160.538 128.605 158.998 127.765 156.798 127.765C154.718 127.765 153.238 128.585 152.358 130.225C151.758 131.225 151.458 132.525 151.458 134.125C151.458 135.685 151.798 136.985 152.478 138.025C153.398 139.545 154.858 140.305 156.858 140.305C158.778 140.305 160.198 139.605 161.118 138.205ZM202.519 127.945C203.119 129.905 203.419 131.805 203.419 133.645C203.419 135.685 203.099 137.525 202.459 139.165C201.539 141.725 199.919 143.765 197.599 145.285C195.279 146.765 192.559 147.505 189.439 147.505C186.399 147.505 183.719 146.785 181.399 145.345C179.119 143.865 177.499 141.865 176.539 139.345C176.139 138.305 175.839 137.205 175.639 136.045V135.925C175.639 135.485 175.879 135.265 176.359 135.265H183.619C184.019 135.265 184.279 135.485 184.399 135.925C184.439 136.165 184.499 136.365 184.579 136.525C184.659 136.685 184.719 136.825 184.759 136.945C185.159 137.985 185.759 138.785 186.559 139.345C187.359 139.905 188.299 140.185 189.379 140.185C190.499 140.185 191.479 139.885 192.319 139.285C193.159 138.685 193.779 137.845 194.179 136.765C194.579 135.965 194.779 134.925 194.779 133.645C194.779 132.485 194.599 131.445 194.239 130.525C193.959 129.485 193.399 128.685 192.559 128.125C191.719 127.565 190.739 127.285 189.619 127.285C188.499 127.285 187.459 127.545 186.499 128.065C185.539 128.585 184.899 129.265 184.579 130.105C184.459 130.505 184.199 130.705 183.799 130.705H176.419C176.219 130.705 176.039 130.645 175.879 130.525C175.759 130.365 175.699 130.185 175.699 129.985V105.805C175.699 105.605 175.759 105.445 175.879 105.325C176.039 105.165 176.219 105.085 176.419 105.085H201.199C201.399 105.085 201.559 105.165 201.679 105.325C201.839 105.445 201.919 105.605 201.919 105.805V111.625C201.919 111.825 201.839 112.005 201.679 112.165C201.559 112.285 201.399 112.345 201.199 112.345H184.459C184.259 112.345 184.159 112.445 184.159 112.645L184.099 121.525C184.099 121.805 184.219 121.865 184.459 121.705C186.259 120.545 188.339 119.965 190.699 119.965C193.499 119.965 195.939 120.685 198.019 122.125C200.139 123.525 201.639 125.465 202.519 127.945Z" fill="#FFFF07"/>
<path d="M136.255 161.563C136.305 161.483 136.375 161.443 136.465 161.443H138.22C138.27 161.443 138.31 161.463 138.34 161.503C138.38 161.533 138.4 161.573 138.4 161.623V171.763C138.4 171.813 138.38 171.858 138.34 171.898C138.31 171.928 138.27 171.943 138.22 171.943H136.465C136.415 171.943 136.37 171.928 136.33 171.898C136.3 171.858 136.285 171.813 136.285 171.763V165.148C136.285 165.108 136.275 165.088 136.255 165.088C136.235 165.088 136.215 165.103 136.195 165.133L134.605 167.623C134.555 167.703 134.485 167.743 134.395 167.743H133.51C133.42 167.743 133.35 167.703 133.3 167.623L131.71 165.133C131.69 165.103 131.67 165.093 131.65 165.103C131.63 165.103 131.62 165.123 131.62 165.163V171.763C131.62 171.813 131.6 171.858 131.56 171.898C131.53 171.928 131.49 171.943 131.44 171.943H129.685C129.635 171.943 129.59 171.928 129.55 171.898C129.52 171.858 129.505 171.813 129.505 171.763V161.623C129.505 161.573 129.52 161.533 129.55 161.503C129.59 161.463 129.635 161.443 129.685 161.443H131.44C131.53 161.443 131.6 161.483 131.65 161.563L133.9 165.058C133.93 165.118 133.96 165.118 133.99 165.058L136.255 161.563ZM147.668 163.078C147.668 163.128 147.648 163.173 147.608 163.213C147.578 163.243 147.538 163.258 147.488 163.258H142.568C142.518 163.258 142.493 163.283 142.493 163.333V165.658C142.493 165.708 142.518 165.733 142.568 165.733H145.793C145.843 165.733 145.883 165.753 145.913 165.793C145.953 165.823 145.973 165.863 145.973 165.913V167.368C145.973 167.418 145.953 167.463 145.913 167.503C145.883 167.533 145.843 167.548 145.793 167.548H142.568C142.518 167.548 142.493 167.573 142.493 167.623V170.053C142.493 170.103 142.518 170.128 142.568 170.128H147.488C147.538 170.128 147.578 170.148 147.608 170.188C147.648 170.218 147.668 170.258 147.668 170.308V171.763C147.668 171.813 147.648 171.858 147.608 171.898C147.578 171.928 147.538 171.943 147.488 171.943H140.558C140.508 171.943 140.463 171.928 140.423 171.898C140.393 171.858 140.378 171.813 140.378 171.763V161.623C140.378 161.573 140.393 161.533 140.423 161.503C140.463 161.463 140.508 161.443 140.558 161.443H147.488C147.538 161.443 147.578 161.463 147.608 161.503C147.648 161.533 147.668 161.573 147.668 161.623V163.078ZM149.468 171.943C149.418 171.943 149.373 171.928 149.333 171.898C149.303 171.858 149.288 171.813 149.288 171.763V161.623C149.288 161.573 149.303 161.533 149.333 161.503C149.373 161.463 149.418 161.443 149.468 161.443H153.218C153.968 161.443 154.623 161.578 155.183 161.848C155.753 162.108 156.193 162.478 156.503 162.958C156.813 163.438 156.968 163.993 156.968 164.623V168.763C156.968 169.393 156.813 169.948 156.503 170.428C156.193 170.908 155.753 171.283 155.183 171.553C154.623 171.813 153.968 171.943 153.218 171.943H149.468ZM151.403 170.053C151.403 170.103 151.428 170.128 151.478 170.128H153.293C153.753 170.128 154.123 169.973 154.403 169.663C154.693 169.353 154.843 168.938 154.853 168.418V164.968C154.853 164.448 154.708 164.033 154.418 163.723C154.138 163.413 153.758 163.258 153.278 163.258H151.478C151.428 163.258 151.403 163.283 151.403 163.333V170.053ZM158.89 171.943C158.84 171.943 158.795 171.928 158.755 171.898C158.725 171.858 158.71 171.813 158.71 171.763V161.623C158.71 161.573 158.725 161.533 158.755 161.503C158.795 161.463 158.84 161.443 158.89 161.443H160.645C160.695 161.443 160.735 161.463 160.765 161.503C160.805 161.533 160.825 161.573 160.825 161.623V171.763C160.825 171.813 160.805 171.858 160.765 171.898C160.735 171.928 160.695 171.943 160.645 171.943H158.89ZM166.611 172.063C165.841 172.063 165.161 171.913 164.571 171.613C163.991 171.313 163.536 170.893 163.206 170.353C162.886 169.803 162.726 169.173 162.726 168.463V161.623C162.726 161.573 162.741 161.533 162.771 161.503C162.811 161.463 162.856 161.443 162.906 161.443H164.661C164.711 161.443 164.751 161.463 164.781 161.503C164.821 161.533 164.841 161.573 164.841 161.623V168.478C164.841 169.008 165.001 169.438 165.321 169.768C165.651 170.088 166.081 170.248 166.611 170.248C167.141 170.248 167.566 170.088 167.886 169.768C168.216 169.438 168.381 169.008 168.381 168.478V161.623C168.381 161.573 168.396 161.533 168.426 161.503C168.466 161.463 168.511 161.443 168.561 161.443H170.316C170.366 161.443 170.406 161.463 170.436 161.503C170.476 161.533 170.496 161.573 170.496 161.623V168.463C170.496 169.173 170.331 169.803 170.001 170.353C169.681 170.893 169.226 171.313 168.636 171.613C168.056 171.913 167.381 172.063 166.611 172.063ZM179.134 161.563C179.184 161.483 179.254 161.443 179.344 161.443H181.099C181.149 161.443 181.189 161.463 181.219 161.503C181.259 161.533 181.279 161.573 181.279 161.623V171.763C181.279 171.813 181.259 171.858 181.219 171.898C181.189 171.928 181.149 171.943 181.099 171.943H179.344C179.294 171.943 179.249 171.928 179.209 171.898C179.179 171.858 179.164 171.813 179.164 171.763V165.148C179.164 165.108 179.154 165.088 179.134 165.088C179.114 165.088 179.094 165.103 179.074 165.133L177.484 167.623C177.434 167.703 177.364 167.743 177.274 167.743H176.389C176.299 167.743 176.229 167.703 176.179 167.623L174.589 165.133C174.569 165.103 174.549 165.093 174.529 165.103C174.509 165.103 174.499 165.123 174.499 165.163V171.763C174.499 171.813 174.479 171.858 174.439 171.898C174.409 171.928 174.369 171.943 174.319 171.943H172.564C172.514 171.943 172.469 171.928 172.429 171.898C172.399 171.858 172.384 171.813 172.384 171.763V161.623C172.384 161.573 172.399 161.533 172.429 161.503C172.469 161.463 172.514 161.443 172.564 161.443H174.319C174.409 161.443 174.479 161.483 174.529 161.563L176.779 165.058C176.809 165.118 176.839 165.118 176.869 165.058L179.134 161.563ZM192.17 171.943C192.07 171.943 192 171.898 191.96 171.808L190.085 167.653C190.065 167.613 190.035 167.593 189.995 167.593H188.6C188.55 167.593 188.525 167.618 188.525 167.668V171.763C188.525 171.813 188.505 171.858 188.465 171.898C188.435 171.928 188.395 171.943 188.345 171.943H186.59C186.54 171.943 186.495 171.928 186.455 171.898C186.425 171.858 186.41 171.813 186.41 171.763V161.623C186.41 161.573 186.425 161.533 186.455 161.503C186.495 161.463 186.54 161.443 186.59 161.443H190.88C191.52 161.443 192.08 161.573 192.56 161.833C193.05 162.093 193.425 162.463 193.685 162.943C193.955 163.423 194.09 163.978 194.09 164.608C194.09 165.288 193.92 165.873 193.58 166.363C193.24 166.843 192.765 167.183 192.155 167.383C192.105 167.403 192.09 167.438 192.11 167.488L194.15 171.733C194.17 171.773 194.18 171.803 194.18 171.823C194.18 171.903 194.125 171.943 194.015 171.943H192.17ZM188.6 163.258C188.55 163.258 188.525 163.283 188.525 163.333V165.898C188.525 165.948 188.55 165.973 188.6 165.973H190.565C190.985 165.973 191.325 165.848 191.585 165.598C191.855 165.348 191.99 165.023 191.99 164.623C191.99 164.223 191.855 163.898 191.585 163.648C191.325 163.388 190.985 163.258 190.565 163.258H188.6ZM195.954 171.943C195.904 171.943 195.859 171.928 195.819 171.898C195.789 171.858 195.774 171.813 195.774 171.763V161.623C195.774 161.573 195.789 161.533 195.819 161.503C195.859 161.463 195.904 161.443 195.954 161.443H197.709C197.759 161.443 197.799 161.463 197.829 161.503C197.869 161.533 197.889 161.573 197.889 161.623V171.763C197.889 171.813 197.869 171.858 197.829 171.898C197.799 171.928 197.759 171.943 197.709 171.943H195.954ZM203.464 172.063C202.664 172.063 201.964 171.938 201.364 171.688C200.764 171.428 200.299 171.063 199.969 170.593C199.649 170.113 199.489 169.558 199.489 168.928V168.598C199.489 168.548 199.504 168.508 199.534 168.478C199.574 168.438 199.619 168.418 199.669 168.418H201.379C201.429 168.418 201.469 168.438 201.499 168.478C201.539 168.508 201.559 168.548 201.559 168.598V168.823C201.559 169.223 201.744 169.563 202.114 169.843C202.484 170.113 202.984 170.248 203.614 170.248C204.144 170.248 204.539 170.138 204.799 169.918C205.059 169.688 205.189 169.408 205.189 169.078C205.189 168.838 205.109 168.638 204.949 168.478C204.789 168.308 204.569 168.163 204.289 168.043C204.019 167.913 203.584 167.738 202.984 167.518C202.314 167.288 201.744 167.053 201.274 166.813C200.814 166.573 200.424 166.248 200.104 165.838C199.794 165.418 199.639 164.903 199.639 164.293C199.639 163.693 199.794 163.168 200.104 162.718C200.414 162.268 200.844 161.923 201.394 161.683C201.944 161.443 202.579 161.323 203.299 161.323C204.059 161.323 204.734 161.458 205.324 161.728C205.924 161.998 206.389 162.378 206.719 162.868C207.059 163.348 207.229 163.908 207.229 164.548V164.773C207.229 164.823 207.209 164.868 207.169 164.908C207.139 164.938 207.099 164.953 207.049 164.953H205.324C205.274 164.953 205.229 164.938 205.189 164.908C205.159 164.868 205.144 164.823 205.144 164.773V164.653C205.144 164.233 204.969 163.878 204.619 163.588C204.279 163.288 203.809 163.138 203.209 163.138C202.739 163.138 202.369 163.238 202.099 163.438C201.839 163.638 201.709 163.913 201.709 164.263C201.709 164.513 201.784 164.723 201.934 164.893C202.094 165.063 202.324 165.218 202.624 165.358C202.934 165.488 203.409 165.668 204.049 165.898C204.759 166.158 205.314 166.388 205.714 166.588C206.124 166.788 206.489 167.088 206.809 167.488C207.139 167.878 207.304 168.388 207.304 169.018C207.304 169.958 206.959 170.703 206.269 171.253C205.579 171.793 204.644 172.063 203.464 172.063ZM209.115 171.943C209.065 171.943 209.02 171.928 208.98 171.898C208.95 171.858 208.935 171.813 208.935 171.763V161.623C208.935 161.573 208.95 161.533 208.98 161.503C209.02 161.463 209.065 161.443 209.115 161.443H210.87C210.92 161.443 210.96 161.463 210.99 161.503C211.03 161.533 211.05 161.573 211.05 161.623V165.823C211.05 165.853 211.06 165.873 211.08 165.883C211.1 165.883 211.12 165.873 211.14 165.853L214.605 161.548C214.665 161.478 214.74 161.443 214.83 161.443H216.81C216.89 161.443 216.94 161.468 216.96 161.518C216.98 161.558 216.97 161.608 216.93 161.668L213.585 165.943C213.555 165.983 213.55 166.018 213.57 166.048L217.11 171.733C217.13 171.793 217.14 171.828 217.14 171.838C217.14 171.908 217.09 171.943 216.99 171.943H215.01C214.91 171.943 214.84 171.903 214.8 171.823L212.13 167.503C212.12 167.483 212.105 167.473 212.085 167.473C212.065 167.473 212.045 167.483 212.025 167.503L211.08 168.688C211.06 168.728 211.05 168.758 211.05 168.778V171.763C211.05 171.813 211.03 171.858 210.99 171.898C210.96 171.928 210.92 171.943 210.87 171.943H209.115Z" fill="white"/>
</g>
<defs>
<clipPath id="clip0_868_2614">
<rect width="345" height="183" fill="white"/>
</clipPath>
</defs>
</svg>
