<svg width="152" height="174" viewBox="0 0 152 174" fill="none" xmlns="http://www.w3.org/2000/svg">
<path d="M8.16 4.5C8.21 4.5 8.25 4.52 8.28 4.56C8.32 4.59 8.34 4.63 8.34 4.68V6.15C8.34 6.2 8.32 6.245 8.28 6.285C8.25 6.315 8.21 6.33 8.16 6.33H5.475C5.425 6.33 5.4 6.355 5.4 6.405V14.82C5.4 14.87 5.38 14.915 5.34 14.955C5.31 14.985 5.27 15 5.22 15H3.465C3.415 15 3.37 14.985 3.33 14.955C3.3 14.915 3.285 14.87 3.285 14.82V6.405C3.285 6.355 3.26 6.33 3.21 6.33H0.6C0.55 6.33 0.505 6.315 0.465 6.285C0.435 6.245 0.42 6.2 0.42 6.15V4.68C0.42 4.63 0.435 4.59 0.465 4.56C0.505 4.52 0.55 4.5 0.6 4.5H8.16ZM13.1496 15.165C12.3696 15.165 11.6796 15.005 11.0796 14.685C10.4896 14.365 10.0296 13.92 9.69961 13.35C9.36961 12.77 9.20461 12.105 9.20461 11.355V8.145C9.20461 7.405 9.36961 6.75 9.69961 6.18C10.0296 5.61 10.4896 5.17 11.0796 4.86C11.6796 4.54 12.3696 4.38 13.1496 4.38C13.9396 4.38 14.6296 4.54 15.2196 4.86C15.8196 5.17 16.2846 5.61 16.6146 6.18C16.9446 6.75 17.1096 7.405 17.1096 8.145V11.355C17.1096 12.105 16.9446 12.77 16.6146 13.35C16.2846 13.93 15.8196 14.38 15.2196 14.7C14.6296 15.01 13.9396 15.165 13.1496 15.165ZM13.1496 13.35C13.6996 13.35 14.1446 13.175 14.4846 12.825C14.8246 12.475 14.9946 12.01 14.9946 11.43V8.13C14.9946 7.55 14.8246 7.085 14.4846 6.735C14.1546 6.375 13.7096 6.195 13.1496 6.195C12.5996 6.195 12.1546 6.375 11.8146 6.735C11.4846 7.085 11.3196 7.55 11.3196 8.13V11.43C11.3196 12.01 11.4846 12.475 11.8146 12.825C12.1546 13.175 12.5996 13.35 13.1496 13.35ZM26.0088 4.5C26.0588 4.5 26.0988 4.52 26.1288 4.56C26.1688 4.59 26.1888 4.63 26.1888 4.68V6.15C26.1888 6.2 26.1688 6.245 26.1288 6.285C26.0988 6.315 26.0588 6.33 26.0088 6.33H23.3238C23.2738 6.33 23.2488 6.355 23.2488 6.405V14.82C23.2488 14.87 23.2288 14.915 23.1888 14.955C23.1588 14.985 23.1188 15 23.0688 15H21.3138C21.2638 15 21.2188 14.985 21.1788 14.955C21.1488 14.915 21.1338 14.87 21.1338 14.82V6.405C21.1338 6.355 21.1088 6.33 21.0588 6.33H18.4488C18.3988 6.33 18.3538 6.315 18.3138 6.285C18.2838 6.245 18.2688 6.2 18.2688 6.15V4.68C18.2688 4.63 18.2838 4.59 18.3138 4.56C18.3538 4.52 18.3988 4.5 18.4488 4.5H26.0088ZM33.3964 15C33.2964 15 33.2314 14.95 33.2014 14.85L32.7514 13.38C32.7314 13.34 32.7064 13.32 32.6764 13.32H28.9864C28.9564 13.32 28.9314 13.34 28.9114 13.38L28.4764 14.85C28.4464 14.95 28.3814 15 28.2814 15H26.3764C26.3164 15 26.2714 14.985 26.2414 14.955C26.2114 14.915 26.2064 14.86 26.2264 14.79L29.4664 4.65C29.4964 4.55 29.5614 4.5 29.6614 4.5H32.0164C32.1164 4.5 32.1814 4.55 32.2114 4.65L35.4514 14.79C35.4614 14.81 35.4664 14.835 35.4664 14.865C35.4664 14.955 35.4114 15 35.3014 15H33.3964ZM29.4514 11.595C29.4414 11.655 29.4614 11.685 29.5114 11.685H32.1514C32.2114 11.685 32.2314 11.655 32.2114 11.595L30.8614 7.14C30.8514 7.1 30.8364 7.085 30.8164 7.095C30.7964 7.095 30.7814 7.11 30.7714 7.14L29.4514 11.595ZM37.1149 15C37.0649 15 37.0199 14.985 36.9799 14.955C36.9499 14.915 36.9349 14.87 36.9349 14.82V4.68C36.9349 4.63 36.9499 4.59 36.9799 4.56C37.0199 4.52 37.0649 4.5 37.1149 4.5H38.8699C38.9199 4.5 38.9599 4.52 38.9899 4.56C39.0299 4.59 39.0499 4.63 39.0499 4.68V13.11C39.0499 13.16 39.0749 13.185 39.1249 13.185H44.0299C44.0799 13.185 44.1199 13.205 44.1499 13.245C44.1899 13.275 44.2099 13.315 44.2099 13.365V14.82C44.2099 14.87 44.1899 14.915 44.1499 14.955C44.1199 14.985 44.0799 15 44.0299 15H37.1149ZM56.1118 6.135C56.1118 6.185 56.0918 6.23 56.0518 6.27C56.0218 6.3 55.9818 6.315 55.9318 6.315H51.0118C50.9618 6.315 50.9368 6.34 50.9368 6.39V8.715C50.9368 8.765 50.9618 8.79 51.0118 8.79H54.2368C54.2868 8.79 54.3268 8.81 54.3568 8.85C54.3968 8.88 54.4168 8.92 54.4168 8.97V10.425C54.4168 10.475 54.3968 10.52 54.3568 10.56C54.3268 10.59 54.2868 10.605 54.2368 10.605H51.0118C50.9618 10.605 50.9368 10.63 50.9368 10.68V13.11C50.9368 13.16 50.9618 13.185 51.0118 13.185H55.9318C55.9818 13.185 56.0218 13.205 56.0518 13.245C56.0918 13.275 56.1118 13.315 56.1118 13.365V14.82C56.1118 14.87 56.0918 14.915 56.0518 14.955C56.0218 14.985 55.9818 15 55.9318 15H49.0018C48.9518 15 48.9068 14.985 48.8668 14.955C48.8368 14.915 48.8218 14.87 48.8218 14.82V4.68C48.8218 4.63 48.8368 4.59 48.8668 4.56C48.9068 4.52 48.9518 4.5 49.0018 4.5H55.9318C55.9818 4.5 56.0218 4.52 56.0518 4.56C56.0918 4.59 56.1118 4.63 56.1118 4.68V6.135ZM63.7616 4.68C63.7616 4.63 63.7766 4.59 63.8066 4.56C63.8466 4.52 63.8916 4.5 63.9416 4.5H65.6966C65.7466 4.5 65.7866 4.52 65.8166 4.56C65.8566 4.59 65.8766 4.63 65.8766 4.68V14.82C65.8766 14.87 65.8566 14.915 65.8166 14.955C65.7866 14.985 65.7466 15 65.6966 15H64.0016C63.9016 15 63.8316 14.96 63.7916 14.88L59.9066 8.46C59.8866 8.43 59.8666 8.42 59.8466 8.43C59.8266 8.43 59.8166 8.45 59.8166 8.49L59.8466 14.82C59.8466 14.87 59.8266 14.915 59.7866 14.955C59.7566 14.985 59.7166 15 59.6666 15H57.9116C57.8616 15 57.8166 14.985 57.7766 14.955C57.7466 14.915 57.7316 14.87 57.7316 14.82V4.68C57.7316 4.63 57.7466 4.59 57.7766 4.56C57.8166 4.52 57.8616 4.5 57.9116 4.5H59.6066C59.7066 4.5 59.7766 4.54 59.8166 4.62L63.6866 11.01C63.7066 11.04 63.7266 11.055 63.7466 11.055C63.7666 11.045 63.7766 11.02 63.7766 10.98L63.7616 4.68ZM71.5472 15.12C70.7772 15.12 70.0972 14.965 69.5072 14.655C68.9172 14.345 68.4572 13.915 68.1272 13.365C67.8072 12.805 67.6472 12.16 67.6472 11.43V8.07C67.6472 7.34 67.8072 6.695 68.1272 6.135C68.4572 5.575 68.9172 5.145 69.5072 4.845C70.0972 4.535 70.7772 4.38 71.5472 4.38C72.3072 4.38 72.9772 4.53 73.5572 4.83C74.1472 5.13 74.6022 5.54 74.9222 6.06C75.2522 6.57 75.4172 7.14 75.4172 7.77V7.875C75.4172 7.925 75.3972 7.97 75.3572 8.01C75.3272 8.04 75.2872 8.055 75.2372 8.055H73.4822C73.4322 8.055 73.3872 8.04 73.3472 8.01C73.3172 7.97 73.3022 7.925 73.3022 7.875V7.83C73.3022 7.37 73.1422 6.985 72.8222 6.675C72.5022 6.355 72.0772 6.195 71.5472 6.195C71.0072 6.195 70.5722 6.365 70.2422 6.705C69.9222 7.035 69.7622 7.47 69.7622 8.01V11.49C69.7622 12.03 69.9372 12.47 70.2872 12.81C70.6372 13.14 71.0822 13.305 71.6222 13.305C72.1422 13.305 72.5572 13.17 72.8672 12.9C73.1772 12.62 73.3322 12.235 73.3322 11.745V11.07C73.3322 11.02 73.3072 10.995 73.2572 10.995H71.5772C71.5272 10.995 71.4822 10.98 71.4422 10.95C71.4122 10.91 71.3972 10.865 71.3972 10.815V9.435C71.3972 9.385 71.4122 9.345 71.4422 9.315C71.4822 9.275 71.5272 9.255 71.5772 9.255H75.2372C75.2872 9.255 75.3272 9.275 75.3572 9.315C75.3972 9.345 75.4172 9.385 75.4172 9.435V11.415C75.4172 12.175 75.2572 12.835 74.9372 13.395C74.6172 13.955 74.1622 14.385 73.5722 14.685C72.9922 14.975 72.3172 15.12 71.5472 15.12ZM83.6324 15C83.5324 15 83.4674 14.95 83.4374 14.85L82.9874 13.38C82.9674 13.34 82.9424 13.32 82.9124 13.32H79.2224C79.1924 13.32 79.1674 13.34 79.1474 13.38L78.7124 14.85C78.6824 14.95 78.6174 15 78.5174 15H76.6124C76.5524 15 76.5074 14.985 76.4774 14.955C76.4474 14.915 76.4424 14.86 76.4624 14.79L79.7024 4.65C79.7324 4.55 79.7974 4.5 79.8974 4.5H82.2524C82.3524 4.5 82.4174 4.55 82.4474 4.65L85.6874 14.79C85.6974 14.81 85.7024 14.835 85.7024 14.865C85.7024 14.955 85.6474 15 85.5374 15H83.6324ZM79.6874 11.595C79.6774 11.655 79.6974 11.685 79.7474 11.685H82.3874C82.4474 11.685 82.4674 11.655 82.4474 11.595L81.0974 7.14C81.0874 7.1 81.0724 7.085 81.0524 7.095C81.0324 7.095 81.0174 7.11 81.0074 7.14L79.6874 11.595ZM90.5386 15.12C89.7686 15.12 89.0886 14.965 88.4986 14.655C87.9086 14.345 87.4486 13.915 87.1186 13.365C86.7986 12.805 86.6386 12.16 86.6386 11.43V8.07C86.6386 7.34 86.7986 6.695 87.1186 6.135C87.4486 5.575 87.9086 5.145 88.4986 4.845C89.0886 4.535 89.7686 4.38 90.5386 4.38C91.2986 4.38 91.9686 4.53 92.5486 4.83C93.1386 5.13 93.5936 5.54 93.9136 6.06C94.2436 6.57 94.4086 7.14 94.4086 7.77V7.875C94.4086 7.925 94.3886 7.97 94.3486 8.01C94.3186 8.04 94.2786 8.055 94.2286 8.055H92.4736C92.4236 8.055 92.3786 8.04 92.3386 8.01C92.3086 7.97 92.2936 7.925 92.2936 7.875V7.83C92.2936 7.37 92.1336 6.985 91.8136 6.675C91.4936 6.355 91.0686 6.195 90.5386 6.195C89.9986 6.195 89.5636 6.365 89.2336 6.705C88.9136 7.035 88.7536 7.47 88.7536 8.01V11.49C88.7536 12.03 88.9286 12.47 89.2786 12.81C89.6286 13.14 90.0736 13.305 90.6136 13.305C91.1336 13.305 91.5486 13.17 91.8586 12.9C92.1686 12.62 92.3236 12.235 92.3236 11.745V11.07C92.3236 11.02 92.2986 10.995 92.2486 10.995H90.5686C90.5186 10.995 90.4736 10.98 90.4336 10.95C90.4036 10.91 90.3886 10.865 90.3886 10.815V9.435C90.3886 9.385 90.4036 9.345 90.4336 9.315C90.4736 9.275 90.5186 9.255 90.5686 9.255H94.2286C94.2786 9.255 94.3186 9.275 94.3486 9.315C94.3886 9.345 94.4086 9.385 94.4086 9.435V11.415C94.4086 12.175 94.2486 12.835 93.9286 13.395C93.6086 13.955 93.1536 14.385 92.5636 14.685C91.9836 14.975 91.3086 15.12 90.5386 15.12ZM103.473 6.135C103.473 6.185 103.453 6.23 103.413 6.27C103.383 6.3 103.343 6.315 103.293 6.315H98.3732C98.3232 6.315 98.2982 6.34 98.2982 6.39V8.715C98.2982 8.765 98.3232 8.79 98.3732 8.79H101.598C101.648 8.79 101.688 8.81 101.718 8.85C101.758 8.88 101.778 8.92 101.778 8.97V10.425C101.778 10.475 101.758 10.52 101.718 10.56C101.688 10.59 101.648 10.605 101.598 10.605H98.3732C98.3232 10.605 98.2982 10.63 98.2982 10.68V13.11C98.2982 13.16 98.3232 13.185 98.3732 13.185H103.293C103.343 13.185 103.383 13.205 103.413 13.245C103.453 13.275 103.473 13.315 103.473 13.365V14.82C103.473 14.87 103.453 14.915 103.413 14.955C103.383 14.985 103.343 15 103.293 15H96.3632C96.3132 15 96.2682 14.985 96.2282 14.955C96.1982 14.915 96.1832 14.87 96.1832 14.82V4.68C96.1832 4.63 96.1982 4.59 96.2282 4.56C96.2682 4.52 96.3132 4.5 96.3632 4.5H103.293C103.343 4.5 103.383 4.52 103.413 4.56C103.453 4.59 103.473 4.63 103.473 4.68V6.135ZM111.843 4.62C111.893 4.54 111.963 4.5 112.053 4.5H113.808C113.858 4.5 113.898 4.52 113.928 4.56C113.968 4.59 113.988 4.63 113.988 4.68V14.82C113.988 14.87 113.968 14.915 113.928 14.955C113.898 14.985 113.858 15 113.808 15H112.053C112.003 15 111.958 14.985 111.918 14.955C111.888 14.915 111.873 14.87 111.873 14.82V8.205C111.873 8.165 111.863 8.145 111.843 8.145C111.823 8.145 111.803 8.16 111.783 8.19L110.193 10.68C110.143 10.76 110.073 10.8 109.983 10.8H109.098C109.008 10.8 108.938 10.76 108.888 10.68L107.298 8.19C107.278 8.16 107.258 8.15 107.238 8.16C107.218 8.16 107.208 8.18 107.208 8.22V14.82C107.208 14.87 107.188 14.915 107.148 14.955C107.118 14.985 107.078 15 107.028 15H105.273C105.223 15 105.178 14.985 105.138 14.955C105.108 14.915 105.093 14.87 105.093 14.82V4.68C105.093 4.63 105.108 4.59 105.138 4.56C105.178 4.52 105.223 4.5 105.273 4.5H107.028C107.118 4.5 107.188 4.54 107.238 4.62L109.488 8.115C109.518 8.175 109.548 8.175 109.578 8.115L111.843 4.62ZM123.256 6.135C123.256 6.185 123.236 6.23 123.196 6.27C123.166 6.3 123.126 6.315 123.076 6.315H118.156C118.106 6.315 118.081 6.34 118.081 6.39V8.715C118.081 8.765 118.106 8.79 118.156 8.79H121.381C121.431 8.79 121.471 8.81 121.501 8.85C121.541 8.88 121.561 8.92 121.561 8.97V10.425C121.561 10.475 121.541 10.52 121.501 10.56C121.471 10.59 121.431 10.605 121.381 10.605H118.156C118.106 10.605 118.081 10.63 118.081 10.68V13.11C118.081 13.16 118.106 13.185 118.156 13.185H123.076C123.126 13.185 123.166 13.205 123.196 13.245C123.236 13.275 123.256 13.315 123.256 13.365V14.82C123.256 14.87 123.236 14.915 123.196 14.955C123.166 14.985 123.126 15 123.076 15H116.146C116.096 15 116.051 14.985 116.011 14.955C115.981 14.915 115.966 14.87 115.966 14.82V4.68C115.966 4.63 115.981 4.59 116.011 4.56C116.051 4.52 116.096 4.5 116.146 4.5H123.076C123.126 4.5 123.166 4.52 123.196 4.56C123.236 4.59 123.256 4.63 123.256 4.68V6.135ZM130.905 4.68C130.905 4.63 130.92 4.59 130.95 4.56C130.99 4.52 131.035 4.5 131.085 4.5H132.84C132.89 4.5 132.93 4.52 132.96 4.56C133 4.59 133.02 4.63 133.02 4.68V14.82C133.02 14.87 133 14.915 132.96 14.955C132.93 14.985 132.89 15 132.84 15H131.145C131.045 15 130.975 14.96 130.935 14.88L127.05 8.46C127.03 8.43 127.01 8.42 126.99 8.43C126.97 8.43 126.96 8.45 126.96 8.49L126.99 14.82C126.99 14.87 126.97 14.915 126.93 14.955C126.9 14.985 126.86 15 126.81 15H125.055C125.005 15 124.96 14.985 124.92 14.955C124.89 14.915 124.875 14.87 124.875 14.82V4.68C124.875 4.63 124.89 4.59 124.92 4.56C124.96 4.52 125.005 4.5 125.055 4.5H126.75C126.85 4.5 126.92 4.54 126.96 4.62L130.83 11.01C130.85 11.04 130.87 11.055 130.89 11.055C130.91 11.045 130.92 11.02 130.92 10.98L130.905 4.68ZM142.246 4.5C142.296 4.5 142.336 4.52 142.366 4.56C142.406 4.59 142.426 4.63 142.426 4.68V6.15C142.426 6.2 142.406 6.245 142.366 6.285C142.336 6.315 142.296 6.33 142.246 6.33H139.561C139.511 6.33 139.486 6.355 139.486 6.405V14.82C139.486 14.87 139.466 14.915 139.426 14.955C139.396 14.985 139.356 15 139.306 15H137.551C137.501 15 137.456 14.985 137.416 14.955C137.386 14.915 137.371 14.87 137.371 14.82V6.405C137.371 6.355 137.346 6.33 137.296 6.33H134.686C134.636 6.33 134.591 6.315 134.551 6.285C134.521 6.245 134.506 6.2 134.506 6.15V4.68C134.506 4.63 134.521 4.59 134.551 4.56C134.591 4.52 134.636 4.5 134.686 4.5H142.246ZM147.437 15.12C146.637 15.12 145.937 14.995 145.337 14.745C144.737 14.485 144.272 14.12 143.942 13.65C143.622 13.17 143.462 12.615 143.462 11.985V11.655C143.462 11.605 143.477 11.565 143.507 11.535C143.547 11.495 143.592 11.475 143.642 11.475H145.352C145.402 11.475 145.442 11.495 145.472 11.535C145.512 11.565 145.532 11.605 145.532 11.655V11.88C145.532 12.28 145.717 12.62 146.087 12.9C146.457 13.17 146.957 13.305 147.587 13.305C148.117 13.305 148.512 13.195 148.772 12.975C149.032 12.745 149.162 12.465 149.162 12.135C149.162 11.895 149.082 11.695 148.922 11.535C148.762 11.365 148.542 11.22 148.262 11.1C147.992 10.97 147.557 10.795 146.957 10.575C146.287 10.345 145.717 10.11 145.247 9.87C144.787 9.63 144.397 9.305 144.077 8.895C143.767 8.475 143.612 7.96 143.612 7.35C143.612 6.75 143.767 6.225 144.077 5.775C144.387 5.325 144.817 4.98 145.367 4.74C145.917 4.5 146.552 4.38 147.272 4.38C148.032 4.38 148.707 4.515 149.297 4.785C149.897 5.055 150.362 5.435 150.692 5.925C151.032 6.405 151.202 6.965 151.202 7.605V7.83C151.202 7.88 151.182 7.925 151.142 7.965C151.112 7.995 151.072 8.01 151.022 8.01H149.297C149.247 8.01 149.202 7.995 149.162 7.965C149.132 7.925 149.117 7.88 149.117 7.83V7.71C149.117 7.29 148.942 6.935 148.592 6.645C148.252 6.345 147.782 6.195 147.182 6.195C146.712 6.195 146.342 6.295 146.072 6.495C145.812 6.695 145.682 6.97 145.682 7.32C145.682 7.57 145.757 7.78 145.907 7.95C146.067 8.12 146.297 8.275 146.597 8.415C146.907 8.545 147.382 8.725 148.022 8.955C148.732 9.215 149.287 9.445 149.687 9.645C150.097 9.845 150.462 10.145 150.782 10.545C151.112 10.935 151.277 11.445 151.277 12.075C151.277 13.015 150.932 13.76 150.242 14.31C149.552 14.85 148.617 15.12 147.437 15.12Z" fill="white"/>
<path d="M64.168 51.392C64.7547 52.8293 65.048 54.4867 65.048 56.364C65.048 57.9187 64.8133 59.356 64.344 60.676C63.6987 62.4947 62.628 63.9027 61.132 64.9C59.636 65.868 57.832 66.352 55.72 66.352C53.608 66.352 51.7747 65.8093 50.22 64.724C48.6947 63.6387 47.624 62.172 47.008 60.324C46.6853 59.5027 46.4947 58.3293 46.436 56.804C46.436 56.5107 46.5827 56.364 46.876 56.364H50.264C50.5573 56.364 50.704 56.5107 50.704 56.804C50.7627 57.86 50.88 58.6373 51.056 59.136C51.3493 60.2213 51.892 61.0867 52.684 61.732C53.5053 62.3773 54.5173 62.7 55.72 62.7C57.9493 62.7 59.4453 61.688 60.208 59.664C60.5893 58.784 60.78 57.64 60.78 56.232C60.78 54.736 60.5453 53.4013 60.076 52.228C59.2547 50.4093 57.788 49.5 55.676 49.5C55.1773 49.5 54.5467 49.72 53.784 50.16C53.6667 50.2187 53.5787 50.248 53.52 50.248C53.3733 50.248 53.256 50.1747 53.168 50.028L51.496 47.74C51.4373 47.6227 51.408 47.52 51.408 47.432C51.408 47.344 51.452 47.2413 51.54 47.124L59.064 39.072C59.152 38.9253 59.1227 38.852 58.976 38.852H47.272C46.9787 38.852 46.832 38.7053 46.832 38.412V35.64C46.832 35.3467 46.9787 35.2 47.272 35.2H64.344C64.6373 35.2 64.784 35.3467 64.784 35.64V38.808C64.784 38.9547 64.7107 39.1307 64.564 39.336L57.876 46.64C57.8173 46.6987 57.8027 46.7573 57.832 46.816C57.8613 46.8453 57.92 46.8747 58.008 46.904C59.504 47.0507 60.7653 47.52 61.792 48.312C62.8187 49.0747 63.6107 50.1013 64.168 51.392ZM89.7502 53.944C90.0436 53.944 90.1902 54.0907 90.1902 54.384V57.288C90.1902 57.5813 90.0436 57.728 89.7502 57.728H87.8582C87.7409 57.728 87.6822 57.7867 87.6822 57.904V65.56C87.6822 65.8533 87.5356 66 87.2422 66H83.8982C83.6049 66 83.4582 65.8533 83.4582 65.56V57.904C83.4582 57.7867 83.3996 57.728 83.2822 57.728H69.9062C69.6129 57.728 69.4662 57.5813 69.4662 57.288V54.912C69.4662 54.7653 69.5102 54.5893 69.5982 54.384L78.2662 35.508C78.3542 35.3027 78.5156 35.2 78.7502 35.2H82.2702C82.4169 35.2 82.5196 35.2587 82.5782 35.376C82.6662 35.464 82.6809 35.5813 82.6222 35.728L74.3502 53.724C74.3209 53.7827 74.3209 53.8413 74.3502 53.9C74.3796 53.9293 74.4236 53.944 74.4822 53.944H83.2822C83.3996 53.944 83.4582 53.8853 83.4582 53.768V47.212C83.4582 46.9187 83.6049 46.772 83.8982 46.772H87.2422C87.5356 46.772 87.6822 46.9187 87.6822 47.212V53.768C87.6822 53.8853 87.7409 53.944 87.8582 53.944H89.7502ZM94.908 66C94.7213 66 94.628 65.9067 94.628 65.72V46.68C94.628 46.4933 94.7213 46.4 94.908 46.4H97.036C97.2226 46.4 97.316 46.4933 97.316 46.68V57.46C97.316 57.4973 97.3346 57.5253 97.372 57.544C97.4093 57.5627 97.4373 57.5533 97.456 57.516L102.636 51.888C102.711 51.7947 102.823 51.748 102.972 51.748H105.464C105.576 51.748 105.641 51.7853 105.66 51.86C105.697 51.916 105.679 51.9907 105.604 52.084L101.992 56.256C101.955 56.3307 101.945 56.3867 101.964 56.424L106.248 65.664L106.276 65.776C106.276 65.9253 106.192 66 106.024 66H103.784C103.635 66 103.532 65.9253 103.476 65.776L100.144 58.16C100.107 58.0667 100.06 58.0573 100.004 58.132L97.372 61.044C97.3346 61.1187 97.316 61.1653 97.316 61.184V65.72C97.316 65.9067 97.2226 66 97.036 66H94.908Z" fill="white"/>
<path d="M19.595 114C19.545 114 19.5 113.985 19.46 113.955C19.43 113.915 19.415 113.87 19.415 113.82V103.68C19.415 103.63 19.43 103.59 19.46 103.56C19.5 103.52 19.545 103.5 19.595 103.5H23.345C24.095 103.5 24.75 103.635 25.31 103.905C25.88 104.165 26.32 104.535 26.63 105.015C26.94 105.495 27.095 106.05 27.095 106.68V110.82C27.095 111.45 26.94 112.005 26.63 112.485C26.32 112.965 25.88 113.34 25.31 113.61C24.75 113.87 24.095 114 23.345 114H19.595ZM21.53 112.11C21.53 112.16 21.555 112.185 21.605 112.185H23.42C23.88 112.185 24.25 112.03 24.53 111.72C24.82 111.41 24.97 110.995 24.98 110.475V107.025C24.98 106.505 24.835 106.09 24.545 105.78C24.265 105.47 23.885 105.315 23.405 105.315H21.605C21.555 105.315 21.53 105.34 21.53 105.39V112.11ZM32.5578 114.165C31.7778 114.165 31.0878 114.005 30.4878 113.685C29.8978 113.365 29.4378 112.92 29.1078 112.35C28.7778 111.77 28.6128 111.105 28.6128 110.355V107.145C28.6128 106.405 28.7778 105.75 29.1078 105.18C29.4378 104.61 29.8978 104.17 30.4878 103.86C31.0878 103.54 31.7778 103.38 32.5578 103.38C33.3478 103.38 34.0378 103.54 34.6278 103.86C35.2278 104.17 35.6928 104.61 36.0228 105.18C36.3528 105.75 36.5178 106.405 36.5178 107.145V110.355C36.5178 111.105 36.3528 111.77 36.0228 112.35C35.6928 112.93 35.2278 113.38 34.6278 113.7C34.0378 114.01 33.3478 114.165 32.5578 114.165ZM32.5578 112.35C33.1078 112.35 33.5528 112.175 33.8928 111.825C34.2328 111.475 34.4028 111.01 34.4028 110.43V107.13C34.4028 106.55 34.2328 106.085 33.8928 105.735C33.5628 105.375 33.1178 105.195 32.5578 105.195C32.0078 105.195 31.5628 105.375 31.2228 105.735C30.8928 106.085 30.7278 106.55 30.7278 107.13V110.43C30.7278 111.01 30.8928 111.475 31.2228 111.825C31.5628 112.175 32.0078 112.35 32.5578 112.35ZM38.4692 114C38.4192 114 38.3742 113.985 38.3342 113.955C38.3042 113.915 38.2892 113.87 38.2892 113.82V103.68C38.2892 103.63 38.3042 103.59 38.3342 103.56C38.3742 103.52 38.4192 103.5 38.4692 103.5H40.2242C40.2742 103.5 40.3142 103.52 40.3442 103.56C40.3842 103.59 40.4042 103.63 40.4042 103.68V112.11C40.4042 112.16 40.4292 112.185 40.4792 112.185H45.3842C45.4342 112.185 45.4742 112.205 45.5042 112.245C45.5442 112.275 45.5642 112.315 45.5642 112.365V113.82C45.5642 113.87 45.5442 113.915 45.5042 113.955C45.4742 113.985 45.4342 114 45.3842 114H38.4692ZM47.2032 114C47.1532 114 47.1082 113.985 47.0682 113.955C47.0382 113.915 47.0232 113.87 47.0232 113.82V103.68C47.0232 103.63 47.0382 103.59 47.0682 103.56C47.1082 103.52 47.1532 103.5 47.2032 103.5H48.9582C49.0082 103.5 49.0482 103.52 49.0782 103.56C49.1182 103.59 49.1382 103.63 49.1382 103.68V112.11C49.1382 112.16 49.1632 112.185 49.2132 112.185H54.1182C54.1682 112.185 54.2082 112.205 54.2382 112.245C54.2782 112.275 54.2982 112.315 54.2982 112.365V113.82C54.2982 113.87 54.2782 113.915 54.2382 113.955C54.2082 113.985 54.1682 114 54.1182 114H47.2032ZM62.6812 114C62.5812 114 62.5162 113.95 62.4862 113.85L62.0362 112.38C62.0162 112.34 61.9912 112.32 61.9612 112.32H58.2712C58.2412 112.32 58.2162 112.34 58.1962 112.38L57.7612 113.85C57.7312 113.95 57.6662 114 57.5662 114H55.6612C55.6012 114 55.5562 113.985 55.5262 113.955C55.4962 113.915 55.4912 113.86 55.5112 113.79L58.7512 103.65C58.7812 103.55 58.8462 103.5 58.9462 103.5H61.3012C61.4012 103.5 61.4662 103.55 61.4962 103.65L64.7362 113.79C64.7462 113.81 64.7512 113.835 64.7512 113.865C64.7512 113.955 64.6962 114 64.5862 114H62.6812ZM58.7362 110.595C58.7262 110.655 58.7462 110.685 58.7962 110.685H61.4362C61.4962 110.685 61.5162 110.655 61.4962 110.595L60.1462 106.14C60.1362 106.1 60.1212 106.085 60.1012 106.095C60.0812 106.095 60.0662 106.11 60.0562 106.14L58.7362 110.595ZM71.9797 114C71.8797 114 71.8097 113.955 71.7697 113.865L69.8947 109.71C69.8747 109.67 69.8447 109.65 69.8047 109.65H68.4097C68.3597 109.65 68.3347 109.675 68.3347 109.725V113.82C68.3347 113.87 68.3147 113.915 68.2747 113.955C68.2447 113.985 68.2047 114 68.1547 114H66.3997C66.3497 114 66.3047 113.985 66.2647 113.955C66.2347 113.915 66.2197 113.87 66.2197 113.82V103.68C66.2197 103.63 66.2347 103.59 66.2647 103.56C66.3047 103.52 66.3497 103.5 66.3997 103.5H70.6897C71.3297 103.5 71.8897 103.63 72.3697 103.89C72.8597 104.15 73.2347 104.52 73.4947 105C73.7647 105.48 73.8997 106.035 73.8997 106.665C73.8997 107.345 73.7297 107.93 73.3897 108.42C73.0497 108.9 72.5747 109.24 71.9647 109.44C71.9147 109.46 71.8997 109.495 71.9197 109.545L73.9597 113.79C73.9797 113.83 73.9897 113.86 73.9897 113.88C73.9897 113.96 73.9347 114 73.8247 114H71.9797ZM68.4097 105.315C68.3597 105.315 68.3347 105.34 68.3347 105.39V107.955C68.3347 108.005 68.3597 108.03 68.4097 108.03H70.3747C70.7947 108.03 71.1347 107.905 71.3947 107.655C71.6647 107.405 71.7997 107.08 71.7997 106.68C71.7997 106.28 71.6647 105.955 71.3947 105.705C71.1347 105.445 70.7947 105.315 70.3747 105.315H68.4097ZM79.1836 114.12C78.3836 114.12 77.6836 113.995 77.0836 113.745C76.4836 113.485 76.0186 113.12 75.6886 112.65C75.3686 112.17 75.2086 111.615 75.2086 110.985V110.655C75.2086 110.605 75.2236 110.565 75.2536 110.535C75.2936 110.495 75.3386 110.475 75.3886 110.475H77.0986C77.1486 110.475 77.1886 110.495 77.2186 110.535C77.2586 110.565 77.2786 110.605 77.2786 110.655V110.88C77.2786 111.28 77.4636 111.62 77.8336 111.9C78.2036 112.17 78.7036 112.305 79.3336 112.305C79.8636 112.305 80.2586 112.195 80.5186 111.975C80.7786 111.745 80.9086 111.465 80.9086 111.135C80.9086 110.895 80.8286 110.695 80.6686 110.535C80.5086 110.365 80.2886 110.22 80.0086 110.1C79.7386 109.97 79.3036 109.795 78.7036 109.575C78.0336 109.345 77.4636 109.11 76.9936 108.87C76.5336 108.63 76.1436 108.305 75.8236 107.895C75.5136 107.475 75.3586 106.96 75.3586 106.35C75.3586 105.75 75.5136 105.225 75.8236 104.775C76.1336 104.325 76.5636 103.98 77.1136 103.74C77.6636 103.5 78.2986 103.38 79.0186 103.38C79.7786 103.38 80.4536 103.515 81.0436 103.785C81.6436 104.055 82.1086 104.435 82.4386 104.925C82.7786 105.405 82.9486 105.965 82.9486 106.605V106.83C82.9486 106.88 82.9286 106.925 82.8886 106.965C82.8586 106.995 82.8186 107.01 82.7686 107.01H81.0436C80.9936 107.01 80.9486 106.995 80.9086 106.965C80.8786 106.925 80.8636 106.88 80.8636 106.83V106.71C80.8636 106.29 80.6886 105.935 80.3386 105.645C79.9986 105.345 79.5286 105.195 78.9286 105.195C78.4586 105.195 78.0886 105.295 77.8186 105.495C77.5586 105.695 77.4286 105.97 77.4286 106.32C77.4286 106.57 77.5036 106.78 77.6536 106.95C77.8136 107.12 78.0436 107.275 78.3436 107.415C78.6536 107.545 79.1286 107.725 79.7686 107.955C80.4786 108.215 81.0336 108.445 81.4336 108.645C81.8436 108.845 82.2086 109.145 82.5286 109.545C82.8586 109.935 83.0236 110.445 83.0236 111.075C83.0236 112.015 82.6786 112.76 81.9886 113.31C81.2986 113.85 80.3636 114.12 79.1836 114.12ZM91.4074 114.12C90.6074 114.12 89.9074 113.995 89.3074 113.745C88.7074 113.485 88.2424 113.12 87.9124 112.65C87.5924 112.17 87.4324 111.615 87.4324 110.985V110.655C87.4324 110.605 87.4474 110.565 87.4774 110.535C87.5174 110.495 87.5624 110.475 87.6124 110.475H89.3224C89.3724 110.475 89.4124 110.495 89.4424 110.535C89.4824 110.565 89.5024 110.605 89.5024 110.655V110.88C89.5024 111.28 89.6874 111.62 90.0574 111.9C90.4274 112.17 90.9274 112.305 91.5574 112.305C92.0874 112.305 92.4824 112.195 92.7424 111.975C93.0024 111.745 93.1324 111.465 93.1324 111.135C93.1324 110.895 93.0524 110.695 92.8924 110.535C92.7324 110.365 92.5124 110.22 92.2324 110.1C91.9624 109.97 91.5274 109.795 90.9274 109.575C90.2574 109.345 89.6874 109.11 89.2174 108.87C88.7574 108.63 88.3674 108.305 88.0474 107.895C87.7374 107.475 87.5824 106.96 87.5824 106.35C87.5824 105.75 87.7374 105.225 88.0474 104.775C88.3574 104.325 88.7874 103.98 89.3374 103.74C89.8874 103.5 90.5224 103.38 91.2424 103.38C92.0024 103.38 92.6774 103.515 93.2674 103.785C93.8674 104.055 94.3324 104.435 94.6624 104.925C95.0024 105.405 95.1724 105.965 95.1724 106.605V106.83C95.1724 106.88 95.1524 106.925 95.1124 106.965C95.0824 106.995 95.0424 107.01 94.9924 107.01H93.2674C93.2174 107.01 93.1724 106.995 93.1324 106.965C93.1024 106.925 93.0874 106.88 93.0874 106.83V106.71C93.0874 106.29 92.9124 105.935 92.5624 105.645C92.2224 105.345 91.7524 105.195 91.1524 105.195C90.6824 105.195 90.3124 105.295 90.0424 105.495C89.7824 105.695 89.6524 105.97 89.6524 106.32C89.6524 106.57 89.7274 106.78 89.8774 106.95C90.0374 107.12 90.2674 107.275 90.5674 107.415C90.8774 107.545 91.3524 107.725 91.9924 107.955C92.7024 108.215 93.2574 108.445 93.6574 108.645C94.0674 108.845 94.4324 109.145 94.7524 109.545C95.0824 109.935 95.2474 110.445 95.2474 111.075C95.2474 112.015 94.9024 112.76 94.2124 113.31C93.5224 113.85 92.5874 114.12 91.4074 114.12ZM103.553 114C103.453 114 103.388 113.95 103.358 113.85L102.908 112.38C102.888 112.34 102.863 112.32 102.833 112.32H99.1433C99.1133 112.32 99.0883 112.34 99.0683 112.38L98.6333 113.85C98.6033 113.95 98.5383 114 98.4383 114H96.5333C96.4733 114 96.4283 113.985 96.3983 113.955C96.3683 113.915 96.3633 113.86 96.3833 113.79L99.6233 103.65C99.6533 103.55 99.7183 103.5 99.8183 103.5H102.173C102.273 103.5 102.338 103.55 102.368 103.65L105.608 113.79C105.618 113.81 105.623 113.835 105.623 113.865C105.623 113.955 105.568 114 105.458 114H103.553ZM99.6083 110.595C99.5983 110.655 99.6183 110.685 99.6683 110.685H102.308C102.368 110.685 102.388 110.655 102.368 110.595L101.018 106.14C101.008 106.1 100.993 106.085 100.973 106.095C100.953 106.095 100.938 106.11 100.928 106.14L99.6083 110.595ZM109.603 114C109.503 114 109.438 113.95 109.408 113.85L106.318 103.71L106.303 103.65C106.303 103.55 106.358 103.5 106.468 103.5H108.358C108.468 103.5 108.538 103.55 108.568 103.65L110.563 110.97C110.573 111 110.588 111.015 110.608 111.015C110.628 111.015 110.643 111 110.653 110.97L112.618 103.65C112.648 103.55 112.718 103.5 112.828 103.5H114.673C114.733 103.5 114.778 103.52 114.808 103.56C114.838 103.6 114.843 103.65 114.823 103.71L111.688 113.85C111.658 113.95 111.593 114 111.493 114H109.603ZM123.497 105.135C123.497 105.185 123.477 105.23 123.437 105.27C123.407 105.3 123.367 105.315 123.317 105.315H118.397C118.347 105.315 118.322 105.34 118.322 105.39V107.715C118.322 107.765 118.347 107.79 118.397 107.79H121.622C121.672 107.79 121.712 107.81 121.742 107.85C121.782 107.88 121.802 107.92 121.802 107.97V109.425C121.802 109.475 121.782 109.52 121.742 109.56C121.712 109.59 121.672 109.605 121.622 109.605H118.397C118.347 109.605 118.322 109.63 118.322 109.68V112.11C118.322 112.16 118.347 112.185 118.397 112.185H123.317C123.367 112.185 123.407 112.205 123.437 112.245C123.477 112.275 123.497 112.315 123.497 112.365V113.82C123.497 113.87 123.477 113.915 123.437 113.955C123.407 113.985 123.367 114 123.317 114H116.387C116.337 114 116.292 113.985 116.252 113.955C116.222 113.915 116.207 113.87 116.207 113.82V103.68C116.207 103.63 116.222 103.59 116.252 103.56C116.292 103.52 116.337 103.5 116.387 103.5H123.317C123.367 103.5 123.407 103.52 123.437 103.56C123.477 103.59 123.497 103.63 123.497 103.68V105.135ZM125.296 114C125.246 114 125.201 113.985 125.161 113.955C125.131 113.915 125.116 113.87 125.116 113.82V103.68C125.116 103.63 125.131 103.59 125.161 103.56C125.201 103.52 125.246 103.5 125.296 103.5H129.046C129.796 103.5 130.451 103.635 131.011 103.905C131.581 104.165 132.021 104.535 132.331 105.015C132.641 105.495 132.796 106.05 132.796 106.68V110.82C132.796 111.45 132.641 112.005 132.331 112.485C132.021 112.965 131.581 113.34 131.011 113.61C130.451 113.87 129.796 114 129.046 114H125.296ZM127.231 112.11C127.231 112.16 127.256 112.185 127.306 112.185H129.121C129.581 112.185 129.951 112.03 130.231 111.72C130.521 111.41 130.671 110.995 130.681 110.475V107.025C130.681 106.505 130.536 106.09 130.246 105.78C129.966 105.47 129.586 105.315 129.106 105.315H127.306C127.256 105.315 127.231 105.34 127.231 105.39V112.11Z" fill="white"/>
<path d="M41.376 161.128C41.3467 161.187 41.3467 161.245 41.376 161.304C41.4053 161.333 41.4493 161.348 41.508 161.348H54.752C55.0453 161.348 55.192 161.495 55.192 161.788V164.56C55.192 164.853 55.0453 165 54.752 165H36.316C36.0227 165 35.876 164.853 35.876 164.56V161.876C35.876 161.671 35.9493 161.495 36.096 161.348C37.0933 160.204 39.3813 157.52 42.96 153.296L45.996 149.644C48.724 146.388 50.088 143.865 50.088 142.076C50.088 140.697 49.6187 139.597 48.68 138.776C47.7707 137.925 46.5533 137.5 45.028 137.5C43.5027 137.5 42.2853 137.925 41.376 138.776C40.4667 139.627 40.0267 140.741 40.056 142.12V143.44C40.056 143.733 39.9093 143.88 39.616 143.88H36.228C35.9347 143.88 35.788 143.733 35.788 143.44V141.548C35.8467 140.023 36.272 138.673 37.064 137.5C37.8853 136.327 38.9853 135.432 40.364 134.816C41.7427 134.171 43.2973 133.848 45.028 133.848C46.9053 133.848 48.548 134.2 49.956 134.904C51.364 135.608 52.4493 136.576 53.212 137.808C53.9747 139.04 54.356 140.433 54.356 141.988C54.356 144.423 53.036 147.297 50.396 150.612C49.2227 152.108 47.8293 153.795 46.216 155.672C44.6027 157.52 42.9893 159.339 41.376 161.128ZM76.7149 150.392C77.3015 151.829 77.5949 153.487 77.5949 155.364C77.5949 156.919 77.3602 158.356 76.8909 159.676C76.2455 161.495 75.1749 162.903 73.6789 163.9C72.1829 164.868 70.3789 165.352 68.2669 165.352C66.1549 165.352 64.3215 164.809 62.7669 163.724C61.2415 162.639 60.1709 161.172 59.5549 159.324C59.2322 158.503 59.0415 157.329 58.9829 155.804C58.9829 155.511 59.1295 155.364 59.4229 155.364H62.8109C63.1042 155.364 63.2509 155.511 63.2509 155.804C63.3095 156.86 63.4269 157.637 63.6029 158.136C63.8962 159.221 64.4389 160.087 65.2309 160.732C66.0522 161.377 67.0642 161.7 68.2669 161.7C70.4962 161.7 71.9922 160.688 72.7549 158.664C73.1362 157.784 73.3269 156.64 73.3269 155.232C73.3269 153.736 73.0922 152.401 72.6229 151.228C71.8015 149.409 70.3349 148.5 68.2229 148.5C67.7242 148.5 67.0935 148.72 66.3309 149.16C66.2135 149.219 66.1255 149.248 66.0669 149.248C65.9202 149.248 65.8029 149.175 65.7149 149.028L64.0429 146.74C63.9842 146.623 63.9549 146.52 63.9549 146.432C63.9549 146.344 63.9989 146.241 64.0869 146.124L71.6109 138.072C71.6989 137.925 71.6695 137.852 71.5229 137.852H59.8189C59.5255 137.852 59.3789 137.705 59.3789 137.412V134.64C59.3789 134.347 59.5255 134.2 59.8189 134.2H76.8909C77.1842 134.2 77.3309 134.347 77.3309 134.64V137.808C77.3309 137.955 77.2575 138.131 77.1109 138.336L70.4229 145.64C70.3642 145.699 70.3495 145.757 70.3789 145.816C70.4082 145.845 70.4669 145.875 70.5549 145.904C72.0509 146.051 73.3122 146.52 74.3389 147.312C75.3655 148.075 76.1575 149.101 76.7149 150.392ZM100.053 139.612C100.493 140.844 100.713 142.267 100.713 143.88V157.432C100.713 159.837 99.8771 161.759 98.2051 163.196C96.5331 164.633 94.3478 165.352 91.6491 165.352C89.9184 165.352 88.3784 165.029 87.0291 164.384C85.7091 163.739 84.6824 162.844 83.9491 161.7C83.2158 160.527 82.8491 159.192 82.8491 157.696V156.816C82.8491 156.523 82.9958 156.376 83.2891 156.376H86.6331C86.9264 156.376 87.0731 156.523 87.0731 156.816V157.212C87.0731 158.532 87.4984 159.603 88.3491 160.424C89.1998 161.245 90.2998 161.656 91.6491 161.656C93.0571 161.656 94.2158 161.231 95.1251 160.38C96.0344 159.529 96.4891 158.4 96.4891 156.992V151.448C96.4891 151.389 96.4598 151.345 96.4011 151.316C96.3718 151.287 96.3278 151.301 96.2691 151.36C95.0078 152.797 93.1744 153.516 90.7691 153.516C89.0384 153.516 87.5424 153.164 86.2811 152.46C85.0491 151.756 84.0811 150.729 83.3771 149.38C82.5558 147.825 82.1451 145.963 82.1451 143.792C82.1451 142.032 82.4238 140.463 82.9811 139.084C83.6558 137.412 84.7118 136.136 86.1491 135.256C87.5864 134.347 89.3171 133.892 91.3411 133.892C93.5118 133.892 95.3451 134.391 96.8411 135.388C98.3371 136.385 99.4078 137.793 100.053 139.612ZM95.7851 147.312C96.2544 146.344 96.4891 145.097 96.4891 143.572C96.4891 142.34 96.2984 141.299 95.9171 140.448C95.5358 139.509 94.9638 138.805 94.2011 138.336C93.4384 137.837 92.5144 137.588 91.4291 137.588C90.3438 137.588 89.4198 137.837 88.6571 138.336C87.9238 138.805 87.3811 139.495 87.0291 140.404C86.5891 141.313 86.3691 142.443 86.3691 143.792C86.3691 145.259 86.6184 146.461 87.1171 147.4C88.0264 149.101 89.4638 149.952 91.4291 149.952C93.5118 149.952 94.9638 149.072 95.7851 147.312ZM105.478 165C105.292 165 105.198 164.907 105.198 164.72V145.68C105.198 145.493 105.292 145.4 105.478 145.4H107.606C107.793 145.4 107.886 145.493 107.886 145.68V156.46C107.886 156.497 107.905 156.525 107.942 156.544C107.98 156.563 108.008 156.553 108.026 156.516L113.206 150.888C113.281 150.795 113.393 150.748 113.542 150.748H116.034C116.146 150.748 116.212 150.785 116.23 150.86C116.268 150.916 116.249 150.991 116.174 151.084L112.562 155.256C112.525 155.331 112.516 155.387 112.534 155.424L116.818 164.664L116.846 164.776C116.846 164.925 116.762 165 116.594 165H114.354C114.205 165 114.102 164.925 114.046 164.776L110.714 157.16C110.677 157.067 110.63 157.057 110.574 157.132L107.942 160.044C107.905 160.119 107.886 160.165 107.886 160.184V164.72C107.886 164.907 107.793 165 107.606 165H105.478Z" fill="white"/>
</svg>
