<svg width="113" height="174" viewBox="0 0 113 174" fill="none" xmlns="http://www.w3.org/2000/svg">
<path d="M8.16 4.5C8.21 4.5 8.25 4.52 8.28 4.56C8.32 4.59 8.34 4.63 8.34 4.68V6.15C8.34 6.2 8.32 6.245 8.28 6.285C8.25 6.315 8.21 6.33 8.16 6.33H5.475C5.425 6.33 5.4 6.355 5.4 6.405V14.82C5.4 14.87 5.38 14.915 5.34 14.955C5.31 14.985 5.27 15 5.22 15H3.465C3.415 15 3.37 14.985 3.33 14.955C3.3 14.915 3.285 14.87 3.285 14.82V6.405C3.285 6.355 3.26 6.33 3.21 6.33H0.6C0.55 6.33 0.505 6.315 0.465 6.285C0.435 6.245 0.42 6.2 0.42 6.15V4.68C0.42 4.63 0.435 4.59 0.465 4.56C0.505 4.52 0.55 4.5 0.6 4.5H8.16ZM13.1496 15.165C12.3696 15.165 11.6796 15.005 11.0796 14.685C10.4896 14.365 10.0296 13.92 9.69961 13.35C9.36961 12.77 9.20461 12.105 9.20461 11.355V8.145C9.20461 7.405 9.36961 6.75 9.69961 6.18C10.0296 5.61 10.4896 5.17 11.0796 4.86C11.6796 4.54 12.3696 4.38 13.1496 4.38C13.9396 4.38 14.6296 4.54 15.2196 4.86C15.8196 5.17 16.2846 5.61 16.6146 6.18C16.9446 6.75 17.1096 7.405 17.1096 8.145V11.355C17.1096 12.105 16.9446 12.77 16.6146 13.35C16.2846 13.93 15.8196 14.38 15.2196 14.7C14.6296 15.01 13.9396 15.165 13.1496 15.165ZM13.1496 13.35C13.6996 13.35 14.1446 13.175 14.4846 12.825C14.8246 12.475 14.9946 12.01 14.9946 11.43V8.13C14.9946 7.55 14.8246 7.085 14.4846 6.735C14.1546 6.375 13.7096 6.195 13.1496 6.195C12.5996 6.195 12.1546 6.375 11.8146 6.735C11.4846 7.085 11.3196 7.55 11.3196 8.13V11.43C11.3196 12.01 11.4846 12.475 11.8146 12.825C12.1546 13.175 12.5996 13.35 13.1496 13.35ZM26.0088 4.5C26.0588 4.5 26.0988 4.52 26.1288 4.56C26.1688 4.59 26.1888 4.63 26.1888 4.68V6.15C26.1888 6.2 26.1688 6.245 26.1288 6.285C26.0988 6.315 26.0588 6.33 26.0088 6.33H23.3238C23.2738 6.33 23.2488 6.355 23.2488 6.405V14.82C23.2488 14.87 23.2288 14.915 23.1888 14.955C23.1588 14.985 23.1188 15 23.0688 15H21.3138C21.2638 15 21.2188 14.985 21.1788 14.955C21.1488 14.915 21.1338 14.87 21.1338 14.82V6.405C21.1338 6.355 21.1088 6.33 21.0588 6.33H18.4488C18.3988 6.33 18.3538 6.315 18.3138 6.285C18.2838 6.245 18.2688 6.2 18.2688 6.15V4.68C18.2688 4.63 18.2838 4.59 18.3138 4.56C18.3538 4.52 18.3988 4.5 18.4488 4.5H26.0088ZM33.3964 15C33.2964 15 33.2314 14.95 33.2014 14.85L32.7514 13.38C32.7314 13.34 32.7064 13.32 32.6764 13.32H28.9864C28.9564 13.32 28.9314 13.34 28.9114 13.38L28.4764 14.85C28.4464 14.95 28.3814 15 28.2814 15H26.3764C26.3164 15 26.2714 14.985 26.2414 14.955C26.2114 14.915 26.2064 14.86 26.2264 14.79L29.4664 4.65C29.4964 4.55 29.5614 4.5 29.6614 4.5H32.0164C32.1164 4.5 32.1814 4.55 32.2114 4.65L35.4514 14.79C35.4614 14.81 35.4664 14.835 35.4664 14.865C35.4664 14.955 35.4114 15 35.3014 15H33.3964ZM29.4514 11.595C29.4414 11.655 29.4614 11.685 29.5114 11.685H32.1514C32.2114 11.685 32.2314 11.655 32.2114 11.595L30.8614 7.14C30.8514 7.1 30.8364 7.085 30.8164 7.095C30.7964 7.095 30.7814 7.11 30.7714 7.14L29.4514 11.595ZM37.1149 15C37.0649 15 37.0199 14.985 36.9799 14.955C36.9499 14.915 36.9349 14.87 36.9349 14.82V4.68C36.9349 4.63 36.9499 4.59 36.9799 4.56C37.0199 4.52 37.0649 4.5 37.1149 4.5H38.8699C38.9199 4.5 38.9599 4.52 38.9899 4.56C39.0299 4.59 39.0499 4.63 39.0499 4.68V13.11C39.0499 13.16 39.0749 13.185 39.1249 13.185H44.0299C44.0799 13.185 44.1199 13.205 44.1499 13.245C44.1899 13.275 44.2099 13.315 44.2099 13.365V14.82C44.2099 14.87 44.1899 14.915 44.1499 14.955C44.1199 14.985 44.0799 15 44.0299 15H37.1149ZM56.0968 6.135C56.0968 6.185 56.0768 6.23 56.0368 6.27C56.0068 6.3 55.9668 6.315 55.9168 6.315H51.0118C50.9618 6.315 50.9368 6.34 50.9368 6.39V8.715C50.9368 8.765 50.9618 8.79 51.0118 8.79H54.2368C54.2868 8.79 54.3268 8.81 54.3568 8.85C54.3968 8.88 54.4168 8.92 54.4168 8.97V10.425C54.4168 10.475 54.3968 10.52 54.3568 10.56C54.3268 10.59 54.2868 10.605 54.2368 10.605H51.0118C50.9618 10.605 50.9368 10.63 50.9368 10.68V14.82C50.9368 14.87 50.9168 14.915 50.8768 14.955C50.8468 14.985 50.8068 15 50.7568 15H49.0018C48.9518 15 48.9068 14.985 48.8668 14.955C48.8368 14.915 48.8218 14.87 48.8218 14.82V4.68C48.8218 4.63 48.8368 4.59 48.8668 4.56C48.9068 4.52 48.9518 4.5 49.0018 4.5H55.9168C55.9668 4.5 56.0068 4.52 56.0368 4.56C56.0768 4.59 56.0968 4.63 56.0968 4.68V6.135ZM57.5454 15C57.4954 15 57.4504 14.985 57.4104 14.955C57.3804 14.915 57.3654 14.87 57.3654 14.82V4.68C57.3654 4.63 57.3804 4.59 57.4104 4.56C57.4504 4.52 57.4954 4.5 57.5454 4.5H59.3004C59.3504 4.5 59.3904 4.52 59.4204 4.56C59.4604 4.59 59.4804 4.63 59.4804 4.68V14.82C59.4804 14.87 59.4604 14.915 59.4204 14.955C59.3904 14.985 59.3504 15 59.3004 15H57.5454ZM67.4858 4.68C67.4858 4.63 67.5008 4.59 67.5308 4.56C67.5708 4.52 67.6158 4.5 67.6658 4.5H69.4208C69.4708 4.5 69.5108 4.52 69.5408 4.56C69.5808 4.59 69.6008 4.63 69.6008 4.68V14.82C69.6008 14.87 69.5808 14.915 69.5408 14.955C69.5108 14.985 69.4708 15 69.4208 15H67.7258C67.6258 15 67.5558 14.96 67.5158 14.88L63.6308 8.46C63.6108 8.43 63.5908 8.42 63.5708 8.43C63.5508 8.43 63.5408 8.45 63.5408 8.49L63.5708 14.82C63.5708 14.87 63.5508 14.915 63.5108 14.955C63.4808 14.985 63.4408 15 63.3908 15H61.6358C61.5858 15 61.5408 14.985 61.5008 14.955C61.4708 14.915 61.4558 14.87 61.4558 14.82V4.68C61.4558 4.63 61.4708 4.59 61.5008 4.56C61.5408 4.52 61.5858 4.5 61.6358 4.5H63.3308C63.4308 4.5 63.5008 4.54 63.5408 4.62L67.4108 11.01C67.4308 11.04 67.4508 11.055 67.4708 11.055C67.4908 11.045 67.5008 11.02 67.5008 10.98L67.4858 4.68ZM71.6735 15C71.6235 15 71.5785 14.985 71.5385 14.955C71.5085 14.915 71.4935 14.87 71.4935 14.82V4.68C71.4935 4.63 71.5085 4.59 71.5385 4.56C71.5785 4.52 71.6235 4.5 71.6735 4.5H75.4235C76.1735 4.5 76.8285 4.635 77.3885 4.905C77.9585 5.165 78.3985 5.535 78.7085 6.015C79.0185 6.495 79.1735 7.05 79.1735 7.68V11.82C79.1735 12.45 79.0185 13.005 78.7085 13.485C78.3985 13.965 77.9585 14.34 77.3885 14.61C76.8285 14.87 76.1735 15 75.4235 15H71.6735ZM73.6085 13.11C73.6085 13.16 73.6335 13.185 73.6835 13.185H75.4985C75.9585 13.185 76.3285 13.03 76.6085 12.72C76.8985 12.41 77.0485 11.995 77.0585 11.475V8.025C77.0585 7.505 76.9135 7.09 76.6235 6.78C76.3435 6.47 75.9635 6.315 75.4835 6.315H73.6835C73.6335 6.315 73.6085 6.34 73.6085 6.39V13.11ZM81.096 15C81.046 15 81.001 14.985 80.961 14.955C80.931 14.915 80.916 14.87 80.916 14.82V4.68C80.916 4.63 80.931 4.59 80.961 4.56C81.001 4.52 81.046 4.5 81.096 4.5H82.851C82.901 4.5 82.941 4.52 82.971 4.56C83.011 4.59 83.031 4.63 83.031 4.68V14.82C83.031 14.87 83.011 14.915 82.971 14.955C82.941 14.985 82.901 15 82.851 15H81.096ZM91.0364 4.68C91.0364 4.63 91.0514 4.59 91.0814 4.56C91.1214 4.52 91.1664 4.5 91.2164 4.5H92.9714C93.0214 4.5 93.0614 4.52 93.0914 4.56C93.1314 4.59 93.1514 4.63 93.1514 4.68V14.82C93.1514 14.87 93.1314 14.915 93.0914 14.955C93.0614 14.985 93.0214 15 92.9714 15H91.2764C91.1764 15 91.1064 14.96 91.0664 14.88L87.1814 8.46C87.1614 8.43 87.1414 8.42 87.1214 8.43C87.1014 8.43 87.0914 8.45 87.0914 8.49L87.1214 14.82C87.1214 14.87 87.1014 14.915 87.0614 14.955C87.0314 14.985 86.9914 15 86.9414 15H85.1864C85.1364 15 85.0914 14.985 85.0514 14.955C85.0214 14.915 85.0064 14.87 85.0064 14.82V4.68C85.0064 4.63 85.0214 4.59 85.0514 4.56C85.0914 4.52 85.1364 4.5 85.1864 4.5H86.8814C86.9814 4.5 87.0514 4.54 87.0914 4.62L90.9614 11.01C90.9814 11.04 91.0014 11.055 91.0214 11.055C91.0414 11.045 91.0514 11.02 91.0514 10.98L91.0364 4.68ZM98.822 15.12C98.052 15.12 97.372 14.965 96.782 14.655C96.192 14.345 95.732 13.915 95.402 13.365C95.082 12.805 94.922 12.16 94.922 11.43V8.07C94.922 7.34 95.082 6.695 95.402 6.135C95.732 5.575 96.192 5.145 96.782 4.845C97.372 4.535 98.052 4.38 98.822 4.38C99.582 4.38 100.252 4.53 100.832 4.83C101.422 5.13 101.877 5.54 102.197 6.06C102.527 6.57 102.692 7.14 102.692 7.77V7.875C102.692 7.925 102.672 7.97 102.632 8.01C102.602 8.04 102.562 8.055 102.512 8.055H100.757C100.707 8.055 100.662 8.04 100.622 8.01C100.592 7.97 100.577 7.925 100.577 7.875V7.83C100.577 7.37 100.417 6.985 100.097 6.675C99.777 6.355 99.352 6.195 98.822 6.195C98.282 6.195 97.847 6.365 97.517 6.705C97.197 7.035 97.037 7.47 97.037 8.01V11.49C97.037 12.03 97.212 12.47 97.562 12.81C97.912 13.14 98.357 13.305 98.897 13.305C99.417 13.305 99.832 13.17 100.142 12.9C100.452 12.62 100.607 12.235 100.607 11.745V11.07C100.607 11.02 100.582 10.995 100.532 10.995H98.852C98.802 10.995 98.757 10.98 98.717 10.95C98.687 10.91 98.672 10.865 98.672 10.815V9.435C98.672 9.385 98.687 9.345 98.717 9.315C98.757 9.275 98.802 9.255 98.852 9.255H102.512C102.562 9.255 102.602 9.275 102.632 9.315C102.672 9.345 102.692 9.385 102.692 9.435V11.415C102.692 12.175 102.532 12.835 102.212 13.395C101.892 13.955 101.437 14.385 100.847 14.685C100.267 14.975 99.592 15.12 98.822 15.12ZM108.067 15.12C107.267 15.12 106.567 14.995 105.967 14.745C105.367 14.485 104.902 14.12 104.572 13.65C104.252 13.17 104.092 12.615 104.092 11.985V11.655C104.092 11.605 104.107 11.565 104.137 11.535C104.177 11.495 104.222 11.475 104.272 11.475H105.982C106.032 11.475 106.072 11.495 106.102 11.535C106.142 11.565 106.162 11.605 106.162 11.655V11.88C106.162 12.28 106.347 12.62 106.717 12.9C107.087 13.17 107.587 13.305 108.217 13.305C108.747 13.305 109.142 13.195 109.402 12.975C109.662 12.745 109.792 12.465 109.792 12.135C109.792 11.895 109.712 11.695 109.552 11.535C109.392 11.365 109.172 11.22 108.892 11.1C108.622 10.97 108.187 10.795 107.587 10.575C106.917 10.345 106.347 10.11 105.877 9.87C105.417 9.63 105.027 9.305 104.707 8.895C104.397 8.475 104.242 7.96 104.242 7.35C104.242 6.75 104.397 6.225 104.707 5.775C105.017 5.325 105.447 4.98 105.997 4.74C106.547 4.5 107.182 4.38 107.902 4.38C108.662 4.38 109.337 4.515 109.927 4.785C110.527 5.055 110.992 5.435 111.322 5.925C111.662 6.405 111.832 6.965 111.832 7.605V7.83C111.832 7.88 111.812 7.925 111.772 7.965C111.742 7.995 111.702 8.01 111.652 8.01H109.927C109.877 8.01 109.832 7.995 109.792 7.965C109.762 7.925 109.747 7.88 109.747 7.83V7.71C109.747 7.29 109.572 6.935 109.222 6.645C108.882 6.345 108.412 6.195 107.812 6.195C107.342 6.195 106.972 6.295 106.702 6.495C106.442 6.695 106.312 6.97 106.312 7.32C106.312 7.57 106.387 7.78 106.537 7.95C106.697 8.12 106.927 8.275 107.227 8.415C107.537 8.545 108.012 8.725 108.652 8.955C109.362 9.215 109.917 9.445 110.317 9.645C110.727 9.845 111.092 10.145 111.412 10.545C111.742 10.935 111.907 11.445 111.907 12.075C111.907 13.015 111.562 13.76 110.872 14.31C110.182 14.85 109.247 15.12 108.067 15.12Z" fill="white"/>
<path d="M29.98 35.332C30.156 35.244 30.3467 35.2 30.552 35.2H34.028C34.3213 35.2 34.468 35.3467 34.468 35.64V65.56C34.468 65.8533 34.3213 66 34.028 66H30.684C30.3907 66 30.244 65.8533 30.244 65.56V39.732C30.244 39.6733 30.2147 39.6293 30.156 39.6C30.1267 39.5707 30.0827 39.5707 30.024 39.6L25.404 41.184C25.3453 41.2133 25.272 41.228 25.184 41.228C25.008 41.228 24.9053 41.1107 24.876 40.876L24.7 38.368C24.7 38.0747 24.788 37.8987 24.964 37.84L29.98 35.332ZM43.9088 66C43.0874 66 42.4128 65.736 41.8848 65.208C41.3568 64.68 41.0928 64.0053 41.0928 63.184C41.0928 62.3627 41.3568 61.688 41.8848 61.16C42.4128 60.632 43.0874 60.368 43.9088 60.368C44.7301 60.368 45.4048 60.632 45.9328 61.16C46.4608 61.688 46.7248 62.3627 46.7248 63.184C46.7248 64.0053 46.4608 64.68 45.9328 65.208C45.4048 65.736 44.7301 66 43.9088 66ZM72.2619 53.944C72.5553 53.944 72.7019 54.0907 72.7019 54.384V57.288C72.7019 57.5813 72.5553 57.728 72.2619 57.728H70.3699C70.2526 57.728 70.1939 57.7867 70.1939 57.904V65.56C70.1939 65.8533 70.0473 66 69.7539 66H66.4099C66.1166 66 65.9699 65.8533 65.9699 65.56V57.904C65.9699 57.7867 65.9113 57.728 65.7939 57.728H52.4179C52.1246 57.728 51.9779 57.5813 51.9779 57.288V54.912C51.9779 54.7653 52.0219 54.5893 52.1099 54.384L60.7779 35.508C60.8659 35.3027 61.0273 35.2 61.2619 35.2H64.7819C64.9286 35.2 65.0313 35.2587 65.0899 35.376C65.1779 35.464 65.1926 35.5813 65.1339 35.728L56.8619 53.724C56.8326 53.7827 56.8326 53.8413 56.8619 53.9C56.8913 53.9293 56.9353 53.944 56.9939 53.944H65.7939C65.9113 53.944 65.9699 53.8853 65.9699 53.768V47.212C65.9699 46.9187 66.1166 46.772 66.4099 46.772H69.7539C70.0473 46.772 70.1939 46.9187 70.1939 47.212V53.768C70.1939 53.8853 70.2526 53.944 70.3699 53.944H72.2619ZM77.4197 66C77.233 66 77.1397 65.9067 77.1397 65.72V46.68C77.1397 46.4933 77.233 46.4 77.4197 46.4H79.5477C79.7344 46.4 79.8277 46.4933 79.8277 46.68V57.46C79.8277 57.4973 79.8464 57.5253 79.8837 57.544C79.921 57.5627 79.949 57.5533 79.9677 57.516L85.1477 51.888C85.2224 51.7947 85.3344 51.748 85.4837 51.748H87.9757C88.0877 51.748 88.153 51.7853 88.1717 51.86C88.209 51.916 88.1904 51.9907 88.1157 52.084L84.5037 56.256C84.4664 56.3307 84.457 56.3867 84.4757 56.424L88.7597 65.664L88.7877 65.776C88.7877 65.9253 88.7037 66 88.5357 66H86.2957C86.1464 66 86.0437 65.9253 85.9877 65.776L82.6557 58.16C82.6184 58.0667 82.5717 58.0573 82.5157 58.132L79.8837 61.044C79.8464 61.1187 79.8277 61.1653 79.8277 61.184V65.72C79.8277 65.9067 79.7344 66 79.5477 66H77.4197Z" fill="white"/>
<path d="M23.16 103.5C23.21 103.5 23.25 103.52 23.28 103.56C23.32 103.59 23.34 103.63 23.34 103.68V105.15C23.34 105.2 23.32 105.245 23.28 105.285C23.25 105.315 23.21 105.33 23.16 105.33H20.475C20.425 105.33 20.4 105.355 20.4 105.405V113.82C20.4 113.87 20.38 113.915 20.34 113.955C20.31 113.985 20.27 114 20.22 114H18.465C18.415 114 18.37 113.985 18.33 113.955C18.3 113.915 18.285 113.87 18.285 113.82V105.405C18.285 105.355 18.26 105.33 18.21 105.33H15.6C15.55 105.33 15.505 105.315 15.465 105.285C15.435 105.245 15.42 105.2 15.42 105.15V103.68C15.42 103.63 15.435 103.59 15.465 103.56C15.505 103.52 15.55 103.5 15.6 103.5H23.16ZM25.0194 114C24.9694 114 24.9244 113.985 24.8844 113.955C24.8544 113.915 24.8394 113.87 24.8394 113.82V103.68C24.8394 103.63 24.8544 103.59 24.8844 103.56C24.9244 103.52 24.9694 103.5 25.0194 103.5H26.7744C26.8244 103.5 26.8644 103.52 26.8944 103.56C26.9344 103.59 26.9544 103.63 26.9544 103.68V113.82C26.9544 113.87 26.9344 113.915 26.8944 113.955C26.8644 113.985 26.8244 114 26.7744 114H25.0194ZM35.6798 103.62C35.7298 103.54 35.7998 103.5 35.8898 103.5H37.6448C37.6948 103.5 37.7348 103.52 37.7648 103.56C37.8048 103.59 37.8248 103.63 37.8248 103.68V113.82C37.8248 113.87 37.8048 113.915 37.7648 113.955C37.7348 113.985 37.6948 114 37.6448 114H35.8898C35.8398 114 35.7948 113.985 35.7548 113.955C35.7248 113.915 35.7098 113.87 35.7098 113.82V107.205C35.7098 107.165 35.6998 107.145 35.6798 107.145C35.6598 107.145 35.6398 107.16 35.6198 107.19L34.0298 109.68C33.9798 109.76 33.9098 109.8 33.8198 109.8H32.9348C32.8448 109.8 32.7748 109.76 32.7248 109.68L31.1348 107.19C31.1148 107.16 31.0948 107.15 31.0748 107.16C31.0548 107.16 31.0448 107.18 31.0448 107.22V113.82C31.0448 113.87 31.0248 113.915 30.9848 113.955C30.9548 113.985 30.9148 114 30.8648 114H29.1098C29.0598 114 29.0148 113.985 28.9748 113.955C28.9448 113.915 28.9298 113.87 28.9298 113.82V103.68C28.9298 103.63 28.9448 103.59 28.9748 103.56C29.0148 103.52 29.0598 103.5 29.1098 103.5H30.8648C30.9548 103.5 31.0248 103.54 31.0748 103.62L33.3248 107.115C33.3548 107.175 33.3848 107.175 33.4148 107.115L35.6798 103.62ZM47.0925 105.135C47.0925 105.185 47.0725 105.23 47.0325 105.27C47.0025 105.3 46.9625 105.315 46.9125 105.315H41.9925C41.9425 105.315 41.9175 105.34 41.9175 105.39V107.715C41.9175 107.765 41.9425 107.79 41.9925 107.79H45.2175C45.2675 107.79 45.3075 107.81 45.3375 107.85C45.3775 107.88 45.3975 107.92 45.3975 107.97V109.425C45.3975 109.475 45.3775 109.52 45.3375 109.56C45.3075 109.59 45.2675 109.605 45.2175 109.605H41.9925C41.9425 109.605 41.9175 109.63 41.9175 109.68V112.11C41.9175 112.16 41.9425 112.185 41.9925 112.185H46.9125C46.9625 112.185 47.0025 112.205 47.0325 112.245C47.0725 112.275 47.0925 112.315 47.0925 112.365V113.82C47.0925 113.87 47.0725 113.915 47.0325 113.955C47.0025 113.985 46.9625 114 46.9125 114H39.9825C39.9325 114 39.8875 113.985 39.8475 113.955C39.8175 113.915 39.8025 113.87 39.8025 113.82V103.68C39.8025 103.63 39.8175 103.59 39.8475 103.56C39.8875 103.52 39.9325 103.5 39.9825 103.5H46.9125C46.9625 103.5 47.0025 103.52 47.0325 103.56C47.0725 103.59 47.0925 103.63 47.0925 103.68V105.135ZM55.4652 114.12C54.6652 114.12 53.9652 113.995 53.3652 113.745C52.7652 113.485 52.3002 113.12 51.9702 112.65C51.6502 112.17 51.4902 111.615 51.4902 110.985V110.655C51.4902 110.605 51.5052 110.565 51.5352 110.535C51.5752 110.495 51.6202 110.475 51.6702 110.475H53.3802C53.4302 110.475 53.4702 110.495 53.5002 110.535C53.5402 110.565 53.5602 110.605 53.5602 110.655V110.88C53.5602 111.28 53.7452 111.62 54.1152 111.9C54.4852 112.17 54.9852 112.305 55.6152 112.305C56.1452 112.305 56.5402 112.195 56.8002 111.975C57.0602 111.745 57.1902 111.465 57.1902 111.135C57.1902 110.895 57.1102 110.695 56.9502 110.535C56.7902 110.365 56.5702 110.22 56.2902 110.1C56.0202 109.97 55.5852 109.795 54.9852 109.575C54.3152 109.345 53.7452 109.11 53.2752 108.87C52.8152 108.63 52.4252 108.305 52.1052 107.895C51.7952 107.475 51.6402 106.96 51.6402 106.35C51.6402 105.75 51.7952 105.225 52.1052 104.775C52.4152 104.325 52.8452 103.98 53.3952 103.74C53.9452 103.5 54.5802 103.38 55.3002 103.38C56.0602 103.38 56.7352 103.515 57.3252 103.785C57.9252 104.055 58.3902 104.435 58.7202 104.925C59.0602 105.405 59.2302 105.965 59.2302 106.605V106.83C59.2302 106.88 59.2102 106.925 59.1702 106.965C59.1402 106.995 59.1002 107.01 59.0502 107.01H57.3252C57.2752 107.01 57.2302 106.995 57.1902 106.965C57.1602 106.925 57.1452 106.88 57.1452 106.83V106.71C57.1452 106.29 56.9702 105.935 56.6202 105.645C56.2802 105.345 55.8102 105.195 55.2102 105.195C54.7402 105.195 54.3702 105.295 54.1002 105.495C53.8402 105.695 53.7102 105.97 53.7102 106.32C53.7102 106.57 53.7852 106.78 53.9352 106.95C54.0952 107.12 54.3252 107.275 54.6252 107.415C54.9352 107.545 55.4102 107.725 56.0502 107.955C56.7602 108.215 57.3152 108.445 57.7152 108.645C58.1252 108.845 58.4902 109.145 58.8102 109.545C59.1402 109.935 59.3052 110.445 59.3052 111.075C59.3052 112.015 58.9602 112.76 58.2702 113.31C57.5802 113.85 56.6452 114.12 55.4652 114.12ZM67.6111 114C67.5111 114 67.4461 113.95 67.4161 113.85L66.9661 112.38C66.9461 112.34 66.9211 112.32 66.8911 112.32H63.2011C63.1711 112.32 63.1461 112.34 63.1261 112.38L62.6911 113.85C62.6611 113.95 62.5961 114 62.4961 114H60.5911C60.5311 114 60.4861 113.985 60.4561 113.955C60.4261 113.915 60.4211 113.86 60.4411 113.79L63.6811 103.65C63.7111 103.55 63.7761 103.5 63.8761 103.5H66.2311C66.3311 103.5 66.3961 103.55 66.4261 103.65L69.6661 113.79C69.6761 113.81 69.6811 113.835 69.6811 113.865C69.6811 113.955 69.6261 114 69.5161 114H67.6111ZM63.6661 110.595C63.6561 110.655 63.6761 110.685 63.7261 110.685H66.3661C66.4261 110.685 66.4461 110.655 66.4261 110.595L65.0761 106.14C65.0661 106.1 65.0511 106.085 65.0311 106.095C65.0111 106.095 64.9961 106.11 64.9861 106.14L63.6661 110.595ZM73.6612 114C73.5612 114 73.4962 113.95 73.4662 113.85L70.3762 103.71L70.3612 103.65C70.3612 103.55 70.4162 103.5 70.5262 103.5H72.4162C72.5262 103.5 72.5962 103.55 72.6262 103.65L74.6212 110.97C74.6312 111 74.6462 111.015 74.6662 111.015C74.6862 111.015 74.7012 111 74.7112 110.97L76.6762 103.65C76.7062 103.55 76.7762 103.5 76.8862 103.5H78.7312C78.7912 103.5 78.8362 103.52 78.8662 103.56C78.8962 103.6 78.9012 103.65 78.8812 103.71L75.7462 113.85C75.7162 113.95 75.6512 114 75.5512 114H73.6612ZM87.5544 105.135C87.5544 105.185 87.5344 105.23 87.4944 105.27C87.4644 105.3 87.4244 105.315 87.3744 105.315H82.4544C82.4044 105.315 82.3794 105.34 82.3794 105.39V107.715C82.3794 107.765 82.4044 107.79 82.4544 107.79H85.6794C85.7294 107.79 85.7694 107.81 85.7994 107.85C85.8394 107.88 85.8594 107.92 85.8594 107.97V109.425C85.8594 109.475 85.8394 109.52 85.7994 109.56C85.7694 109.59 85.7294 109.605 85.6794 109.605H82.4544C82.4044 109.605 82.3794 109.63 82.3794 109.68V112.11C82.3794 112.16 82.4044 112.185 82.4544 112.185H87.3744C87.4244 112.185 87.4644 112.205 87.4944 112.245C87.5344 112.275 87.5544 112.315 87.5544 112.365V113.82C87.5544 113.87 87.5344 113.915 87.4944 113.955C87.4644 113.985 87.4244 114 87.3744 114H80.4444C80.3944 114 80.3494 113.985 80.3094 113.955C80.2794 113.915 80.2644 113.87 80.2644 113.82V103.68C80.2644 103.63 80.2794 103.59 80.3094 103.56C80.3494 103.52 80.3944 103.5 80.4444 103.5H87.3744C87.4244 103.5 87.4644 103.52 87.4944 103.56C87.5344 103.59 87.5544 103.63 87.5544 103.68V105.135ZM89.3542 114C89.3042 114 89.2592 113.985 89.2192 113.955C89.1892 113.915 89.1742 113.87 89.1742 113.82V103.68C89.1742 103.63 89.1892 103.59 89.2192 103.56C89.2592 103.52 89.3042 103.5 89.3542 103.5H93.1042C93.8542 103.5 94.5092 103.635 95.0692 103.905C95.6392 104.165 96.0792 104.535 96.3892 105.015C96.6992 105.495 96.8542 106.05 96.8542 106.68V110.82C96.8542 111.45 96.6992 112.005 96.3892 112.485C96.0792 112.965 95.6392 113.34 95.0692 113.61C94.5092 113.87 93.8542 114 93.1042 114H89.3542ZM91.2892 112.11C91.2892 112.16 91.3142 112.185 91.3642 112.185H93.1792C93.6392 112.185 94.0092 112.03 94.2892 111.72C94.5792 111.41 94.7292 110.995 94.7392 110.475V107.025C94.7392 106.505 94.5942 106.09 94.3042 105.78C94.0242 105.47 93.6442 105.315 93.1642 105.315H91.3642C91.3142 105.315 91.2892 105.34 91.2892 105.39V112.11Z" fill="white"/>
<path d="M33.676 152.944C33.9693 152.944 34.116 153.091 34.116 153.384V156.288C34.116 156.581 33.9693 156.728 33.676 156.728H31.784C31.6667 156.728 31.608 156.787 31.608 156.904V164.56C31.608 164.853 31.4613 165 31.168 165H27.824C27.5307 165 27.384 164.853 27.384 164.56V156.904C27.384 156.787 27.3253 156.728 27.208 156.728H13.832C13.5387 156.728 13.392 156.581 13.392 156.288V153.912C13.392 153.765 13.436 153.589 13.524 153.384L22.192 134.508C22.28 134.303 22.4413 134.2 22.676 134.2H26.196C26.3427 134.2 26.4453 134.259 26.504 134.376C26.592 134.464 26.6067 134.581 26.548 134.728L18.276 152.724C18.2467 152.783 18.2467 152.841 18.276 152.9C18.3053 152.929 18.3493 152.944 18.408 152.944H27.208C27.3253 152.944 27.384 152.885 27.384 152.768V146.212C27.384 145.919 27.5307 145.772 27.824 145.772H31.168C31.4613 145.772 31.608 145.919 31.608 146.212V152.768C31.608 152.885 31.6667 152.944 31.784 152.944H33.676ZM49.0018 165.44C46.0391 165.44 43.6778 164.604 41.9178 162.932C40.1871 161.231 39.3218 158.957 39.3218 156.112V143.088C39.3218 140.243 40.1871 137.984 41.9178 136.312C43.6778 134.64 46.0391 133.804 49.0018 133.804C51.9644 133.804 54.3258 134.64 56.0858 136.312C57.8751 137.984 58.7698 140.243 58.7698 143.088V156.112C58.7698 158.957 57.8751 161.231 56.0858 162.932C54.3258 164.604 51.9644 165.44 49.0018 165.44ZM49.0018 161.788C50.7031 161.788 52.0524 161.304 53.0498 160.336C54.0471 159.339 54.5458 158.019 54.5458 156.376V142.912C54.5458 141.269 54.0471 139.964 53.0498 138.996C52.0524 137.999 50.7031 137.5 49.0018 137.5C47.3591 137.5 46.0391 137.999 45.0418 138.996C44.0444 139.964 43.5458 141.269 43.5458 142.912V156.376C43.5458 158.019 44.0444 159.339 45.0418 160.336C46.0391 161.304 47.3591 161.788 49.0018 161.788ZM69.8316 150.552C71.3623 150.552 72.5756 151 73.4716 151.896C74.3676 152.773 74.8156 153.968 74.8156 155.48V164.72C74.8156 164.907 74.7223 165 74.5356 165H72.4076C72.221 165 72.1276 164.907 72.1276 164.72V156.012C72.1276 155.079 71.857 154.323 71.3156 153.744C70.7743 153.165 70.0556 152.876 69.1596 152.876C68.2823 152.876 67.5636 153.165 67.0036 153.744C66.4436 154.323 66.1636 155.069 66.1636 155.984V164.72C66.1636 164.907 66.0703 165 65.8836 165H63.7556C63.569 165 63.4756 164.907 63.4756 164.72V145.68C63.4756 145.493 63.569 145.4 63.7556 145.4H65.8836C66.0703 145.4 66.1636 145.493 66.1636 145.68V152.036C66.1636 152.073 66.173 152.101 66.1916 152.12C66.229 152.139 66.257 152.129 66.2756 152.092C67.0783 151.065 68.2636 150.552 69.8316 150.552ZM84.8954 150.608C85.4927 150.608 86.0341 150.729 86.5194 150.972C86.6501 151.028 86.6967 151.14 86.6594 151.308L86.2114 153.408C86.1927 153.576 86.0807 153.632 85.8754 153.576C85.5581 153.445 85.1847 153.38 84.7554 153.38L84.3634 153.408C83.4861 153.445 82.7581 153.753 82.1794 154.332C81.6194 154.892 81.3394 155.629 81.3394 156.544V164.72C81.3394 164.907 81.2461 165 81.0594 165H78.9314C78.7447 165 78.6514 164.907 78.6514 164.72V151.028C78.6514 150.841 78.7447 150.748 78.9314 150.748H81.0594C81.2461 150.748 81.3394 150.841 81.3394 151.028V152.512C81.3394 152.568 81.3487 152.605 81.3674 152.624C81.4047 152.624 81.4327 152.605 81.4514 152.568C82.2914 151.261 83.4394 150.608 84.8954 150.608ZM93.9173 165.168C92.7973 165.168 91.808 165 90.9493 164.664C90.1093 164.328 89.456 163.871 88.9893 163.292C88.5226 162.695 88.2893 162.041 88.2893 161.332V161.024C88.2893 160.837 88.3826 160.744 88.5693 160.744H90.5853C90.772 160.744 90.8653 160.837 90.8653 161.024V161.164C90.8653 161.687 91.1453 162.144 91.7053 162.536C92.284 162.928 93.012 163.124 93.8893 163.124C94.7293 163.124 95.4106 162.947 95.9333 162.592C96.456 162.219 96.7173 161.752 96.7173 161.192C96.7173 160.651 96.4746 160.249 95.9893 159.988C95.504 159.708 94.72 159.419 93.6373 159.12C92.5733 158.821 91.6773 158.523 90.9493 158.224C90.24 157.907 89.6333 157.468 89.1293 156.908C88.644 156.329 88.4013 155.592 88.4013 154.696C88.4013 153.445 88.8866 152.456 89.8573 151.728C90.8466 150.981 92.1533 150.608 93.7773 150.608C94.86 150.608 95.812 150.785 96.6333 151.14C97.4733 151.476 98.1173 151.952 98.5653 152.568C99.0133 153.184 99.2373 153.875 99.2373 154.64V154.724C99.2373 154.911 99.144 155.004 98.9573 155.004H96.9973C96.8106 155.004 96.7173 154.911 96.7173 154.724V154.64C96.7173 154.099 96.4466 153.651 95.9053 153.296C95.3826 152.923 94.664 152.736 93.7493 152.736C92.928 152.736 92.256 152.895 91.7333 153.212C91.2293 153.529 90.9773 153.959 90.9773 154.5C90.9773 155.041 91.22 155.452 91.7053 155.732C92.2093 156.012 93.012 156.311 94.1133 156.628C95.196 156.927 96.092 157.225 96.8013 157.524C97.5293 157.804 98.1453 158.233 98.6493 158.812C99.1533 159.372 99.4053 160.109 99.4053 161.024C99.4053 162.293 98.9013 163.301 97.8933 164.048C96.904 164.795 95.5786 165.168 93.9173 165.168Z" fill="white"/>
</svg>
