<svg width="739" height="205" viewBox="0 0 739 205" fill="none" xmlns="http://www.w3.org/2000/svg">
<path d="M98.16 58.5C98.21 58.5 98.25 58.52 98.28 58.56C98.32 58.59 98.34 58.63 98.34 58.68V60.15C98.34 60.2 98.32 60.245 98.28 60.285C98.25 60.315 98.21 60.33 98.16 60.33H95.475C95.425 60.33 95.4 60.355 95.4 60.405V68.82C95.4 68.87 95.38 68.915 95.34 68.955C95.31 68.985 95.27 69 95.22 69H93.465C93.415 69 93.37 68.985 93.33 68.955C93.3 68.915 93.285 68.87 93.285 68.82V60.405C93.285 60.355 93.26 60.33 93.21 60.33H90.6C90.55 60.33 90.505 60.315 90.465 60.285C90.435 60.245 90.42 60.2 90.42 60.15V58.68C90.42 58.63 90.435 58.59 90.465 58.56C90.505 58.52 90.55 58.5 90.6 58.5H98.16ZM103.15 69.165C102.37 69.165 101.68 69.005 101.08 68.685C100.49 68.365 100.03 67.92 99.6996 67.35C99.3696 66.77 99.2046 66.105 99.2046 65.355V62.145C99.2046 61.405 99.3696 60.75 99.6996 60.18C100.03 59.61 100.49 59.17 101.08 58.86C101.68 58.54 102.37 58.38 103.15 58.38C103.94 58.38 104.63 58.54 105.22 58.86C105.82 59.17 106.285 59.61 106.615 60.18C106.945 60.75 107.11 61.405 107.11 62.145V65.355C107.11 66.105 106.945 66.77 106.615 67.35C106.285 67.93 105.82 68.38 105.22 68.7C104.63 69.01 103.94 69.165 103.15 69.165ZM103.15 67.35C103.7 67.35 104.145 67.175 104.485 66.825C104.825 66.475 104.995 66.01 104.995 65.43V62.13C104.995 61.55 104.825 61.085 104.485 60.735C104.155 60.375 103.71 60.195 103.15 60.195C102.6 60.195 102.155 60.375 101.815 60.735C101.485 61.085 101.32 61.55 101.32 62.13V65.43C101.32 66.01 101.485 66.475 101.815 66.825C102.155 67.175 102.6 67.35 103.15 67.35ZM116.009 58.5C116.059 58.5 116.099 58.52 116.129 58.56C116.169 58.59 116.189 58.63 116.189 58.68V60.15C116.189 60.2 116.169 60.245 116.129 60.285C116.099 60.315 116.059 60.33 116.009 60.33H113.324C113.274 60.33 113.249 60.355 113.249 60.405V68.82C113.249 68.87 113.229 68.915 113.189 68.955C113.159 68.985 113.119 69 113.069 69H111.314C111.264 69 111.219 68.985 111.179 68.955C111.149 68.915 111.134 68.87 111.134 68.82V60.405C111.134 60.355 111.109 60.33 111.059 60.33H108.449C108.399 60.33 108.354 60.315 108.314 60.285C108.284 60.245 108.269 60.2 108.269 60.15V58.68C108.269 58.63 108.284 58.59 108.314 58.56C108.354 58.52 108.399 58.5 108.449 58.5H116.009ZM120.998 69.165C120.218 69.165 119.528 69.005 118.928 68.685C118.338 68.365 117.878 67.92 117.548 67.35C117.218 66.77 117.053 66.105 117.053 65.355V62.145C117.053 61.405 117.218 60.75 117.548 60.18C117.878 59.61 118.338 59.17 118.928 58.86C119.528 58.54 120.218 58.38 120.998 58.38C121.788 58.38 122.478 58.54 123.068 58.86C123.668 59.17 124.133 59.61 124.463 60.18C124.793 60.75 124.958 61.405 124.958 62.145V65.355C124.958 66.105 124.793 66.77 124.463 67.35C124.133 67.93 123.668 68.38 123.068 68.7C122.478 69.01 121.788 69.165 120.998 69.165ZM120.998 67.35C121.548 67.35 121.993 67.175 122.333 66.825C122.673 66.475 122.843 66.01 122.843 65.43V62.13C122.843 61.55 122.673 61.085 122.333 60.735C122.003 60.375 121.558 60.195 120.998 60.195C120.448 60.195 120.003 60.375 119.663 60.735C119.333 61.085 119.168 61.55 119.168 62.13V65.43C119.168 66.01 119.333 66.475 119.663 66.825C120.003 67.175 120.448 67.35 120.998 67.35ZM133.17 69C133.07 69 133.005 68.95 132.975 68.85L132.525 67.38C132.505 67.34 132.48 67.32 132.45 67.32H128.76C128.73 67.32 128.705 67.34 128.685 67.38L128.25 68.85C128.22 68.95 128.155 69 128.055 69H126.15C126.09 69 126.045 68.985 126.015 68.955C125.985 68.915 125.98 68.86 126 68.79L129.24 58.65C129.27 58.55 129.335 58.5 129.435 58.5H131.79C131.89 58.5 131.955 58.55 131.985 58.65L135.225 68.79C135.235 68.81 135.24 68.835 135.24 68.865C135.24 68.955 135.185 69 135.075 69H133.17ZM129.225 65.595C129.215 65.655 129.235 65.685 129.285 65.685H131.925C131.985 65.685 132.005 65.655 131.985 65.595L130.635 61.14C130.625 61.1 130.61 61.085 130.59 61.095C130.57 61.095 130.555 61.11 130.545 61.14L129.225 65.595ZM136.889 69C136.839 69 136.794 68.985 136.754 68.955C136.724 68.915 136.709 68.87 136.709 68.82V58.68C136.709 58.63 136.724 58.59 136.754 58.56C136.794 58.52 136.839 58.5 136.889 58.5H138.644C138.694 58.5 138.734 58.52 138.764 58.56C138.804 58.59 138.824 58.63 138.824 58.68V67.11C138.824 67.16 138.849 67.185 138.899 67.185H143.804C143.854 67.185 143.894 67.205 143.924 67.245C143.964 67.275 143.984 67.315 143.984 67.365V68.82C143.984 68.87 143.964 68.915 143.924 68.955C143.894 68.985 143.854 69 143.804 69H136.889ZM155.886 60.135C155.886 60.185 155.866 60.23 155.826 60.27C155.796 60.3 155.756 60.315 155.706 60.315H150.786C150.736 60.315 150.711 60.34 150.711 60.39V62.715C150.711 62.765 150.736 62.79 150.786 62.79H154.011C154.061 62.79 154.101 62.81 154.131 62.85C154.171 62.88 154.191 62.92 154.191 62.97V64.425C154.191 64.475 154.171 64.52 154.131 64.56C154.101 64.59 154.061 64.605 154.011 64.605H150.786C150.736 64.605 150.711 64.63 150.711 64.68V67.11C150.711 67.16 150.736 67.185 150.786 67.185H155.706C155.756 67.185 155.796 67.205 155.826 67.245C155.866 67.275 155.886 67.315 155.886 67.365V68.82C155.886 68.87 155.866 68.915 155.826 68.955C155.796 68.985 155.756 69 155.706 69H148.776C148.726 69 148.681 68.985 148.641 68.955C148.611 68.915 148.596 68.87 148.596 68.82V58.68C148.596 58.63 148.611 58.59 148.641 58.56C148.681 58.52 148.726 58.5 148.776 58.5H155.706C155.756 58.5 155.796 58.52 155.826 58.56C155.866 58.59 155.886 58.63 155.886 58.68V60.135ZM164.256 58.62C164.306 58.54 164.376 58.5 164.466 58.5H166.221C166.271 58.5 166.311 58.52 166.341 58.56C166.381 58.59 166.401 58.63 166.401 58.68V68.82C166.401 68.87 166.381 68.915 166.341 68.955C166.311 68.985 166.271 69 166.221 69H164.466C164.416 69 164.371 68.985 164.331 68.955C164.301 68.915 164.286 68.87 164.286 68.82V62.205C164.286 62.165 164.276 62.145 164.256 62.145C164.236 62.145 164.216 62.16 164.196 62.19L162.606 64.68C162.556 64.76 162.486 64.8 162.396 64.8H161.511C161.421 64.8 161.351 64.76 161.301 64.68L159.711 62.19C159.691 62.16 159.671 62.15 159.651 62.16C159.631 62.16 159.621 62.18 159.621 62.22V68.82C159.621 68.87 159.601 68.915 159.561 68.955C159.531 68.985 159.491 69 159.441 69H157.686C157.636 69 157.591 68.985 157.551 68.955C157.521 68.915 157.506 68.87 157.506 68.82V58.68C157.506 58.63 157.521 58.59 157.551 58.56C157.591 58.52 157.636 58.5 157.686 58.5H159.441C159.531 58.5 159.601 58.54 159.651 58.62L161.901 62.115C161.931 62.175 161.961 62.175 161.991 62.115L164.256 58.62ZM172.713 58.485C173.373 58.485 173.953 58.62 174.453 58.89C174.953 59.16 175.338 59.545 175.608 60.045C175.888 60.535 176.028 61.1 176.028 61.74C176.028 62.37 175.883 62.925 175.593 63.405C175.313 63.885 174.913 64.26 174.393 64.53C173.883 64.79 173.293 64.92 172.623 64.92H170.493C170.443 64.92 170.418 64.945 170.418 64.995V68.82C170.418 68.87 170.398 68.915 170.358 68.955C170.328 68.985 170.288 69 170.238 69H168.483C168.433 69 168.388 68.985 168.348 68.955C168.318 68.915 168.303 68.87 168.303 68.82V58.665C168.303 58.615 168.318 58.575 168.348 58.545C168.388 58.505 168.433 58.485 168.483 58.485H172.713ZM172.398 63.225C172.858 63.225 173.228 63.095 173.508 62.835C173.788 62.565 173.928 62.215 173.928 61.785C173.928 61.345 173.788 60.99 173.508 60.72C173.228 60.45 172.858 60.315 172.398 60.315H170.493C170.443 60.315 170.418 60.34 170.418 60.39V63.15C170.418 63.2 170.443 63.225 170.493 63.225H172.398ZM177.658 69C177.608 69 177.563 68.985 177.523 68.955C177.493 68.915 177.478 68.87 177.478 68.82V58.68C177.478 58.63 177.493 58.59 177.523 58.56C177.563 58.52 177.608 58.5 177.658 58.5H179.413C179.463 58.5 179.503 58.52 179.533 58.56C179.573 58.59 179.593 58.63 179.593 58.68V67.11C179.593 67.16 179.618 67.185 179.668 67.185H184.573C184.623 67.185 184.663 67.205 184.693 67.245C184.733 67.275 184.753 67.315 184.753 67.365V68.82C184.753 68.87 184.733 68.915 184.693 68.955C184.663 68.985 184.623 69 184.573 69H177.658ZM189.83 69.165C189.05 69.165 188.36 69.005 187.76 68.685C187.17 68.365 186.71 67.92 186.38 67.35C186.05 66.77 185.885 66.105 185.885 65.355V62.145C185.885 61.405 186.05 60.75 186.38 60.18C186.71 59.61 187.17 59.17 187.76 58.86C188.36 58.54 189.05 58.38 189.83 58.38C190.62 58.38 191.31 58.54 191.9 58.86C192.5 59.17 192.965 59.61 193.295 60.18C193.625 60.75 193.79 61.405 193.79 62.145V65.355C193.79 66.105 193.625 66.77 193.295 67.35C192.965 67.93 192.5 68.38 191.9 68.7C191.31 69.01 190.62 69.165 189.83 69.165ZM189.83 67.35C190.38 67.35 190.825 67.175 191.165 66.825C191.505 66.475 191.675 66.01 191.675 65.43V62.13C191.675 61.55 191.505 61.085 191.165 60.735C190.835 60.375 190.39 60.195 189.83 60.195C189.28 60.195 188.835 60.375 188.495 60.735C188.165 61.085 188 61.55 188 62.13V65.43C188 66.01 188.165 66.475 188.495 66.825C188.835 67.175 189.28 67.35 189.83 67.35ZM197.987 68.985C197.937 68.985 197.892 68.97 197.852 68.94C197.822 68.9 197.807 68.855 197.807 68.805V65.01C197.807 64.97 197.802 64.94 197.792 64.92L194.702 58.71C194.682 58.67 194.672 58.64 194.672 58.62C194.672 58.54 194.727 58.5 194.837 58.5H196.727C196.827 58.5 196.897 58.545 196.937 58.635L198.812 62.625C198.842 62.685 198.872 62.685 198.902 62.625L200.777 58.635C200.817 58.545 200.887 58.5 200.987 58.5H202.907C202.977 58.5 203.022 58.52 203.042 58.56C203.072 58.59 203.072 58.64 203.042 58.71L199.922 64.92C199.912 64.94 199.907 64.97 199.907 65.01V68.805C199.907 68.855 199.887 68.9 199.847 68.94C199.817 68.97 199.777 68.985 199.727 68.985H197.987ZM211.761 60.135C211.761 60.185 211.741 60.23 211.701 60.27C211.671 60.3 211.631 60.315 211.581 60.315H206.661C206.611 60.315 206.586 60.34 206.586 60.39V62.715C206.586 62.765 206.611 62.79 206.661 62.79H209.886C209.936 62.79 209.976 62.81 210.006 62.85C210.046 62.88 210.066 62.92 210.066 62.97V64.425C210.066 64.475 210.046 64.52 210.006 64.56C209.976 64.59 209.936 64.605 209.886 64.605H206.661C206.611 64.605 206.586 64.63 206.586 64.68V67.11C206.586 67.16 206.611 67.185 206.661 67.185H211.581C211.631 67.185 211.671 67.205 211.701 67.245C211.741 67.275 211.761 67.315 211.761 67.365V68.82C211.761 68.87 211.741 68.915 211.701 68.955C211.671 68.985 211.631 69 211.581 69H204.651C204.601 69 204.556 68.985 204.516 68.955C204.486 68.915 204.471 68.87 204.471 68.82V58.68C204.471 58.63 204.486 58.59 204.516 58.56C204.556 58.52 204.601 58.5 204.651 58.5H211.581C211.631 58.5 211.671 58.52 211.701 58.56C211.741 58.59 211.761 58.63 211.761 58.68V60.135ZM220.671 60.135C220.671 60.185 220.651 60.23 220.611 60.27C220.581 60.3 220.541 60.315 220.491 60.315H215.571C215.521 60.315 215.496 60.34 215.496 60.39V62.715C215.496 62.765 215.521 62.79 215.571 62.79H218.796C218.846 62.79 218.886 62.81 218.916 62.85C218.956 62.88 218.976 62.92 218.976 62.97V64.425C218.976 64.475 218.956 64.52 218.916 64.56C218.886 64.59 218.846 64.605 218.796 64.605H215.571C215.521 64.605 215.496 64.63 215.496 64.68V67.11C215.496 67.16 215.521 67.185 215.571 67.185H220.491C220.541 67.185 220.581 67.205 220.611 67.245C220.651 67.275 220.671 67.315 220.671 67.365V68.82C220.671 68.87 220.651 68.915 220.611 68.955C220.581 68.985 220.541 69 220.491 69H213.561C213.511 69 213.466 68.985 213.426 68.955C213.396 68.915 213.381 68.87 213.381 68.82V58.68C213.381 58.63 213.396 58.59 213.426 58.56C213.466 58.52 213.511 58.5 213.561 58.5H220.491C220.541 58.5 220.581 58.52 220.611 58.56C220.651 58.59 220.671 58.63 220.671 58.68V60.135ZM225.891 69.12C225.091 69.12 224.391 68.995 223.791 68.745C223.191 68.485 222.726 68.12 222.396 67.65C222.076 67.17 221.916 66.615 221.916 65.985V65.655C221.916 65.605 221.931 65.565 221.961 65.535C222.001 65.495 222.046 65.475 222.096 65.475H223.806C223.856 65.475 223.896 65.495 223.926 65.535C223.966 65.565 223.986 65.605 223.986 65.655V65.88C223.986 66.28 224.171 66.62 224.541 66.9C224.911 67.17 225.411 67.305 226.041 67.305C226.571 67.305 226.966 67.195 227.226 66.975C227.486 66.745 227.616 66.465 227.616 66.135C227.616 65.895 227.536 65.695 227.376 65.535C227.216 65.365 226.996 65.22 226.716 65.1C226.446 64.97 226.011 64.795 225.411 64.575C224.741 64.345 224.171 64.11 223.701 63.87C223.241 63.63 222.851 63.305 222.531 62.895C222.221 62.475 222.066 61.96 222.066 61.35C222.066 60.75 222.221 60.225 222.531 59.775C222.841 59.325 223.271 58.98 223.821 58.74C224.371 58.5 225.006 58.38 225.726 58.38C226.486 58.38 227.161 58.515 227.751 58.785C228.351 59.055 228.816 59.435 229.146 59.925C229.486 60.405 229.656 60.965 229.656 61.605V61.83C229.656 61.88 229.636 61.925 229.596 61.965C229.566 61.995 229.526 62.01 229.476 62.01H227.751C227.701 62.01 227.656 61.995 227.616 61.965C227.586 61.925 227.571 61.88 227.571 61.83V61.71C227.571 61.29 227.396 60.935 227.046 60.645C226.706 60.345 226.236 60.195 225.636 60.195C225.166 60.195 224.796 60.295 224.526 60.495C224.266 60.695 224.136 60.97 224.136 61.32C224.136 61.57 224.211 61.78 224.361 61.95C224.521 62.12 224.751 62.275 225.051 62.415C225.361 62.545 225.836 62.725 226.476 62.955C227.186 63.215 227.741 63.445 228.141 63.645C228.551 63.845 228.916 64.145 229.236 64.545C229.566 64.935 229.731 65.445 229.731 66.075C229.731 67.015 229.386 67.76 228.696 68.31C228.006 68.85 227.071 69.12 225.891 69.12Z" fill="white"/>
<path d="M111.669 91C111.569 91 111.519 90.95 111.519 90.85V80.65C111.519 80.55 111.569 80.5 111.669 80.5H112.434C112.534 80.5 112.584 80.55 112.584 80.65V90.85C112.584 90.95 112.534 91 112.434 91H111.669ZM118.341 83.305C119.141 83.305 119.776 83.54 120.246 84.01C120.726 84.48 120.966 85.11 120.966 85.9V90.85C120.966 90.95 120.916 91 120.816 91H120.051C119.951 91 119.901 90.95 119.901 90.85V86.11C119.901 85.56 119.731 85.11 119.391 84.76C119.061 84.41 118.631 84.235 118.101 84.235C117.551 84.235 117.106 84.405 116.766 84.745C116.426 85.085 116.256 85.53 116.256 86.08V90.85C116.256 90.95 116.206 91 116.106 91H115.341C115.241 91 115.191 90.95 115.191 90.85V83.56C115.191 83.46 115.241 83.41 115.341 83.41H116.106C116.206 83.41 116.256 83.46 116.256 83.56V84.205C116.256 84.225 116.261 84.24 116.271 84.25C116.291 84.26 116.306 84.255 116.316 84.235C116.756 83.615 117.431 83.305 118.341 83.305ZM126.04 91.12C125.32 91.12 124.7 90.935 124.18 90.565C123.67 90.185 123.32 89.675 123.13 89.035C123 88.595 122.935 87.975 122.935 87.175C122.935 86.455 123 85.845 123.13 85.345C123.31 84.725 123.66 84.23 124.18 83.86C124.7 83.48 125.32 83.29 126.04 83.29C126.77 83.29 127.4 83.475 127.93 83.845C128.47 84.215 128.82 84.675 128.98 85.225C129.03 85.405 129.06 85.555 129.07 85.675V85.705C129.07 85.775 129.025 85.82 128.935 85.84L128.185 85.945H128.155C128.085 85.945 128.04 85.9 128.02 85.81L127.975 85.585C127.885 85.205 127.665 84.885 127.315 84.625C126.965 84.355 126.54 84.22 126.04 84.22C125.54 84.22 125.12 84.355 124.78 84.625C124.45 84.885 124.235 85.235 124.135 85.675C124.045 86.055 124 86.56 124 87.19C124 87.85 124.045 88.36 124.135 88.72C124.235 89.17 124.45 89.53 124.78 89.8C125.12 90.06 125.54 90.19 126.04 90.19C126.53 90.19 126.95 90.065 127.3 89.815C127.66 89.555 127.885 89.225 127.975 88.825V88.765L127.99 88.705C128 88.605 128.06 88.565 128.17 88.585L128.905 88.705C129.005 88.725 129.05 88.78 129.04 88.87L128.98 89.17C128.83 89.75 128.485 90.22 127.945 90.58C127.405 90.94 126.77 91.12 126.04 91.12ZM134.028 83.335C134.358 83.335 134.643 83.4 134.883 83.53C134.963 83.57 134.993 83.635 134.973 83.725L134.808 84.46C134.778 84.56 134.713 84.59 134.613 84.55C134.443 84.48 134.248 84.445 134.028 84.445L133.833 84.46C133.313 84.48 132.883 84.675 132.543 85.045C132.203 85.405 132.033 85.865 132.033 86.425V90.85C132.033 90.95 131.983 91 131.883 91H131.118C131.018 91 130.968 90.95 130.968 90.85V83.56C130.968 83.46 131.018 83.41 131.118 83.41H131.883C131.983 83.41 132.033 83.46 132.033 83.56V84.475C132.033 84.505 132.038 84.525 132.048 84.535C132.068 84.535 132.083 84.525 132.093 84.505C132.303 84.135 132.568 83.85 132.888 83.65C133.218 83.44 133.598 83.335 134.028 83.335ZM142.178 85.93C142.218 86.21 142.238 86.56 142.238 86.98V87.46C142.238 87.56 142.188 87.61 142.088 87.61H137.243C137.203 87.61 137.183 87.63 137.183 87.67C137.203 88.22 137.233 88.575 137.273 88.735C137.383 89.185 137.618 89.54 137.978 89.8C138.338 90.06 138.798 90.19 139.358 90.19C139.778 90.19 140.148 90.095 140.468 89.905C140.788 89.715 141.038 89.445 141.218 89.095C141.278 89.005 141.348 88.985 141.428 89.035L142.013 89.38C142.093 89.43 142.113 89.5 142.073 89.59C141.823 90.07 141.448 90.45 140.948 90.73C140.448 91 139.873 91.135 139.223 91.135C138.513 91.125 137.918 90.955 137.438 90.625C136.958 90.295 136.613 89.835 136.403 89.245C136.223 88.765 136.133 88.075 136.133 87.175C136.133 86.755 136.138 86.415 136.148 86.155C136.168 85.885 136.208 85.645 136.268 85.435C136.438 84.785 136.778 84.265 137.288 83.875C137.808 83.485 138.433 83.29 139.163 83.29C140.073 83.29 140.773 83.52 141.263 83.98C141.753 84.44 142.058 85.09 142.178 85.93ZM139.163 84.22C138.673 84.22 138.263 84.35 137.933 84.61C137.613 84.86 137.403 85.2 137.303 85.63C137.243 85.84 137.203 86.18 137.183 86.65C137.183 86.69 137.203 86.71 137.243 86.71H141.128C141.168 86.71 141.188 86.69 141.188 86.65C141.168 86.2 141.138 85.88 141.098 85.69C140.988 85.24 140.763 84.885 140.423 84.625C140.093 84.355 139.673 84.22 139.163 84.22ZM146.908 83.29C147.808 83.29 148.503 83.52 148.993 83.98C149.483 84.44 149.728 85.05 149.728 85.81V90.85C149.728 90.95 149.678 91 149.578 91H148.813C148.713 91 148.663 90.95 148.663 90.85V90.235C148.663 90.215 148.653 90.2 148.633 90.19C148.623 90.18 148.608 90.185 148.588 90.205C148.338 90.505 148.013 90.735 147.613 90.895C147.213 91.045 146.768 91.12 146.278 91.12C145.568 91.12 144.973 90.94 144.493 90.58C144.013 90.22 143.773 89.67 143.773 88.93C143.773 88.18 144.043 87.59 144.583 87.16C145.133 86.72 145.893 86.5 146.863 86.5H148.603C148.643 86.5 148.663 86.48 148.663 86.44V85.87C148.663 85.36 148.518 84.96 148.228 84.67C147.948 84.37 147.508 84.22 146.908 84.22C146.428 84.22 146.038 84.315 145.738 84.505C145.438 84.685 145.253 84.94 145.183 85.27C145.153 85.37 145.093 85.415 145.003 85.405L144.193 85.3C144.083 85.28 144.038 85.24 144.058 85.18C144.138 84.62 144.438 84.165 144.958 83.815C145.478 83.465 146.128 83.29 146.908 83.29ZM146.488 90.205C147.078 90.205 147.588 90.06 148.018 89.77C148.448 89.47 148.663 89.07 148.663 88.57V87.4C148.663 87.36 148.643 87.34 148.603 87.34H147.028C146.368 87.34 145.838 87.475 145.438 87.745C145.038 88.015 144.838 88.39 144.838 88.87C144.838 89.31 144.988 89.645 145.288 89.875C145.598 90.095 145.998 90.205 146.488 90.205ZM154.434 91.075C153.874 91.075 153.374 90.985 152.934 90.805C152.504 90.625 152.169 90.385 151.929 90.085C151.699 89.785 151.584 89.45 151.584 89.08V88.9C151.584 88.8 151.634 88.75 151.734 88.75H152.454C152.554 88.75 152.604 88.8 152.604 88.9V89.02C152.604 89.35 152.774 89.64 153.114 89.89C153.464 90.13 153.899 90.25 154.419 90.25C154.939 90.25 155.359 90.135 155.679 89.905C155.999 89.665 156.159 89.365 156.159 89.005C156.159 88.755 156.074 88.55 155.904 88.39C155.744 88.23 155.549 88.105 155.319 88.015C155.099 87.925 154.754 87.81 154.284 87.67C153.724 87.51 153.264 87.35 152.904 87.19C152.544 87.03 152.239 86.81 151.989 86.53C151.749 86.24 151.629 85.875 151.629 85.435C151.629 84.795 151.879 84.285 152.379 83.905C152.879 83.525 153.539 83.335 154.359 83.335C154.909 83.335 155.394 83.425 155.814 83.605C156.244 83.785 156.574 84.035 156.804 84.355C157.034 84.665 157.149 85.015 157.149 85.405V85.45C157.149 85.55 157.099 85.6 156.999 85.6H156.294C156.194 85.6 156.144 85.55 156.144 85.45V85.405C156.144 85.065 155.979 84.78 155.649 84.55C155.329 84.32 154.894 84.205 154.344 84.205C153.834 84.205 153.424 84.31 153.114 84.52C152.804 84.72 152.649 85 152.649 85.36C152.649 85.7 152.799 85.96 153.099 86.14C153.399 86.32 153.864 86.5 154.494 86.68C155.074 86.85 155.544 87.01 155.904 87.16C156.264 87.31 156.574 87.53 156.834 87.82C157.094 88.1 157.224 88.47 157.224 88.93C157.224 89.58 156.969 90.1 156.459 90.49C155.949 90.88 155.274 91.075 154.434 91.075ZM164.986 85.93C165.026 86.21 165.046 86.56 165.046 86.98V87.46C165.046 87.56 164.996 87.61 164.896 87.61H160.051C160.011 87.61 159.991 87.63 159.991 87.67C160.011 88.22 160.041 88.575 160.081 88.735C160.191 89.185 160.426 89.54 160.786 89.8C161.146 90.06 161.606 90.19 162.166 90.19C162.586 90.19 162.956 90.095 163.276 89.905C163.596 89.715 163.846 89.445 164.026 89.095C164.086 89.005 164.156 88.985 164.236 89.035L164.821 89.38C164.901 89.43 164.921 89.5 164.881 89.59C164.631 90.07 164.256 90.45 163.756 90.73C163.256 91 162.681 91.135 162.031 91.135C161.321 91.125 160.726 90.955 160.246 90.625C159.766 90.295 159.421 89.835 159.211 89.245C159.031 88.765 158.941 88.075 158.941 87.175C158.941 86.755 158.946 86.415 158.956 86.155C158.976 85.885 159.016 85.645 159.076 85.435C159.246 84.785 159.586 84.265 160.096 83.875C160.616 83.485 161.241 83.29 161.971 83.29C162.881 83.29 163.581 83.52 164.071 83.98C164.561 84.44 164.866 85.09 164.986 85.93ZM161.971 84.22C161.481 84.22 161.071 84.35 160.741 84.61C160.421 84.86 160.211 85.2 160.111 85.63C160.051 85.84 160.011 86.18 159.991 86.65C159.991 86.69 160.011 86.71 160.051 86.71H163.936C163.976 86.71 163.996 86.69 163.996 86.65C163.976 86.2 163.946 85.88 163.906 85.69C163.796 85.24 163.571 84.885 163.231 84.625C162.901 84.355 162.481 84.22 161.971 84.22ZM171.874 80.65C171.874 80.55 171.924 80.5 172.024 80.5H172.789C172.889 80.5 172.939 80.55 172.939 80.65V90.85C172.939 90.95 172.889 91 172.789 91H172.024C171.924 91 171.874 90.95 171.874 90.85V90.22C171.874 90.2 171.864 90.19 171.844 90.19C171.834 90.18 171.819 90.185 171.799 90.205C171.579 90.495 171.304 90.72 170.974 90.88C170.654 91.04 170.294 91.12 169.894 91.12C169.194 91.12 168.604 90.94 168.124 90.58C167.654 90.22 167.329 89.73 167.149 89.11C167.009 88.66 166.939 88.025 166.939 87.205C166.939 86.375 166.999 85.755 167.119 85.345C167.299 84.705 167.629 84.205 168.109 83.845C168.589 83.475 169.184 83.29 169.894 83.29C170.284 83.29 170.644 83.37 170.974 83.53C171.304 83.68 171.579 83.9 171.799 84.19C171.819 84.21 171.834 84.22 171.844 84.22C171.864 84.21 171.874 84.195 171.874 84.175V80.65ZM171.604 89.035C171.694 88.835 171.759 88.6 171.799 88.33C171.839 88.06 171.859 87.685 171.859 87.205C171.859 86.725 171.839 86.35 171.799 86.08C171.759 85.8 171.689 85.555 171.589 85.345C171.469 85.005 171.269 84.735 170.989 84.535C170.719 84.325 170.394 84.22 170.014 84.22C169.614 84.22 169.269 84.32 168.979 84.52C168.689 84.72 168.479 84.985 168.349 85.315C168.229 85.535 168.139 85.785 168.079 86.065C168.029 86.335 168.004 86.715 168.004 87.205C168.004 87.675 168.024 88.045 168.064 88.315C168.104 88.575 168.174 88.81 168.274 89.02C168.394 89.38 168.604 89.665 168.904 89.875C169.214 90.085 169.579 90.19 169.999 90.19C170.399 90.19 170.734 90.085 171.004 89.875C171.274 89.665 171.474 89.385 171.604 89.035ZM184.19 85.345C184.31 85.795 184.37 86.415 184.37 87.205C184.37 88.025 184.3 88.66 184.16 89.11C183.97 89.73 183.64 90.22 183.17 90.58C182.7 90.94 182.115 91.12 181.415 91.12C181.015 91.12 180.65 91.04 180.32 90.88C179.99 90.72 179.715 90.49 179.495 90.19C179.485 90.17 179.47 90.165 179.45 90.175C179.43 90.175 179.42 90.185 179.42 90.205V90.85C179.42 90.95 179.37 91 179.27 91H178.505C178.405 91 178.355 90.95 178.355 90.85V80.65C178.355 80.55 178.405 80.5 178.505 80.5H179.27C179.37 80.5 179.42 80.55 179.42 80.65V84.19C179.42 84.21 179.425 84.225 179.435 84.235C179.455 84.235 179.475 84.225 179.495 84.205C179.715 83.915 179.99 83.69 180.32 83.53C180.65 83.37 181.015 83.29 181.415 83.29C182.125 83.29 182.72 83.475 183.2 83.845C183.68 84.205 184.01 84.705 184.19 85.345ZM183.035 89.02C183.135 88.81 183.205 88.575 183.245 88.315C183.285 88.045 183.305 87.675 183.305 87.205C183.305 86.715 183.275 86.335 183.215 86.065C183.165 85.785 183.08 85.535 182.96 85.315C182.83 84.985 182.62 84.72 182.33 84.52C182.04 84.32 181.695 84.22 181.295 84.22C180.915 84.22 180.585 84.325 180.305 84.535C180.035 84.735 179.84 85.005 179.72 85.345C179.62 85.555 179.545 85.795 179.495 86.065C179.455 86.335 179.435 86.715 179.435 87.205C179.435 87.685 179.455 88.06 179.495 88.33C179.545 88.59 179.615 88.825 179.705 89.035C179.835 89.385 180.035 89.665 180.305 89.875C180.575 90.085 180.91 90.19 181.31 90.19C181.73 90.19 182.09 90.085 182.39 89.875C182.7 89.665 182.915 89.38 183.035 89.02ZM186.067 94C185.997 94 185.962 93.95 185.962 93.85V93.25C185.962 93.15 186.012 93.1 186.112 93.1H186.172C186.562 93.09 186.862 93.03 187.072 92.92C187.292 92.82 187.477 92.625 187.627 92.335C187.787 92.055 187.957 91.625 188.137 91.045C188.157 91.005 188.157 90.975 188.137 90.955L185.602 83.575L185.587 83.515C185.587 83.445 185.632 83.41 185.722 83.41H186.517C186.607 83.41 186.667 83.45 186.697 83.53L188.647 89.59C188.657 89.61 188.672 89.62 188.692 89.62C188.712 89.62 188.727 89.61 188.737 89.59L190.657 83.53C190.687 83.45 190.747 83.41 190.837 83.41H191.617C191.727 83.41 191.767 83.465 191.737 83.575L188.962 91.66C188.722 92.33 188.497 92.825 188.287 93.145C188.077 93.465 187.812 93.685 187.492 93.805C187.182 93.935 186.742 94 186.172 94H186.067Z" fill="#D1CAE5"/>
<path d="M201.579 86.035C201.779 86.525 201.879 87.11 201.879 87.79C201.879 88.34 201.804 88.825 201.654 89.245C201.454 89.845 201.114 90.31 200.634 90.64C200.164 90.96 199.579 91.12 198.879 91.12C198.179 91.12 197.579 90.94 197.079 90.58C196.579 90.21 196.234 89.715 196.044 89.095C195.954 88.815 195.899 88.435 195.879 87.955C195.879 87.855 195.929 87.805 196.029 87.805H196.794C196.894 87.805 196.944 87.855 196.944 87.955C196.964 88.245 196.999 88.515 197.049 88.765C197.159 89.205 197.369 89.555 197.679 89.815C197.999 90.065 198.394 90.19 198.864 90.19C199.764 90.19 200.349 89.79 200.619 88.99C200.739 88.66 200.799 88.25 200.799 87.76C200.799 87.16 200.719 86.67 200.559 86.29C200.239 85.57 199.674 85.21 198.864 85.21C198.714 85.21 198.529 85.265 198.309 85.375C198.269 85.395 198.239 85.405 198.219 85.405C198.179 85.405 198.144 85.38 198.114 85.33L197.724 84.805C197.674 84.725 197.679 84.655 197.739 84.595L200.379 81.505C200.409 81.455 200.399 81.43 200.349 81.43H196.119C196.019 81.43 195.969 81.38 195.969 81.28V80.65C195.969 80.55 196.019 80.5 196.119 80.5H201.669C201.769 80.5 201.819 80.55 201.819 80.65V81.385C201.819 81.435 201.794 81.495 201.744 81.565L199.344 84.445C199.324 84.465 199.319 84.485 199.329 84.505C199.339 84.515 199.359 84.52 199.389 84.52C200.459 84.59 201.189 85.095 201.579 86.035ZM205.129 89.995C205.099 90.045 205.109 90.07 205.159 90.07H209.869C209.969 90.07 210.019 90.12 210.019 90.22V90.85C210.019 90.95 209.969 91 209.869 91H203.884C203.784 91 203.734 90.95 203.734 90.85V90.22C203.734 90.15 203.759 90.09 203.809 90.04C204.149 89.64 204.914 88.7 206.104 87.22L207.214 85.84C208.154 84.65 208.624 83.725 208.624 83.065C208.624 82.535 208.444 82.11 208.084 81.79C207.724 81.47 207.254 81.31 206.674 81.31C206.104 81.31 205.644 81.475 205.294 81.805C204.944 82.125 204.774 82.55 204.784 83.08V83.545C204.784 83.645 204.734 83.695 204.634 83.695H203.854C203.754 83.695 203.704 83.645 203.704 83.545V82.945C203.724 82.175 204.009 81.555 204.559 81.085C205.119 80.615 205.824 80.38 206.674 80.38C207.274 80.38 207.804 80.495 208.264 80.725C208.724 80.955 209.079 81.275 209.329 81.685C209.579 82.085 209.704 82.54 209.704 83.05C209.704 83.9 209.234 84.925 208.294 86.125C207.804 86.755 206.859 87.915 205.459 89.605L205.129 89.995Z" fill="#65CC01"/>
<path d="M143.668 127.392C144.255 128.829 144.548 130.487 144.548 132.364C144.548 133.919 144.313 135.356 143.844 136.676C143.199 138.495 142.128 139.903 140.632 140.9C139.136 141.868 137.332 142.352 135.22 142.352C133.108 142.352 131.275 141.809 129.72 140.724C128.195 139.639 127.124 138.172 126.508 136.324C126.185 135.503 125.995 134.329 125.936 132.804C125.936 132.511 126.083 132.364 126.376 132.364H129.764C130.057 132.364 130.204 132.511 130.204 132.804C130.263 133.86 130.38 134.637 130.556 135.136C130.849 136.221 131.392 137.087 132.184 137.732C133.005 138.377 134.017 138.7 135.22 138.7C137.449 138.7 138.945 137.688 139.708 135.664C140.089 134.784 140.28 133.64 140.28 132.232C140.28 130.736 140.045 129.401 139.576 128.228C138.755 126.409 137.288 125.5 135.176 125.5C134.677 125.5 134.047 125.72 133.284 126.16C133.167 126.219 133.079 126.248 133.02 126.248C132.873 126.248 132.756 126.175 132.668 126.028L130.996 123.74C130.937 123.623 130.908 123.52 130.908 123.432C130.908 123.344 130.952 123.241 131.04 123.124L138.564 115.072C138.652 114.925 138.623 114.852 138.476 114.852H126.772C126.479 114.852 126.332 114.705 126.332 114.412V111.64C126.332 111.347 126.479 111.2 126.772 111.2H143.844C144.137 111.2 144.284 111.347 144.284 111.64V114.808C144.284 114.955 144.211 115.131 144.064 115.336L137.376 122.64C137.317 122.699 137.303 122.757 137.332 122.816C137.361 122.845 137.42 122.875 137.508 122.904C139.004 123.051 140.265 123.52 141.292 124.312C142.319 125.075 143.111 126.101 143.668 127.392ZM159.482 142.44C156.52 142.44 154.158 141.604 152.398 139.932C150.668 138.231 149.802 135.957 149.802 133.112V120.088C149.802 117.243 150.668 114.984 152.398 113.312C154.158 111.64 156.52 110.804 159.482 110.804C162.445 110.804 164.806 111.64 166.566 113.312C168.356 114.984 169.25 117.243 169.25 120.088V133.112C169.25 135.957 168.356 138.231 166.566 139.932C164.806 141.604 162.445 142.44 159.482 142.44ZM159.482 138.788C161.184 138.788 162.533 138.304 163.53 137.336C164.528 136.339 165.026 135.019 165.026 133.376V119.912C165.026 118.269 164.528 116.964 163.53 115.996C162.533 114.999 161.184 114.5 159.482 114.5C157.84 114.5 156.52 114.999 155.522 115.996C154.525 116.964 154.026 118.269 154.026 119.912V133.376C154.026 135.019 154.525 136.339 155.522 137.336C156.52 138.304 157.84 138.788 159.482 138.788ZM184.404 142.44C181.441 142.44 179.08 141.604 177.32 139.932C175.589 138.231 174.724 135.957 174.724 133.112V120.088C174.724 117.243 175.589 114.984 177.32 113.312C179.08 111.64 181.441 110.804 184.404 110.804C187.367 110.804 189.728 111.64 191.488 113.312C193.277 114.984 194.172 117.243 194.172 120.088V133.112C194.172 135.957 193.277 138.231 191.488 139.932C189.728 141.604 187.367 142.44 184.404 142.44ZM184.404 138.788C186.105 138.788 187.455 138.304 188.452 137.336C189.449 136.339 189.948 135.019 189.948 133.376V119.912C189.948 118.269 189.449 116.964 188.452 115.996C187.455 114.999 186.105 114.5 184.404 114.5C182.761 114.5 181.441 114.999 180.444 115.996C179.447 116.964 178.948 118.269 178.948 119.912V133.376C178.948 135.019 179.447 136.339 180.444 137.336C181.441 138.304 182.761 138.788 184.404 138.788Z" fill="white"/>
<path d="M263.16 58.5C263.21 58.5 263.25 58.52 263.28 58.56C263.32 58.59 263.34 58.63 263.34 58.68V60.15C263.34 60.2 263.32 60.245 263.28 60.285C263.25 60.315 263.21 60.33 263.16 60.33H260.475C260.425 60.33 260.4 60.355 260.4 60.405V68.82C260.4 68.87 260.38 68.915 260.34 68.955C260.31 68.985 260.27 69 260.22 69H258.465C258.415 69 258.37 68.985 258.33 68.955C258.3 68.915 258.285 68.87 258.285 68.82V60.405C258.285 60.355 258.26 60.33 258.21 60.33H255.6C255.55 60.33 255.505 60.315 255.465 60.285C255.435 60.245 255.42 60.2 255.42 60.15V58.68C255.42 58.63 255.435 58.59 255.465 58.56C255.505 58.52 255.55 58.5 255.6 58.5H263.16ZM268.15 69.165C267.37 69.165 266.68 69.005 266.08 68.685C265.49 68.365 265.03 67.92 264.7 67.35C264.37 66.77 264.205 66.105 264.205 65.355V62.145C264.205 61.405 264.37 60.75 264.7 60.18C265.03 59.61 265.49 59.17 266.08 58.86C266.68 58.54 267.37 58.38 268.15 58.38C268.94 58.38 269.63 58.54 270.22 58.86C270.82 59.17 271.285 59.61 271.615 60.18C271.945 60.75 272.11 61.405 272.11 62.145V65.355C272.11 66.105 271.945 66.77 271.615 67.35C271.285 67.93 270.82 68.38 270.22 68.7C269.63 69.01 268.94 69.165 268.15 69.165ZM268.15 67.35C268.7 67.35 269.145 67.175 269.485 66.825C269.825 66.475 269.995 66.01 269.995 65.43V62.13C269.995 61.55 269.825 61.085 269.485 60.735C269.155 60.375 268.71 60.195 268.15 60.195C267.6 60.195 267.155 60.375 266.815 60.735C266.485 61.085 266.32 61.55 266.32 62.13V65.43C266.32 66.01 266.485 66.475 266.815 66.825C267.155 67.175 267.6 67.35 268.15 67.35ZM281.009 58.5C281.059 58.5 281.099 58.52 281.129 58.56C281.169 58.59 281.189 58.63 281.189 58.68V60.15C281.189 60.2 281.169 60.245 281.129 60.285C281.099 60.315 281.059 60.33 281.009 60.33H278.324C278.274 60.33 278.249 60.355 278.249 60.405V68.82C278.249 68.87 278.229 68.915 278.189 68.955C278.159 68.985 278.119 69 278.069 69H276.314C276.264 69 276.219 68.985 276.179 68.955C276.149 68.915 276.134 68.87 276.134 68.82V60.405C276.134 60.355 276.109 60.33 276.059 60.33H273.449C273.399 60.33 273.354 60.315 273.314 60.285C273.284 60.245 273.269 60.2 273.269 60.15V58.68C273.269 58.63 273.284 58.59 273.314 58.56C273.354 58.52 273.399 58.5 273.449 58.5H281.009ZM285.998 69.165C285.218 69.165 284.528 69.005 283.928 68.685C283.338 68.365 282.878 67.92 282.548 67.35C282.218 66.77 282.053 66.105 282.053 65.355V62.145C282.053 61.405 282.218 60.75 282.548 60.18C282.878 59.61 283.338 59.17 283.928 58.86C284.528 58.54 285.218 58.38 285.998 58.38C286.788 58.38 287.478 58.54 288.068 58.86C288.668 59.17 289.133 59.61 289.463 60.18C289.793 60.75 289.958 61.405 289.958 62.145V65.355C289.958 66.105 289.793 66.77 289.463 67.35C289.133 67.93 288.668 68.38 288.068 68.7C287.478 69.01 286.788 69.165 285.998 69.165ZM285.998 67.35C286.548 67.35 286.993 67.175 287.333 66.825C287.673 66.475 287.843 66.01 287.843 65.43V62.13C287.843 61.55 287.673 61.085 287.333 60.735C287.003 60.375 286.558 60.195 285.998 60.195C285.448 60.195 285.003 60.375 284.663 60.735C284.333 61.085 284.168 61.55 284.168 62.13V65.43C284.168 66.01 284.333 66.475 284.663 66.825C285.003 67.175 285.448 67.35 285.998 67.35ZM298.17 69C298.07 69 298.005 68.95 297.975 68.85L297.525 67.38C297.505 67.34 297.48 67.32 297.45 67.32H293.76C293.73 67.32 293.705 67.34 293.685 67.38L293.25 68.85C293.22 68.95 293.155 69 293.055 69H291.15C291.09 69 291.045 68.985 291.015 68.955C290.985 68.915 290.98 68.86 291 68.79L294.24 58.65C294.27 58.55 294.335 58.5 294.435 58.5H296.79C296.89 58.5 296.955 58.55 296.985 58.65L300.225 68.79C300.235 68.81 300.24 68.835 300.24 68.865C300.24 68.955 300.185 69 300.075 69H298.17ZM294.225 65.595C294.215 65.655 294.235 65.685 294.285 65.685H296.925C296.985 65.685 297.005 65.655 296.985 65.595L295.635 61.14C295.625 61.1 295.61 61.085 295.59 61.095C295.57 61.095 295.555 61.11 295.545 61.14L294.225 65.595ZM301.889 69C301.839 69 301.794 68.985 301.754 68.955C301.724 68.915 301.709 68.87 301.709 68.82V58.68C301.709 58.63 301.724 58.59 301.754 58.56C301.794 58.52 301.839 58.5 301.889 58.5H303.644C303.694 58.5 303.734 58.52 303.764 58.56C303.804 58.59 303.824 58.63 303.824 58.68V67.11C303.824 67.16 303.849 67.185 303.899 67.185H308.804C308.854 67.185 308.894 67.205 308.924 67.245C308.964 67.275 308.984 67.315 308.984 67.365V68.82C308.984 68.87 308.964 68.915 308.924 68.955C308.894 68.985 308.854 69 308.804 69H301.889ZM320.886 60.135C320.886 60.185 320.866 60.23 320.826 60.27C320.796 60.3 320.756 60.315 320.706 60.315H315.786C315.736 60.315 315.711 60.34 315.711 60.39V62.715C315.711 62.765 315.736 62.79 315.786 62.79H319.011C319.061 62.79 319.101 62.81 319.131 62.85C319.171 62.88 319.191 62.92 319.191 62.97V64.425C319.191 64.475 319.171 64.52 319.131 64.56C319.101 64.59 319.061 64.605 319.011 64.605H315.786C315.736 64.605 315.711 64.63 315.711 64.68V67.11C315.711 67.16 315.736 67.185 315.786 67.185H320.706C320.756 67.185 320.796 67.205 320.826 67.245C320.866 67.275 320.886 67.315 320.886 67.365V68.82C320.886 68.87 320.866 68.915 320.826 68.955C320.796 68.985 320.756 69 320.706 69H313.776C313.726 69 313.681 68.985 313.641 68.955C313.611 68.915 313.596 68.87 313.596 68.82V58.68C313.596 58.63 313.611 58.59 313.641 58.56C313.681 58.52 313.726 58.5 313.776 58.5H320.706C320.756 58.5 320.796 58.52 320.826 58.56C320.866 58.59 320.886 58.63 320.886 58.68V60.135ZM328.536 58.68C328.536 58.63 328.551 58.59 328.581 58.56C328.621 58.52 328.666 58.5 328.716 58.5H330.471C330.521 58.5 330.561 58.52 330.591 58.56C330.631 58.59 330.651 58.63 330.651 58.68V68.82C330.651 68.87 330.631 68.915 330.591 68.955C330.561 68.985 330.521 69 330.471 69H328.776C328.676 69 328.606 68.96 328.566 68.88L324.681 62.46C324.661 62.43 324.641 62.42 324.621 62.43C324.601 62.43 324.591 62.45 324.591 62.49L324.621 68.82C324.621 68.87 324.601 68.915 324.561 68.955C324.531 68.985 324.491 69 324.441 69H322.686C322.636 69 322.591 68.985 322.551 68.955C322.521 68.915 322.506 68.87 322.506 68.82V58.68C322.506 58.63 322.521 58.59 322.551 58.56C322.591 58.52 322.636 58.5 322.686 58.5H324.381C324.481 58.5 324.551 58.54 324.591 58.62L328.461 65.01C328.481 65.04 328.501 65.055 328.521 65.055C328.541 65.045 328.551 65.02 328.551 64.98L328.536 58.68ZM332.723 69C332.673 69 332.628 68.985 332.588 68.955C332.558 68.915 332.543 68.87 332.543 68.82V58.68C332.543 58.63 332.558 58.59 332.588 58.56C332.628 58.52 332.673 58.5 332.723 58.5H336.473C337.223 58.5 337.878 58.635 338.438 58.905C339.008 59.165 339.448 59.535 339.758 60.015C340.068 60.495 340.223 61.05 340.223 61.68V65.82C340.223 66.45 340.068 67.005 339.758 67.485C339.448 67.965 339.008 68.34 338.438 68.61C337.878 68.87 337.223 69 336.473 69H332.723ZM334.658 67.11C334.658 67.16 334.683 67.185 334.733 67.185H336.548C337.008 67.185 337.378 67.03 337.658 66.72C337.948 66.41 338.098 65.995 338.108 65.475V62.025C338.108 61.505 337.963 61.09 337.673 60.78C337.393 60.47 337.013 60.315 336.533 60.315H334.733C334.683 60.315 334.658 60.34 334.658 60.39V67.11ZM346.301 58.485C346.961 58.485 347.541 58.62 348.041 58.89C348.541 59.16 348.926 59.545 349.196 60.045C349.476 60.535 349.616 61.1 349.616 61.74C349.616 62.37 349.471 62.925 349.181 63.405C348.901 63.885 348.501 64.26 347.981 64.53C347.471 64.79 346.881 64.92 346.211 64.92H344.081C344.031 64.92 344.006 64.945 344.006 64.995V68.82C344.006 68.87 343.986 68.915 343.946 68.955C343.916 68.985 343.876 69 343.826 69H342.071C342.021 69 341.976 68.985 341.936 68.955C341.906 68.915 341.891 68.87 341.891 68.82V58.665C341.891 58.615 341.906 58.575 341.936 58.545C341.976 58.505 342.021 58.485 342.071 58.485H346.301ZM345.986 63.225C346.446 63.225 346.816 63.095 347.096 62.835C347.376 62.565 347.516 62.215 347.516 61.785C347.516 61.345 347.376 60.99 347.096 60.72C346.816 60.45 346.446 60.315 345.986 60.315H344.081C344.031 60.315 344.006 60.34 344.006 60.39V63.15C344.006 63.2 344.031 63.225 344.081 63.225H345.986ZM354.801 69.165C354.021 69.165 353.331 69.005 352.731 68.685C352.141 68.365 351.681 67.92 351.351 67.35C351.021 66.77 350.856 66.105 350.856 65.355V62.145C350.856 61.405 351.021 60.75 351.351 60.18C351.681 59.61 352.141 59.17 352.731 58.86C353.331 58.54 354.021 58.38 354.801 58.38C355.591 58.38 356.281 58.54 356.871 58.86C357.471 59.17 357.936 59.61 358.266 60.18C358.596 60.75 358.761 61.405 358.761 62.145V65.355C358.761 66.105 358.596 66.77 358.266 67.35C357.936 67.93 357.471 68.38 356.871 68.7C356.281 69.01 355.591 69.165 354.801 69.165ZM354.801 67.35C355.351 67.35 355.796 67.175 356.136 66.825C356.476 66.475 356.646 66.01 356.646 65.43V62.13C356.646 61.55 356.476 61.085 356.136 60.735C355.806 60.375 355.361 60.195 354.801 60.195C354.251 60.195 353.806 60.375 353.466 60.735C353.136 61.085 352.971 61.55 352.971 62.13V65.43C352.971 66.01 353.136 66.475 353.466 66.825C353.806 67.175 354.251 67.35 354.801 67.35ZM360.712 69C360.662 69 360.617 68.985 360.577 68.955C360.547 68.915 360.532 68.87 360.532 68.82V58.68C360.532 58.63 360.547 58.59 360.577 58.56C360.617 58.52 360.662 58.5 360.712 58.5H362.467C362.517 58.5 362.557 58.52 362.587 58.56C362.627 58.59 362.647 58.63 362.647 58.68V68.82C362.647 68.87 362.627 68.915 362.587 68.955C362.557 68.985 362.517 69 362.467 69H360.712ZM370.653 58.68C370.653 58.63 370.668 58.59 370.698 58.56C370.738 58.52 370.783 58.5 370.833 58.5H372.588C372.638 58.5 372.678 58.52 372.708 58.56C372.748 58.59 372.768 58.63 372.768 58.68V68.82C372.768 68.87 372.748 68.915 372.708 68.955C372.678 68.985 372.638 69 372.588 69H370.893C370.793 69 370.723 68.96 370.683 68.88L366.798 62.46C366.778 62.43 366.758 62.42 366.738 62.43C366.718 62.43 366.708 62.45 366.708 62.49L366.738 68.82C366.738 68.87 366.718 68.915 366.678 68.955C366.648 68.985 366.608 69 366.558 69H364.803C364.753 69 364.708 68.985 364.668 68.955C364.638 68.915 364.623 68.87 364.623 68.82V58.68C364.623 58.63 364.638 58.59 364.668 58.56C364.708 58.52 364.753 58.5 364.803 58.5H366.498C366.598 58.5 366.668 58.54 366.708 58.62L370.578 65.01C370.598 65.04 370.618 65.055 370.638 65.055C370.658 65.045 370.668 65.02 370.668 64.98L370.653 58.68ZM381.993 58.5C382.043 58.5 382.083 58.52 382.113 58.56C382.153 58.59 382.173 58.63 382.173 58.68V60.15C382.173 60.2 382.153 60.245 382.113 60.285C382.083 60.315 382.043 60.33 381.993 60.33H379.308C379.258 60.33 379.233 60.355 379.233 60.405V68.82C379.233 68.87 379.213 68.915 379.173 68.955C379.143 68.985 379.103 69 379.053 69H377.298C377.248 69 377.203 68.985 377.163 68.955C377.133 68.915 377.118 68.87 377.118 68.82V60.405C377.118 60.355 377.093 60.33 377.043 60.33H374.433C374.383 60.33 374.338 60.315 374.298 60.285C374.268 60.245 374.253 60.2 374.253 60.15V58.68C374.253 58.63 374.268 58.59 374.298 58.56C374.338 58.52 374.383 58.5 374.433 58.5H381.993ZM387.185 69.12C386.385 69.12 385.685 68.995 385.085 68.745C384.485 68.485 384.02 68.12 383.69 67.65C383.37 67.17 383.21 66.615 383.21 65.985V65.655C383.21 65.605 383.225 65.565 383.255 65.535C383.295 65.495 383.34 65.475 383.39 65.475H385.1C385.15 65.475 385.19 65.495 385.22 65.535C385.26 65.565 385.28 65.605 385.28 65.655V65.88C385.28 66.28 385.465 66.62 385.835 66.9C386.205 67.17 386.705 67.305 387.335 67.305C387.865 67.305 388.26 67.195 388.52 66.975C388.78 66.745 388.91 66.465 388.91 66.135C388.91 65.895 388.83 65.695 388.67 65.535C388.51 65.365 388.29 65.22 388.01 65.1C387.74 64.97 387.305 64.795 386.705 64.575C386.035 64.345 385.465 64.11 384.995 63.87C384.535 63.63 384.145 63.305 383.825 62.895C383.515 62.475 383.36 61.96 383.36 61.35C383.36 60.75 383.515 60.225 383.825 59.775C384.135 59.325 384.565 58.98 385.115 58.74C385.665 58.5 386.3 58.38 387.02 58.38C387.78 58.38 388.455 58.515 389.045 58.785C389.645 59.055 390.11 59.435 390.44 59.925C390.78 60.405 390.95 60.965 390.95 61.605V61.83C390.95 61.88 390.93 61.925 390.89 61.965C390.86 61.995 390.82 62.01 390.77 62.01H389.045C388.995 62.01 388.95 61.995 388.91 61.965C388.88 61.925 388.865 61.88 388.865 61.83V61.71C388.865 61.29 388.69 60.935 388.34 60.645C388 60.345 387.53 60.195 386.93 60.195C386.46 60.195 386.09 60.295 385.82 60.495C385.56 60.695 385.43 60.97 385.43 61.32C385.43 61.57 385.505 61.78 385.655 61.95C385.815 62.12 386.045 62.275 386.345 62.415C386.655 62.545 387.13 62.725 387.77 62.955C388.48 63.215 389.035 63.445 389.435 63.645C389.845 63.845 390.21 64.145 390.53 64.545C390.86 64.935 391.025 65.445 391.025 66.075C391.025 67.015 390.68 67.76 389.99 68.31C389.3 68.85 388.365 69.12 387.185 69.12Z" fill="white"/>
<path d="M274.669 91C274.569 91 274.519 90.95 274.519 90.85V80.65C274.519 80.55 274.569 80.5 274.669 80.5H275.434C275.534 80.5 275.584 80.55 275.584 80.65V90.85C275.584 90.95 275.534 91 275.434 91H274.669ZM281.341 83.305C282.141 83.305 282.776 83.54 283.246 84.01C283.726 84.48 283.966 85.11 283.966 85.9V90.85C283.966 90.95 283.916 91 283.816 91H283.051C282.951 91 282.901 90.95 282.901 90.85V86.11C282.901 85.56 282.731 85.11 282.391 84.76C282.061 84.41 281.631 84.235 281.101 84.235C280.551 84.235 280.106 84.405 279.766 84.745C279.426 85.085 279.256 85.53 279.256 86.08V90.85C279.256 90.95 279.206 91 279.106 91H278.341C278.241 91 278.191 90.95 278.191 90.85V83.56C278.191 83.46 278.241 83.41 278.341 83.41H279.106C279.206 83.41 279.256 83.46 279.256 83.56V84.205C279.256 84.225 279.261 84.24 279.271 84.25C279.291 84.26 279.306 84.255 279.316 84.235C279.756 83.615 280.431 83.305 281.341 83.305ZM289.04 91.12C288.32 91.12 287.7 90.935 287.18 90.565C286.67 90.185 286.32 89.675 286.13 89.035C286 88.595 285.935 87.975 285.935 87.175C285.935 86.455 286 85.845 286.13 85.345C286.31 84.725 286.66 84.23 287.18 83.86C287.7 83.48 288.32 83.29 289.04 83.29C289.77 83.29 290.4 83.475 290.93 83.845C291.47 84.215 291.82 84.675 291.98 85.225C292.03 85.405 292.06 85.555 292.07 85.675V85.705C292.07 85.775 292.025 85.82 291.935 85.84L291.185 85.945H291.155C291.085 85.945 291.04 85.9 291.02 85.81L290.975 85.585C290.885 85.205 290.665 84.885 290.315 84.625C289.965 84.355 289.54 84.22 289.04 84.22C288.54 84.22 288.12 84.355 287.78 84.625C287.45 84.885 287.235 85.235 287.135 85.675C287.045 86.055 287 86.56 287 87.19C287 87.85 287.045 88.36 287.135 88.72C287.235 89.17 287.45 89.53 287.78 89.8C288.12 90.06 288.54 90.19 289.04 90.19C289.53 90.19 289.95 90.065 290.3 89.815C290.66 89.555 290.885 89.225 290.975 88.825V88.765L290.99 88.705C291 88.605 291.06 88.565 291.17 88.585L291.905 88.705C292.005 88.725 292.05 88.78 292.04 88.87L291.98 89.17C291.83 89.75 291.485 90.22 290.945 90.58C290.405 90.94 289.77 91.12 289.04 91.12ZM297.028 83.335C297.358 83.335 297.643 83.4 297.883 83.53C297.963 83.57 297.993 83.635 297.973 83.725L297.808 84.46C297.778 84.56 297.713 84.59 297.613 84.55C297.443 84.48 297.248 84.445 297.028 84.445L296.833 84.46C296.313 84.48 295.883 84.675 295.543 85.045C295.203 85.405 295.033 85.865 295.033 86.425V90.85C295.033 90.95 294.983 91 294.883 91H294.118C294.018 91 293.968 90.95 293.968 90.85V83.56C293.968 83.46 294.018 83.41 294.118 83.41H294.883C294.983 83.41 295.033 83.46 295.033 83.56V84.475C295.033 84.505 295.038 84.525 295.048 84.535C295.068 84.535 295.083 84.525 295.093 84.505C295.303 84.135 295.568 83.85 295.888 83.65C296.218 83.44 296.598 83.335 297.028 83.335ZM305.178 85.93C305.218 86.21 305.238 86.56 305.238 86.98V87.46C305.238 87.56 305.188 87.61 305.088 87.61H300.243C300.203 87.61 300.183 87.63 300.183 87.67C300.203 88.22 300.233 88.575 300.273 88.735C300.383 89.185 300.618 89.54 300.978 89.8C301.338 90.06 301.798 90.19 302.358 90.19C302.778 90.19 303.148 90.095 303.468 89.905C303.788 89.715 304.038 89.445 304.218 89.095C304.278 89.005 304.348 88.985 304.428 89.035L305.013 89.38C305.093 89.43 305.113 89.5 305.073 89.59C304.823 90.07 304.448 90.45 303.948 90.73C303.448 91 302.873 91.135 302.223 91.135C301.513 91.125 300.918 90.955 300.438 90.625C299.958 90.295 299.613 89.835 299.403 89.245C299.223 88.765 299.133 88.075 299.133 87.175C299.133 86.755 299.138 86.415 299.148 86.155C299.168 85.885 299.208 85.645 299.268 85.435C299.438 84.785 299.778 84.265 300.288 83.875C300.808 83.485 301.433 83.29 302.163 83.29C303.073 83.29 303.773 83.52 304.263 83.98C304.753 84.44 305.058 85.09 305.178 85.93ZM302.163 84.22C301.673 84.22 301.263 84.35 300.933 84.61C300.613 84.86 300.403 85.2 300.303 85.63C300.243 85.84 300.203 86.18 300.183 86.65C300.183 86.69 300.203 86.71 300.243 86.71H304.128C304.168 86.71 304.188 86.69 304.188 86.65C304.168 86.2 304.138 85.88 304.098 85.69C303.988 85.24 303.763 84.885 303.423 84.625C303.093 84.355 302.673 84.22 302.163 84.22ZM309.908 83.29C310.808 83.29 311.503 83.52 311.993 83.98C312.483 84.44 312.728 85.05 312.728 85.81V90.85C312.728 90.95 312.678 91 312.578 91H311.813C311.713 91 311.663 90.95 311.663 90.85V90.235C311.663 90.215 311.653 90.2 311.633 90.19C311.623 90.18 311.608 90.185 311.588 90.205C311.338 90.505 311.013 90.735 310.613 90.895C310.213 91.045 309.768 91.12 309.278 91.12C308.568 91.12 307.973 90.94 307.493 90.58C307.013 90.22 306.773 89.67 306.773 88.93C306.773 88.18 307.043 87.59 307.583 87.16C308.133 86.72 308.893 86.5 309.863 86.5H311.603C311.643 86.5 311.663 86.48 311.663 86.44V85.87C311.663 85.36 311.518 84.96 311.228 84.67C310.948 84.37 310.508 84.22 309.908 84.22C309.428 84.22 309.038 84.315 308.738 84.505C308.438 84.685 308.253 84.94 308.183 85.27C308.153 85.37 308.093 85.415 308.003 85.405L307.193 85.3C307.083 85.28 307.038 85.24 307.058 85.18C307.138 84.62 307.438 84.165 307.958 83.815C308.478 83.465 309.128 83.29 309.908 83.29ZM309.488 90.205C310.078 90.205 310.588 90.06 311.018 89.77C311.448 89.47 311.663 89.07 311.663 88.57V87.4C311.663 87.36 311.643 87.34 311.603 87.34H310.028C309.368 87.34 308.838 87.475 308.438 87.745C308.038 88.015 307.838 88.39 307.838 88.87C307.838 89.31 307.988 89.645 308.288 89.875C308.598 90.095 308.998 90.205 309.488 90.205ZM317.434 91.075C316.874 91.075 316.374 90.985 315.934 90.805C315.504 90.625 315.169 90.385 314.929 90.085C314.699 89.785 314.584 89.45 314.584 89.08V88.9C314.584 88.8 314.634 88.75 314.734 88.75H315.454C315.554 88.75 315.604 88.8 315.604 88.9V89.02C315.604 89.35 315.774 89.64 316.114 89.89C316.464 90.13 316.899 90.25 317.419 90.25C317.939 90.25 318.359 90.135 318.679 89.905C318.999 89.665 319.159 89.365 319.159 89.005C319.159 88.755 319.074 88.55 318.904 88.39C318.744 88.23 318.549 88.105 318.319 88.015C318.099 87.925 317.754 87.81 317.284 87.67C316.724 87.51 316.264 87.35 315.904 87.19C315.544 87.03 315.239 86.81 314.989 86.53C314.749 86.24 314.629 85.875 314.629 85.435C314.629 84.795 314.879 84.285 315.379 83.905C315.879 83.525 316.539 83.335 317.359 83.335C317.909 83.335 318.394 83.425 318.814 83.605C319.244 83.785 319.574 84.035 319.804 84.355C320.034 84.665 320.149 85.015 320.149 85.405V85.45C320.149 85.55 320.099 85.6 319.999 85.6H319.294C319.194 85.6 319.144 85.55 319.144 85.45V85.405C319.144 85.065 318.979 84.78 318.649 84.55C318.329 84.32 317.894 84.205 317.344 84.205C316.834 84.205 316.424 84.31 316.114 84.52C315.804 84.72 315.649 85 315.649 85.36C315.649 85.7 315.799 85.96 316.099 86.14C316.399 86.32 316.864 86.5 317.494 86.68C318.074 86.85 318.544 87.01 318.904 87.16C319.264 87.31 319.574 87.53 319.834 87.82C320.094 88.1 320.224 88.47 320.224 88.93C320.224 89.58 319.969 90.1 319.459 90.49C318.949 90.88 318.274 91.075 317.434 91.075ZM327.986 85.93C328.026 86.21 328.046 86.56 328.046 86.98V87.46C328.046 87.56 327.996 87.61 327.896 87.61H323.051C323.011 87.61 322.991 87.63 322.991 87.67C323.011 88.22 323.041 88.575 323.081 88.735C323.191 89.185 323.426 89.54 323.786 89.8C324.146 90.06 324.606 90.19 325.166 90.19C325.586 90.19 325.956 90.095 326.276 89.905C326.596 89.715 326.846 89.445 327.026 89.095C327.086 89.005 327.156 88.985 327.236 89.035L327.821 89.38C327.901 89.43 327.921 89.5 327.881 89.59C327.631 90.07 327.256 90.45 326.756 90.73C326.256 91 325.681 91.135 325.031 91.135C324.321 91.125 323.726 90.955 323.246 90.625C322.766 90.295 322.421 89.835 322.211 89.245C322.031 88.765 321.941 88.075 321.941 87.175C321.941 86.755 321.946 86.415 321.956 86.155C321.976 85.885 322.016 85.645 322.076 85.435C322.246 84.785 322.586 84.265 323.096 83.875C323.616 83.485 324.241 83.29 324.971 83.29C325.881 83.29 326.581 83.52 327.071 83.98C327.561 84.44 327.866 85.09 327.986 85.93ZM324.971 84.22C324.481 84.22 324.071 84.35 323.741 84.61C323.421 84.86 323.211 85.2 323.111 85.63C323.051 85.84 323.011 86.18 322.991 86.65C322.991 86.69 323.011 86.71 323.051 86.71H326.936C326.976 86.71 326.996 86.69 326.996 86.65C326.976 86.2 326.946 85.88 326.906 85.69C326.796 85.24 326.571 84.885 326.231 84.625C325.901 84.355 325.481 84.22 324.971 84.22ZM334.874 80.65C334.874 80.55 334.924 80.5 335.024 80.5H335.789C335.889 80.5 335.939 80.55 335.939 80.65V90.85C335.939 90.95 335.889 91 335.789 91H335.024C334.924 91 334.874 90.95 334.874 90.85V90.22C334.874 90.2 334.864 90.19 334.844 90.19C334.834 90.18 334.819 90.185 334.799 90.205C334.579 90.495 334.304 90.72 333.974 90.88C333.654 91.04 333.294 91.12 332.894 91.12C332.194 91.12 331.604 90.94 331.124 90.58C330.654 90.22 330.329 89.73 330.149 89.11C330.009 88.66 329.939 88.025 329.939 87.205C329.939 86.375 329.999 85.755 330.119 85.345C330.299 84.705 330.629 84.205 331.109 83.845C331.589 83.475 332.184 83.29 332.894 83.29C333.284 83.29 333.644 83.37 333.974 83.53C334.304 83.68 334.579 83.9 334.799 84.19C334.819 84.21 334.834 84.22 334.844 84.22C334.864 84.21 334.874 84.195 334.874 84.175V80.65ZM334.604 89.035C334.694 88.835 334.759 88.6 334.799 88.33C334.839 88.06 334.859 87.685 334.859 87.205C334.859 86.725 334.839 86.35 334.799 86.08C334.759 85.8 334.689 85.555 334.589 85.345C334.469 85.005 334.269 84.735 333.989 84.535C333.719 84.325 333.394 84.22 333.014 84.22C332.614 84.22 332.269 84.32 331.979 84.52C331.689 84.72 331.479 84.985 331.349 85.315C331.229 85.535 331.139 85.785 331.079 86.065C331.029 86.335 331.004 86.715 331.004 87.205C331.004 87.675 331.024 88.045 331.064 88.315C331.104 88.575 331.174 88.81 331.274 89.02C331.394 89.38 331.604 89.665 331.904 89.875C332.214 90.085 332.579 90.19 332.999 90.19C333.399 90.19 333.734 90.085 334.004 89.875C334.274 89.665 334.474 89.385 334.604 89.035ZM347.19 85.345C347.31 85.795 347.37 86.415 347.37 87.205C347.37 88.025 347.3 88.66 347.16 89.11C346.97 89.73 346.64 90.22 346.17 90.58C345.7 90.94 345.115 91.12 344.415 91.12C344.015 91.12 343.65 91.04 343.32 90.88C342.99 90.72 342.715 90.49 342.495 90.19C342.485 90.17 342.47 90.165 342.45 90.175C342.43 90.175 342.42 90.185 342.42 90.205V90.85C342.42 90.95 342.37 91 342.27 91H341.505C341.405 91 341.355 90.95 341.355 90.85V80.65C341.355 80.55 341.405 80.5 341.505 80.5H342.27C342.37 80.5 342.42 80.55 342.42 80.65V84.19C342.42 84.21 342.425 84.225 342.435 84.235C342.455 84.235 342.475 84.225 342.495 84.205C342.715 83.915 342.99 83.69 343.32 83.53C343.65 83.37 344.015 83.29 344.415 83.29C345.125 83.29 345.72 83.475 346.2 83.845C346.68 84.205 347.01 84.705 347.19 85.345ZM346.035 89.02C346.135 88.81 346.205 88.575 346.245 88.315C346.285 88.045 346.305 87.675 346.305 87.205C346.305 86.715 346.275 86.335 346.215 86.065C346.165 85.785 346.08 85.535 345.96 85.315C345.83 84.985 345.62 84.72 345.33 84.52C345.04 84.32 344.695 84.22 344.295 84.22C343.915 84.22 343.585 84.325 343.305 84.535C343.035 84.735 342.84 85.005 342.72 85.345C342.62 85.555 342.545 85.795 342.495 86.065C342.455 86.335 342.435 86.715 342.435 87.205C342.435 87.685 342.455 88.06 342.495 88.33C342.545 88.59 342.615 88.825 342.705 89.035C342.835 89.385 343.035 89.665 343.305 89.875C343.575 90.085 343.91 90.19 344.31 90.19C344.73 90.19 345.09 90.085 345.39 89.875C345.7 89.665 345.915 89.38 346.035 89.02ZM349.067 94C348.997 94 348.962 93.95 348.962 93.85V93.25C348.962 93.15 349.012 93.1 349.112 93.1H349.172C349.562 93.09 349.862 93.03 350.072 92.92C350.292 92.82 350.477 92.625 350.627 92.335C350.787 92.055 350.957 91.625 351.137 91.045C351.157 91.005 351.157 90.975 351.137 90.955L348.602 83.575L348.587 83.515C348.587 83.445 348.632 83.41 348.722 83.41H349.517C349.607 83.41 349.667 83.45 349.697 83.53L351.647 89.59C351.657 89.61 351.672 89.62 351.692 89.62C351.712 89.62 351.727 89.61 351.737 89.59L353.657 83.53C353.687 83.45 353.747 83.41 353.837 83.41H354.617C354.727 83.41 354.767 83.465 354.737 83.575L351.962 91.66C351.722 92.33 351.497 92.825 351.287 93.145C351.077 93.465 350.812 93.685 350.492 93.805C350.182 93.935 349.742 94 349.172 94H349.067Z" fill="#D1CAE5"/>
<path d="M364.579 86.035C364.779 86.525 364.879 87.11 364.879 87.79C364.879 88.34 364.804 88.825 364.654 89.245C364.454 89.845 364.114 90.31 363.634 90.64C363.164 90.96 362.579 91.12 361.879 91.12C361.179 91.12 360.579 90.94 360.079 90.58C359.579 90.21 359.234 89.715 359.044 89.095C358.954 88.815 358.899 88.435 358.879 87.955C358.879 87.855 358.929 87.805 359.029 87.805H359.794C359.894 87.805 359.944 87.855 359.944 87.955C359.964 88.245 359.999 88.515 360.049 88.765C360.159 89.205 360.369 89.555 360.679 89.815C360.999 90.065 361.394 90.19 361.864 90.19C362.764 90.19 363.349 89.79 363.619 88.99C363.739 88.66 363.799 88.25 363.799 87.76C363.799 87.16 363.719 86.67 363.559 86.29C363.239 85.57 362.674 85.21 361.864 85.21C361.714 85.21 361.529 85.265 361.309 85.375C361.269 85.395 361.239 85.405 361.219 85.405C361.179 85.405 361.144 85.38 361.114 85.33L360.724 84.805C360.674 84.725 360.679 84.655 360.739 84.595L363.379 81.505C363.409 81.455 363.399 81.43 363.349 81.43H359.119C359.019 81.43 358.969 81.38 358.969 81.28V80.65C358.969 80.55 359.019 80.5 359.119 80.5H364.669C364.769 80.5 364.819 80.55 364.819 80.65V81.385C364.819 81.435 364.794 81.495 364.744 81.565L362.344 84.445C362.324 84.465 362.319 84.485 362.329 84.505C362.339 84.515 362.359 84.52 362.389 84.52C363.459 84.59 364.189 85.095 364.579 86.035ZM368.129 89.995C368.099 90.045 368.109 90.07 368.159 90.07H372.869C372.969 90.07 373.019 90.12 373.019 90.22V90.85C373.019 90.95 372.969 91 372.869 91H366.884C366.784 91 366.734 90.95 366.734 90.85V90.22C366.734 90.15 366.759 90.09 366.809 90.04C367.149 89.64 367.914 88.7 369.104 87.22L370.214 85.84C371.154 84.65 371.624 83.725 371.624 83.065C371.624 82.535 371.444 82.11 371.084 81.79C370.724 81.47 370.254 81.31 369.674 81.31C369.104 81.31 368.644 81.475 368.294 81.805C367.944 82.125 367.774 82.55 367.784 83.08V83.545C367.784 83.645 367.734 83.695 367.634 83.695H366.854C366.754 83.695 366.704 83.645 366.704 83.545V82.945C366.724 82.175 367.009 81.555 367.559 81.085C368.119 80.615 368.824 80.38 369.674 80.38C370.274 80.38 370.804 80.495 371.264 80.725C371.724 80.955 372.079 81.275 372.329 81.685C372.579 82.085 372.704 82.54 372.704 83.05C372.704 83.9 372.234 84.925 371.294 86.125C370.804 86.755 369.859 87.915 368.459 89.605L368.129 89.995Z" fill="#65CC01"/>
<path d="M306.668 127.392C307.255 128.829 307.548 130.487 307.548 132.364C307.548 133.919 307.313 135.356 306.844 136.676C306.199 138.495 305.128 139.903 303.632 140.9C302.136 141.868 300.332 142.352 298.22 142.352C296.108 142.352 294.275 141.809 292.72 140.724C291.195 139.639 290.124 138.172 289.508 136.324C289.185 135.503 288.995 134.329 288.936 132.804C288.936 132.511 289.083 132.364 289.376 132.364H292.764C293.057 132.364 293.204 132.511 293.204 132.804C293.263 133.86 293.38 134.637 293.556 135.136C293.849 136.221 294.392 137.087 295.184 137.732C296.005 138.377 297.017 138.7 298.22 138.7C300.449 138.7 301.945 137.688 302.708 135.664C303.089 134.784 303.28 133.64 303.28 132.232C303.28 130.736 303.045 129.401 302.576 128.228C301.755 126.409 300.288 125.5 298.176 125.5C297.677 125.5 297.047 125.72 296.284 126.16C296.167 126.219 296.079 126.248 296.02 126.248C295.873 126.248 295.756 126.175 295.668 126.028L293.996 123.74C293.937 123.623 293.908 123.52 293.908 123.432C293.908 123.344 293.952 123.241 294.04 123.124L301.564 115.072C301.652 114.925 301.623 114.852 301.476 114.852H289.772C289.479 114.852 289.332 114.705 289.332 114.412V111.64C289.332 111.347 289.479 111.2 289.772 111.2H306.844C307.137 111.2 307.284 111.347 307.284 111.64V114.808C307.284 114.955 307.211 115.131 307.064 115.336L300.376 122.64C300.317 122.699 300.303 122.757 300.332 122.816C300.361 122.845 300.42 122.875 300.508 122.904C302.004 123.051 303.265 123.52 304.292 124.312C305.319 125.075 306.111 126.101 306.668 127.392ZM322.482 142.44C319.52 142.44 317.158 141.604 315.398 139.932C313.668 138.231 312.802 135.957 312.802 133.112V120.088C312.802 117.243 313.668 114.984 315.398 113.312C317.158 111.64 319.52 110.804 322.482 110.804C325.445 110.804 327.806 111.64 329.566 113.312C331.356 114.984 332.25 117.243 332.25 120.088V133.112C332.25 135.957 331.356 138.231 329.566 139.932C327.806 141.604 325.445 142.44 322.482 142.44ZM322.482 138.788C324.184 138.788 325.533 138.304 326.53 137.336C327.528 136.339 328.026 135.019 328.026 133.376V119.912C328.026 118.269 327.528 116.964 326.53 115.996C325.533 114.999 324.184 114.5 322.482 114.5C320.84 114.5 319.52 114.999 318.522 115.996C317.525 116.964 317.026 118.269 317.026 119.912V133.376C317.026 135.019 317.525 136.339 318.522 137.336C319.52 138.304 320.84 138.788 322.482 138.788ZM347.404 142.44C344.441 142.44 342.08 141.604 340.32 139.932C338.589 138.231 337.724 135.957 337.724 133.112V120.088C337.724 117.243 338.589 114.984 340.32 113.312C342.08 111.64 344.441 110.804 347.404 110.804C350.367 110.804 352.728 111.64 354.488 113.312C356.277 114.984 357.172 117.243 357.172 120.088V133.112C357.172 135.957 356.277 138.231 354.488 139.932C352.728 141.604 350.367 142.44 347.404 142.44ZM347.404 138.788C349.105 138.788 350.455 138.304 351.452 137.336C352.449 136.339 352.948 135.019 352.948 133.376V119.912C352.948 118.269 352.449 116.964 351.452 115.996C350.455 114.999 349.105 114.5 347.404 114.5C345.761 114.5 344.441 114.999 343.444 115.996C342.447 116.964 341.948 118.269 341.948 119.912V133.376C341.948 135.019 342.447 136.339 343.444 137.336C344.441 138.304 345.761 138.788 347.404 138.788Z" fill="white"/>
<line x1="431.5" y1="155" x2="431.5" y2="50" stroke="#534D66"/>
<path d="M476.605 69.12C475.825 69.12 475.14 68.97 474.55 68.67C473.96 68.36 473.505 67.93 473.185 67.38C472.865 66.83 472.705 66.195 472.705 65.475V62.01C472.705 61.29 472.865 60.655 473.185 60.105C473.505 59.555 473.96 59.13 474.55 58.83C475.14 58.53 475.825 58.38 476.605 58.38C477.375 58.38 478.05 58.525 478.63 58.815C479.22 59.095 479.675 59.5 479.995 60.03C480.325 60.55 480.49 61.155 480.49 61.845C480.49 61.935 480.43 61.99 480.31 62.01L478.555 62.115H478.525C478.425 62.115 478.375 62.06 478.375 61.95C478.375 61.42 478.21 60.995 477.88 60.675C477.56 60.355 477.135 60.195 476.605 60.195C476.065 60.195 475.63 60.355 475.3 60.675C474.98 60.995 474.82 61.42 474.82 61.95V65.565C474.82 66.085 474.98 66.505 475.3 66.825C475.63 67.145 476.065 67.305 476.605 67.305C477.135 67.305 477.56 67.145 477.88 66.825C478.21 66.505 478.375 66.085 478.375 65.565C478.375 65.455 478.435 65.4 478.555 65.4L480.31 65.475C480.36 65.475 480.4 65.49 480.43 65.52C480.47 65.55 480.49 65.585 480.49 65.625C480.49 66.315 480.325 66.925 479.995 67.455C479.675 67.985 479.22 68.395 478.63 68.685C478.05 68.975 477.375 69.12 476.605 69.12ZM487.951 69C487.851 69 487.781 68.955 487.741 68.865L485.866 64.71C485.846 64.67 485.816 64.65 485.776 64.65H484.381C484.331 64.65 484.306 64.675 484.306 64.725V68.82C484.306 68.87 484.286 68.915 484.246 68.955C484.216 68.985 484.176 69 484.126 69H482.371C482.321 69 482.276 68.985 482.236 68.955C482.206 68.915 482.191 68.87 482.191 68.82V58.68C482.191 58.63 482.206 58.59 482.236 58.56C482.276 58.52 482.321 58.5 482.371 58.5H486.661C487.301 58.5 487.861 58.63 488.341 58.89C488.831 59.15 489.206 59.52 489.466 60C489.736 60.48 489.871 61.035 489.871 61.665C489.871 62.345 489.701 62.93 489.361 63.42C489.021 63.9 488.546 64.24 487.936 64.44C487.886 64.46 487.871 64.495 487.891 64.545L489.931 68.79C489.951 68.83 489.961 68.86 489.961 68.88C489.961 68.96 489.906 69 489.796 69H487.951ZM484.381 60.315C484.331 60.315 484.306 60.34 484.306 60.39V62.955C484.306 63.005 484.331 63.03 484.381 63.03H486.346C486.766 63.03 487.106 62.905 487.366 62.655C487.636 62.405 487.771 62.08 487.771 61.68C487.771 61.28 487.636 60.955 487.366 60.705C487.106 60.445 486.766 60.315 486.346 60.315H484.381ZM495.29 69.165C494.51 69.165 493.82 69.005 493.22 68.685C492.63 68.365 492.17 67.92 491.84 67.35C491.51 66.77 491.345 66.105 491.345 65.355V62.145C491.345 61.405 491.51 60.75 491.84 60.18C492.17 59.61 492.63 59.17 493.22 58.86C493.82 58.54 494.51 58.38 495.29 58.38C496.08 58.38 496.77 58.54 497.36 58.86C497.96 59.17 498.425 59.61 498.755 60.18C499.085 60.75 499.25 61.405 499.25 62.145V65.355C499.25 66.105 499.085 66.77 498.755 67.35C498.425 67.93 497.96 68.38 497.36 68.7C496.77 69.01 496.08 69.165 495.29 69.165ZM495.29 67.35C495.84 67.35 496.285 67.175 496.625 66.825C496.965 66.475 497.135 66.01 497.135 65.43V62.13C497.135 61.55 496.965 61.085 496.625 60.735C496.295 60.375 495.85 60.195 495.29 60.195C494.74 60.195 494.295 60.375 493.955 60.735C493.625 61.085 493.46 61.55 493.46 62.13V65.43C493.46 66.01 493.625 66.475 493.955 66.825C494.295 67.175 494.74 67.35 495.29 67.35ZM503.127 69C503.017 69 502.947 68.95 502.917 68.85L500.262 58.695L500.247 58.635C500.247 58.545 500.302 58.5 500.412 58.5H502.272C502.372 58.5 502.437 58.55 502.467 58.65L503.892 64.755C503.902 64.795 503.917 64.815 503.937 64.815C503.957 64.815 503.972 64.795 503.982 64.755L505.362 58.665C505.392 58.555 505.457 58.5 505.557 58.5H507.372C507.482 58.5 507.552 58.55 507.582 58.65L509.082 64.755C509.092 64.785 509.107 64.805 509.127 64.815C509.147 64.815 509.162 64.795 509.172 64.755L510.552 58.665C510.582 58.555 510.647 58.5 510.747 58.5H512.517C512.657 58.5 512.712 58.565 512.682 58.695L510.222 68.85C510.192 68.95 510.122 69 510.012 69H508.227C508.127 69 508.062 68.95 508.032 68.85L506.502 62.355C506.492 62.315 506.477 62.295 506.457 62.295C506.437 62.295 506.422 62.315 506.412 62.355L504.987 68.835C504.967 68.945 504.902 69 504.792 69H503.127ZM514.198 69C514.148 69 514.103 68.985 514.063 68.955C514.033 68.915 514.018 68.87 514.018 68.82V58.68C514.018 58.63 514.033 58.59 514.063 58.56C514.103 58.52 514.148 58.5 514.198 58.5H517.948C518.698 58.5 519.353 58.635 519.913 58.905C520.483 59.165 520.923 59.535 521.233 60.015C521.543 60.495 521.698 61.05 521.698 61.68V65.82C521.698 66.45 521.543 67.005 521.233 67.485C520.923 67.965 520.483 68.34 519.913 68.61C519.353 68.87 518.698 69 517.948 69H514.198ZM516.133 67.11C516.133 67.16 516.158 67.185 516.208 67.185H518.023C518.483 67.185 518.853 67.03 519.133 66.72C519.423 66.41 519.573 65.995 519.583 65.475V62.025C519.583 61.505 519.438 61.09 519.148 60.78C518.868 60.47 518.488 60.315 518.008 60.315H516.208C516.158 60.315 516.133 60.34 516.133 60.39V67.11ZM527.04 69.12C526.24 69.12 525.54 68.995 524.94 68.745C524.34 68.485 523.875 68.12 523.545 67.65C523.225 67.17 523.065 66.615 523.065 65.985V65.655C523.065 65.605 523.08 65.565 523.11 65.535C523.15 65.495 523.195 65.475 523.245 65.475H524.955C525.005 65.475 525.045 65.495 525.075 65.535C525.115 65.565 525.135 65.605 525.135 65.655V65.88C525.135 66.28 525.32 66.62 525.69 66.9C526.06 67.17 526.56 67.305 527.19 67.305C527.72 67.305 528.115 67.195 528.375 66.975C528.635 66.745 528.765 66.465 528.765 66.135C528.765 65.895 528.685 65.695 528.525 65.535C528.365 65.365 528.145 65.22 527.865 65.1C527.595 64.97 527.16 64.795 526.56 64.575C525.89 64.345 525.32 64.11 524.85 63.87C524.39 63.63 524 63.305 523.68 62.895C523.37 62.475 523.215 61.96 523.215 61.35C523.215 60.75 523.37 60.225 523.68 59.775C523.99 59.325 524.42 58.98 524.97 58.74C525.52 58.5 526.155 58.38 526.875 58.38C527.635 58.38 528.31 58.515 528.9 58.785C529.5 59.055 529.965 59.435 530.295 59.925C530.635 60.405 530.805 60.965 530.805 61.605V61.83C530.805 61.88 530.785 61.925 530.745 61.965C530.715 61.995 530.675 62.01 530.625 62.01H528.9C528.85 62.01 528.805 61.995 528.765 61.965C528.735 61.925 528.72 61.88 528.72 61.83V61.71C528.72 61.29 528.545 60.935 528.195 60.645C527.855 60.345 527.385 60.195 526.785 60.195C526.315 60.195 525.945 60.295 525.675 60.495C525.415 60.695 525.285 60.97 525.285 61.32C525.285 61.57 525.36 61.78 525.51 61.95C525.67 62.12 525.9 62.275 526.2 62.415C526.51 62.545 526.985 62.725 527.625 62.955C528.335 63.215 528.89 63.445 529.29 63.645C529.7 63.845 530.065 64.145 530.385 64.545C530.715 64.935 530.88 65.445 530.88 66.075C530.88 67.015 530.535 67.76 529.845 68.31C529.155 68.85 528.22 69.12 527.04 69.12ZM539.639 58.5C539.689 58.5 539.729 58.52 539.759 58.56C539.799 58.59 539.819 58.63 539.819 58.68V60.15C539.819 60.2 539.799 60.245 539.759 60.285C539.729 60.315 539.689 60.33 539.639 60.33H536.954C536.904 60.33 536.879 60.355 536.879 60.405V68.82C536.879 68.87 536.859 68.915 536.819 68.955C536.789 68.985 536.749 69 536.699 69H534.944C534.894 69 534.849 68.985 534.809 68.955C534.779 68.915 534.764 68.87 534.764 68.82V60.405C534.764 60.355 534.739 60.33 534.689 60.33H532.079C532.029 60.33 531.984 60.315 531.944 60.285C531.914 60.245 531.899 60.2 531.899 60.15V58.68C531.899 58.63 531.914 58.59 531.944 58.56C531.984 58.52 532.029 58.5 532.079 58.5H539.639ZM547.079 69C546.979 69 546.909 68.955 546.869 68.865L544.994 64.71C544.974 64.67 544.944 64.65 544.904 64.65H543.509C543.459 64.65 543.434 64.675 543.434 64.725V68.82C543.434 68.87 543.414 68.915 543.374 68.955C543.344 68.985 543.304 69 543.254 69H541.499C541.449 69 541.404 68.985 541.364 68.955C541.334 68.915 541.319 68.87 541.319 68.82V58.68C541.319 58.63 541.334 58.59 541.364 58.56C541.404 58.52 541.449 58.5 541.499 58.5H545.789C546.429 58.5 546.989 58.63 547.469 58.89C547.959 59.15 548.334 59.52 548.594 60C548.864 60.48 548.999 61.035 548.999 61.665C548.999 62.345 548.829 62.93 548.489 63.42C548.149 63.9 547.674 64.24 547.064 64.44C547.014 64.46 546.999 64.495 547.019 64.545L549.059 68.79C549.079 68.83 549.089 68.86 549.089 68.88C549.089 68.96 549.034 69 548.924 69H547.079ZM543.509 60.315C543.459 60.315 543.434 60.34 543.434 60.39V62.955C543.434 63.005 543.459 63.03 543.509 63.03H545.474C545.894 63.03 546.234 62.905 546.494 62.655C546.764 62.405 546.899 62.08 546.899 61.68C546.899 61.28 546.764 60.955 546.494 60.705C546.234 60.445 545.894 60.315 545.474 60.315H543.509ZM550.862 69C550.812 69 550.767 68.985 550.727 68.955C550.697 68.915 550.682 68.87 550.682 68.82V58.68C550.682 58.63 550.697 58.59 550.727 58.56C550.767 58.52 550.812 58.5 550.862 58.5H552.617C552.667 58.5 552.707 58.52 552.737 58.56C552.777 58.59 552.797 58.63 552.797 58.68V68.82C552.797 68.87 552.777 68.915 552.737 68.955C552.707 68.985 552.667 69 552.617 69H550.862ZM554.953 69C554.903 69 554.858 68.985 554.818 68.955C554.788 68.915 554.773 68.87 554.773 68.82V58.68C554.773 58.63 554.788 58.59 554.818 58.56C554.858 58.52 554.903 58.5 554.953 58.5H556.708C556.758 58.5 556.798 58.52 556.828 58.56C556.868 58.59 556.888 58.63 556.888 58.68V62.88C556.888 62.91 556.898 62.93 556.918 62.94C556.938 62.94 556.958 62.93 556.978 62.91L560.443 58.605C560.503 58.535 560.578 58.5 560.668 58.5H562.648C562.728 58.5 562.778 58.525 562.798 58.575C562.818 58.615 562.808 58.665 562.768 58.725L559.423 63C559.393 63.04 559.388 63.075 559.408 63.105L562.948 68.79C562.968 68.85 562.978 68.885 562.978 68.895C562.978 68.965 562.928 69 562.828 69H560.848C560.748 69 560.678 68.96 560.638 68.88L557.968 64.56C557.958 64.54 557.943 64.53 557.923 64.53C557.903 64.53 557.883 64.54 557.863 64.56L556.918 65.745C556.898 65.785 556.888 65.815 556.888 65.835V68.82C556.888 68.87 556.868 68.915 556.828 68.955C556.798 68.985 556.758 69 556.708 69H554.953ZM571.602 60.135C571.602 60.185 571.582 60.23 571.542 60.27C571.512 60.3 571.472 60.315 571.422 60.315H566.502C566.452 60.315 566.427 60.34 566.427 60.39V62.715C566.427 62.765 566.452 62.79 566.502 62.79H569.727C569.777 62.79 569.817 62.81 569.847 62.85C569.887 62.88 569.907 62.92 569.907 62.97V64.425C569.907 64.475 569.887 64.52 569.847 64.56C569.817 64.59 569.777 64.605 569.727 64.605H566.502C566.452 64.605 566.427 64.63 566.427 64.68V67.11C566.427 67.16 566.452 67.185 566.502 67.185H571.422C571.472 67.185 571.512 67.205 571.542 67.245C571.582 67.275 571.602 67.315 571.602 67.365V68.82C571.602 68.87 571.582 68.915 571.542 68.955C571.512 68.985 571.472 69 571.422 69H564.492C564.442 69 564.397 68.985 564.357 68.955C564.327 68.915 564.312 68.87 564.312 68.82V58.68C564.312 58.63 564.327 58.59 564.357 58.56C564.397 58.52 564.442 58.5 564.492 58.5H571.422C571.472 58.5 571.512 58.52 571.542 58.56C571.582 58.59 571.602 58.63 571.602 58.68V60.135Z" fill="white"/>
<path d="M503.364 86.065C503.574 86.515 503.679 87.085 503.679 87.775C503.679 88.395 503.599 88.895 503.439 89.275C503.229 89.855 502.894 90.305 502.434 90.625C501.974 90.945 501.399 91.105 500.709 91.105C499.989 91.105 499.384 90.935 498.894 90.595C498.404 90.255 498.059 89.775 497.859 89.155C497.739 88.755 497.679 88.285 497.679 87.745V83.065C497.679 82.245 497.949 81.595 498.489 81.115C499.029 80.625 499.734 80.38 500.604 80.38C501.454 80.38 502.139 80.615 502.659 81.085C503.179 81.555 503.439 82.175 503.439 82.945V83.155C503.439 83.255 503.389 83.305 503.289 83.305H502.524C502.424 83.305 502.374 83.255 502.374 83.155V83.035C502.374 82.525 502.209 82.11 501.879 81.79C501.549 81.47 501.124 81.31 500.604 81.31C500.064 81.31 499.619 81.48 499.269 81.82C498.919 82.15 498.744 82.59 498.744 83.14V85.345C498.744 85.365 498.754 85.38 498.774 85.39C498.794 85.39 498.809 85.38 498.819 85.36C499.259 84.76 499.924 84.46 500.814 84.46C501.444 84.46 501.969 84.6 502.389 84.88C502.819 85.16 503.144 85.555 503.364 86.065ZM502.434 88.915C502.554 88.605 502.614 88.225 502.614 87.775C502.614 87.255 502.544 86.855 502.404 86.575C502.284 86.205 502.074 85.915 501.774 85.705C501.474 85.495 501.104 85.39 500.664 85.39C500.224 85.39 499.854 85.5 499.554 85.72C499.254 85.93 499.044 86.225 498.924 86.605C498.804 86.915 498.744 87.32 498.744 87.82C498.744 88.26 498.794 88.625 498.894 88.915C499.014 89.295 499.224 89.6 499.524 89.83C499.834 90.06 500.219 90.175 500.679 90.175C501.109 90.175 501.479 90.07 501.789 89.86C502.099 89.64 502.314 89.325 502.434 88.915ZM515.062 91C514.972 91 514.912 90.96 514.882 90.88L514.282 88.99C514.272 88.96 514.252 88.945 514.222 88.945H509.737C509.707 88.945 509.687 88.96 509.677 88.99L509.077 90.88C509.047 90.96 508.987 91 508.897 91H508.087C507.977 91 507.937 90.945 507.967 90.835L511.282 80.62C511.312 80.54 511.372 80.5 511.462 80.5H512.482C512.572 80.5 512.632 80.54 512.662 80.62L515.992 90.835L516.007 90.895C516.007 90.965 515.962 91 515.872 91H515.062ZM509.977 88C509.967 88.02 509.967 88.04 509.977 88.06C509.997 88.07 510.017 88.075 510.037 88.075H513.907C513.927 88.075 513.942 88.07 513.952 88.06C513.972 88.04 513.977 88.02 513.967 88L512.017 81.88C512.007 81.86 511.992 81.85 511.972 81.85C511.952 81.85 511.937 81.86 511.927 81.88L509.977 88ZM520.413 91.12C519.693 91.12 519.073 90.935 518.553 90.565C518.043 90.185 517.693 89.675 517.503 89.035C517.373 88.595 517.308 87.975 517.308 87.175C517.308 86.455 517.373 85.845 517.503 85.345C517.683 84.725 518.033 84.23 518.553 83.86C519.073 83.48 519.693 83.29 520.413 83.29C521.143 83.29 521.773 83.475 522.303 83.845C522.843 84.215 523.193 84.675 523.353 85.225C523.403 85.405 523.433 85.555 523.443 85.675V85.705C523.443 85.775 523.398 85.82 523.308 85.84L522.558 85.945H522.528C522.458 85.945 522.413 85.9 522.393 85.81L522.348 85.585C522.258 85.205 522.038 84.885 521.688 84.625C521.338 84.355 520.913 84.22 520.413 84.22C519.913 84.22 519.493 84.355 519.153 84.625C518.823 84.885 518.608 85.235 518.508 85.675C518.418 86.055 518.373 86.56 518.373 87.19C518.373 87.85 518.418 88.36 518.508 88.72C518.608 89.17 518.823 89.53 519.153 89.8C519.493 90.06 519.913 90.19 520.413 90.19C520.903 90.19 521.323 90.065 521.673 89.815C522.033 89.555 522.258 89.225 522.348 88.825V88.765L522.363 88.705C522.373 88.605 522.433 88.565 522.543 88.585L523.278 88.705C523.378 88.725 523.423 88.78 523.413 88.87L523.353 89.17C523.203 89.75 522.858 90.22 522.318 90.58C521.778 90.94 521.143 91.12 520.413 91.12ZM528.746 84.145C528.746 84.245 528.696 84.295 528.596 84.295H526.901C526.861 84.295 526.841 84.315 526.841 84.355V88.78C526.841 89.26 526.946 89.6 527.156 89.8C527.376 89.99 527.716 90.085 528.176 90.085H528.551C528.651 90.085 528.701 90.135 528.701 90.235V90.85C528.701 90.95 528.651 91 528.551 91C528.431 91.01 528.246 91.015 527.996 91.015C527.276 91.015 526.731 90.88 526.361 90.61C525.991 90.34 525.806 89.84 525.806 89.11V84.355C525.806 84.315 525.786 84.295 525.746 84.295H524.831C524.731 84.295 524.681 84.245 524.681 84.145V83.56C524.681 83.46 524.731 83.41 524.831 83.41H525.746C525.786 83.41 525.806 83.39 525.806 83.35V81.61C525.806 81.51 525.856 81.46 525.956 81.46H526.691C526.791 81.46 526.841 81.51 526.841 81.61V83.35C526.841 83.39 526.861 83.41 526.901 83.41H528.596C528.696 83.41 528.746 83.46 528.746 83.56V84.145ZM531.524 82.03C531.284 82.03 531.084 81.95 530.924 81.79C530.764 81.63 530.684 81.43 530.684 81.19C530.684 80.94 530.764 80.74 530.924 80.59C531.084 80.43 531.284 80.35 531.524 80.35C531.764 80.35 531.964 80.43 532.124 80.59C532.284 80.74 532.364 80.94 532.364 81.19C532.364 81.43 532.284 81.63 532.124 81.79C531.964 81.95 531.764 82.03 531.524 82.03ZM531.104 90.985C531.004 90.985 530.954 90.935 530.954 90.835V83.545C530.954 83.445 531.004 83.395 531.104 83.395H531.869C531.969 83.395 532.019 83.445 532.019 83.545V90.835C532.019 90.935 531.969 90.985 531.869 90.985H531.104ZM536.563 91C536.473 91 536.413 90.96 536.383 90.88L533.923 83.575L533.908 83.515C533.908 83.445 533.953 83.41 534.043 83.41H534.898C534.988 83.41 535.048 83.45 535.078 83.53L536.953 89.41C536.963 89.43 536.978 89.44 536.998 89.44C537.018 89.44 537.033 89.43 537.043 89.41L538.918 83.53C538.948 83.45 539.008 83.41 539.098 83.41L539.953 83.425C540.063 83.425 540.103 83.48 540.073 83.59L537.613 90.88C537.583 90.96 537.523 91 537.433 91H536.563ZM547.318 85.93C547.358 86.21 547.378 86.56 547.378 86.98V87.46C547.378 87.56 547.328 87.61 547.228 87.61H542.383C542.343 87.61 542.323 87.63 542.323 87.67C542.343 88.22 542.373 88.575 542.413 88.735C542.523 89.185 542.758 89.54 543.118 89.8C543.478 90.06 543.938 90.19 544.498 90.19C544.918 90.19 545.288 90.095 545.608 89.905C545.928 89.715 546.178 89.445 546.358 89.095C546.418 89.005 546.488 88.985 546.568 89.035L547.153 89.38C547.233 89.43 547.253 89.5 547.213 89.59C546.963 90.07 546.588 90.45 546.088 90.73C545.588 91 545.013 91.135 544.363 91.135C543.653 91.125 543.058 90.955 542.578 90.625C542.098 90.295 541.753 89.835 541.543 89.245C541.363 88.765 541.273 88.075 541.273 87.175C541.273 86.755 541.278 86.415 541.288 86.155C541.308 85.885 541.348 85.645 541.408 85.435C541.578 84.785 541.918 84.265 542.428 83.875C542.948 83.485 543.573 83.29 544.303 83.29C545.213 83.29 545.913 83.52 546.403 83.98C546.893 84.44 547.198 85.09 547.318 85.93ZM544.303 84.22C543.813 84.22 543.403 84.35 543.073 84.61C542.753 84.86 542.543 85.2 542.443 85.63C542.383 85.84 542.343 86.18 542.323 86.65C542.323 86.69 542.343 86.71 542.383 86.71H546.268C546.308 86.71 546.328 86.69 546.328 86.65C546.308 86.2 546.278 85.88 546.238 85.69C546.128 85.24 545.903 84.885 545.563 84.625C545.233 84.355 544.813 84.22 544.303 84.22Z" fill="#D1CAE5"/>
<path d="M509.98 111.332C510.156 111.244 510.347 111.2 510.552 111.2H514.028C514.321 111.2 514.468 111.347 514.468 111.64V141.56C514.468 141.853 514.321 142 514.028 142H510.684C510.391 142 510.244 141.853 510.244 141.56V115.732C510.244 115.673 510.215 115.629 510.156 115.6C510.127 115.571 510.083 115.571 510.024 115.6L505.404 117.184C505.345 117.213 505.272 117.228 505.184 117.228C505.008 117.228 504.905 117.111 504.876 116.876L504.7 114.368C504.7 114.075 504.788 113.899 504.964 113.84L509.98 111.332ZM525.845 138.128C525.815 138.187 525.815 138.245 525.845 138.304C525.874 138.333 525.918 138.348 525.977 138.348H539.221C539.514 138.348 539.661 138.495 539.661 138.788V141.56C539.661 141.853 539.514 142 539.221 142H520.785C520.491 142 520.345 141.853 520.345 141.56V138.876C520.345 138.671 520.418 138.495 520.565 138.348C521.562 137.204 523.85 134.52 527.429 130.296L530.465 126.644C533.193 123.388 534.557 120.865 534.557 119.076C534.557 117.697 534.087 116.597 533.149 115.776C532.239 114.925 531.022 114.5 529.497 114.5C527.971 114.5 526.754 114.925 525.845 115.776C524.935 116.627 524.495 117.741 524.525 119.12V120.44C524.525 120.733 524.378 120.88 524.085 120.88H520.697C520.403 120.88 520.257 120.733 520.257 120.44V118.548C520.315 117.023 520.741 115.673 521.533 114.5C522.354 113.327 523.454 112.432 524.833 111.816C526.211 111.171 527.766 110.848 529.497 110.848C531.374 110.848 533.017 111.2 534.425 111.904C535.833 112.608 536.918 113.576 537.681 114.808C538.443 116.04 538.825 117.433 538.825 118.988C538.825 121.423 537.505 124.297 534.865 127.612C533.691 129.108 532.298 130.795 530.685 132.672C529.071 134.52 527.458 136.339 525.845 138.128Z" fill="#65CC01"/>
<path d="M612.66 58.5C612.71 58.5 612.75 58.52 612.78 58.56C612.82 58.59 612.84 58.63 612.84 58.68V60.15C612.84 60.2 612.82 60.245 612.78 60.285C612.75 60.315 612.71 60.33 612.66 60.33H609.975C609.925 60.33 609.9 60.355 609.9 60.405V68.82C609.9 68.87 609.88 68.915 609.84 68.955C609.81 68.985 609.77 69 609.72 69H607.965C607.915 69 607.87 68.985 607.83 68.955C607.8 68.915 607.785 68.87 607.785 68.82V60.405C607.785 60.355 607.76 60.33 607.71 60.33H605.1C605.05 60.33 605.005 60.315 604.965 60.285C604.935 60.245 604.92 60.2 604.92 60.15V58.68C604.92 58.63 604.935 58.59 604.965 58.56C605.005 58.52 605.05 58.5 605.1 58.5H612.66ZM621.629 60.135C621.629 60.185 621.609 60.23 621.569 60.27C621.539 60.3 621.499 60.315 621.449 60.315H616.529C616.479 60.315 616.454 60.34 616.454 60.39V62.715C616.454 62.765 616.479 62.79 616.529 62.79H619.754C619.804 62.79 619.844 62.81 619.874 62.85C619.914 62.88 619.934 62.92 619.934 62.97V64.425C619.934 64.475 619.914 64.52 619.874 64.56C619.844 64.59 619.804 64.605 619.754 64.605H616.529C616.479 64.605 616.454 64.63 616.454 64.68V67.11C616.454 67.16 616.479 67.185 616.529 67.185H621.449C621.499 67.185 621.539 67.205 621.569 67.245C621.609 67.275 621.629 67.315 621.629 67.365V68.82C621.629 68.87 621.609 68.915 621.569 68.955C621.539 68.985 621.499 69 621.449 69H614.519C614.469 69 614.424 68.985 614.384 68.955C614.354 68.915 614.339 68.87 614.339 68.82V58.68C614.339 58.63 614.354 58.59 614.384 58.56C614.424 58.52 614.469 58.5 614.519 58.5H621.449C621.499 58.5 621.539 58.52 621.569 58.56C621.609 58.59 621.629 58.63 621.629 58.68V60.135ZM622.949 69C622.879 69 622.829 68.98 622.799 68.94C622.769 68.9 622.774 68.85 622.814 68.79L625.724 63.795C625.744 63.765 625.744 63.735 625.724 63.705L622.814 58.71L622.784 58.62C622.784 58.54 622.839 58.5 622.949 58.5H624.854C624.954 58.5 625.029 58.54 625.079 58.62L627.029 62.055C627.059 62.115 627.089 62.115 627.119 62.055L629.069 58.62C629.119 58.54 629.194 58.5 629.294 58.5H631.184C631.254 58.5 631.304 58.52 631.334 58.56C631.364 58.6 631.359 58.65 631.319 58.71L628.409 63.705C628.399 63.735 628.399 63.765 628.409 63.795L631.319 68.79L631.349 68.88C631.349 68.96 631.294 69 631.184 69H629.294C629.194 69 629.119 68.96 629.069 68.88L627.119 65.46C627.089 65.4 627.059 65.4 627.029 65.46L625.064 68.88C625.014 68.96 624.939 69 624.839 69H622.949ZM640.107 58.5C640.157 58.5 640.197 58.52 640.227 58.56C640.267 58.59 640.287 58.63 640.287 58.68V60.15C640.287 60.2 640.267 60.245 640.227 60.285C640.197 60.315 640.157 60.33 640.107 60.33H637.422C637.372 60.33 637.347 60.355 637.347 60.405V68.82C637.347 68.87 637.327 68.915 637.287 68.955C637.257 68.985 637.217 69 637.167 69H635.412C635.362 69 635.317 68.985 635.277 68.955C635.247 68.915 635.232 68.87 635.232 68.82V60.405C635.232 60.355 635.207 60.33 635.157 60.33H632.547C632.497 60.33 632.452 60.315 632.412 60.285C632.382 60.245 632.367 60.2 632.367 60.15V58.68C632.367 58.63 632.382 58.59 632.412 58.56C632.452 58.52 632.497 58.5 632.547 58.5H640.107Z" fill="white"/>
<path d="M603.864 86.065C604.074 86.515 604.179 87.085 604.179 87.775C604.179 88.395 604.099 88.895 603.939 89.275C603.729 89.855 603.394 90.305 602.934 90.625C602.474 90.945 601.899 91.105 601.209 91.105C600.489 91.105 599.884 90.935 599.394 90.595C598.904 90.255 598.559 89.775 598.359 89.155C598.239 88.755 598.179 88.285 598.179 87.745V83.065C598.179 82.245 598.449 81.595 598.989 81.115C599.529 80.625 600.234 80.38 601.104 80.38C601.954 80.38 602.639 80.615 603.159 81.085C603.679 81.555 603.939 82.175 603.939 82.945V83.155C603.939 83.255 603.889 83.305 603.789 83.305H603.024C602.924 83.305 602.874 83.255 602.874 83.155V83.035C602.874 82.525 602.709 82.11 602.379 81.79C602.049 81.47 601.624 81.31 601.104 81.31C600.564 81.31 600.119 81.48 599.769 81.82C599.419 82.15 599.244 82.59 599.244 83.14V85.345C599.244 85.365 599.254 85.38 599.274 85.39C599.294 85.39 599.309 85.38 599.319 85.36C599.759 84.76 600.424 84.46 601.314 84.46C601.944 84.46 602.469 84.6 602.889 84.88C603.319 85.16 603.644 85.555 603.864 86.065ZM602.934 88.915C603.054 88.605 603.114 88.225 603.114 87.775C603.114 87.255 603.044 86.855 602.904 86.575C602.784 86.205 602.574 85.915 602.274 85.705C601.974 85.495 601.604 85.39 601.164 85.39C600.724 85.39 600.354 85.5 600.054 85.72C599.754 85.93 599.544 86.225 599.424 86.605C599.304 86.915 599.244 87.32 599.244 87.82C599.244 88.26 599.294 88.625 599.394 88.915C599.514 89.295 599.724 89.6 600.024 89.83C600.334 90.06 600.719 90.175 601.179 90.175C601.609 90.175 601.979 90.07 602.289 89.86C602.599 89.64 602.814 89.325 602.934 88.915ZM615.562 91C615.472 91 615.412 90.96 615.382 90.88L614.782 88.99C614.772 88.96 614.752 88.945 614.722 88.945H610.237C610.207 88.945 610.187 88.96 610.177 88.99L609.577 90.88C609.547 90.96 609.487 91 609.397 91H608.587C608.477 91 608.437 90.945 608.467 90.835L611.782 80.62C611.812 80.54 611.872 80.5 611.962 80.5H612.982C613.072 80.5 613.132 80.54 613.162 80.62L616.492 90.835L616.507 90.895C616.507 90.965 616.462 91 616.372 91H615.562ZM610.477 88C610.467 88.02 610.467 88.04 610.477 88.06C610.497 88.07 610.517 88.075 610.537 88.075H614.407C614.427 88.075 614.442 88.07 614.452 88.06C614.472 88.04 614.477 88.02 614.467 88L612.517 81.88C612.507 81.86 612.492 81.85 612.472 81.85C612.452 81.85 612.437 81.86 612.427 81.88L610.477 88ZM620.913 91.12C620.193 91.12 619.573 90.935 619.053 90.565C618.543 90.185 618.193 89.675 618.003 89.035C617.873 88.595 617.808 87.975 617.808 87.175C617.808 86.455 617.873 85.845 618.003 85.345C618.183 84.725 618.533 84.23 619.053 83.86C619.573 83.48 620.193 83.29 620.913 83.29C621.643 83.29 622.273 83.475 622.803 83.845C623.343 84.215 623.693 84.675 623.853 85.225C623.903 85.405 623.933 85.555 623.943 85.675V85.705C623.943 85.775 623.898 85.82 623.808 85.84L623.058 85.945H623.028C622.958 85.945 622.913 85.9 622.893 85.81L622.848 85.585C622.758 85.205 622.538 84.885 622.188 84.625C621.838 84.355 621.413 84.22 620.913 84.22C620.413 84.22 619.993 84.355 619.653 84.625C619.323 84.885 619.108 85.235 619.008 85.675C618.918 86.055 618.873 86.56 618.873 87.19C618.873 87.85 618.918 88.36 619.008 88.72C619.108 89.17 619.323 89.53 619.653 89.8C619.993 90.06 620.413 90.19 620.913 90.19C621.403 90.19 621.823 90.065 622.173 89.815C622.533 89.555 622.758 89.225 622.848 88.825V88.765L622.863 88.705C622.873 88.605 622.933 88.565 623.043 88.585L623.778 88.705C623.878 88.725 623.923 88.78 623.913 88.87L623.853 89.17C623.703 89.75 623.358 90.22 622.818 90.58C622.278 90.94 621.643 91.12 620.913 91.12ZM629.246 84.145C629.246 84.245 629.196 84.295 629.096 84.295H627.401C627.361 84.295 627.341 84.315 627.341 84.355V88.78C627.341 89.26 627.446 89.6 627.656 89.8C627.876 89.99 628.216 90.085 628.676 90.085H629.051C629.151 90.085 629.201 90.135 629.201 90.235V90.85C629.201 90.95 629.151 91 629.051 91C628.931 91.01 628.746 91.015 628.496 91.015C627.776 91.015 627.231 90.88 626.861 90.61C626.491 90.34 626.306 89.84 626.306 89.11V84.355C626.306 84.315 626.286 84.295 626.246 84.295H625.331C625.231 84.295 625.181 84.245 625.181 84.145V83.56C625.181 83.46 625.231 83.41 625.331 83.41H626.246C626.286 83.41 626.306 83.39 626.306 83.35V81.61C626.306 81.51 626.356 81.46 626.456 81.46H627.191C627.291 81.46 627.341 81.51 627.341 81.61V83.35C627.341 83.39 627.361 83.41 627.401 83.41H629.096C629.196 83.41 629.246 83.46 629.246 83.56V84.145ZM632.024 82.03C631.784 82.03 631.584 81.95 631.424 81.79C631.264 81.63 631.184 81.43 631.184 81.19C631.184 80.94 631.264 80.74 631.424 80.59C631.584 80.43 631.784 80.35 632.024 80.35C632.264 80.35 632.464 80.43 632.624 80.59C632.784 80.74 632.864 80.94 632.864 81.19C632.864 81.43 632.784 81.63 632.624 81.79C632.464 81.95 632.264 82.03 632.024 82.03ZM631.604 90.985C631.504 90.985 631.454 90.935 631.454 90.835V83.545C631.454 83.445 631.504 83.395 631.604 83.395H632.369C632.469 83.395 632.519 83.445 632.519 83.545V90.835C632.519 90.935 632.469 90.985 632.369 90.985H631.604ZM637.063 91C636.973 91 636.913 90.96 636.883 90.88L634.423 83.575L634.408 83.515C634.408 83.445 634.453 83.41 634.543 83.41H635.398C635.488 83.41 635.548 83.45 635.578 83.53L637.453 89.41C637.463 89.43 637.478 89.44 637.498 89.44C637.518 89.44 637.533 89.43 637.543 89.41L639.418 83.53C639.448 83.45 639.508 83.41 639.598 83.41L640.453 83.425C640.563 83.425 640.603 83.48 640.573 83.59L638.113 90.88C638.083 90.96 638.023 91 637.933 91H637.063ZM647.818 85.93C647.858 86.21 647.878 86.56 647.878 86.98V87.46C647.878 87.56 647.828 87.61 647.728 87.61H642.883C642.843 87.61 642.823 87.63 642.823 87.67C642.843 88.22 642.873 88.575 642.913 88.735C643.023 89.185 643.258 89.54 643.618 89.8C643.978 90.06 644.438 90.19 644.998 90.19C645.418 90.19 645.788 90.095 646.108 89.905C646.428 89.715 646.678 89.445 646.858 89.095C646.918 89.005 646.988 88.985 647.068 89.035L647.653 89.38C647.733 89.43 647.753 89.5 647.713 89.59C647.463 90.07 647.088 90.45 646.588 90.73C646.088 91 645.513 91.135 644.863 91.135C644.153 91.125 643.558 90.955 643.078 90.625C642.598 90.295 642.253 89.835 642.043 89.245C641.863 88.765 641.773 88.075 641.773 87.175C641.773 86.755 641.778 86.415 641.788 86.155C641.808 85.885 641.848 85.645 641.908 85.435C642.078 84.785 642.418 84.265 642.928 83.875C643.448 83.485 644.073 83.29 644.803 83.29C645.713 83.29 646.413 83.52 646.903 83.98C647.393 84.44 647.698 85.09 647.818 85.93ZM644.803 84.22C644.313 84.22 643.903 84.35 643.573 84.61C643.253 84.86 643.043 85.2 642.943 85.63C642.883 85.84 642.843 86.18 642.823 86.65C642.823 86.69 642.843 86.71 642.883 86.71H646.768C646.808 86.71 646.828 86.69 646.828 86.65C646.808 86.2 646.778 85.88 646.738 85.69C646.628 85.24 646.403 84.885 646.063 84.625C645.733 84.355 645.313 84.22 644.803 84.22Z" fill="#D1CAE5"/>
<path d="M610.48 111.332C610.656 111.244 610.847 111.2 611.052 111.2H614.528C614.821 111.2 614.968 111.347 614.968 111.64V141.56C614.968 141.853 614.821 142 614.528 142H611.184C610.891 142 610.744 141.853 610.744 141.56V115.732C610.744 115.673 610.715 115.629 610.656 115.6C610.627 115.571 610.583 115.571 610.524 115.6L605.904 117.184C605.845 117.213 605.772 117.228 605.684 117.228C605.508 117.228 605.405 117.111 605.376 116.876L605.2 114.368C605.2 114.075 605.288 113.899 605.464 113.84L610.48 111.332ZM626.345 138.128C626.315 138.187 626.315 138.245 626.345 138.304C626.374 138.333 626.418 138.348 626.477 138.348H639.721C640.014 138.348 640.161 138.495 640.161 138.788V141.56C640.161 141.853 640.014 142 639.721 142H621.285C620.991 142 620.845 141.853 620.845 141.56V138.876C620.845 138.671 620.918 138.495 621.065 138.348C622.062 137.204 624.35 134.52 627.929 130.296L630.965 126.644C633.693 123.388 635.057 120.865 635.057 119.076C635.057 117.697 634.587 116.597 633.649 115.776C632.739 114.925 631.522 114.5 629.997 114.5C628.471 114.5 627.254 114.925 626.345 115.776C625.435 116.627 624.995 117.741 625.025 119.12V120.44C625.025 120.733 624.878 120.88 624.585 120.88H621.197C620.903 120.88 620.757 120.733 620.757 120.44V118.548C620.815 117.023 621.241 115.673 622.033 114.5C622.854 113.327 623.954 112.432 625.333 111.816C626.711 111.171 628.266 110.848 629.997 110.848C631.874 110.848 633.517 111.2 634.925 111.904C636.333 112.608 637.418 113.576 638.181 114.808C638.943 116.04 639.325 117.433 639.325 118.988C639.325 121.423 638.005 124.297 635.365 127.612C634.191 129.108 632.798 130.795 631.185 132.672C629.571 134.52 627.958 136.339 626.345 138.128Z" fill="#FF8C22"/>
</svg>
