<svg width="20" height="20" viewBox="0 0 20 20" fill="none" xmlns="http://www.w3.org/2000/svg">
<mask id="mask0_1223_3774" style="mask-type:alpha" maskUnits="userSpaceOnUse" x="0" y="0" width="20" height="20">
<rect width="20" height="20" fill="#D9D9D9"/>
</mask>
<g mask="url(#mask0_1223_3774)">
<path d="M8.83317 11.4998L7.0415 9.70817C6.88873 9.55539 6.69428 9.479 6.45817 9.479C6.22206 9.479 6.02762 9.55539 5.87484 9.70817C5.72206 9.86095 5.64567 10.0554 5.64567 10.2915C5.64567 10.5276 5.72206 10.7221 5.87484 10.8748L8.24984 13.2498C8.4165 13.4165 8.61095 13.4998 8.83317 13.4998C9.05539 13.4998 9.24984 13.4165 9.4165 13.2498L14.1248 8.5415C14.2776 8.38873 14.354 8.19428 14.354 7.95817C14.354 7.72206 14.2776 7.52761 14.1248 7.37484C13.9721 7.22206 13.7776 7.14567 13.5415 7.14567C13.3054 7.14567 13.1109 7.22206 12.9582 7.37484L8.83317 11.4998ZM9.99984 18.3332C8.84706 18.3332 7.76373 18.1144 6.74984 17.6769C5.73595 17.2394 4.854 16.6457 4.104 15.8957C3.354 15.1457 2.76025 14.2637 2.32275 13.2498C1.88525 12.2359 1.6665 11.1526 1.6665 9.99984C1.6665 8.84706 1.88525 7.76373 2.32275 6.74984C2.76025 5.73595 3.354 4.854 4.104 4.104C4.854 3.354 5.73595 2.76025 6.74984 2.32275C7.76373 1.88525 8.84706 1.6665 9.99984 1.6665C11.1526 1.6665 12.2359 1.88525 13.2498 2.32275C14.2637 2.76025 15.1457 3.354 15.8957 4.104C16.6457 4.854 17.2394 5.73595 17.6769 6.74984C18.1144 7.76373 18.3332 8.84706 18.3332 9.99984C18.3332 11.1526 18.1144 12.2359 17.6769 13.2498C17.2394 14.2637 16.6457 15.1457 15.8957 15.8957C15.1457 16.6457 14.2637 17.2394 13.2498 17.6769C12.2359 18.1144 11.1526 18.3332 9.99984 18.3332Z" fill="#65CC01"/>
</g>
</svg>
