<svg width="14" height="14" viewBox="0 0 14 14" fill="none" xmlns="http://www.w3.org/2000/svg">
    <mask id="mask0_1223_3778" style="mask-type:alpha" maskUnits="userSpaceOnUse" x="0" y="0" width="14" height="14">
    <rect width="14" height="14" fill="#D9D9D9"/>
    </mask>
    <g mask="url(#mask0_1223_3778)">
    <path d="M6.99948 7.81615L4.14115 10.6745C4.0342 10.7814 3.89809 10.8349 3.73281 10.8349C3.56753 10.8349 3.43142 10.7814 3.32448 10.6745C3.21753 10.5675 3.16406 10.4314 3.16406 10.2661C3.16406 10.1009 3.21753 9.96476 3.32448 9.85781L6.18281 6.99948L3.32448 4.14115C3.21753 4.0342 3.16406 3.89809 3.16406 3.73281C3.16406 3.56753 3.21753 3.43142 3.32448 3.32448C3.43142 3.21753 3.56753 3.16406 3.73281 3.16406C3.89809 3.16406 4.0342 3.21753 4.14115 3.32448L6.99948 6.18281L9.85781 3.32448C9.96476 3.21753 10.1009 3.16406 10.2661 3.16406C10.4314 3.16406 10.5675 3.21753 10.6745 3.32448C10.7814 3.43142 10.8349 3.56753 10.8349 3.73281C10.8349 3.89809 10.7814 4.0342 10.6745 4.14115L7.81615 6.99948L10.6745 9.85781C10.7814 9.96476 10.8349 10.1009 10.8349 10.2661C10.8349 10.4314 10.7814 10.5675 10.6745 10.6745C10.5675 10.7814 10.4314 10.8349 10.2661 10.8349C10.1009 10.8349 9.96476 10.7814 9.85781 10.6745L6.99948 7.81615Z" fill="#D1CAE5"/>
    </g>
    </svg>