<svg width="16" height="16" viewBox="0 0 16 16" fill="none" xmlns="http://www.w3.org/2000/svg">
<g clip-path="url(#clip0_1355_3201)">
<path d="M6.58659 6.58683C6.39009 6.76993 6.23248 6.99073 6.12317 7.23606C6.01386 7.48139 5.95508 7.74623 5.95034 8.01477C5.9456 8.28331 5.995 8.55005 6.09559 8.79909C6.19618 9.04812 6.3459 9.27435 6.53582 9.46427C6.72573 9.65418 6.95196 9.8039 7.20099 9.90449C7.45003 10.0051 7.71677 10.0545 7.98531 10.0497C8.25385 10.045 8.51869 9.98622 8.76402 9.87691C9.00935 9.7676 9.23015 9.60999 9.41325 9.4135M7.15325 3.38683C7.43413 3.35184 7.71687 3.33402 7.99992 3.3335C12.6666 3.3335 14.6666 8.00016 14.6666 8.00016C14.3685 8.63825 13.9947 9.23812 13.5533 9.78683M4.40659 4.40683C3.08075 5.30991 2.01983 6.55034 1.33325 8.00016C1.33325 8.00016 3.33325 12.6668 7.99992 12.6668C9.27719 12.6703 10.5271 12.2969 11.5933 11.5935M1.33325 1.3335L14.6666 14.6668" stroke="#D1CAE5" stroke-linecap="round" stroke-linejoin="round"/>
</g>
<defs>
<clipPath id="clip0_1355_3201">
<rect width="16" height="16" fill="white"/>
</clipPath>
</defs>
</svg>
