<svg width="144" height="112" viewBox="0 0 144 112" fill="none" xmlns="http://www.w3.org/2000/svg">
<path d="M117.116 108.098C111.546 109.164 102.078 109.975 94.5582 110.51C87.0388 111.045 79.5195 111.313 72.0001 111.313C64.4807 111.313 56.9614 111.045 49.442 110.51C41.9227 109.975 32.4545 109.164 26.8839 108.098C24.9088 107.72 21.655 106.918 19.15 105.593C16.645 104.269 14.0875 102.685 11.9065 100.698C9.72561 98.7113 7.92569 96.3164 6.39292 93.9259C4.86014 91.5354 3.79596 88.316 3.28795 86.351C2.31135 82.592 1.41359 76.118 0.879304 71.0037C0.345023 65.8894 0.0778809 60.7707 0.0778809 55.6564C0.0778809 50.5421 0.345023 45.4234 0.879304 40.3091C1.41359 35.1948 2.31573 28.7208 3.28795 24.9618C3.79596 22.9968 4.85576 19.7773 6.39292 17.3869C7.93007 14.9964 9.72999 12.6015 11.9065 10.6146C14.0875 8.62764 16.6494 7.03984 19.15 5.71959C21.655 4.39496 24.9088 3.59229 26.8839 3.21508C32.4545 2.14923 41.9227 1.33779 49.442 0.802673C56.9614 0.267558 64.4807 0 72.0001 0C79.5195 0 87.0388 0.267558 94.5582 0.802673C102.078 1.33779 111.546 2.14923 117.116 3.21508C119.091 3.59229 122.345 4.39496 124.85 5.71959C127.355 7.04422 129.913 8.62764 132.094 10.6146C134.275 12.6015 136.074 14.9964 137.607 17.3869C139.144 19.7773 140.204 22.9968 140.712 24.9618C141.689 28.7208 142.587 35.1948 143.121 40.3091C143.655 45.4234 143.922 50.5421 143.922 55.6564C143.922 60.7707 143.655 65.8894 143.121 71.0037C142.587 76.118 141.684 82.592 140.712 86.351C140.204 88.316 139.144 91.5354 137.607 93.9259C136.07 96.3164 134.27 98.7113 132.094 100.698C129.913 102.685 127.351 104.273 124.85 105.593C122.35 106.913 119.091 107.72 117.116 108.098Z" fill="white"/>
<path d="M14.6482 73.5657C14.6482 75.9079 14.6482 78.2458 14.6482 80.588C14.6482 81.8512 15.673 82.9785 16.9342 83.0925C22.715 83.6188 28.4957 84.0575 34.2852 84.4084C35.5509 84.4873 36.5756 83.4609 36.5756 82.1188V70.1883C36.5756 68.6575 35.2575 67.4776 33.8385 67.7364C28.3162 68.7321 22.7982 69.6576 17.2846 70.4822C15.7518 70.7147 14.6482 71.9998 14.6482 73.5657Z" fill="#7C4DFF"/>
<path d="M46.8018 85.0439C52.5869 85.2763 58.372 85.4211 64.1615 85.4825C65.4272 85.4956 66.4563 84.3815 66.4563 82.9999V61.2312C66.4563 59.5294 64.9323 58.3232 63.4521 58.8495C58.0523 60.7575 52.657 62.6392 47.2572 64.4594C45.7201 64.977 44.6734 66.4903 44.6559 68.2228C44.6077 72.9687 44.5595 77.7145 44.5114 82.4604C44.4982 83.8245 45.5274 84.9912 46.8018 85.0395V85.0439Z" fill="#7C4DFF"/>
<path d="M74.3906 57.4192V82.9995C74.3906 84.3812 75.4154 85.4953 76.6854 85.4821C82.4837 85.4207 88.2776 85.276 94.0715 85.0435C95.3371 84.9909 96.3619 83.8461 96.3619 82.4907V46.9494C96.3619 45.1511 94.6145 43.9361 93.0949 44.6861C87.7696 47.3179 82.4399 50.0241 77.1146 52.748C75.4548 53.5989 74.3906 55.4191 74.3906 57.4192Z" fill="#7C4DFF"/>
<path d="M104.28 41.5628V82.122C104.28 83.4641 105.305 84.4905 106.57 84.4116C112.36 84.0563 118.145 83.6177 123.921 83.0957C125.182 82.9773 126.207 81.8544 126.207 80.5912V27.1498C126.207 25.1322 123.882 23.7681 122.296 24.8953C117.019 28.6543 111.742 32.6808 106.456 36.8828C105.081 37.9793 104.275 39.7119 104.275 41.5672L104.28 41.5628Z" fill="#7C4DFF"/>
</svg>
