<svg width="20" height="20" viewBox="0 0 20 20" fill="none" xmlns="http://www.w3.org/2000/svg">
<path d="M15.28 7.47C15.14 7.33 14.94 7.25 14.75 7.25C14.56 7.25 14.37 7.32 14.22 7.47L10 11.69L5.78 7.47C5.64 7.33 5.44 7.25 5.25 7.25C5.06 7.25 4.86 7.32 4.72 7.47C4.58 7.62 4.5 7.81 4.5 8C4.5 8.19 4.58 8.39 4.72 8.53L9.47 13.28C9.62 13.43 9.81 13.5 10 13.5C10.19 13.5 10.38 13.42 10.53 13.28L10.56 13.25L15.28 8.53C15.43 8.39 15.5 8.19 15.5 8C15.5 7.81 15.43 7.62 15.28 7.47Z" fill="#958FA3"/>
</svg>
