<svg width="68" height="68" viewBox="0 0 68 68" fill="none" xmlns="http://www.w3.org/2000/svg">
<rect width="68" height="68" rx="34" fill="#322D40"/>
<path fill-rule="evenodd" clip-rule="evenodd" d="M15.75 47.375C15.75 46.3394 16.5895 45.5 17.625 45.5H51.375C52.4106 45.5 53.25 46.3394 53.25 47.375C53.25 48.4106 52.4106 49.25 51.375 49.25H17.625C16.5895 49.25 15.75 48.4106 15.75 47.375Z" fill="#D1CAE5"/>
<path fill-rule="evenodd" clip-rule="evenodd" d="M51.375 26.6266C51.375 26.6676 51.375 26.7087 51.375 26.75V34.3734C51.375 36.0356 51.3752 37.4677 51.2364 38.6146C51.0878 39.8437 50.7523 41.0219 49.8923 41.9774C49.0322 42.9331 47.9719 43.3057 46.8656 43.4711C45.8334 43.6252 44.5446 43.625 43.0485 43.625H25.9514C24.4555 43.625 23.1665 43.6252 22.1344 43.4711C21.0282 43.3057 19.9678 42.9331 19.1078 41.9774C18.2477 41.0219 17.9123 39.8437 17.7636 38.6146C17.6249 37.4677 17.6249 36.0356 17.625 34.3734V26.6266C17.6249 24.9644 17.6249 23.5323 17.7636 22.3854C17.9123 21.1563 18.2477 19.9782 19.1078 19.0225C19.9678 18.0669 21.0282 17.6943 22.1344 17.529C23.1665 17.3748 24.4555 17.3749 25.9514 17.375H42.9375C42.9746 17.375 43.0118 17.375 43.0485 17.375C44.5446 17.3749 45.8334 17.3748 46.8656 17.529C47.9719 17.6943 49.0322 18.0669 49.8923 19.0225C50.7523 19.9782 51.0878 21.1563 51.2364 22.3854C51.3752 23.5323 51.375 24.9644 51.375 26.6266Z" fill="#D1CAE5"/>
</svg>
