<svg width="30" height="40" viewBox="0 0 30 40" fill="none" xmlns="http://www.w3.org/2000/svg">
<path d="M18.636 0H3.18195C1.68171 0 0.45459 1.22724 0.45459 2.72736V37.2726C0.45459 38.7732 1.68183 40 3.18195 40H26.8179C28.3185 40 29.5453 38.7731 29.5453 37.2726V10.9093L23.1819 6.36373L18.636 0Z" fill="#0F9C57"/>
<path d="M7.72729 19.5456V32.728H22.2732V19.5456H7.72729ZM14.0911 30.9094H9.54542V28.6368H14.0911V30.9094ZM14.0911 27.2732H9.54542V24.9997H14.0911V27.2732ZM14.0911 23.636H9.54542V21.3637H14.0911V23.636ZM20.4547 30.9094H15.9087V28.6368H20.4547V30.9094ZM20.4547 27.2732H15.9087V24.9997H20.4547V27.2732ZM20.4547 23.636H15.9087V21.3637H20.4547V23.636Z" fill="#F0F0F0"/>
<mask id="mask0_418_2041" style="mask-type:luminance" maskUnits="userSpaceOnUse" x="19" y="10" width="11" height="12">
<path d="M19.4163 10.0933H29.5632V21.9811H19.4163V10.0933Z" fill="url(#paint0_linear_418_2041)"/>
</mask>
<g mask="url(#mask0_418_2041)">
<path d="M19.4343 10.1113L29.5453 20.2207V10.9093L19.4343 10.1113Z" fill="url(#paint1_linear_418_2041)"/>
</g>
<path d="M18.636 0V8.18209C18.636 9.68893 19.8567 10.9093 21.3632 10.9093H29.5452L18.636 0Z" fill="#87CDAC"/>
<path d="M3.18195 0C1.68171 0 0.45459 1.22724 0.45459 2.72748V2.95464C0.45459 1.45476 1.68183 0.22728 3.18195 0.22728H18.636V0.00012H3.18195V0Z" fill="white" fill-opacity="0.2"/>
<path d="M26.8179 39.7732H3.18195C1.68171 39.7732 0.45459 38.5456 0.45459 37.0458V37.2726C0.45459 38.7732 1.68183 40 3.18195 40H26.8179C28.3185 40 29.5453 38.7731 29.5453 37.2726V37.0458C29.5453 38.5457 28.3184 39.7732 26.8179 39.7732Z" fill="#263138" fill-opacity="0.2"/>
<path d="M21.3632 10.9093C19.8567 10.9093 18.636 9.68891 18.636 8.18207V8.40923C18.636 9.91607 19.8567 11.1365 21.3632 11.1365H29.5452V10.9093H21.3632Z" fill="#263138" fill-opacity="0.102"/>
<mask id="mask1_418_2041" style="mask-type:luminance" maskUnits="userSpaceOnUse" x="0" y="-1" width="30" height="42">
<path d="M0.436523 -0.0180054H29.5633V40.018H0.436523V-0.0180054Z" fill="url(#paint2_radial_418_2041)"/>
</mask>
<g mask="url(#mask1_418_2041)">
<path d="M18.636 0H3.18195C1.68171 0 0.45459 1.22724 0.45459 2.72748V37.2726C0.45459 38.7732 1.68183 40 3.18195 40H26.8179C28.3185 40 29.5453 38.7731 29.5453 37.2726V10.9093L18.636 0Z" fill="url(#paint3_radial_418_2041)"/>
</g>
<defs>
<linearGradient id="paint0_linear_418_2041" x1="24.4897" y1="10.941" x2="24.4897" y2="21.1336" gradientUnits="userSpaceOnUse">
<stop stop-color="white" stop-opacity="0.02"/>
<stop offset="1" stop-color="white" stop-opacity="0.2"/>
</linearGradient>
<linearGradient id="paint1_linear_418_2041" x1="24.4898" y1="11.415" x2="24.4898" y2="20.6595" gradientUnits="userSpaceOnUse">
<stop stop-color="#263138"/>
<stop offset="1" stop-color="#263138"/>
</linearGradient>
<radialGradient id="paint2_radial_418_2041" cx="0" cy="0" r="1" gradientUnits="userSpaceOnUse" gradientTransform="translate(0.454523 -5.35286e-06) scale(0)">
<stop stop-color="white" stop-opacity="0"/>
<stop offset="1" stop-color="white" stop-opacity="0.098"/>
</radialGradient>
<radialGradient id="paint3_radial_418_2041" cx="0" cy="0" r="1" gradientUnits="userSpaceOnUse" gradientTransform="translate(1.61809 1.20005) scale(20.0001 20.0001)">
<stop stop-color="white"/>
<stop offset="1" stop-color="white"/>
</radialGradient>
</defs>
</svg>
