<svg width="13" height="18" viewBox="0 0 13 18" fill="none" xmlns="http://www.w3.org/2000/svg">
<path fill-rule="evenodd" clip-rule="evenodd" d="M0 5.875C0 5.39175 0.391751 5 0.875 5H11.375C11.8582 5 12.25 5.39175 12.25 5.875C12.25 6.35825 11.8582 6.75 11.375 6.75H0.875C0.391751 6.75 0 6.35825 0 5.875ZM1.75 10.25C1.75 9.76675 2.14175 9.375 2.625 9.375H9.625C10.1082 9.375 10.5 9.76675 10.5 10.25C10.5 10.7332 10.1082 11.125 9.625 11.125H2.625C2.14175 11.125 1.75 10.7332 1.75 10.25ZM4.375 13.75C3.89175 13.75 3.5 14.1418 3.5 14.625C3.5 15.1082 3.89175 15.5 4.375 15.5H7.875C8.35825 15.5 8.75 15.1082 8.75 14.625C8.75 14.1418 8.35825 13.75 7.875 13.75H4.375Z" fill="#322D40"/>
</svg>
