<svg width="36" height="36" viewBox="0 0 36 36" fill="none" xmlns="http://www.w3.org/2000/svg">
<path fill-rule="evenodd" clip-rule="evenodd" d="M28.125 29.25H7.875C7.27826 29.25 6.70597 29.0129 6.28401 28.591C5.86205 28.169 5.625 27.5967 5.625 27V13.5C5.625 12.9033 5.86205 12.331 6.28401 11.909C6.70597 11.4871 7.27826 11.25 7.875 11.25H28.125C28.7217 11.25 29.294 11.4871 29.716 11.909C30.1379 12.331 30.375 12.9033 30.375 13.5V27C30.375 27.5967 30.1379 28.169 29.716 28.591C29.294 29.0129 28.7217 29.25 28.125 29.25ZM24.75 19.125C24.75 18.9758 24.6907 18.8327 24.5852 18.7273C24.4798 18.6218 24.3367 18.5625 24.1875 18.5625H19.6875V14.0625C19.6875 13.9133 19.6282 13.7702 19.5227 13.6648C19.4173 13.5593 19.2742 13.5 19.125 13.5H16.875C16.7258 13.5 16.5827 13.5593 16.4773 13.6648C16.3718 13.7702 16.3125 13.9133 16.3125 14.0625V18.5625H11.8125C11.6633 18.5625 11.5202 18.6218 11.4148 18.7273C11.3093 18.8327 11.25 18.9758 11.25 19.125V21.375C11.25 21.5242 11.3093 21.6673 11.4148 21.7727C11.5202 21.8782 11.6633 21.9375 11.8125 21.9375H16.3125V26.4375C16.3125 26.5867 16.3718 26.7298 16.4773 26.8352C16.5827 26.9407 16.7258 27 16.875 27H19.125C19.2742 27 19.4173 26.9407 19.5227 26.8352C19.6282 26.7298 19.6875 26.5867 19.6875 26.4375V21.9375H24.1875C24.3367 21.9375 24.4798 21.8782 24.5852 21.7727C24.6907 21.6673 24.75 21.5242 24.75 21.375V19.125ZM24.3202 10.125H22.9961C22.8555 10.125 22.7182 10.0829 22.6019 10.0041C22.4855 9.92531 22.3954 9.81347 22.3432 9.68299L21.2407 6.92674C21.2199 6.87457 21.1838 6.82985 21.1373 6.79835C21.0908 6.76685 21.0359 6.75001 20.9797 6.75H15.0203C14.9641 6.75 14.9091 6.76685 14.8626 6.79836C14.8161 6.82987 14.78 6.87461 14.7592 6.92679L13.6567 9.68304C13.6045 9.81349 13.5144 9.92532 13.3981 10.0041C13.2817 10.0829 13.1444 10.125 13.0039 10.125H11.6798C11.6109 10.125 11.543 10.1081 11.4821 10.0758C11.4211 10.0435 11.3691 9.99677 11.3304 9.93968C11.2918 9.88259 11.2677 9.8169 11.2603 9.74835C11.2529 9.6798 11.2624 9.61049 11.288 9.54647L12.7409 5.91435C12.9079 5.49684 13.1962 5.13894 13.5686 4.88684C13.9409 4.63474 14.3803 4.5 14.83 4.5H21.1701C21.6198 4.49995 22.0592 4.63467 22.4316 4.88678C22.804 5.13888 23.0924 5.4968 23.2594 5.91435L24.7122 9.54647C24.7378 9.6105 24.7473 9.67983 24.7399 9.74839C24.7325 9.81695 24.7084 9.88266 24.6698 9.93975C24.6311 9.99684 24.579 10.0436 24.5181 10.0759C24.4571 10.1082 24.3892 10.125 24.3202 10.125Z" fill="#9975FF"/>
</svg>
