<svg width="36" height="36" viewBox="0 0 36 36" fill="none" xmlns="http://www.w3.org/2000/svg">
<path fill-rule="evenodd" clip-rule="evenodd" d="M31.1085 18.301L20.9684 26.7375C20.804 26.8744 20.6039 26.9617 20.3917 26.9891C20.1795 27.0165 19.9638 26.9829 19.77 26.8923C19.5762 26.8016 19.4121 26.6577 19.2971 26.4772C19.1821 26.2968 19.1208 26.0873 19.1205 25.8733V21.3835H14.3299L15.6961 25.7316C15.7418 25.8797 15.7519 26.0364 15.7257 26.1892C15.6995 26.3419 15.6376 26.4863 15.5452 26.6107C15.4527 26.735 15.3323 26.8359 15.1936 26.905C15.0549 26.9741 14.9018 27.0095 14.7469 27.0085H5.06426C4.93783 27.0096 4.81475 26.9678 4.71509 26.89C4.61544 26.8122 4.54509 26.7029 4.51552 26.58C4.48594 26.457 4.49889 26.3277 4.55225 26.2131C4.60561 26.0985 4.69623 26.0053 4.80934 25.9488L9.56736 23.5694L6.80751 14.7853C6.76181 14.6373 6.75166 14.4805 6.77787 14.3278C6.80408 14.175 6.86592 14.0306 6.95838 13.9062C7.05084 13.7819 7.1713 13.681 7.31001 13.6119C7.44872 13.5428 7.60176 13.5074 7.75673 13.5085H19.1205V9.00014C19.1208 8.78614 19.182 8.57666 19.297 8.39619C19.4121 8.21573 19.5761 8.07175 19.7699 7.9811C19.9638 7.89044 20.1794 7.85687 20.3917 7.88429C20.6039 7.91172 20.804 7.99902 20.9684 8.13597L31.1085 16.5725C31.2354 16.6779 31.3375 16.81 31.4075 16.9594C31.4776 17.1088 31.5139 17.2717 31.5139 17.4367C31.5139 17.6017 31.4776 17.7647 31.4075 17.914C31.3375 18.0634 31.2354 18.1955 31.1085 18.301Z" fill="#9975FF"/>
</svg>
