<svg width="25" height="25" viewBox="0 0 25 25" fill="none" xmlns="http://www.w3.org/2000/svg">
<path fill-rule="evenodd" clip-rule="evenodd" d="M20.66 12.506C20.66 11.9032 20.6059 11.3237 20.5055 10.7673H12.5V14.0553H17.0746C16.8775 15.1178 16.2786 16.018 15.3784 16.6208V18.7535H18.1255C19.7327 17.2737 20.66 15.0946 20.66 12.506Z" fill="#4285F4"/>
<path fill-rule="evenodd" clip-rule="evenodd" d="M12.5 20.8127C14.795 20.8127 16.7191 20.0516 18.1254 18.7534L15.3784 16.6207C14.6173 17.1307 13.6436 17.4321 12.5 17.4321C10.2861 17.4321 8.41224 15.9368 7.74383 13.9277H4.90405V16.13C6.30269 18.908 9.17724 20.8127 12.5 20.8127Z" fill="#34A853"/>
<path fill-rule="evenodd" clip-rule="evenodd" d="M7.74387 13.9279C7.57387 13.4179 7.47728 12.8731 7.47728 12.3129C7.47728 11.7527 7.57387 11.2079 7.74387 10.6979V8.49561H4.90409C4.32841 9.64311 4 10.9413 4 12.3129C4 13.6845 4.32841 14.9827 4.90409 16.1302L7.74387 13.9279Z" fill="#FBBC05"/>
<path fill-rule="evenodd" clip-rule="evenodd" d="M12.5 7.19343C13.7479 7.19343 14.8684 7.6223 15.7493 8.46457L18.1873 6.02661C16.7152 4.65502 14.7911 3.81274 12.5 3.81274C9.17724 3.81274 6.30269 5.71752 4.90405 8.49548L7.74383 10.6978C8.41224 8.68866 10.2861 7.19343 12.5 7.19343Z" fill="#EA4335"/>
</svg>
