<svg width="77" height="77" viewBox="0 0 77 77" fill="none" xmlns="http://www.w3.org/2000/svg">
<path d="M69.9593 32.2163H67.375V32.0832H38.5V44.9165H56.6319C53.9866 52.3871 46.8785 57.7498 38.5 57.7498C27.8691 57.7498 19.25 49.1306 19.25 38.4998C19.25 27.869 27.8691 19.2498 38.5 19.2498C43.4071 19.2498 47.8715 21.101 51.2707 24.1249L60.3455 15.0501C54.6154 9.70986 46.9507 6.4165 38.5 6.4165C20.7819 6.4165 6.41663 20.7818 6.41663 38.4998C6.41663 56.2179 20.7819 70.5832 38.5 70.5832C56.218 70.5832 70.5833 56.2179 70.5833 38.4998C70.5833 36.3486 70.3619 34.2488 69.9593 32.2163Z" fill="#FFC107"/>
<path d="M10.1158 23.5667L20.6568 31.2971C23.509 24.2356 30.4166 19.2498 38.5 19.2498C43.4071 19.2498 47.8715 21.101 51.2707 24.1249L60.3455 15.0501C54.6154 9.70986 46.9507 6.4165 38.5 6.4165C26.1768 6.4165 15.4898 13.3738 10.1158 23.5667Z" fill="#FF3D00"/>
<path d="M38.5001 70.5835C46.7872 70.5835 54.3171 67.412 60.0103 62.2546L50.0805 53.852C46.7512 56.384 42.6829 57.7534 38.5001 57.7501C30.1552 57.7501 23.0696 52.4291 20.4002 45.0034L9.93787 53.0644C15.2477 63.4545 26.0309 70.5835 38.5001 70.5835Z" fill="#4CAF50"/>
<path d="M69.9593 32.2166H67.375V32.0835H38.5V44.9168H56.6319C55.3665 48.4723 53.0873 51.5792 50.0757 53.8536L50.0805 53.8504L60.0103 62.2531C59.3076 62.8915 70.5833 54.5418 70.5833 38.5002C70.5833 36.349 70.362 34.2491 69.9593 32.2166Z" fill="#1976D2"/>
</svg>
