<svg width="25" height="25" viewBox="0 0 25 25" fill="none" xmlns="http://www.w3.org/2000/svg">
<path fill-rule="evenodd" clip-rule="evenodd" d="M20.66 12.5062C20.66 11.9035 20.6059 11.3239 20.5055 10.7676H12.5V14.0555H17.0746C16.8775 15.118 16.2786 16.0183 15.3784 16.621V18.7537H18.1255C19.7327 17.274 20.66 15.0949 20.66 12.5062Z" fill="#4285F4"/>
<path fill-rule="evenodd" clip-rule="evenodd" d="M12.5 20.8132C14.795 20.8132 16.7191 20.0521 18.1254 18.7539L15.3784 16.6212C14.6173 17.1312 13.6436 17.4325 12.5 17.4325C10.2861 17.4325 8.41224 15.9373 7.74383 13.9282H4.90405V16.1305C6.30269 18.9085 9.17724 20.8132 12.5 20.8132Z" fill="#34A853"/>
<path fill-rule="evenodd" clip-rule="evenodd" d="M7.74387 13.9279C7.57387 13.4179 7.47728 12.8731 7.47728 12.3129C7.47728 11.7527 7.57387 11.2079 7.74387 10.6979V8.49561H4.90409C4.32841 9.64311 4 10.9413 4 12.3129C4 13.6845 4.32841 14.9827 4.90409 16.1302L7.74387 13.9279Z" fill="#FBBC05"/>
<path fill-rule="evenodd" clip-rule="evenodd" d="M12.5 7.19368C13.7479 7.19368 14.8684 7.62254 15.7493 8.46481L18.1873 6.02686C16.7152 4.65526 14.7911 3.81299 12.5 3.81299C9.17724 3.81299 6.30269 5.71776 4.90405 8.49572L7.74383 10.698C8.41224 8.68891 10.2861 7.19368 12.5 7.19368Z" fill="#EA4335"/>
</svg>
