<svg width="68" height="68" viewBox="0 0 68 68" fill="none" xmlns="http://www.w3.org/2000/svg">
<path d="M9.5129 62.8784C8.37585 62.7969 7.50584 62.474 6.71766 61.84C6.31541 61.5185 5.95458 61.1487 5.64338 60.7391C5.09085 59.9948 4.70138 58.9779 4.53525 57.8482C4.43681 57.1731 4.44419 57.7619 4.43189 49.0445L4.3359 40.1666C4.22269 39.2666 3.99688 38.6252 3.50219 37.7976C2.65372 36.3813 1.43976 35.0911 0.370401 34.4687C0.153821 34.3419 0.103367 34.3033 0.0504531 34.2151C0.0098444 34.1434 0 34.1073 0 33.9976C0 33.8879 0.00984422 33.8518 0.0529141 33.7801C0.105828 33.6895 0.129824 33.6699 0.473768 33.4616C0.918618 33.1914 1.28348 32.8943 1.7954 32.3822C2.62234 31.5588 3.3576 30.5541 3.80737 29.6352C4.15808 28.9172 4.30022 28.3549 4.3962 27.2736C4.41281 27.0825 4.42266 25.0125 4.4325 18.9507L4.53587 10.147C4.702 9.01731 5.08839 8.00528 5.64399 7.25606C6.05746 6.69614 6.70843 6.10007 7.26896 5.76742C7.76595 5.47784 8.31287 5.28317 8.88162 5.19341C9.38369 5.10948 9.47782 5.10703 11.3286 5.10703H13.0951L13.172 5.14747C13.2713 5.20015 13.3482 5.28671 13.3886 5.39128C13.4101 5.44887 13.415 5.66634 13.415 6.45109V7.43923L13.367 7.53235C13.3369 7.5904 13.2944 7.64124 13.2426 7.68133C13.1907 7.72142 13.1307 7.7498 13.0668 7.76452C13.0022 7.77861 12.5426 7.78597 11.6898 7.78597L10.202 7.80496C9.21633 7.90052 8.55305 8.20009 8.09897 8.75266C7.64982 9.30094 7.45477 9.84861 7.3994 10.7295C7.38709 10.9231 7.38032 14.0058 7.38032 19.5143L7.36125 28.2513C7.27019 29.4429 6.96255 30.412 6.35649 31.4197C5.90472 32.1935 5.32736 32.8873 4.64785 33.4732C4.30883 33.7697 4.27314 33.8224 4.28483 34.0215C4.29468 34.1912 4.33529 34.2537 4.57094 34.4546C5.12224 34.9225 5.61014 35.4598 6.02239 36.0529C6.76012 37.1323 7.17113 38.1609 7.3108 39.274L7.35387 39.5852C7.36125 39.6256 7.37294 43.6462 7.37786 48.5182L7.41416 57.5468C7.45047 57.8078 7.52492 58.1521 7.57783 58.32C7.6935 58.6691 7.92854 59.0594 8.20973 59.3657C8.58689 59.7749 9.1425 60.0334 9.90914 60.1553C10.1522 60.1958 10.2482 60.1982 11.6202 60.208C13.2495 60.2203 13.1708 60.2129 13.2957 60.3563C13.4206 60.4996 13.4156 60.4567 13.4156 61.5453C13.4156 62.3276 13.4107 62.5482 13.3892 62.6033C13.3488 62.7079 13.2719 62.7944 13.1726 62.8471L13.0957 62.89L11.4135 62.8925C10.4881 62.8925 9.63472 62.8876 9.51474 62.8784H9.5129ZM54.8876 62.871C54.833 62.8528 54.7827 62.8236 54.7397 62.7854C54.6968 62.7472 54.6621 62.7006 54.6378 62.6486L54.5873 62.5482L54.5947 61.5337L54.5996 60.5192L54.6501 60.4328C54.6802 60.3818 54.7205 60.3375 54.7684 60.3025C54.8163 60.2676 54.8709 60.2427 54.9288 60.2294C54.9842 60.2172 55.4912 60.2105 56.299 60.2105L57.801 60.189C58.3055 60.1437 58.7983 60.0169 59.1423 59.8447C59.5508 59.6389 59.8154 59.3975 60.1083 58.9595C60.3488 58.603 60.4904 58.2036 60.5722 57.67C60.6036 57.469 60.606 56.8852 60.6177 48.615L60.6516 39.5864C60.7691 38.5719 60.9758 37.8515 61.3727 37.076C61.8821 36.0731 62.5866 35.1738 63.3846 34.4987C63.6031 34.3143 63.6824 34.2163 63.7138 34.1036C63.7667 33.9143 63.6948 33.7611 63.4493 33.5553C62.738 32.9579 62.1341 32.2442 61.6637 31.4449C61.07 30.4567 60.7863 29.6021 60.6516 28.4131C60.6325 28.2501 60.6251 26.2261 60.6153 19.3747L60.5722 10.3264C60.5027 9.86454 60.3778 9.47921 60.2067 9.18761C60.0049 8.84333 59.7139 8.51252 59.4567 8.33547C59.0481 8.05306 58.4858 7.87357 57.8126 7.80679C57.6877 7.79454 57.094 7.7878 56.3107 7.78535C55.4936 7.78535 54.9842 7.778 54.9288 7.76636C54.8709 7.75312 54.8163 7.72825 54.7684 7.69328C54.7205 7.65831 54.6802 7.61397 54.6501 7.56298L54.5996 7.4766L54.5947 6.46457L54.5873 5.45254L54.6353 5.35208C54.662 5.29455 54.701 5.24353 54.7496 5.20258C54.7981 5.16163 54.8551 5.13174 54.9165 5.115C55.0199 5.08621 58.4618 5.10275 58.7066 5.13399C59.7859 5.26325 60.5359 5.55975 61.2761 6.14847C61.5093 6.33041 61.9757 6.78742 62.1676 7.01469C62.5436 7.47997 62.8444 8.00083 63.0592 8.55846C63.304 9.19741 63.4511 9.8866 63.5471 10.8435C63.5637 11.0107 63.5735 13.131 63.5809 19.1474L63.6264 27.5181C63.7538 28.6569 63.9704 29.3179 64.5088 30.2105C65.3425 31.5962 66.4771 32.814 67.5347 33.4671C67.6307 33.5247 67.7488 33.5988 67.7944 33.6276C67.9267 33.7091 67.9913 33.8144 67.9987 33.9676C68.011 34.1832 67.9408 34.2929 67.6959 34.4344C66.5829 35.0684 65.3985 36.3151 64.5088 37.7872C63.9704 38.6773 63.7538 39.3401 63.6264 40.4796C63.5951 40.7498 63.5926 41.3863 63.5809 48.8503L63.5471 57.1542C63.4246 58.3867 63.213 59.2027 62.8044 60.0089C62.5282 60.5523 62.2205 60.9664 61.7375 61.4351C61.4034 61.7579 61.2447 61.8896 60.9229 62.1053C60.3722 62.4759 59.7139 62.7228 58.9903 62.8257C58.5338 62.89 58.1997 62.9023 56.5581 62.8998C55.2697 62.8998 54.943 62.8949 54.8876 62.8735V62.871ZM33.2518 53.3113C31.2619 53.2182 29.5576 52.9021 27.7622 52.2992C24.2889 51.1316 21.2488 49.0138 18.8646 46.1039C16.7449 43.5194 15.3673 40.4949 14.8314 37.2616C14.6536 36.1773 14.5865 35.3374 14.5865 34.1771C14.5865 33.2128 14.6253 32.6192 14.7379 31.7218C15.2116 28.0057 16.7615 24.4305 19.1267 21.5923C19.9571 20.6031 20.8847 19.6989 21.8955 18.8932C26.6424 15.1048 32.9324 13.7675 38.8613 15.2818C43.0095 16.3416 46.6871 18.7467 49.3402 22.1375C51.5791 25.0029 52.9597 28.4396 53.3229 32.052C53.3974 32.7889 53.4097 33.0615 53.4097 33.9976C53.4097 34.9337 53.3974 35.2063 53.3229 35.9457C53.0254 38.8988 52.0474 41.7436 50.4649 44.2588C49.1904 46.275 47.5564 48.0422 45.6436 49.4733C42.271 51.9916 38.1639 53.3428 33.9483 53.3211L33.2518 53.3113ZM34.6121 43.6364C36.5443 43.5178 38.3966 42.8258 39.9301 41.6495C41.4636 40.4732 42.6082 38.8666 43.2163 37.0367C43.7951 35.2992 43.8659 33.4336 43.4205 31.6574C42.8459 29.3363 41.392 27.2877 39.3609 25.943C37.775 24.8999 35.9167 24.3425 34.0159 24.3398C31.9828 24.3383 30.0007 24.9731 28.3497 26.1544C26.6987 27.3357 25.4624 29.0038 24.8156 30.9229C24.4719 31.9116 24.3028 32.9521 24.316 33.9982C24.316 34.8908 24.3954 35.5395 24.607 36.377C25.2943 39.1 27.1789 41.4144 29.7194 42.6611C30.9118 43.2449 32.1227 43.561 33.4979 43.6443C33.8696 43.6585 34.2418 43.6561 34.6134 43.637L34.6121 43.6364Z" fill="#BFBFC2"/>
<path d="M33.3892 52.6949L31.756 52.5672C28.3174 52.1559 25.0623 50.7911 22.3584 48.627C21.3331 47.8056 20.3934 46.8827 19.5534 45.8725C17.1429 42.979 15.7092 39.5402 15.3731 35.8531C15.2757 34.7369 15.2757 33.6143 15.3731 32.4981C15.7092 28.7599 17.1571 25.1423 19.4792 22.2417C21.1735 20.1408 23.3024 18.4317 25.7197 17.2317C28.7609 15.7326 32.1515 15.0864 35.5307 15.3617C40.7646 15.7865 45.5406 18.3711 48.782 22.5292C50.0975 24.2177 51.11 26.1217 51.7746 28.1564C52.2735 29.6789 52.5544 31.1313 52.6773 32.8343C52.7076 33.268 52.7076 34.7346 52.6773 35.1688C52.5544 36.8719 52.2735 38.3314 51.7746 39.8468C50.8686 42.6192 49.3212 45.1387 47.2581 47.2002C45.1748 49.2864 42.7114 50.8178 39.9462 51.7415C38.4349 52.245 36.8658 52.5545 35.2765 52.6628C34.9101 52.6883 33.676 52.7091 33.3904 52.6955L33.3892 52.6949ZM34.9018 43.3693C35.2412 43.3322 35.5787 43.2795 35.9132 43.2113C37.5008 42.8829 38.9766 42.1498 40.1975 41.083C41.4185 40.0163 42.3431 38.652 42.8818 37.1226C43.1556 36.3398 43.3263 35.5247 43.3896 34.6978C43.4127 34.3936 43.4127 33.6095 43.3896 33.3078C43.2459 31.4889 42.6146 29.8018 41.5337 28.3607C40.8993 27.5162 40.1276 26.7843 39.2508 26.1955C38.9007 25.9533 38.5314 25.74 38.1468 25.5576C37.155 25.0692 36.0845 24.7605 34.9849 24.6457C34.4541 24.6031 33.9212 24.5929 33.3892 24.6154C30.0094 24.8566 27.0744 26.8199 25.5849 29.8339C24.9398 31.1283 24.6053 32.5553 24.608 34.0016C24.608 35.8395 25.1437 37.6281 26.1551 39.1737C26.5016 39.6942 26.8978 40.1798 27.3381 40.6237C28.9433 42.2413 31.0107 43.1947 33.3143 43.3848C33.5721 43.4056 34.6625 43.3943 34.9012 43.3687L34.9018 43.3693Z" fill="#0F82C2"/>
</svg>
