<svg width="68" height="68" viewBox="0 0 68 68" fill="none" xmlns="http://www.w3.org/2000/svg">
<rect width="68" height="68" rx="34" fill="#322D40"/>
<path d="M49 52V47.5556C49 45.1981 48.0668 42.9372 46.4058 41.2702C44.7448 39.6032 42.4919 38.6667 40.1429 38.6667H26.8571C24.5081 38.6667 22.2552 39.6032 20.5942 41.2702C18.9332 42.9372 18 45.1981 18 47.5556V52" fill="#D1CAE5"/>
<path d="M33.5 29.7778C38.3917 29.7778 42.3571 25.7981 42.3571 20.8889C42.3571 15.9797 38.3917 12 33.5 12C28.6083 12 24.6429 15.9797 24.6429 20.8889C24.6429 25.7981 28.6083 29.7778 33.5 29.7778Z" fill="#D1CAE5"/>
<path d="M49 52V47.5556C49 45.1981 48.0668 42.9372 46.4058 41.2702C44.7448 39.6032 42.4919 38.6667 40.1429 38.6667H26.8571C24.5081 38.6667 22.2552 39.6032 20.5942 41.2702C18.9332 42.9372 18 45.1981 18 47.5556V52M42.3571 20.8889C42.3571 25.7981 38.3917 29.7778 33.5 29.7778C28.6083 29.7778 24.6429 25.7981 24.6429 20.8889C24.6429 15.9797 28.6083 12 33.5 12C38.3917 12 42.3571 15.9797 42.3571 20.8889Z" stroke="#D1CAE5" stroke-width="2" stroke-linecap="round" stroke-linejoin="round"/>
</svg>
