<svg width="56" height="57" viewBox="0 0 56 57" fill="none" xmlns="http://www.w3.org/2000/svg">
<g clip-path="url(#clip0_654_22353)">
<path d="M56 28.5001C56 43.964 43.464 56.5001 28 56.5001C12.536 56.5001 0 43.964 0 28.5001C0 13.0361 12.536 0.500061 28 0.500061C43.464 0.500061 56 13.0361 56 28.5001ZM4.48 28.5001C4.48 41.4898 15.0103 52.0201 28 52.0201C40.9897 52.0201 51.52 41.4898 51.52 28.5001C51.52 15.5103 40.9897 4.98006 28 4.98006C15.0103 4.98006 4.48 15.5103 4.48 28.5001Z" fill="#EEEEEE"/>
<path d="M56 28.5001C56 43.964 43.464 56.5001 28 56.5001C12.536 56.5001 0 43.964 0 28.5001C0 13.0361 12.536 0.500061 28 0.500061C43.464 0.500061 56 13.0361 56 28.5001ZM4.48 28.5001C4.48 41.4898 15.0103 52.0201 28 52.0201C40.9897 52.0201 51.52 41.4898 51.52 28.5001C51.52 15.5103 40.9897 4.98006 28 4.98006C15.0103 4.98006 4.48 15.5103 4.48 28.5001Z" fill="#65CC01"/>
<path d="M37 23.5001L26 34.5001L21 29.5001" stroke="#65CC01" stroke-width="3.5" stroke-linecap="round" stroke-linejoin="round"/>
</g>
<defs>
<clipPath id="clip0_654_22353">
<rect width="56" height="56" fill="white" transform="translate(0 0.500061)"/>
</clipPath>
</defs>
</svg>
