<svg width="36" height="36" viewBox="0 0 36 36" fill="none" xmlns="http://www.w3.org/2000/svg">
<path d="M19.7197 23.9833C19.1415 24.4892 18.5557 24.9475 18 25.3511C17.4443 24.9475 16.8585 24.4892 16.2803 23.9833C13.6687 21.6981 12.5 19.5982 12.5 18V12.0045L18 9.942L23.5 12.0045V18C23.5 19.5982 22.3313 21.6981 19.7197 23.9833Z" stroke="#9975FF" stroke-width="13" stroke-linecap="round" stroke-linejoin="round"/>
<path d="M24 23L21.1 20.1M22.6667 16.3333C22.6667 19.2789 20.2789 21.6667 17.3333 21.6667C14.3878 21.6667 12 19.2789 12 16.3333C12 13.3878 14.3878 11 17.3333 11C20.2789 11 22.6667 13.3878 22.6667 16.3333Z" stroke="#1A161E" stroke-width="2" stroke-linecap="round" stroke-linejoin="round"/>
</svg>
