<svg width="36" height="36" viewBox="0 0 36 36" fill="none" xmlns="http://www.w3.org/2000/svg">
<path fill-rule="evenodd" clip-rule="evenodd" d="M29.0493 18C29.0493 17.3906 28.9922 16.768 28.8764 16.1454L32 13.4887L29.0359 8.51789L25.0948 9.80754C24.0995 8.99718 22.9649 8.35811 21.7681 7.93482L20.9558 4H15.0442L14.2319 7.93318C13.0217 8.35811 11.9072 8.9873 10.9035 9.80589L6.96417 8.51789L4 13.4887L7.12361 16.1454C7.00778 16.768 6.95072 17.3906 6.95072 18C6.95072 18.6094 7.00778 19.232 7.1236 19.8546L4 22.5113L6.96415 27.4821L10.9052 26.1925C11.9005 27.0028 13.0351 27.6419 14.2319 28.0652L15.0442 32H20.9557L21.7681 28.0668C22.9766 27.6419 24.0928 27.0127 25.0965 26.1941L29.0358 27.4838L32 22.5129L28.8764 19.8562C28.9922 19.232 29.0493 18.6094 29.0493 18M18 23.7647C14.7606 23.7647 12.1254 21.1788 12.1254 18C12.1254 14.8212 14.7606 12.2353 18 12.2353C21.2394 12.2353 23.8746 14.8212 23.8746 18C23.8746 21.1788 21.2394 23.7647 18 23.7647Z" fill="#9975FF"/>
</svg>
