<svg width="96" height="96" viewBox="0 0 96 96" fill="none" xmlns="http://www.w3.org/2000/svg">
<path d="M87.222 40.166H84V40H48V56H70.606C67.308 65.314 58.446 72 48 72C34.746 72 24 61.254 24 48C24 34.746 34.746 24 48 24C54.118 24 59.684 26.308 63.922 30.078L75.236 18.764C68.092 12.106 58.536 8 48 8C25.91 8 8 25.91 8 48C8 70.09 25.91 88 48 88C70.09 88 88 70.09 88 48C88 45.318 87.724 42.7 87.222 40.166Z" fill="#FFC107"/>
<path d="M12.6121 29.382L25.7541 39.02C29.3101 30.216 37.9221 24 48.0001 24C54.1181 24 59.6841 26.308 63.9221 30.078L75.2361 18.764C68.0921 12.106 58.5361 8 48.0001 8C32.6361 8 19.3121 16.674 12.6121 29.382Z" fill="#FF3D00"/>
<path d="M47.9999 88.0004C58.3319 88.0004 67.7199 84.0464 74.8179 77.6164L62.4379 67.1404C58.287 70.2972 53.2148 72.0045 47.9999 72.0004C37.5959 72.0004 28.7619 65.3664 25.4339 56.1084L12.3899 66.1584C19.0099 79.1124 32.4539 88.0004 47.9999 88.0004Z" fill="#4CAF50"/>
<path d="M87.222 40.166H84V40H48V56H70.606C69.0284 60.4328 66.1867 64.3064 62.432 67.142L62.438 67.138L74.818 77.614C73.942 78.41 88 68 88 48C88 45.318 87.724 42.7 87.222 40.166Z" fill="#1976D2"/>
</svg>
