<svg width="68" height="68" viewBox="0 0 68 68" fill="none" xmlns="http://www.w3.org/2000/svg">
<rect width="68" height="68" rx="34" fill="#322D40"/>
<path fill-rule="evenodd" clip-rule="evenodd" d="M20.36 30.4828L14.9808 27.8156C14.8363 27.744 14.7148 27.6338 14.6299 27.4974C14.545 27.361 14.5 27.2038 14.5 27.0434C14.5 26.883 14.545 26.7258 14.6299 26.5894C14.7148 26.453 14.8363 26.3428 14.9808 26.2712L33.3967 17.141C33.5839 17.0483 33.7903 17 33.9996 17C34.2088 17 34.4152 17.0483 34.6025 17.141L53.0192 26.2717C53.1637 26.3433 53.2852 26.4534 53.3701 26.5898C53.455 26.7262 53.5 26.8834 53.5 27.0438C53.5 27.2042 53.455 27.3614 53.3701 27.4978C53.2852 27.6342 53.1637 27.7444 53.0192 27.816L34.6028 36.9465C34.4156 37.0393 34.2092 37.0876 33.9999 37.0876C33.7907 37.0876 33.5843 37.0393 33.397 36.9465L25.1669 32.8664C25.107 32.8366 25.0567 32.7908 25.0215 32.7342C24.9863 32.6775 24.9677 32.6123 24.9677 32.5457C24.9677 32.4792 24.9863 32.4139 25.0215 32.3573C25.0567 32.3007 25.107 32.2549 25.1669 32.2251L34.3209 27.6862C34.4888 27.5996 34.6159 27.4509 34.6746 27.2721C34.7333 27.0934 34.7191 26.8989 34.6349 26.7304C34.5507 26.562 34.4033 26.4332 34.2245 26.3716C34.0457 26.3101 33.8497 26.3208 33.6787 26.4014L23.8103 31.294C23.5969 31.3997 23.4133 31.5564 23.2758 31.7499C23.1383 31.9434 23.0512 32.1677 23.0224 32.4028C22.9635 32.8804 21.8816 41.4262 21.8816 41.4262C22.251 41.8424 22.4424 42.3854 22.4152 42.9397C22.3879 43.4939 22.144 44.0158 21.7354 44.3941L22.4172 48.6777C22.4404 48.8271 22.4159 48.98 22.3473 49.115C22.2787 49.25 22.1693 49.3603 22.0346 49.4306C21.2301 49.8923 20.2961 50.081 19.374 49.9681C18.4519 49.8553 17.5919 49.447 16.9242 48.8051C16.8102 48.7045 16.7306 48.5711 16.6966 48.4234C16.6626 48.2757 16.6758 48.1211 16.7345 47.9813L18.4381 43.9809C18.1371 43.516 18.0298 42.9531 18.1389 42.4111C18.2479 41.8691 18.5647 41.3904 19.0224 41.0761L20.36 30.4828ZM32.7519 38.203C33.1389 38.3948 33.5654 38.4947 33.9979 38.4946C34.4304 38.4945 34.857 38.3945 35.2439 38.2024L45.0276 33.3625C45.0794 33.3368 45.1366 33.3238 45.1945 33.3248C45.2524 33.3257 45.3093 33.3405 45.3602 33.3679C45.4111 33.3953 45.4546 33.4345 45.487 33.4822C45.5195 33.5299 45.5398 33.5846 45.5464 33.6418C45.8813 36.5323 46.2376 39.5872 46.2641 39.7273C46.2903 39.859 46.2787 39.9954 46.2305 40.1208C46.1823 40.2462 46.0996 40.3556 45.9917 40.4364C42.4482 42.8186 38.2916 44.1416 34.0145 44.2484C30.4403 44.1496 26.9394 43.2191 23.7929 41.5317C23.6673 41.462 23.5657 41.3565 23.5011 41.2288C23.4364 41.1011 23.4118 40.9571 23.4303 40.8154L24.2097 34.5106C24.2168 34.4538 24.2375 34.3994 24.2701 34.3521C24.3027 34.3049 24.3462 34.266 24.397 34.2389C24.4478 34.2118 24.5044 34.1971 24.5621 34.1962C24.6197 34.1953 24.6768 34.2081 24.7284 34.2336L32.7519 38.203Z" fill="#D1CAE5"/>
</svg>
