<svg width="36" height="36" viewBox="0 0 36 36" fill="none" xmlns="http://www.w3.org/2000/svg">
<path d="M18 31.5C15.33 31.5 12.7199 30.7082 10.4998 29.2248C8.27975 27.7414 6.54942 25.633 5.52763 23.1662C4.50585 20.6994 4.2385 17.985 4.7594 15.3663C5.28031 12.7475 6.56606 10.3421 8.45406 8.45406C10.3421 6.56606 12.7475 5.28031 15.3663 4.7594C17.985 4.2385 20.6994 4.50585 23.1662 5.52763C25.633 6.54942 27.7414 8.27975 29.2248 10.4998C30.7082 12.7199 31.5 15.33 31.5 18C31.5 21.5804 30.0777 25.0142 27.5459 27.5459C25.0142 30.0777 21.5804 31.5 18 31.5ZM10.6875 24.75C10.6875 25.0484 10.806 25.3345 11.017 25.5455C11.228 25.7565 11.5141 25.875 11.8125 25.875H24.1875C24.4859 25.875 24.772 25.7565 24.983 25.5455C25.194 25.3345 25.3125 25.0484 25.3125 24.75V23.625C25.3125 23.3266 25.194 23.0405 24.983 22.8295C24.772 22.6185 24.4859 22.5 24.1875 22.5H11.8125C11.5141 22.5 11.228 22.6185 11.017 22.8295C10.806 23.0405 10.6875 23.3266 10.6875 23.625V24.75ZM18 6.75001C15.0163 6.75001 12.1548 7.93527 10.0451 10.0451C7.93527 12.1548 6.75001 15.0163 6.75001 18V18.0113C6.75613 18.3108 6.88026 18.5959 7.09541 18.8045C7.31056 19.013 7.59934 19.1282 7.89897 19.125H15.5428L14.0853 10.5941C14.0456 10.3907 14.0797 10.1797 14.1814 9.99911C14.2831 9.8185 14.4459 9.68004 14.6405 9.60857C14.8348 9.54491 15.0456 9.55436 15.2334 9.63514C15.4212 9.71593 15.5731 9.8625 15.6605 10.0473L19.9382 19.125H28.101C28.4006 19.1282 28.6894 19.0129 28.9045 18.8044C29.1197 18.5958 29.2438 18.3108 29.25 18.0113V18C29.25 15.0163 28.0647 12.1548 25.955 10.0451C23.8452 7.93527 20.9837 6.75001 18 6.75001Z" fill="#9975FF"/>
</svg>
