<svg width="69" height="68" viewBox="0 0 69 68" fill="none" xmlns="http://www.w3.org/2000/svg">
<rect x="0.5" width="68" height="68" rx="34" fill="#322D40"/>
<g clip-path="url(#clip0_1522_6501)">
<path d="M40.7291 30.4683C40.8368 31.5233 40.8984 32.5444 40.8984 33.5001C40.8984 35.2891 40.6823 37.3092 40.3515 39.3516C38.3091 39.6824 36.2889 39.8986 34.5 39.8986C32.7191 39.8986 30.6996 39.6829 28.6483 39.3511C28.3178 37.3086 28.1016 35.2889 28.1016 33.5001C28.1016 32.5448 28.1632 31.5235 28.271 30.4683C30.4239 30.8129 32.5716 31.0392 34.5 31.0392C36.4286 31.0392 38.5763 30.8129 40.7291 30.4683Z" fill="#D1CAE5"/>
<path d="M43.641 29.9361C43.7741 31.1708 43.8516 32.3729 43.8516 33.4998C43.8516 35.1439 43.6869 36.9477 43.4248 38.7785C47.1422 38.0028 50.5781 37.0118 52.4188 36.4476C53.0136 36.2654 53.2474 36.1928 53.5609 36.0674C53.7176 36.0048 53.8612 35.941 54.0486 35.8516C54.1402 35.0804 54.1875 34.2955 54.1875 33.4998C54.1875 31.396 53.8575 29.3694 53.2466 27.4688L53.0874 27.5188C51.1627 28.1044 47.5597 29.1394 43.641 29.9361Z" fill="#D1CAE5"/>
<path d="M52.1282 24.724C50.1933 25.3104 46.8356 26.2632 43.2373 27.0051C42.4083 21.9674 40.9556 16.9428 40.2566 14.6675C45.4541 16.2543 49.7387 19.9338 52.1282 24.724Z" fill="#D1CAE5"/>
<path d="M40.3344 27.5418C38.2974 27.8709 36.2837 28.0859 34.5 28.0859C32.7163 28.0859 30.7027 27.8709 28.6658 27.5418C29.4463 22.7751 30.8396 17.9057 31.5521 15.5812C31.7343 14.9864 31.8069 14.7527 31.9323 14.4391C31.995 14.2824 32.0587 14.1387 32.1482 13.9515C32.9193 13.8597 33.7042 13.8125 34.5 13.8125C35.3313 13.8125 36.1505 13.864 36.9549 13.9641C36.972 14.0293 36.9877 14.0877 37.0033 14.143C37.0494 14.3062 37.1216 14.5357 37.2427 14.9207L37.2555 14.9611C37.8628 16.8917 39.4723 22.2763 40.3344 27.5418Z" fill="#D1CAE5"/>
<path d="M25.7625 27.005C26.5876 21.9895 28.0309 16.9921 28.7285 14.7159L28.7434 14.6675C23.5457 16.2543 19.2612 19.9338 16.8718 24.724C18.8065 25.3104 22.1642 26.2632 25.7625 27.005Z" fill="#D1CAE5"/>
<path d="M15.7535 27.4688C15.1425 29.3694 14.8125 31.396 14.8125 33.4998C14.8125 34.3227 14.863 35.1338 14.9611 35.9303L15.2713 36.0338L15.2738 36.0346L15.2768 36.0357L15.279 36.0363C15.3788 36.0695 18.3057 37.036 22.1602 37.9951C23.2479 38.2657 24.3995 38.533 25.5751 38.7781C25.313 36.9475 25.1484 35.144 25.1484 33.4998C25.1484 32.3725 25.2258 31.1705 25.3589 29.9362C21.4393 29.1392 17.8353 28.1038 15.9112 27.5183L15.8978 27.5142L15.7535 27.4688Z" fill="#D1CAE5"/>
<path d="M34.5 42.8516C36.1442 42.8516 37.9479 42.6869 39.7787 42.4248C39.003 46.1422 38.012 49.5781 37.4478 51.4186C37.2656 52.0136 37.193 52.2472 37.0676 52.5609C37.005 52.7176 36.9412 52.8612 36.8518 53.0486C36.0806 53.1402 35.2957 53.1875 34.5 53.1875C33.7042 53.1875 32.9193 53.1402 32.1482 53.0486C32.0587 52.8612 31.995 52.7176 31.9323 52.5609C31.8069 52.2474 31.7343 52.0136 31.5521 51.4188C30.9879 49.5783 29.9971 46.1426 29.2214 42.4256C31.046 42.6867 32.8502 42.8516 34.5 42.8516Z" fill="#D1CAE5"/>
<path d="M21.4472 40.8613C19.0098 40.2547 16.9338 39.6455 15.6675 39.2568C17.5736 45.5006 22.4997 50.4266 28.7435 52.3327L28.7286 52.2843C28.1195 50.2968 26.9419 46.2346 26.1036 41.8972C24.4735 41.582 22.8886 41.2198 21.4472 40.8613Z" fill="#D1CAE5"/>
<path d="M53.2841 39.2716C51.2966 39.8808 47.234 41.0585 42.8964 41.8966C42.0583 46.2343 40.8806 50.2966 40.2714 52.2843L40.2566 52.3327C46.5003 50.4266 51.4263 45.5006 53.3325 39.2568L53.2841 39.2716Z" fill="#D1CAE5"/>
<path d="M15.0193 35.9805C15.0874 35.9893 15.143 35.9987 15.1614 36.0028C15.1776 36.0067 15.2029 36.0135 15.212 36.0159L15.2323 36.0217L15.2432 36.0251L15.2547 36.0287L15.2643 36.0317C15.2589 36.03 15.1495 36.0026 15.0193 35.9805Z" fill="#D1CAE5"/>
</g>
<defs>
<clipPath id="clip0_1522_6501">
<rect width="45" height="45" fill="white" transform="translate(12 11)"/>
</clipPath>
</defs>
</svg>
